version 1
nodes
0 "root" -1
1 "draw1_1efc_ring29" 0
end
skeleton
time 0
0 0.000000 0.000000 0.000000 0.000000 -0.000000 0.000000
1 0.000000 0.000000 0.000000 0.000000 -0.000000 0.000000
end
triangles
1efc_ring29_mesh1
1 0.000000 6.613227 50.000000 0.000000 -0.402344 0.915039 0.000000 0.000000 1 1 1.000000
1 -4.900867 6.613227 49.759235 -0.089722 -0.402344 0.910645 0.015625 0.000000 1 1 1.000000
1 0.000000 -0.562186 46.845230 0.000000 -0.546387 0.837402 0.000000 0.500000 1 1 1.000000
1efc_ring29_mesh1
1 -4.900867 6.613227 49.759235 -0.089722 -0.402344 0.910645 0.015625 0.000000 1 1 1.000000
1 -4.591645 -0.562186 46.619656 -0.082031 -0.546387 0.833008 0.015625 0.500000 1 1 1.000000
1 0.000000 -0.562186 46.845230 0.000000 -0.546387 0.837402 0.000000 0.500000 1 1 1.000000
1efc_ring29_mesh1
1 0.000000 -0.562186 46.845230 0.000000 -0.546387 0.837402 0.000000 0.500000 1 1 1.000000
1 -4.591645 -0.562186 46.619656 -0.082031 -0.546387 0.833008 0.015625 0.500000 1 1 1.000000
1 -3.939401 -7.737599 39.997307 -0.071838 -0.679688 0.729492 0.015625 1.000000 1 1 1.000000
1efc_ring29_mesh1
1 -4.591645 -0.562186 46.619656 -0.082031 -0.546387 0.833008 0.015625 0.500000 1 1 1.000000
1 -7.840857 -7.737599 39.418575 -0.142944 -0.679688 0.718750 0.031250 1.000000 1 1 1.000000
1 -3.939401 -7.737599 39.997307 -0.071838 -0.679688 0.729492 0.015625 1.000000 1 1 1.000000
1efc_ring29_mesh1
1 -4.900867 6.613227 49.759235 -0.089722 -0.402344 0.910645 0.015625 0.000000 1 1 1.000000
1 -9.754528 6.613227 49.039260 -0.178589 -0.402344 0.897461 0.031250 0.000000 1 1 1.000000
1 -4.591645 -0.562186 46.619656 -0.082031 -0.546387 0.833008 0.015625 0.500000 1 1 1.000000
1efc_ring29_mesh1
1 -9.754528 6.613227 49.039260 -0.178589 -0.402344 0.897461 0.031250 0.000000 1 1 1.000000
1 -9.139063 -0.562186 45.945107 -0.163330 -0.546387 0.821289 0.031250 0.500000 1 1 1.000000
1 -4.591645 -0.562186 46.619656 -0.082031 -0.546387 0.833008 0.015625 0.500000 1 1 1.000000
1efc_ring29_mesh1
1 -4.591645 -0.562186 46.619656 -0.082031 -0.546387 0.833008 0.015625 0.500000 1 1 1.000000
1 -9.139063 -0.562186 45.945107 -0.163330 -0.546387 0.821289 0.031250 0.500000 1 1 1.000000
1 -7.840857 -7.737599 39.418575 -0.142944 -0.679688 0.718750 0.031250 1.000000 1 1 1.000000
1efc_ring29_mesh1
1 -9.139063 -0.562186 45.945107 -0.163330 -0.546387 0.821289 0.031250 0.500000 1 1 1.000000
1 -11.666799 -7.737599 38.460230 -0.212769 -0.679688 0.701172 0.046875 1.000000 1 1 1.000000
1 -7.840857 -7.737599 39.418575 -0.142944 -0.679688 0.718750 0.031250 1.000000 1 1 1.000000
1efc_ring29_mesh1
1 -9.754528 6.613227 49.039260 -0.178589 -0.402344 0.897461 0.031250 0.000000 1 1 1.000000
1 -14.514247 6.613227 47.847010 -0.265625 -0.402344 0.875977 0.046875 0.000000 1 1 1.000000
1 -9.139063 -0.562186 45.945107 -0.163330 -0.546387 0.821289 0.031250 0.500000 1 1 1.000000
1efc_ring29_mesh1
1 -14.514247 6.613227 47.847010 -0.265625 -0.402344 0.875977 0.046875 0.000000 1 1 1.000000
1 -13.598465 -0.562186 44.828087 -0.243042 -0.546387 0.801270 0.046875 0.500000 1 1 1.000000
1 -9.139063 -0.562186 45.945107 -0.163330 -0.546387 0.821289 0.031250 0.500000 1 1 1.000000
1efc_ring29_mesh1
1 -9.139063 -0.562186 45.945107 -0.163330 -0.546387 0.821289 0.031250 0.500000 1 1 1.000000
1 -13.598465 -0.562186 44.828087 -0.243042 -0.546387 0.801270 0.046875 0.500000 1 1 1.000000
1 -11.666799 -7.737599 38.460230 -0.212769 -0.679688 0.701172 0.046875 1.000000 1 1 1.000000
1efc_ring29_mesh1
1 -13.598465 -0.562186 44.828087 -0.243042 -0.546387 0.801270 0.046875 0.500000 1 1 1.000000
1 -15.380384 -7.737597 37.131490 -0.280518 -0.679688 0.677246 0.062500 1.000000 1 1 1.000000
1 -11.666799 -7.737599 38.460230 -0.212769 -0.679688 0.701172 0.046875 1.000000 1 1 1.000000
1efc_ring29_mesh1
1 -14.514247 6.613227 47.847010 -0.265625 -0.402344 0.875977 0.046875 0.000000 1 1 1.000000
1 -19.134186 6.613227 46.193970 -0.350098 -0.402344 0.845703 0.062500 0.000000 1 1 1.000000
1 -13.598465 -0.562186 44.828087 -0.243042 -0.546387 0.801270 0.046875 0.500000 1 1 1.000000
1efc_ring29_mesh1
1 -19.134186 6.613227 46.193970 -0.350098 -0.402344 0.845703 0.062500 0.000000 1 1 1.000000
1 -17.926907 -0.562185 43.279343 -0.320312 -0.546387 0.773438 0.062500 0.500000 1 1 1.000000
1 -13.598465 -0.562186 44.828087 -0.243042 -0.546387 0.801270 0.046875 0.500000 1 1 1.000000
1efc_ring29_mesh1
1 -13.598465 -0.562186 44.828087 -0.243042 -0.546387 0.801270 0.046875 0.500000 1 1 1.000000
1 -17.926907 -0.562185 43.279343 -0.320312 -0.546387 0.773438 0.062500 0.500000 1 1 1.000000
1 -15.380384 -7.737597 37.131490 -0.280518 -0.679688 0.677246 0.062500 1.000000 1 1 1.000000
1efc_ring29_mesh1
1 -17.926907 -0.562185 43.279343 -0.320312 -0.546387 0.773438 0.062500 0.500000 1 1 1.000000
1 -18.945847 -7.737596 35.445150 -0.345459 -0.679688 0.646484 0.078125 1.000000 1 1 1.000000
1 -15.380384 -7.737597 37.131490 -0.280518 -0.679688 0.677246 0.062500 1.000000 1 1 1.000000
1efc_ring29_mesh1
1 -19.134186 6.613227 46.193970 -0.350098 -0.402344 0.845703 0.062500 0.000000 1 1 1.000000
1 -23.569853 6.613227 44.096054 -0.431396 -0.402344 0.807129 0.078125 0.000000 1 1 1.000000
1 -17.926907 -0.562185 43.279343 -0.320312 -0.546387 0.773438 0.062500 0.500000 1 1 1.000000
1efc_ring29_mesh1
1 -23.569853 6.613227 44.096054 -0.431396 -0.402344 0.807129 0.078125 0.000000 1 1 1.000000
1 -22.082705 -0.562185 41.313797 -0.394775 -0.546387 0.738281 0.078125 0.500000 1 1 1.000000
1 -17.926907 -0.562185 43.279343 -0.320312 -0.546387 0.773438 0.062500 0.500000 1 1 1.000000
1efc_ring29_mesh1
1 -17.926907 -0.562185 43.279343 -0.320312 -0.546387 0.773438 0.062500 0.500000 1 1 1.000000
1 -22.082705 -0.562185 41.313797 -0.394775 -0.546387 0.738281 0.078125 0.500000 1 1 1.000000
1 -18.945847 -7.737596 35.445150 -0.345459 -0.679688 0.646484 0.078125 1.000000 1 1 1.000000
1efc_ring29_mesh1
1 -22.082705 -0.562185 41.313797 -0.394775 -0.546387 0.738281 0.078125 0.500000 1 1 1.000000
1 -22.328850 -7.737595 33.417454 -0.407227 -0.679688 0.609375 0.093750 1.000000 1 1 1.000000
1 -18.945847 -7.737596 35.445150 -0.345459 -0.679688 0.646484 0.078125 1.000000 1 1 1.000000
1efc_ring29_mesh1
1 -23.569853 6.613227 44.096054 -0.431396 -0.402344 0.807129 0.078125 0.000000 1 1 1.000000
1 -27.778528 6.613227 41.573470 -0.508301 -0.402344 0.760742 0.093750 0.000000 1 1 1.000000
1 -22.082705 -0.562185 41.313797 -0.394775 -0.546387 0.738281 0.078125 0.500000 1 1 1.000000
1efc_ring29_mesh1
1 -27.778528 6.613227 41.573470 -0.508301 -0.402344 0.760742 0.093750 0.000000 1 1 1.000000
1 -26.025831 -0.562184 38.950380 -0.465088 -0.546387 0.696289 0.093750 0.500000 1 1 1.000000
1 -22.082705 -0.562185 41.313797 -0.394775 -0.546387 0.738281 0.078125 0.500000 1 1 1.000000
1efc_ring29_mesh1
1 -22.082705 -0.562185 41.313797 -0.394775 -0.546387 0.738281 0.078125 0.500000 1 1 1.000000
1 -26.025831 -0.562184 38.950380 -0.465088 -0.546387 0.696289 0.093750 0.500000 1 1 1.000000
1 -22.328850 -7.737595 33.417454 -0.407227 -0.679688 0.609375 0.093750 1.000000 1 1 1.000000
1efc_ring29_mesh1
1 -26.025831 -0.562184 38.950380 -0.465088 -0.546387 0.696289 0.093750 0.500000 1 1 1.000000
1 -25.496815 -7.737595 31.067928 -0.465088 -0.679688 0.566406 0.109375 1.000000 1 1 1.000000
1 -22.328850 -7.737595 33.417454 -0.407227 -0.679688 0.609375 0.093750 1.000000 1 1 1.000000
1efc_ring29_mesh1
1 -27.778528 6.613227 41.573470 -0.508301 -0.402344 0.760742 0.093750 0.000000 1 1 1.000000
1 -31.719680 6.613227 38.650510 -0.580566 -0.402344 0.707520 0.109375 0.000000 1 1 1.000000
1 -26.025831 -0.562184 38.950380 -0.465088 -0.546387 0.696289 0.093750 0.500000 1 1 1.000000
1efc_ring29_mesh1
1 -31.719680 6.613227 38.650510 -0.580566 -0.402344 0.707520 0.109375 0.000000 1 1 1.000000
1 -29.718315 -0.562184 36.211838 -0.531250 -0.546387 0.646973 0.109375 0.500000 1 1 1.000000
1 -26.025831 -0.562184 38.950380 -0.465088 -0.546387 0.696289 0.093750 0.500000 1 1 1.000000
1efc_ring29_mesh1
1 -26.025831 -0.562184 38.950380 -0.465088 -0.546387 0.696289 0.093750 0.500000 1 1 1.000000
1 -29.718315 -0.562184 36.211838 -0.531250 -0.546387 0.646973 0.109375 0.500000 1 1 1.000000
1 -25.496815 -7.737595 31.067928 -0.465088 -0.679688 0.566406 0.109375 1.000000 1 1 1.000000
1efc_ring29_mesh1
1 -29.718315 -0.562184 36.211838 -0.531250 -0.546387 0.646973 0.109375 0.500000 1 1 1.000000
1 -28.419231 -7.737599 28.419199 -0.518066 -0.679688 0.518066 0.125000 1.000000 1 1 1.000000
1 -25.496815 -7.737595 31.067928 -0.465088 -0.679688 0.566406 0.109375 1.000000 1 1 1.000000
1efc_ring29_mesh1
1 -31.719680 6.613227 38.650510 -0.580566 -0.402344 0.707520 0.109375 0.000000 1 1 1.000000
1 -35.355354 6.613228 35.355324 -0.646973 -0.402344 0.646973 0.125000 0.000000 1 1 1.000000
1 -29.718315 -0.562184 36.211838 -0.531250 -0.546387 0.646973 0.109375 0.500000 1 1 1.000000
1efc_ring29_mesh1
1 -35.355354 6.613228 35.355324 -0.646973 -0.402344 0.646973 0.125000 0.000000 1 1 1.000000
1 -33.124596 -0.562186 33.124565 -0.591797 -0.546387 0.591797 0.125000 0.500000 1 1 1.000000
1 -29.718315 -0.562184 36.211838 -0.531250 -0.546387 0.646973 0.109375 0.500000 1 1 1.000000
1efc_ring29_mesh1
1 -29.718315 -0.562184 36.211838 -0.531250 -0.546387 0.646973 0.109375 0.500000 1 1 1.000000
1 -33.124596 -0.562186 33.124565 -0.591797 -0.546387 0.591797 0.125000 0.500000 1 1 1.000000
1 -28.419231 -7.737599 28.419199 -0.518066 -0.679688 0.518066 0.125000 1.000000 1 1 1.000000
1efc_ring29_mesh1
1 -33.124596 -0.562186 33.124565 -0.591797 -0.546387 0.591797 0.125000 0.500000 1 1 1.000000
1 -31.067959 -7.737597 25.496780 -0.566406 -0.679688 0.465088 0.140625 1.000000 1 1 1.000000
1 -28.419231 -7.737599 28.419199 -0.518066 -0.679688 0.518066 0.125000 1.000000 1 1 1.000000
1efc_ring29_mesh1
1 -35.355354 6.613228 35.355324 -0.646973 -0.402344 0.646973 0.125000 0.000000 1 1 1.000000
1 -38.650540 6.613228 31.719645 -0.707520 -0.402344 0.580566 0.140625 0.000000 1 1 1.000000
1 -33.124596 -0.562186 33.124565 -0.591797 -0.546387 0.591797 0.125000 0.500000 1 1 1.000000
1efc_ring29_mesh1
1 -38.650540 6.613228 31.719645 -0.707520 -0.402344 0.580566 0.140625 0.000000 1 1 1.000000
1 -36.211870 -0.562185 29.718280 -0.646973 -0.546387 0.531250 0.140625 0.500000 1 1 1.000000
1 -33.124596 -0.562186 33.124565 -0.591797 -0.546387 0.591797 0.125000 0.500000 1 1 1.000000
1efc_ring29_mesh1
1 -33.124596 -0.562186 33.124565 -0.591797 -0.546387 0.591797 0.125000 0.500000 1 1 1.000000
1 -36.211870 -0.562185 29.718280 -0.646973 -0.546387 0.531250 0.140625 0.500000 1 1 1.000000
1 -31.067959 -7.737597 25.496780 -0.566406 -0.679688 0.465088 0.140625 1.000000 1 1 1.000000
1efc_ring29_mesh1
1 -36.211870 -0.562185 29.718280 -0.646973 -0.546387 0.531250 0.140625 0.500000 1 1 1.000000
1 -33.417484 -7.737595 22.328810 -0.609375 -0.679688 0.407227 0.156250 1.000000 1 1 1.000000
1 -31.067959 -7.737597 25.496780 -0.566406 -0.679688 0.465088 0.140625 1.000000 1 1 1.000000
1efc_ring29_mesh1
1 -38.650540 6.613228 31.719645 -0.707520 -0.402344 0.580566 0.140625 0.000000 1 1 1.000000
1 -41.573498 6.613228 27.778488 -0.760742 -0.402344 0.508301 0.156250 0.000000 1 1 1.000000
1 -36.211870 -0.562185 29.718280 -0.646973 -0.546387 0.531250 0.140625 0.500000 1 1 1.000000
1efc_ring29_mesh1
1 -41.573498 6.613228 27.778488 -0.760742 -0.402344 0.508301 0.156250 0.000000 1 1 1.000000
1 -38.950405 -0.562184 26.025791 -0.696289 -0.546387 0.465088 0.156250 0.500000 1 1 1.000000
1 -36.211870 -0.562185 29.718280 -0.646973 -0.546387 0.531250 0.140625 0.500000 1 1 1.000000
1efc_ring29_mesh1
1 -36.211870 -0.562185 29.718280 -0.646973 -0.546387 0.531250 0.140625 0.500000 1 1 1.000000
1 -38.950405 -0.562184 26.025791 -0.696289 -0.546387 0.465088 0.156250 0.500000 1 1 1.000000
1 -33.417484 -7.737595 22.328810 -0.609375 -0.679688 0.407227 0.156250 1.000000 1 1 1.000000
1efc_ring29_mesh1
1 -38.950405 -0.562184 26.025791 -0.696289 -0.546387 0.465088 0.156250 0.500000 1 1 1.000000
1 -35.445175 -7.737595 18.945803 -0.646484 -0.679688 0.345459 0.171875 1.000000 1 1 1.000000
1 -33.417484 -7.737595 22.328810 -0.609375 -0.679688 0.407227 0.156250 1.000000 1 1 1.000000
1efc_ring29_mesh1
1 -41.573498 6.613228 27.778488 -0.760742 -0.402344 0.508301 0.156250 0.000000 1 1 1.000000
1 -44.096077 6.613229 23.569810 -0.807129 -0.402344 0.431396 0.171875 0.000000 1 1 1.000000
1 -38.950405 -0.562184 26.025791 -0.696289 -0.546387 0.465088 0.156250 0.500000 1 1 1.000000
1efc_ring29_mesh1
1 -44.096077 6.613229 23.569810 -0.807129 -0.402344 0.431396 0.171875 0.000000 1 1 1.000000
1 -41.313820 -0.562183 22.082660 -0.738281 -0.546387 0.394775 0.171875 0.500000 1 1 1.000000
1 -38.950405 -0.562184 26.025791 -0.696289 -0.546387 0.465088 0.156250 0.500000 1 1 1.000000
1efc_ring29_mesh1
1 -38.950405 -0.562184 26.025791 -0.696289 -0.546387 0.465088 0.156250 0.500000 1 1 1.000000
1 -41.313820 -0.562183 22.082660 -0.738281 -0.546387 0.394775 0.171875 0.500000 1 1 1.000000
1 -35.445175 -7.737595 18.945803 -0.646484 -0.679688 0.345459 0.171875 1.000000 1 1 1.000000
1efc_ring29_mesh1
1 -41.313820 -0.562183 22.082660 -0.738281 -0.546387 0.394775 0.171875 0.500000 1 1 1.000000
1 -37.131508 -7.737596 15.380341 -0.677246 -0.679688 0.280518 0.187500 1.000000 1 1 1.000000
1 -35.445175 -7.737595 18.945803 -0.646484 -0.679688 0.345459 0.171875 1.000000 1 1 1.000000
1efc_ring29_mesh1
1 -44.096077 6.613229 23.569810 -0.807129 -0.402344 0.431396 0.171875 0.000000 1 1 1.000000
1 -46.193990 6.613229 19.134142 -0.845703 -0.402344 0.350098 0.187500 0.000000 1 1 1.000000
1 -41.313820 -0.562183 22.082660 -0.738281 -0.546387 0.394775 0.171875 0.500000 1 1 1.000000
1efc_ring29_mesh1
1 -46.193990 6.613229 19.134142 -0.845703 -0.402344 0.350098 0.187500 0.000000 1 1 1.000000
1 -43.279358 -0.562184 17.926865 -0.773438 -0.546387 0.320312 0.187500 0.500000 1 1 1.000000
1 -41.313820 -0.562183 22.082660 -0.738281 -0.546387 0.394775 0.171875 0.500000 1 1 1.000000
1efc_ring29_mesh1
1 -41.313820 -0.562183 22.082660 -0.738281 -0.546387 0.394775 0.171875 0.500000 1 1 1.000000
1 -43.279358 -0.562184 17.926865 -0.773438 -0.546387 0.320312 0.187500 0.500000 1 1 1.000000
1 -37.131508 -7.737596 15.380341 -0.677246 -0.679688 0.280518 0.187500 1.000000 1 1 1.000000
1efc_ring29_mesh1
1 -43.279358 -0.562184 17.926865 -0.773438 -0.546387 0.320312 0.187500 0.500000 1 1 1.000000
1 -38.460250 -7.737595 11.666754 -0.701172 -0.679688 0.212769 0.203125 1.000000 1 1 1.000000
1 -37.131508 -7.737596 15.380341 -0.677246 -0.679688 0.280518 0.187500 1.000000 1 1 1.000000
1efc_ring29_mesh1
1 -46.193990 6.613229 19.134142 -0.845703 -0.402344 0.350098 0.187500 0.000000 1 1 1.000000
1 -47.847027 6.613229 14.514201 -0.875977 -0.402344 0.265625 0.203125 0.000000 1 1 1.000000
1 -43.279358 -0.562184 17.926865 -0.773438 -0.546387 0.320312 0.187500 0.500000 1 1 1.000000
1efc_ring29_mesh1
1 -47.847027 6.613229 14.514201 -0.875977 -0.402344 0.265625 0.203125 0.000000 1 1 1.000000
1 -44.828102 -0.562183 13.598419 -0.801270 -0.546387 0.243042 0.203125 0.500000 1 1 1.000000
1 -43.279358 -0.562184 17.926865 -0.773438 -0.546387 0.320312 0.187500 0.500000 1 1 1.000000
1efc_ring29_mesh1
1 -43.279358 -0.562184 17.926865 -0.773438 -0.546387 0.320312 0.187500 0.500000 1 1 1.000000
1 -44.828102 -0.562183 13.598419 -0.801270 -0.546387 0.243042 0.203125 0.500000 1 1 1.000000
1 -38.460250 -7.737595 11.666754 -0.701172 -0.679688 0.212769 0.203125 1.000000 1 1 1.000000
1efc_ring29_mesh1
1 -44.828102 -0.562183 13.598419 -0.801270 -0.546387 0.243042 0.203125 0.500000 1 1 1.000000
1 -39.418600 -7.737595 7.840810 -0.718750 -0.679688 0.142944 0.218750 1.000000 1 1 1.000000
1 -38.460250 -7.737595 11.666754 -0.701172 -0.679688 0.212769 0.203125 1.000000 1 1 1.000000
1efc_ring29_mesh1
1 -47.847027 6.613229 14.514201 -0.875977 -0.402344 0.265625 0.203125 0.000000 1 1 1.000000
1 -49.039272 6.613229 9.754480 -0.897461 -0.402344 0.178589 0.218750 0.000000 1 1 1.000000
1 -44.828102 -0.562183 13.598419 -0.801270 -0.546387 0.243042 0.203125 0.500000 1 1 1.000000
1efc_ring29_mesh1
1 -49.039272 6.613229 9.754480 -0.897461 -0.402344 0.178589 0.218750 0.000000 1 1 1.000000
1 -45.945120 -0.562183 9.139015 -0.821289 -0.546387 0.163330 0.218750 0.500000 1 1 1.000000
1 -44.828102 -0.562183 13.598419 -0.801270 -0.546387 0.243042 0.203125 0.500000 1 1 1.000000
1efc_ring29_mesh1
1 -44.828102 -0.562183 13.598419 -0.801270 -0.546387 0.243042 0.203125 0.500000 1 1 1.000000
1 -45.945120 -0.562183 9.139015 -0.821289 -0.546387 0.163330 0.218750 0.500000 1 1 1.000000
1 -39.418600 -7.737595 7.840810 -0.718750 -0.679688 0.142944 0.218750 1.000000 1 1 1.000000
1efc_ring29_mesh1
1 -45.945120 -0.562183 9.139015 -0.821289 -0.546387 0.163330 0.218750 0.500000 1 1 1.000000
1 -39.997320 -7.737595 3.939356 -0.729492 -0.679688 0.071838 0.234375 1.000000 1 1 1.000000
1 -39.418600 -7.737595 7.840810 -0.718750 -0.679688 0.142944 0.218750 1.000000 1 1 1.000000
1efc_ring29_mesh1
1 -49.039272 6.613229 9.754480 -0.897461 -0.402344 0.178589 0.218750 0.000000 1 1 1.000000
1 -49.759240 6.613230 4.900820 -0.910645 -0.402344 0.089722 0.234375 0.000000 1 1 1.000000
1 -45.945120 -0.562183 9.139015 -0.821289 -0.546387 0.163330 0.218750 0.500000 1 1 1.000000
1efc_ring29_mesh1
1 -49.759240 6.613230 4.900820 -0.910645 -0.402344 0.089722 0.234375 0.000000 1 1 1.000000
1 -46.619660 -0.562183 4.591599 -0.833008 -0.546387 0.082031 0.234375 0.500000 1 1 1.000000
1 -45.945120 -0.562183 9.139015 -0.821289 -0.546387 0.163330 0.218750 0.500000 1 1 1.000000
1efc_ring29_mesh1
1 -45.945120 -0.562183 9.139015 -0.821289 -0.546387 0.163330 0.218750 0.500000 1 1 1.000000
1 -46.619660 -0.562183 4.591599 -0.833008 -0.546387 0.082031 0.234375 0.500000 1 1 1.000000
1 -39.997320 -7.737595 3.939356 -0.729492 -0.679688 0.071838 0.234375 1.000000 1 1 1.000000
1efc_ring29_mesh1
1 -46.619660 -0.562183 4.591599 -0.833008 -0.546387 0.082031 0.234375 0.500000 1 1 1.000000
1 -40.190850 -7.737594 0.000000 -0.732910 -0.679688 0.000000 0.250000 1.000000 1 1 1.000000
1 -39.997320 -7.737595 3.939356 -0.729492 -0.679688 0.071838 0.234375 1.000000 1 1 1.000000
1efc_ring29_mesh1
1 -49.759240 6.613230 4.900820 -0.910645 -0.402344 0.089722 0.234375 0.000000 1 1 1.000000
1 -50.000000 6.613230 0.000000 -0.915039 -0.402344 0.000000 0.250000 0.000000 1 1 1.000000
1 -46.619660 -0.562183 4.591599 -0.833008 -0.546387 0.082031 0.234375 0.500000 1 1 1.000000
1efc_ring29_mesh1
1 -50.000000 6.613230 0.000000 -0.915039 -0.402344 0.000000 0.250000 0.000000 1 1 1.000000
1 -46.845230 -0.562182 0.000000 -0.837402 -0.546387 0.000000 0.250000 0.500000 1 1 1.000000
1 -46.619660 -0.562183 4.591599 -0.833008 -0.546387 0.082031 0.234375 0.500000 1 1 1.000000
1efc_ring29_mesh1
1 -46.619660 -0.562183 4.591599 -0.833008 -0.546387 0.082031 0.234375 0.500000 1 1 1.000000
1 -46.845230 -0.562182 0.000000 -0.837402 -0.546387 0.000000 0.250000 0.500000 1 1 1.000000
1 -40.190850 -7.737594 0.000000 -0.732910 -0.679688 0.000000 0.250000 1.000000 1 1 1.000000
1efc_ring29_mesh1
1 -46.845230 -0.562182 0.000000 -0.837402 -0.546387 0.000000 0.250000 0.500000 1 1 1.000000
1 -39.997310 -7.737594 -3.939430 -0.729492 -0.679688 -0.071838 0.265625 1.000000 1 1 1.000000
1 -40.190850 -7.737594 0.000000 -0.732910 -0.679688 0.000000 0.250000 1.000000 1 1 1.000000
1efc_ring29_mesh1
1 -50.000000 6.613230 0.000000 -0.915039 -0.402344 0.000000 0.250000 0.000000 1 1 1.000000
1 -49.759230 6.613231 -4.900899 -0.910645 -0.402344 -0.089722 0.265625 0.000000 1 1 1.000000
1 -46.845230 -0.562182 0.000000 -0.837402 -0.546387 0.000000 0.250000 0.500000 1 1 1.000000
1efc_ring29_mesh1
1 -49.759230 6.613231 -4.900899 -0.910645 -0.402344 -0.089722 0.265625 0.000000 1 1 1.000000
1 -46.619650 -0.562182 -4.591676 -0.833008 -0.546387 -0.082031 0.265625 0.500000 1 1 1.000000
1 -46.845230 -0.562182 0.000000 -0.837402 -0.546387 0.000000 0.250000 0.500000 1 1 1.000000
1efc_ring29_mesh1
1 -46.845230 -0.562182 0.000000 -0.837402 -0.546387 0.000000 0.250000 0.500000 1 1 1.000000
1 -46.619650 -0.562182 -4.591676 -0.833008 -0.546387 -0.082031 0.265625 0.500000 1 1 1.000000
1 -39.997310 -7.737594 -3.939430 -0.729492 -0.679688 -0.071838 0.265625 1.000000 1 1 1.000000
1efc_ring29_mesh1
1 -46.619650 -0.562182 -4.591676 -0.833008 -0.546387 -0.082031 0.265625 0.500000 1 1 1.000000
1 -39.418580 -7.737594 -7.840885 -0.718750 -0.679688 -0.142944 0.281250 1.000000 1 1 1.000000
1 -39.997310 -7.737594 -3.939430 -0.729492 -0.679688 -0.071838 0.265625 1.000000 1 1 1.000000
1efc_ring29_mesh1
1 -49.759230 6.613231 -4.900899 -0.910645 -0.402344 -0.089722 0.265625 0.000000 1 1 1.000000
1 -49.039257 6.613231 -9.754559 -0.897461 -0.402344 -0.178589 0.281250 0.000000 1 1 1.000000
1 -46.619650 -0.562182 -4.591676 -0.833008 -0.546387 -0.082031 0.265625 0.500000 1 1 1.000000
1efc_ring29_mesh1
1 -49.039257 6.613231 -9.754559 -0.897461 -0.402344 -0.178589 0.281250 0.000000 1 1 1.000000
1 -45.945107 -0.562182 -9.139093 -0.821289 -0.546387 -0.163330 0.281250 0.500000 1 1 1.000000
1 -46.619650 -0.562182 -4.591676 -0.833008 -0.546387 -0.082031 0.265625 0.500000 1 1 1.000000
1efc_ring29_mesh1
1 -46.619650 -0.562182 -4.591676 -0.833008 -0.546387 -0.082031 0.265625 0.500000 1 1 1.000000
1 -45.945107 -0.562182 -9.139093 -0.821289 -0.546387 -0.163330 0.281250 0.500000 1 1 1.000000
1 -39.418580 -7.737594 -7.840885 -0.718750 -0.679688 -0.142944 0.281250 1.000000 1 1 1.000000
1efc_ring29_mesh1
1 -45.945107 -0.562182 -9.139093 -0.821289 -0.546387 -0.163330 0.281250 0.500000 1 1 1.000000
1 -38.460230 -7.737594 -11.666827 -0.701172 -0.679688 -0.212769 0.296875 1.000000 1 1 1.000000
1 -39.418580 -7.737594 -7.840885 -0.718750 -0.679688 -0.142944 0.281250 1.000000 1 1 1.000000
1efc_ring29_mesh1
1 -49.039257 6.613231 -9.754559 -0.897461 -0.402344 -0.178589 0.281250 0.000000 1 1 1.000000
1 -47.847004 6.613232 -14.514278 -0.875977 -0.402344 -0.265625 0.296875 0.000000 1 1 1.000000
1 -45.945107 -0.562182 -9.139093 -0.821289 -0.546387 -0.163330 0.281250 0.500000 1 1 1.000000
1efc_ring29_mesh1
1 -47.847004 6.613232 -14.514278 -0.875977 -0.402344 -0.265625 0.296875 0.000000 1 1 1.000000
1 -44.828080 -0.562182 -13.598496 -0.801270 -0.546387 -0.243042 0.296875 0.500000 1 1 1.000000
1 -45.945107 -0.562182 -9.139093 -0.821289 -0.546387 -0.163330 0.281250 0.500000 1 1 1.000000
1efc_ring29_mesh1
1 -45.945107 -0.562182 -9.139093 -0.821289 -0.546387 -0.163330 0.281250 0.500000 1 1 1.000000
1 -44.828080 -0.562182 -13.598496 -0.801270 -0.546387 -0.243042 0.296875 0.500000 1 1 1.000000
1 -38.460230 -7.737594 -11.666827 -0.701172 -0.679688 -0.212769 0.296875 1.000000 1 1 1.000000
1efc_ring29_mesh1
1 -44.828080 -0.562182 -13.598496 -0.801270 -0.546387 -0.243042 0.296875 0.500000 1 1 1.000000
1 -37.131485 -7.737594 -15.380413 -0.677246 -0.679688 -0.280518 0.312500 1.000000 1 1 1.000000
1 -38.460230 -7.737594 -11.666827 -0.701172 -0.679688 -0.212769 0.296875 1.000000 1 1 1.000000
1efc_ring29_mesh1
1 -47.847004 6.613232 -14.514278 -0.875977 -0.402344 -0.265625 0.296875 0.000000 1 1 1.000000
1 -46.193960 6.613232 -19.134216 -0.845703 -0.402344 -0.350098 0.312500 0.000000 1 1 1.000000
1 -44.828080 -0.562182 -13.598496 -0.801270 -0.546387 -0.243042 0.296875 0.500000 1 1 1.000000
1efc_ring29_mesh1
1 -46.193960 6.613232 -19.134216 -0.845703 -0.402344 -0.350098 0.312500 0.000000 1 1 1.000000
1 -43.279335 -0.562181 -17.926937 -0.773438 -0.546387 -0.320312 0.312500 0.500000 1 1 1.000000
1 -44.828080 -0.562182 -13.598496 -0.801270 -0.546387 -0.243042 0.296875 0.500000 1 1 1.000000
1efc_ring29_mesh1
1 -44.828080 -0.562182 -13.598496 -0.801270 -0.546387 -0.243042 0.296875 0.500000 1 1 1.000000
1 -43.279335 -0.562181 -17.926937 -0.773438 -0.546387 -0.320312 0.312500 0.500000 1 1 1.000000
1 -37.131485 -7.737594 -15.380413 -0.677246 -0.679688 -0.280518 0.312500 1.000000 1 1 1.000000
1efc_ring29_mesh1
1 -43.279335 -0.562181 -17.926937 -0.773438 -0.546387 -0.320312 0.312500 0.500000 1 1 1.000000
1 -35.445145 -7.737594 -18.945873 -0.646484 -0.679688 -0.345459 0.328125 1.000000 1 1 1.000000
1 -37.131485 -7.737594 -15.380413 -0.677246 -0.679688 -0.280518 0.312500 1.000000 1 1 1.000000
1efc_ring29_mesh1
1 -46.193960 6.613232 -19.134216 -0.845703 -0.402344 -0.350098 0.312500 0.000000 1 1 1.000000
1 -44.096040 6.613232 -23.569881 -0.807129 -0.402344 -0.431396 0.328125 0.000000 1 1 1.000000
1 -43.279335 -0.562181 -17.926937 -0.773438 -0.546387 -0.320312 0.312500 0.500000 1 1 1.000000
1efc_ring29_mesh1
1 -44.096040 6.613232 -23.569881 -0.807129 -0.402344 -0.431396 0.328125 0.000000 1 1 1.000000
1 -41.313780 -0.562181 -22.082731 -0.738281 -0.546387 -0.394775 0.328125 0.500000 1 1 1.000000
1 -43.279335 -0.562181 -17.926937 -0.773438 -0.546387 -0.320312 0.312500 0.500000 1 1 1.000000
1efc_ring29_mesh1
1 -43.279335 -0.562181 -17.926937 -0.773438 -0.546387 -0.320312 0.312500 0.500000 1 1 1.000000
1 -41.313780 -0.562181 -22.082731 -0.738281 -0.546387 -0.394775 0.328125 0.500000 1 1 1.000000
1 -35.445145 -7.737594 -18.945873 -0.646484 -0.679688 -0.345459 0.328125 1.000000 1 1 1.000000
1efc_ring29_mesh1
1 -41.313780 -0.562181 -22.082731 -0.738281 -0.546387 -0.394775 0.328125 0.500000 1 1 1.000000
1 -33.417442 -7.737594 -22.328876 -0.609375 -0.679688 -0.407227 0.343750 1.000000 1 1 1.000000
1 -35.445145 -7.737594 -18.945873 -0.646484 -0.679688 -0.345459 0.328125 1.000000 1 1 1.000000
1efc_ring29_mesh1
1 -44.096040 6.613232 -23.569881 -0.807129 -0.402344 -0.431396 0.328125 0.000000 1 1 1.000000
1 -41.573452 6.613232 -27.778555 -0.760742 -0.402344 -0.508301 0.343750 0.000000 1 1 1.000000
1 -41.313780 -0.562181 -22.082731 -0.738281 -0.546387 -0.394775 0.328125 0.500000 1 1 1.000000
1efc_ring29_mesh1
1 -41.573452 6.613232 -27.778555 -0.760742 -0.402344 -0.508301 0.343750 0.000000 1 1 1.000000
1 -38.950360 -0.562181 -26.025856 -0.696289 -0.546387 -0.465088 0.343750 0.500000 1 1 1.000000
1 -41.313780 -0.562181 -22.082731 -0.738281 -0.546387 -0.394775 0.328125 0.500000 1 1 1.000000
1efc_ring29_mesh1
1 -41.313780 -0.562181 -22.082731 -0.738281 -0.546387 -0.394775 0.328125 0.500000 1 1 1.000000
1 -38.950360 -0.562181 -26.025856 -0.696289 -0.546387 -0.465088 0.343750 0.500000 1 1 1.000000
1 -33.417442 -7.737594 -22.328876 -0.609375 -0.679688 -0.407227 0.343750 1.000000 1 1 1.000000
1efc_ring29_mesh1
1 -38.950360 -0.562181 -26.025856 -0.696289 -0.546387 -0.465088 0.343750 0.500000 1 1 1.000000
1 -31.067913 -7.737593 -25.496841 -0.566406 -0.679688 -0.465088 0.359375 1.000000 1 1 1.000000
1 -33.417442 -7.737594 -22.328876 -0.609375 -0.679688 -0.407227 0.343750 1.000000 1 1 1.000000
1efc_ring29_mesh1
1 -41.573452 6.613232 -27.778555 -0.760742 -0.402344 -0.508301 0.343750 0.000000 1 1 1.000000
1 -38.650490 6.613233 -31.719706 -0.707520 -0.402344 -0.580566 0.359375 0.000000 1 1 1.000000
1 -38.950360 -0.562181 -26.025856 -0.696289 -0.546387 -0.465088 0.343750 0.500000 1 1 1.000000
1efc_ring29_mesh1
1 -38.650490 6.613233 -31.719706 -0.707520 -0.402344 -0.580566 0.359375 0.000000 1 1 1.000000
1 -36.211823 -0.562180 -29.718340 -0.646973 -0.546387 -0.531250 0.359375 0.500000 1 1 1.000000
1 -38.950360 -0.562181 -26.025856 -0.696289 -0.546387 -0.465088 0.343750 0.500000 1 1 1.000000
1efc_ring29_mesh1
1 -38.950360 -0.562181 -26.025856 -0.696289 -0.546387 -0.465088 0.343750 0.500000 1 1 1.000000
1 -36.211823 -0.562180 -29.718340 -0.646973 -0.546387 -0.531250 0.359375 0.500000 1 1 1.000000
1 -31.067913 -7.737593 -25.496841 -0.566406 -0.679688 -0.465088 0.359375 1.000000 1 1 1.000000
1efc_ring29_mesh1
1 -36.211823 -0.562180 -29.718340 -0.646973 -0.546387 -0.531250 0.359375 0.500000 1 1 1.000000
1 -28.419188 -7.737591 -28.419250 -0.518066 -0.679688 -0.518066 0.375000 1.000000 1 1 1.000000
1 -31.067913 -7.737593 -25.496841 -0.566406 -0.679688 -0.465088 0.359375 1.000000 1 1 1.000000
1efc_ring29_mesh1
1 -38.650490 6.613233 -31.719706 -0.707520 -0.402344 -0.580566 0.359375 0.000000 1 1 1.000000
1 -35.355300 6.613233 -35.355377 -0.646973 -0.402344 -0.646973 0.375000 0.000000 1 1 1.000000
1 -36.211823 -0.562180 -29.718340 -0.646973 -0.546387 -0.531250 0.359375 0.500000 1 1 1.000000
1efc_ring29_mesh1
1 -35.355300 6.613233 -35.355377 -0.646973 -0.402344 -0.646973 0.375000 0.000000 1 1 1.000000
1 -33.124542 -0.562179 -33.124615 -0.591797 -0.546387 -0.591797 0.375000 0.500000 1 1 1.000000
1 -36.211823 -0.562180 -29.718340 -0.646973 -0.546387 -0.531250 0.359375 0.500000 1 1 1.000000
1efc_ring29_mesh1
1 -36.211823 -0.562180 -29.718340 -0.646973 -0.546387 -0.531250 0.359375 0.500000 1 1 1.000000
1 -33.124542 -0.562179 -33.124615 -0.591797 -0.546387 -0.591797 0.375000 0.500000 1 1 1.000000
1 -28.419188 -7.737591 -28.419250 -0.518066 -0.679688 -0.518066 0.375000 1.000000 1 1 1.000000
1efc_ring29_mesh1
1 -33.124542 -0.562179 -33.124615 -0.591797 -0.546387 -0.591797 0.375000 0.500000 1 1 1.000000
1 -25.496773 -7.737594 -31.067970 -0.465088 -0.679688 -0.566406 0.390625 1.000000 1 1 1.000000
1 -28.419188 -7.737591 -28.419250 -0.518066 -0.679688 -0.518066 0.375000 1.000000 1 1 1.000000
1efc_ring29_mesh1
1 -35.355300 6.613233 -35.355377 -0.646973 -0.402344 -0.646973 0.375000 0.000000 1 1 1.000000
1 -31.719630 6.613233 -38.650550 -0.580566 -0.402344 -0.707520 0.390625 0.000000 1 1 1.000000
1 -33.124542 -0.562179 -33.124615 -0.591797 -0.546387 -0.591797 0.375000 0.500000 1 1 1.000000
1efc_ring29_mesh1
1 -31.719630 6.613233 -38.650550 -0.580566 -0.402344 -0.707520 0.390625 0.000000 1 1 1.000000
1 -29.718266 -0.562181 -36.211880 -0.531250 -0.546387 -0.646973 0.390625 0.500000 1 1 1.000000
1 -33.124542 -0.562179 -33.124615 -0.591797 -0.546387 -0.591797 0.375000 0.500000 1 1 1.000000
1efc_ring29_mesh1
1 -33.124542 -0.562179 -33.124615 -0.591797 -0.546387 -0.591797 0.375000 0.500000 1 1 1.000000
1 -29.718266 -0.562181 -36.211880 -0.531250 -0.546387 -0.646973 0.390625 0.500000 1 1 1.000000
1 -25.496773 -7.737594 -31.067970 -0.465088 -0.679688 -0.566406 0.390625 1.000000 1 1 1.000000
1efc_ring29_mesh1
1 -29.718266 -0.562181 -36.211880 -0.531250 -0.546387 -0.646973 0.390625 0.500000 1 1 1.000000
1 -22.328814 -7.737593 -33.417490 -0.407227 -0.679688 -0.609375 0.406250 1.000000 1 1 1.000000
1 -25.496773 -7.737594 -31.067970 -0.465088 -0.679688 -0.566406 0.390625 1.000000 1 1 1.000000
1efc_ring29_mesh1
1 -31.719630 6.613233 -38.650550 -0.580566 -0.402344 -0.707520 0.390625 0.000000 1 1 1.000000
1 -27.778480 6.613234 -41.573500 -0.508301 -0.402344 -0.760742 0.406250 0.000000 1 1 1.000000
1 -29.718266 -0.562181 -36.211880 -0.531250 -0.546387 -0.646973 0.390625 0.500000 1 1 1.000000
1efc_ring29_mesh1
1 -27.778480 6.613234 -41.573500 -0.508301 -0.402344 -0.760742 0.406250 0.000000 1 1 1.000000
1 -26.025787 -0.562180 -38.950405 -0.465088 -0.546387 -0.696289 0.406250 0.500000 1 1 1.000000
1 -29.718266 -0.562181 -36.211880 -0.531250 -0.546387 -0.646973 0.390625 0.500000 1 1 1.000000
1efc_ring29_mesh1
1 -29.718266 -0.562181 -36.211880 -0.531250 -0.546387 -0.646973 0.390625 0.500000 1 1 1.000000
1 -26.025787 -0.562180 -38.950405 -0.465088 -0.546387 -0.696289 0.406250 0.500000 1 1 1.000000
1 -22.328814 -7.737593 -33.417490 -0.407227 -0.679688 -0.609375 0.406250 1.000000 1 1 1.000000
1efc_ring29_mesh1
1 -26.025787 -0.562180 -38.950405 -0.465088 -0.546387 -0.696289 0.406250 0.500000 1 1 1.000000
1 -18.945814 -7.737592 -35.445180 -0.345459 -0.679688 -0.646484 0.421875 1.000000 1 1 1.000000
1 -22.328814 -7.737593 -33.417490 -0.407227 -0.679688 -0.609375 0.406250 1.000000 1 1 1.000000
1efc_ring29_mesh1
1 -27.778480 6.613234 -41.573500 -0.508301 -0.402344 -0.760742 0.406250 0.000000 1 1 1.000000
1 -23.569813 6.613234 -44.096077 -0.431396 -0.402344 -0.807129 0.421875 0.000000 1 1 1.000000
1 -26.025787 -0.562180 -38.950405 -0.465088 -0.546387 -0.696289 0.406250 0.500000 1 1 1.000000
1efc_ring29_mesh1
1 -23.569813 6.613234 -44.096077 -0.431396 -0.402344 -0.807129 0.421875 0.000000 1 1 1.000000
1 -22.082666 -0.562179 -41.313820 -0.394775 -0.546387 -0.738281 0.421875 0.500000 1 1 1.000000
1 -26.025787 -0.562180 -38.950405 -0.465088 -0.546387 -0.696289 0.406250 0.500000 1 1 1.000000
1efc_ring29_mesh1
1 -26.025787 -0.562180 -38.950405 -0.465088 -0.546387 -0.696289 0.406250 0.500000 1 1 1.000000
1 -22.082666 -0.562179 -41.313820 -0.394775 -0.546387 -0.738281 0.421875 0.500000 1 1 1.000000
1 -18.945814 -7.737592 -35.445180 -0.345459 -0.679688 -0.646484 0.421875 1.000000 1 1 1.000000
1efc_ring29_mesh1
1 -22.082666 -0.562179 -41.313820 -0.394775 -0.546387 -0.738281 0.421875 0.500000 1 1 1.000000
1 -15.380360 -7.737591 -37.131510 -0.280518 -0.679688 -0.677246 0.437500 1.000000 1 1 1.000000
1 -18.945814 -7.737592 -35.445180 -0.345459 -0.679688 -0.646484 0.421875 1.000000 1 1 1.000000
1efc_ring29_mesh1
1 -23.569813 6.613234 -44.096077 -0.431396 -0.402344 -0.807129 0.421875 0.000000 1 1 1.000000
1 -19.134157 6.613234 -46.193980 -0.350098 -0.402344 -0.845703 0.437500 0.000000 1 1 1.000000
1 -22.082666 -0.562179 -41.313820 -0.394775 -0.546387 -0.738281 0.421875 0.500000 1 1 1.000000
1efc_ring29_mesh1
1 -19.134157 6.613234 -46.193980 -0.350098 -0.402344 -0.845703 0.437500 0.000000 1 1 1.000000
1 -17.926880 -0.562179 -43.279358 -0.320312 -0.546387 -0.773438 0.437500 0.500000 1 1 1.000000
1 -22.082666 -0.562179 -41.313820 -0.394775 -0.546387 -0.738281 0.421875 0.500000 1 1 1.000000
1efc_ring29_mesh1
1 -22.082666 -0.562179 -41.313820 -0.394775 -0.546387 -0.738281 0.421875 0.500000 1 1 1.000000
1 -17.926880 -0.562179 -43.279358 -0.320312 -0.546387 -0.773438 0.437500 0.500000 1 1 1.000000
1 -15.380360 -7.737591 -37.131510 -0.280518 -0.679688 -0.677246 0.437500 1.000000 1 1 1.000000
1efc_ring29_mesh1
1 -17.926880 -0.562179 -43.279358 -0.320312 -0.546387 -0.773438 0.437500 0.500000 1 1 1.000000
1 -11.666784 -7.737591 -38.460250 -0.212769 -0.679688 -0.701172 0.453125 1.000000 1 1 1.000000
1 -15.380360 -7.737591 -37.131510 -0.280518 -0.679688 -0.677246 0.437500 1.000000 1 1 1.000000
1efc_ring29_mesh1
1 -19.134157 6.613234 -46.193980 -0.350098 -0.402344 -0.845703 0.437500 0.000000 1 1 1.000000
1 -14.514228 6.613234 -47.847020 -0.265625 -0.402344 -0.875977 0.453125 0.000000 1 1 1.000000
1 -17.926880 -0.562179 -43.279358 -0.320312 -0.546387 -0.773438 0.437500 0.500000 1 1 1.000000
1efc_ring29_mesh1
1 -14.514228 6.613234 -47.847020 -0.265625 -0.402344 -0.875977 0.453125 0.000000 1 1 1.000000
1 -13.598448 -0.562178 -44.828094 -0.243042 -0.546387 -0.801270 0.453125 0.500000 1 1 1.000000
1 -17.926880 -0.562179 -43.279358 -0.320312 -0.546387 -0.773438 0.437500 0.500000 1 1 1.000000
1efc_ring29_mesh1
1 -17.926880 -0.562179 -43.279358 -0.320312 -0.546387 -0.773438 0.437500 0.500000 1 1 1.000000
1 -13.598448 -0.562178 -44.828094 -0.243042 -0.546387 -0.801270 0.453125 0.500000 1 1 1.000000
1 -11.666784 -7.737591 -38.460250 -0.212769 -0.679688 -0.701172 0.453125 1.000000 1 1 1.000000
1efc_ring29_mesh1
1 -13.598448 -0.562178 -44.828094 -0.243042 -0.546387 -0.801270 0.453125 0.500000 1 1 1.000000
1 -7.840848 -7.737591 -39.418594 -0.142944 -0.679688 -0.718750 0.468750 1.000000 1 1 1.000000
1 -11.666784 -7.737591 -38.460250 -0.212769 -0.679688 -0.701172 0.453125 1.000000 1 1 1.000000
1efc_ring29_mesh1
1 -14.514228 6.613234 -47.847020 -0.265625 -0.402344 -0.875977 0.453125 0.000000 1 1 1.000000
1 -9.754519 6.613234 -49.039265 -0.178589 -0.402344 -0.897461 0.468750 0.000000 1 1 1.000000
1 -13.598448 -0.562178 -44.828094 -0.243042 -0.546387 -0.801270 0.453125 0.500000 1 1 1.000000
1efc_ring29_mesh1
1 -9.754519 6.613234 -49.039265 -0.178589 -0.402344 -0.897461 0.468750 0.000000 1 1 1.000000
1 -9.139054 -0.562178 -45.945114 -0.163330 -0.546387 -0.821289 0.468750 0.500000 1 1 1.000000
1 -13.598448 -0.562178 -44.828094 -0.243042 -0.546387 -0.801270 0.453125 0.500000 1 1 1.000000
1efc_ring29_mesh1
1 -13.598448 -0.562178 -44.828094 -0.243042 -0.546387 -0.801270 0.453125 0.500000 1 1 1.000000
1 -9.139054 -0.562178 -45.945114 -0.163330 -0.546387 -0.821289 0.468750 0.500000 1 1 1.000000
1 -7.840848 -7.737591 -39.418594 -0.142944 -0.679688 -0.718750 0.468750 1.000000 1 1 1.000000
1efc_ring29_mesh1
1 -9.139054 -0.562178 -45.945114 -0.163330 -0.546387 -0.821289 0.468750 0.500000 1 1 1.000000
1 -3.939405 -7.737591 -39.997320 -0.071838 -0.679688 -0.729492 0.484131 1.000000 1 1 1.000000
1 -7.840848 -7.737591 -39.418594 -0.142944 -0.679688 -0.718750 0.468750 1.000000 1 1 1.000000
1efc_ring29_mesh1
1 -9.754519 6.613234 -49.039265 -0.178589 -0.402344 -0.897461 0.468750 0.000000 1 1 1.000000
1 -4.900870 6.613234 -49.759235 -0.089722 -0.402344 -0.910645 0.484131 0.000000 1 1 1.000000
1 -9.139054 -0.562178 -45.945114 -0.163330 -0.546387 -0.821289 0.468750 0.500000 1 1 1.000000
1efc_ring29_mesh1
1 -4.900870 6.613234 -49.759235 -0.089722 -0.402344 -0.910645 0.484131 0.000000 1 1 1.000000
1 -4.591649 -0.562178 -46.619660 -0.082031 -0.546387 -0.833008 0.484131 0.500000 1 1 1.000000
1 -9.139054 -0.562178 -45.945114 -0.163330 -0.546387 -0.821289 0.468750 0.500000 1 1 1.000000
1efc_ring29_mesh1
1 -9.139054 -0.562178 -45.945114 -0.163330 -0.546387 -0.821289 0.468750 0.500000 1 1 1.000000
1 -4.591649 -0.562178 -46.619660 -0.082031 -0.546387 -0.833008 0.484131 0.500000 1 1 1.000000
1 -3.939405 -7.737591 -39.997320 -0.071838 -0.679688 -0.729492 0.484131 1.000000 1 1 1.000000
1efc_ring29_mesh1
1 -4.591649 -0.562178 -46.619660 -0.082031 -0.546387 -0.833008 0.484131 0.500000 1 1 1.000000
1 0.000000 -7.737591 -40.190853 0.000000 -0.679688 -0.732910 0.499756 1.000000 1 1 1.000000
1 -3.939405 -7.737591 -39.997320 -0.071838 -0.679688 -0.729492 0.484131 1.000000 1 1 1.000000
1efc_ring29_mesh1
1 -4.900870 6.613234 -49.759235 -0.089722 -0.402344 -0.910645 0.484131 0.000000 1 1 1.000000
1 0.000000 6.613234 -50.000000 0.000000 -0.402344 -0.915039 0.499756 0.000000 1 1 1.000000
1 -4.591649 -0.562178 -46.619660 -0.082031 -0.546387 -0.833008 0.484131 0.500000 1 1 1.000000
1efc_ring29_mesh1
1 0.000000 6.613234 -50.000000 0.000000 -0.402344 -0.915039 0.499756 0.000000 1 1 1.000000
1 0.000000 -0.562178 -46.845234 0.000000 -0.546387 -0.837402 0.499756 0.500000 1 1 1.000000
1 -4.591649 -0.562178 -46.619660 -0.082031 -0.546387 -0.833008 0.484131 0.500000 1 1 1.000000
1efc_ring29_mesh1
1 -4.591649 -0.562178 -46.619660 -0.082031 -0.546387 -0.833008 0.484131 0.500000 1 1 1.000000
1 0.000000 -0.562178 -46.845234 0.000000 -0.546387 -0.837402 0.499756 0.500000 1 1 1.000000
1 0.000000 -7.737591 -40.190853 0.000000 -0.679688 -0.732910 0.499756 1.000000 1 1 1.000000
1efc_ring29_mesh1
1 0.000000 -0.562178 -46.845234 0.000000 -0.546387 -0.837402 0.499756 0.500000 1 1 1.000000
1 3.939363 -7.737591 -39.997322 0.071838 -0.679688 -0.729492 0.515137 1.000000 1 1 1.000000
1 0.000000 -7.737591 -40.190853 0.000000 -0.679688 -0.732910 0.499756 1.000000 1 1 1.000000
1efc_ring29_mesh1
1 0.000000 6.613234 -50.000000 0.000000 -0.402344 -0.915039 0.499756 0.000000 1 1 1.000000
1 4.900824 6.613234 -49.759240 0.089722 -0.402344 -0.910645 0.515137 0.000000 1 1 1.000000
1 0.000000 -0.562178 -46.845234 0.000000 -0.546387 -0.837402 0.499756 0.500000 1 1 1.000000
1efc_ring29_mesh1
1 4.900824 6.613234 -49.759240 0.089722 -0.402344 -0.910645 0.515137 0.000000 1 1 1.000000
1 4.591604 -0.562178 -46.619660 0.082031 -0.546387 -0.833008 0.515137 0.500000 1 1 1.000000
1 0.000000 -0.562178 -46.845234 0.000000 -0.546387 -0.837402 0.499756 0.500000 1 1 1.000000
1efc_ring29_mesh1
1 0.000000 -0.562178 -46.845234 0.000000 -0.546387 -0.837402 0.499756 0.500000 1 1 1.000000
1 4.591604 -0.562178 -46.619660 0.082031 -0.546387 -0.833008 0.515137 0.500000 1 1 1.000000
1 3.939363 -7.737591 -39.997322 0.071838 -0.679688 -0.729492 0.515137 1.000000 1 1 1.000000
1efc_ring29_mesh1
1 4.591604 -0.562178 -46.619660 0.082031 -0.546387 -0.833008 0.515137 0.500000 1 1 1.000000
1 7.840809 -7.737591 -39.418602 0.142944 -0.679688 -0.718750 0.530762 1.000000 1 1 1.000000
1 3.939363 -7.737591 -39.997322 0.071838 -0.679688 -0.729492 0.515137 1.000000 1 1 1.000000
1efc_ring29_mesh1
1 4.900824 6.613234 -49.759240 0.089722 -0.402344 -0.910645 0.515137 0.000000 1 1 1.000000
1 9.754474 6.613234 -49.039272 0.178589 -0.402344 -0.897461 0.530762 0.000000 1 1 1.000000
1 4.591604 -0.562178 -46.619660 0.082031 -0.546387 -0.833008 0.515137 0.500000 1 1 1.000000
1efc_ring29_mesh1
1 9.754474 6.613234 -49.039272 0.178589 -0.402344 -0.897461 0.530762 0.000000 1 1 1.000000
1 9.139011 -0.562178 -45.945120 0.163330 -0.546387 -0.821289 0.530762 0.500000 1 1 1.000000
1 4.591604 -0.562178 -46.619660 0.082031 -0.546387 -0.833008 0.515137 0.500000 1 1 1.000000
1efc_ring29_mesh1
1 4.591604 -0.562178 -46.619660 0.082031 -0.546387 -0.833008 0.515137 0.500000 1 1 1.000000
1 9.139011 -0.562178 -45.945120 0.163330 -0.546387 -0.821289 0.530762 0.500000 1 1 1.000000
1 7.840809 -7.737591 -39.418602 0.142944 -0.679688 -0.718750 0.530762 1.000000 1 1 1.000000
1efc_ring29_mesh1
1 9.139011 -0.562178 -45.945120 0.163330 -0.546387 -0.821289 0.530762 0.500000 1 1 1.000000
1 11.666741 -7.737591 -38.460255 0.212769 -0.679688 -0.701172 0.546387 1.000000 1 1 1.000000
1 7.840809 -7.737591 -39.418602 0.142944 -0.679688 -0.718750 0.530762 1.000000 1 1 1.000000
1efc_ring29_mesh1
1 9.754474 6.613234 -49.039272 0.178589 -0.402344 -0.897461 0.530762 0.000000 1 1 1.000000
1 14.514183 6.613234 -47.847030 0.265625 -0.402344 -0.875977 0.546387 0.000000 1 1 1.000000
1 9.139011 -0.562178 -45.945120 0.163330 -0.546387 -0.821289 0.530762 0.500000 1 1 1.000000
1efc_ring29_mesh1
1 14.514183 6.613234 -47.847030 0.265625 -0.402344 -0.875977 0.546387 0.000000 1 1 1.000000
1 13.598404 -0.562178 -44.828102 0.243042 -0.546387 -0.801270 0.546387 0.500000 1 1 1.000000
1 9.139011 -0.562178 -45.945120 0.163330 -0.546387 -0.821289 0.530762 0.500000 1 1 1.000000
1efc_ring29_mesh1
1 9.139011 -0.562178 -45.945120 0.163330 -0.546387 -0.821289 0.530762 0.500000 1 1 1.000000
1 13.598404 -0.562178 -44.828102 0.243042 -0.546387 -0.801270 0.546387 0.500000 1 1 1.000000
1 11.666741 -7.737591 -38.460255 0.212769 -0.679688 -0.701172 0.546387 1.000000 1 1 1.000000
1efc_ring29_mesh1
1 13.598404 -0.562178 -44.828102 0.243042 -0.546387 -0.801270 0.546387 0.500000 1 1 1.000000
1 15.380321 -7.737591 -37.131523 0.280518 -0.679688 -0.677246 0.562012 1.000000 1 1 1.000000
1 11.666741 -7.737591 -38.460255 0.212769 -0.679688 -0.701172 0.546387 1.000000 1 1 1.000000
1efc_ring29_mesh1
1 14.514183 6.613234 -47.847030 0.265625 -0.402344 -0.875977 0.546387 0.000000 1 1 1.000000
1 19.134113 6.613234 -46.194000 0.350098 -0.402344 -0.845703 0.562012 0.000000 1 1 1.000000
1 13.598404 -0.562178 -44.828102 0.243042 -0.546387 -0.801270 0.546387 0.500000 1 1 1.000000
1efc_ring29_mesh1
1 19.134113 6.613234 -46.194000 0.350098 -0.402344 -0.845703 0.562012 0.000000 1 1 1.000000
1 17.926838 -0.562179 -43.279373 0.320312 -0.546387 -0.773438 0.562012 0.500000 1 1 1.000000
1 13.598404 -0.562178 -44.828102 0.243042 -0.546387 -0.801270 0.546387 0.500000 1 1 1.000000
1efc_ring29_mesh1
1 13.598404 -0.562178 -44.828102 0.243042 -0.546387 -0.801270 0.546387 0.500000 1 1 1.000000
1 17.926838 -0.562179 -43.279373 0.320312 -0.546387 -0.773438 0.562012 0.500000 1 1 1.000000
1 15.380321 -7.737591 -37.131523 0.280518 -0.679688 -0.677246 0.562012 1.000000 1 1 1.000000
1efc_ring29_mesh1
1 17.926838 -0.562179 -43.279373 0.320312 -0.546387 -0.773438 0.562012 0.500000 1 1 1.000000
1 18.945782 -7.737592 -35.445190 0.345459 -0.679688 -0.646484 0.577637 1.000000 1 1 1.000000
1 15.380321 -7.737591 -37.131523 0.280518 -0.679688 -0.677246 0.562012 1.000000 1 1 1.000000
1efc_ring29_mesh1
1 19.134113 6.613234 -46.194000 0.350098 -0.402344 -0.845703 0.562012 0.000000 1 1 1.000000
1 23.569773 6.613234 -44.096096 0.431396 -0.402344 -0.807129 0.577637 0.000000 1 1 1.000000
1 17.926838 -0.562179 -43.279373 0.320312 -0.546387 -0.773438 0.562012 0.500000 1 1 1.000000
1efc_ring29_mesh1
1 23.569773 6.613234 -44.096096 0.431396 -0.402344 -0.807129 0.577637 0.000000 1 1 1.000000
1 22.082630 -0.562179 -41.313835 0.394775 -0.546387 -0.738281 0.577637 0.500000 1 1 1.000000
1 17.926838 -0.562179 -43.279373 0.320312 -0.546387 -0.773438 0.562012 0.500000 1 1 1.000000
1efc_ring29_mesh1
1 17.926838 -0.562179 -43.279373 0.320312 -0.546387 -0.773438 0.562012 0.500000 1 1 1.000000
1 22.082630 -0.562179 -41.313835 0.394775 -0.546387 -0.738281 0.577637 0.500000 1 1 1.000000
1 18.945782 -7.737592 -35.445190 0.345459 -0.679688 -0.646484 0.577637 1.000000 1 1 1.000000
1efc_ring29_mesh1
1 22.082630 -0.562179 -41.313835 0.394775 -0.546387 -0.738281 0.577637 0.500000 1 1 1.000000
1 22.328781 -7.737593 -33.417507 0.407227 -0.679688 -0.609375 0.593262 1.000000 1 1 1.000000
1 18.945782 -7.737592 -35.445190 0.345459 -0.679688 -0.646484 0.577637 1.000000 1 1 1.000000
1efc_ring29_mesh1
1 23.569773 6.613234 -44.096096 0.431396 -0.402344 -0.807129 0.577637 0.000000 1 1 1.000000
1 27.778442 6.613234 -41.573530 0.508301 -0.402344 -0.760742 0.593262 0.000000 1 1 1.000000
1 22.082630 -0.562179 -41.313835 0.394775 -0.546387 -0.738281 0.577637 0.500000 1 1 1.000000
1efc_ring29_mesh1
1 27.778442 6.613234 -41.573530 0.508301 -0.402344 -0.760742 0.593262 0.000000 1 1 1.000000
1 26.025750 -0.562180 -38.950430 0.465088 -0.546387 -0.696289 0.593262 0.500000 1 1 1.000000
1 22.082630 -0.562179 -41.313835 0.394775 -0.546387 -0.738281 0.577637 0.500000 1 1 1.000000
1efc_ring29_mesh1
1 22.082630 -0.562179 -41.313835 0.394775 -0.546387 -0.738281 0.577637 0.500000 1 1 1.000000
1 26.025750 -0.562180 -38.950430 0.465088 -0.546387 -0.696289 0.593262 0.500000 1 1 1.000000
1 22.328781 -7.737593 -33.417507 0.407227 -0.679688 -0.609375 0.593262 1.000000 1 1 1.000000
1efc_ring29_mesh1
1 26.025750 -0.562180 -38.950430 0.465088 -0.546387 -0.696289 0.593262 0.500000 1 1 1.000000
1 25.496744 -7.737594 -31.067995 0.465088 -0.679688 -0.566406 0.608887 1.000000 1 1 1.000000
1 22.328781 -7.737593 -33.417507 0.407227 -0.679688 -0.609375 0.593262 1.000000 1 1 1.000000
1efc_ring29_mesh1
1 27.778442 6.613234 -41.573530 0.508301 -0.402344 -0.760742 0.593262 0.000000 1 1 1.000000
1 31.719593 6.613233 -38.650580 0.580566 -0.402344 -0.707520 0.608887 0.000000 1 1 1.000000
1 26.025750 -0.562180 -38.950430 0.465088 -0.546387 -0.696289 0.593262 0.500000 1 1 1.000000
1efc_ring29_mesh1
1 31.719593 6.613233 -38.650580 0.580566 -0.402344 -0.707520 0.608887 0.000000 1 1 1.000000
1 29.718233 -0.562181 -36.211906 0.531250 -0.546387 -0.646973 0.608887 0.500000 1 1 1.000000
1 26.025750 -0.562180 -38.950430 0.465088 -0.546387 -0.696289 0.593262 0.500000 1 1 1.000000
1efc_ring29_mesh1
1 26.025750 -0.562180 -38.950430 0.465088 -0.546387 -0.696289 0.593262 0.500000 1 1 1.000000
1 29.718233 -0.562181 -36.211906 0.531250 -0.546387 -0.646973 0.608887 0.500000 1 1 1.000000
1 25.496744 -7.737594 -31.067995 0.465088 -0.679688 -0.566406 0.608887 1.000000 1 1 1.000000
1efc_ring29_mesh1
1 29.718233 -0.562181 -36.211906 0.531250 -0.546387 -0.646973 0.608887 0.500000 1 1 1.000000
1 28.419160 -7.737591 -28.419283 0.518066 -0.679688 -0.518066 0.624512 1.000000 1 1 1.000000
1 25.496744 -7.737594 -31.067995 0.465088 -0.679688 -0.566406 0.608887 1.000000 1 1 1.000000
1efc_ring29_mesh1
1 31.719593 6.613233 -38.650580 0.580566 -0.402344 -0.707520 0.608887 0.000000 1 1 1.000000
1 35.355267 6.613233 -35.355410 0.646973 -0.402344 -0.646973 0.624512 0.000000 1 1 1.000000
1 29.718233 -0.562181 -36.211906 0.531250 -0.546387 -0.646973 0.608887 0.500000 1 1 1.000000
1efc_ring29_mesh1
1 35.355267 6.613233 -35.355410 0.646973 -0.402344 -0.646973 0.624512 0.000000 1 1 1.000000
1 33.124510 -0.562179 -33.124650 0.591797 -0.546387 -0.591797 0.624512 0.500000 1 1 1.000000
1 29.718233 -0.562181 -36.211906 0.531250 -0.546387 -0.646973 0.608887 0.500000 1 1 1.000000
1efc_ring29_mesh1
1 29.718233 -0.562181 -36.211906 0.531250 -0.546387 -0.646973 0.608887 0.500000 1 1 1.000000
1 33.124510 -0.562179 -33.124650 0.591797 -0.546387 -0.591797 0.624512 0.500000 1 1 1.000000
1 28.419160 -7.737591 -28.419283 0.518066 -0.679688 -0.518066 0.624512 1.000000 1 1 1.000000
1efc_ring29_mesh1
1 33.124510 -0.562179 -33.124650 0.591797 -0.546387 -0.591797 0.624512 0.500000 1 1 1.000000
1 31.067886 -7.737593 -25.496880 0.566406 -0.679688 -0.465088 0.640137 1.000000 1 1 1.000000
1 28.419160 -7.737591 -28.419283 0.518066 -0.679688 -0.518066 0.624512 1.000000 1 1 1.000000
1efc_ring29_mesh1
1 35.355267 6.613233 -35.355410 0.646973 -0.402344 -0.646973 0.624512 0.000000 1 1 1.000000
1 38.650450 6.613233 -31.719751 0.707520 -0.402344 -0.580566 0.640137 0.000000 1 1 1.000000
1 33.124510 -0.562179 -33.124650 0.591797 -0.546387 -0.591797 0.624512 0.500000 1 1 1.000000
1efc_ring29_mesh1
1 38.650450 6.613233 -31.719751 0.707520 -0.402344 -0.580566 0.640137 0.000000 1 1 1.000000
1 36.211784 -0.562180 -29.718384 0.646973 -0.546387 -0.531250 0.640137 0.500000 1 1 1.000000
1 33.124510 -0.562179 -33.124650 0.591797 -0.546387 -0.591797 0.624512 0.500000 1 1 1.000000
1efc_ring29_mesh1
1 33.124510 -0.562179 -33.124650 0.591797 -0.546387 -0.591797 0.624512 0.500000 1 1 1.000000
1 36.211784 -0.562180 -29.718384 0.646973 -0.546387 -0.531250 0.640137 0.500000 1 1 1.000000
1 31.067886 -7.737593 -25.496880 0.566406 -0.679688 -0.465088 0.640137 1.000000 1 1 1.000000
1efc_ring29_mesh1
1 36.211784 -0.562180 -29.718384 0.646973 -0.546387 -0.531250 0.640137 0.500000 1 1 1.000000
1 33.417410 -7.737594 -22.328928 0.609375 -0.679688 -0.407227 0.655762 1.000000 1 1 1.000000
1 31.067886 -7.737593 -25.496880 0.566406 -0.679688 -0.465088 0.640137 1.000000 1 1 1.000000
1efc_ring29_mesh1
1 38.650450 6.613233 -31.719751 0.707520 -0.402344 -0.580566 0.640137 0.000000 1 1 1.000000
1 41.573414 6.613232 -27.778614 0.760742 -0.402344 -0.508301 0.655762 0.000000 1 1 1.000000
1 36.211784 -0.562180 -29.718384 0.646973 -0.546387 -0.531250 0.640137 0.500000 1 1 1.000000
1efc_ring29_mesh1
1 41.573414 6.613232 -27.778614 0.760742 -0.402344 -0.508301 0.655762 0.000000 1 1 1.000000
1 38.950325 -0.562181 -26.025913 0.696289 -0.546387 -0.465088 0.655762 0.500000 1 1 1.000000
1 36.211784 -0.562180 -29.718384 0.646973 -0.546387 -0.531250 0.640137 0.500000 1 1 1.000000
1efc_ring29_mesh1
1 36.211784 -0.562180 -29.718384 0.646973 -0.546387 -0.531250 0.640137 0.500000 1 1 1.000000
1 38.950325 -0.562181 -26.025913 0.696289 -0.546387 -0.465088 0.655762 0.500000 1 1 1.000000
1 33.417410 -7.737594 -22.328928 0.609375 -0.679688 -0.407227 0.655762 1.000000 1 1 1.000000
1efc_ring29_mesh1
1 38.950325 -0.562181 -26.025913 0.696289 -0.546387 -0.465088 0.655762 0.500000 1 1 1.000000
1 35.445107 -7.737594 -18.945934 0.646484 -0.679688 -0.345459 0.671387 1.000000 1 1 1.000000
1 33.417410 -7.737594 -22.328928 0.609375 -0.679688 -0.407227 0.655762 1.000000 1 1 1.000000
1efc_ring29_mesh1
1 41.573414 6.613232 -27.778614 0.760742 -0.402344 -0.508301 0.655762 0.000000 1 1 1.000000
1 44.096000 6.613232 -23.569954 0.807129 -0.402344 -0.431396 0.671387 0.000000 1 1 1.000000
1 38.950325 -0.562181 -26.025913 0.696289 -0.546387 -0.465088 0.655762 0.500000 1 1 1.000000
1efc_ring29_mesh1
1 44.096000 6.613232 -23.569954 0.807129 -0.402344 -0.431396 0.671387 0.000000 1 1 1.000000
1 41.313744 -0.562181 -22.082800 0.738281 -0.546387 -0.394775 0.671387 0.500000 1 1 1.000000
1 38.950325 -0.562181 -26.025913 0.696289 -0.546387 -0.465088 0.655762 0.500000 1 1 1.000000
1efc_ring29_mesh1
1 38.950325 -0.562181 -26.025913 0.696289 -0.546387 -0.465088 0.655762 0.500000 1 1 1.000000
1 41.313744 -0.562181 -22.082800 0.738281 -0.546387 -0.394775 0.671387 0.500000 1 1 1.000000
1 35.445107 -7.737594 -18.945934 0.646484 -0.679688 -0.345459 0.671387 1.000000 1 1 1.000000
1efc_ring29_mesh1
1 41.313744 -0.562181 -22.082800 0.738281 -0.546387 -0.394775 0.671387 0.500000 1 1 1.000000
1 37.131450 -7.737594 -15.380482 0.677246 -0.679688 -0.280518 0.687012 1.000000 1 1 1.000000
1 35.445107 -7.737594 -18.945934 0.646484 -0.679688 -0.345459 0.671387 1.000000 1 1 1.000000
1efc_ring29_mesh1
1 44.096000 6.613232 -23.569954 0.807129 -0.402344 -0.431396 0.671387 0.000000 1 1 1.000000
1 46.193924 6.613232 -19.134302 0.845703 -0.402344 -0.350098 0.687012 0.000000 1 1 1.000000
1 41.313744 -0.562181 -22.082800 0.738281 -0.546387 -0.394775 0.671387 0.500000 1 1 1.000000
1efc_ring29_mesh1
1 46.193924 6.613232 -19.134302 0.845703 -0.402344 -0.350098 0.687012 0.000000 1 1 1.000000
1 43.279297 -0.562181 -17.927017 0.773438 -0.546387 -0.320312 0.687012 0.500000 1 1 1.000000
1 41.313744 -0.562181 -22.082800 0.738281 -0.546387 -0.394775 0.671387 0.500000 1 1 1.000000
1efc_ring29_mesh1
1 41.313744 -0.562181 -22.082800 0.738281 -0.546387 -0.394775 0.671387 0.500000 1 1 1.000000
1 43.279297 -0.562181 -17.927017 0.773438 -0.546387 -0.320312 0.687012 0.500000 1 1 1.000000
1 37.131450 -7.737594 -15.380482 0.677246 -0.679688 -0.280518 0.687012 1.000000 1 1 1.000000
1efc_ring29_mesh1
1 43.279297 -0.562181 -17.927017 0.773438 -0.546387 -0.320312 0.687012 0.500000 1 1 1.000000
1 38.460205 -7.737594 -11.666908 0.701172 -0.679688 -0.212769 0.702637 1.000000 1 1 1.000000
1 37.131450 -7.737594 -15.380482 0.677246 -0.679688 -0.280518 0.687012 1.000000 1 1 1.000000
1efc_ring29_mesh1
1 46.193924 6.613232 -19.134302 0.845703 -0.402344 -0.350098 0.687012 0.000000 1 1 1.000000
1 47.846973 6.613232 -14.514380 0.875977 -0.402344 -0.265625 0.702637 0.000000 1 1 1.000000
1 43.279297 -0.562181 -17.927017 0.773438 -0.546387 -0.320312 0.687012 0.500000 1 1 1.000000
1efc_ring29_mesh1
1 47.846973 6.613232 -14.514380 0.875977 -0.402344 -0.265625 0.702637 0.000000 1 1 1.000000
1 44.828050 -0.562182 -13.598591 0.801270 -0.546387 -0.243042 0.702637 0.500000 1 1 1.000000
1 43.279297 -0.562181 -17.927017 0.773438 -0.546387 -0.320312 0.687012 0.500000 1 1 1.000000
1efc_ring29_mesh1
1 43.279297 -0.562181 -17.927017 0.773438 -0.546387 -0.320312 0.687012 0.500000 1 1 1.000000
1 44.828050 -0.562182 -13.598591 0.801270 -0.546387 -0.243042 0.702637 0.500000 1 1 1.000000
1 38.460205 -7.737594 -11.666908 0.701172 -0.679688 -0.212769 0.702637 1.000000 1 1 1.000000
1efc_ring29_mesh1
1 44.828050 -0.562182 -13.598591 0.801270 -0.546387 -0.243042 0.702637 0.500000 1 1 1.000000
1 39.418564 -7.737594 -7.840978 0.718750 -0.679688 -0.142944 0.718262 1.000000 1 1 1.000000
1 38.460205 -7.737594 -11.666908 0.701172 -0.679688 -0.212769 0.702637 1.000000 1 1 1.000000
1efc_ring29_mesh1
1 47.846973 6.613232 -14.514380 0.875977 -0.402344 -0.265625 0.702637 0.000000 1 1 1.000000
1 49.039234 6.613231 -9.754675 0.897461 -0.402344 -0.178589 0.718262 0.000000 1 1 1.000000
1 44.828050 -0.562182 -13.598591 0.801270 -0.546387 -0.243042 0.702637 0.500000 1 1 1.000000
1efc_ring29_mesh1
1 49.039234 6.613231 -9.754675 0.897461 -0.402344 -0.178589 0.718262 0.000000 1 1 1.000000
1 45.945084 -0.562182 -9.139202 0.821289 -0.546387 -0.163330 0.718262 0.500000 1 1 1.000000
1 44.828050 -0.562182 -13.598591 0.801270 -0.546387 -0.243042 0.702637 0.500000 1 1 1.000000
1efc_ring29_mesh1
1 44.828050 -0.562182 -13.598591 0.801270 -0.546387 -0.243042 0.702637 0.500000 1 1 1.000000
1 45.945084 -0.562182 -9.139202 0.821289 -0.546387 -0.163330 0.718262 0.500000 1 1 1.000000
1 39.418564 -7.737594 -7.840978 0.718750 -0.679688 -0.142944 0.718262 1.000000 1 1 1.000000
1efc_ring29_mesh1
1 45.945084 -0.562182 -9.139202 0.821289 -0.546387 -0.163330 0.718262 0.500000 1 1 1.000000
1 39.997300 -7.737594 -3.939534 0.729492 -0.679688 -0.071838 0.733887 1.000000 1 1 1.000000
1 39.418564 -7.737594 -7.840978 0.718750 -0.679688 -0.142944 0.718262 1.000000 1 1 1.000000
1efc_ring29_mesh1
1 49.039234 6.613231 -9.754675 0.897461 -0.402344 -0.178589 0.718262 0.000000 1 1 1.000000
1 49.759220 6.613231 -4.901028 0.910645 -0.402344 -0.089722 0.733887 0.000000 1 1 1.000000
1 45.945084 -0.562182 -9.139202 0.821289 -0.546387 -0.163330 0.718262 0.500000 1 1 1.000000
1efc_ring29_mesh1
1 49.759220 6.613231 -4.901028 0.910645 -0.402344 -0.089722 0.733887 0.000000 1 1 1.000000
1 46.619644 -0.562182 -4.591797 0.833008 -0.546387 -0.082031 0.733887 0.500000 1 1 1.000000
1 45.945084 -0.562182 -9.139202 0.821289 -0.546387 -0.163330 0.718262 0.500000 1 1 1.000000
1efc_ring29_mesh1
1 45.945084 -0.562182 -9.139202 0.821289 -0.546387 -0.163330 0.718262 0.500000 1 1 1.000000
1 46.619644 -0.562182 -4.591797 0.833008 -0.546387 -0.082031 0.733887 0.500000 1 1 1.000000
1 39.997300 -7.737594 -3.939534 0.729492 -0.679688 -0.071838 0.733887 1.000000 1 1 1.000000
1efc_ring29_mesh1
1 46.619644 -0.562182 -4.591797 0.833008 -0.546387 -0.082031 0.733887 0.500000 1 1 1.000000
1 40.190845 -7.737594 0.000000 0.732910 -0.679688 0.000000 0.750000 1.000000 1 1 1.000000
1 39.997300 -7.737594 -3.939534 0.729492 -0.679688 -0.071838 0.733887 1.000000 1 1 1.000000
1efc_ring29_mesh1
1 49.759220 6.613231 -4.901028 0.910645 -0.402344 -0.089722 0.733887 0.000000 1 1 1.000000
1 50.000000 6.613230 0.000000 0.915039 -0.402344 0.000000 0.750000 0.000000 1 1 1.000000
1 46.619644 -0.562182 -4.591797 0.833008 -0.546387 -0.082031 0.733887 0.500000 1 1 1.000000
1efc_ring29_mesh1
1 50.000000 6.613230 0.000000 0.915039 -0.402344 0.000000 0.750000 0.000000 1 1 1.000000
1 46.845230 -0.562182 0.000000 0.837402 -0.546387 0.000000 0.750000 0.500000 1 1 1.000000
1 46.619644 -0.562182 -4.591797 0.833008 -0.546387 -0.082031 0.733887 0.500000 1 1 1.000000
1efc_ring29_mesh1
1 46.619644 -0.562182 -4.591797 0.833008 -0.546387 -0.082031 0.733887 0.500000 1 1 1.000000
1 46.845230 -0.562182 0.000000 0.837402 -0.546387 0.000000 0.750000 0.500000 1 1 1.000000
1 40.190845 -7.737594 0.000000 0.732910 -0.679688 0.000000 0.750000 1.000000 1 1 1.000000
1efc_ring29_mesh1
1 46.845230 -0.562182 0.000000 0.837402 -0.546387 0.000000 0.750000 0.500000 1 1 1.000000
1 39.997310 -7.737595 3.939387 0.729492 -0.679688 0.071838 0.765625 1.000000 1 1 1.000000
1 40.190845 -7.737594 0.000000 0.732910 -0.679688 0.000000 0.750000 1.000000 1 1 1.000000
1efc_ring29_mesh1
1 50.000000 6.613230 0.000000 0.915039 -0.402344 0.000000 0.750000 0.000000 1 1 1.000000
1 49.759235 6.613230 4.900857 0.910645 -0.402344 0.089722 0.765625 0.000000 1 1 1.000000
1 46.845230 -0.562182 0.000000 0.837402 -0.546387 0.000000 0.750000 0.500000 1 1 1.000000
1efc_ring29_mesh1
1 49.759235 6.613230 4.900857 0.910645 -0.402344 0.089722 0.765625 0.000000 1 1 1.000000
1 46.619656 -0.562183 4.591634 0.833008 -0.546387 0.082031 0.765625 0.500000 1 1 1.000000
1 46.845230 -0.562182 0.000000 0.837402 -0.546387 0.000000 0.750000 0.500000 1 1 1.000000
1efc_ring29_mesh1
1 46.845230 -0.562182 0.000000 0.837402 -0.546387 0.000000 0.750000 0.500000 1 1 1.000000
1 46.619656 -0.562183 4.591634 0.833008 -0.546387 0.082031 0.765625 0.500000 1 1 1.000000
1 39.997310 -7.737595 3.939387 0.729492 -0.679688 0.071838 0.765625 1.000000 1 1 1.000000
1efc_ring29_mesh1
1 46.619656 -0.562183 4.591634 0.833008 -0.546387 0.082031 0.765625 0.500000 1 1 1.000000
1 39.418583 -7.737595 7.840840 0.718750 -0.679688 0.142944 0.781250 1.000000 1 1 1.000000
1 39.997310 -7.737595 3.939387 0.729492 -0.679688 0.071838 0.765625 1.000000 1 1 1.000000
1efc_ring29_mesh1
1 49.759235 6.613230 4.900857 0.910645 -0.402344 0.089722 0.765625 0.000000 1 1 1.000000
1 49.039265 6.613229 9.754517 0.897461 -0.402344 0.178589 0.781250 0.000000 1 1 1.000000
1 46.619656 -0.562183 4.591634 0.833008 -0.546387 0.082031 0.765625 0.500000 1 1 1.000000
1efc_ring29_mesh1
1 49.039265 6.613229 9.754517 0.897461 -0.402344 0.178589 0.781250 0.000000 1 1 1.000000
1 45.945110 -0.562183 9.139050 0.821289 -0.546387 0.163330 0.781250 0.500000 1 1 1.000000
1 46.619656 -0.562183 4.591634 0.833008 -0.546387 0.082031 0.765625 0.500000 1 1 1.000000
1efc_ring29_mesh1
1 46.619656 -0.562183 4.591634 0.833008 -0.546387 0.082031 0.765625 0.500000 1 1 1.000000
1 45.945110 -0.562183 9.139050 0.821289 -0.546387 0.163330 0.781250 0.500000 1 1 1.000000
1 39.418583 -7.737595 7.840840 0.718750 -0.679688 0.142944 0.781250 1.000000 1 1 1.000000
1efc_ring29_mesh1
1 45.945110 -0.562183 9.139050 0.821289 -0.546387 0.163330 0.781250 0.500000 1 1 1.000000
1 38.460240 -7.737595 11.666781 0.701172 -0.679688 0.212769 0.796875 1.000000 1 1 1.000000
1 39.418583 -7.737595 7.840840 0.718750 -0.679688 0.142944 0.781250 1.000000 1 1 1.000000
1efc_ring29_mesh1
1 49.039265 6.613229 9.754517 0.897461 -0.402344 0.178589 0.781250 0.000000 1 1 1.000000
1 47.847015 6.613229 14.514234 0.875977 -0.402344 0.265625 0.796875 0.000000 1 1 1.000000
1 45.945110 -0.562183 9.139050 0.821289 -0.546387 0.163330 0.781250 0.500000 1 1 1.000000
1efc_ring29_mesh1
1 47.847015 6.613229 14.514234 0.875977 -0.402344 0.265625 0.796875 0.000000 1 1 1.000000
1 44.828087 -0.562183 13.598451 0.801270 -0.546387 0.243042 0.796875 0.500000 1 1 1.000000
1 45.945110 -0.562183 9.139050 0.821289 -0.546387 0.163330 0.781250 0.500000 1 1 1.000000
1efc_ring29_mesh1
1 45.945110 -0.562183 9.139050 0.821289 -0.546387 0.163330 0.781250 0.500000 1 1 1.000000
1 44.828087 -0.562183 13.598451 0.801270 -0.546387 0.243042 0.796875 0.500000 1 1 1.000000
1 38.460240 -7.737595 11.666781 0.701172 -0.679688 0.212769 0.796875 1.000000 1 1 1.000000
1efc_ring29_mesh1
1 44.828087 -0.562183 13.598451 0.801270 -0.546387 0.243042 0.796875 0.500000 1 1 1.000000
1 37.131496 -7.737596 15.380363 0.677246 -0.679688 0.280518 0.812500 1.000000 1 1 1.000000
1 38.460240 -7.737595 11.666781 0.701172 -0.679688 0.212769 0.796875 1.000000 1 1 1.000000
1efc_ring29_mesh1
1 47.847015 6.613229 14.514234 0.875977 -0.402344 0.265625 0.796875 0.000000 1 1 1.000000
1 46.193977 6.613229 19.134172 0.845703 -0.402344 0.350098 0.812500 0.000000 1 1 1.000000
1 44.828087 -0.562183 13.598451 0.801270 -0.546387 0.243042 0.796875 0.500000 1 1 1.000000
1efc_ring29_mesh1
1 46.193977 6.613229 19.134172 0.845703 -0.402344 0.350098 0.812500 0.000000 1 1 1.000000
1 43.279350 -0.562184 17.926891 0.773438 -0.546387 0.320312 0.812500 0.500000 1 1 1.000000
1 44.828087 -0.562183 13.598451 0.801270 -0.546387 0.243042 0.796875 0.500000 1 1 1.000000
1efc_ring29_mesh1
1 44.828087 -0.562183 13.598451 0.801270 -0.546387 0.243042 0.796875 0.500000 1 1 1.000000
1 43.279350 -0.562184 17.926891 0.773438 -0.546387 0.320312 0.812500 0.500000 1 1 1.000000
1 37.131496 -7.737596 15.380363 0.677246 -0.679688 0.280518 0.812500 1.000000 1 1 1.000000
1efc_ring29_mesh1
1 43.279350 -0.562184 17.926891 0.773438 -0.546387 0.320312 0.812500 0.500000 1 1 1.000000
1 35.445156 -7.737595 18.945826 0.646484 -0.679688 0.345459 0.828125 1.000000 1 1 1.000000
1 37.131496 -7.737596 15.380363 0.677246 -0.679688 0.280518 0.812500 1.000000 1 1 1.000000
1efc_ring29_mesh1
1 46.193977 6.613229 19.134172 0.845703 -0.402344 0.350098 0.812500 0.000000 1 1 1.000000
1 44.096060 6.613229 23.569838 0.807129 -0.402344 0.431396 0.828125 0.000000 1 1 1.000000
1 43.279350 -0.562184 17.926891 0.773438 -0.546387 0.320312 0.812500 0.500000 1 1 1.000000
1efc_ring29_mesh1
1 44.096060 6.613229 23.569838 0.807129 -0.402344 0.431396 0.828125 0.000000 1 1 1.000000
1 41.313805 -0.562183 22.082687 0.738281 -0.546387 0.394775 0.828125 0.500000 1 1 1.000000
1 43.279350 -0.562184 17.926891 0.773438 -0.546387 0.320312 0.812500 0.500000 1 1 1.000000
1efc_ring29_mesh1
1 43.279350 -0.562184 17.926891 0.773438 -0.546387 0.320312 0.812500 0.500000 1 1 1.000000
1 41.313805 -0.562183 22.082687 0.738281 -0.546387 0.394775 0.828125 0.500000 1 1 1.000000
1 35.445156 -7.737595 18.945826 0.646484 -0.679688 0.345459 0.828125 1.000000 1 1 1.000000
1efc_ring29_mesh1
1 41.313805 -0.562183 22.082687 0.738281 -0.546387 0.394775 0.828125 0.500000 1 1 1.000000
1 33.417460 -7.737595 22.328827 0.609375 -0.679688 0.407227 0.843750 1.000000 1 1 1.000000
1 35.445156 -7.737595 18.945826 0.646484 -0.679688 0.345459 0.828125 1.000000 1 1 1.000000
1efc_ring29_mesh1
1 44.096060 6.613229 23.569838 0.807129 -0.402344 0.431396 0.828125 0.000000 1 1 1.000000
1 41.573480 6.613228 27.778511 0.760742 -0.402344 0.508301 0.843750 0.000000 1 1 1.000000
1 41.313805 -0.562183 22.082687 0.738281 -0.546387 0.394775 0.828125 0.500000 1 1 1.000000
1efc_ring29_mesh1
1 41.573480 6.613228 27.778511 0.760742 -0.402344 0.508301 0.843750 0.000000 1 1 1.000000
1 38.950382 -0.562184 26.025812 0.696289 -0.546387 0.465088 0.843750 0.500000 1 1 1.000000
1 41.313805 -0.562183 22.082687 0.738281 -0.546387 0.394775 0.828125 0.500000 1 1 1.000000
1efc_ring29_mesh1
1 41.313805 -0.562183 22.082687 0.738281 -0.546387 0.394775 0.828125 0.500000 1 1 1.000000
1 38.950382 -0.562184 26.025812 0.696289 -0.546387 0.465088 0.843750 0.500000 1 1 1.000000
1 33.417460 -7.737595 22.328827 0.609375 -0.679688 0.407227 0.843750 1.000000 1 1 1.000000
1efc_ring29_mesh1
1 38.950382 -0.562184 26.025812 0.696289 -0.546387 0.465088 0.843750 0.500000 1 1 1.000000
1 31.067942 -7.737597 25.496796 0.566406 -0.679688 0.465088 0.859375 1.000000 1 1 1.000000
1 33.417460 -7.737595 22.328827 0.609375 -0.679688 0.407227 0.843750 1.000000 1 1 1.000000
1efc_ring29_mesh1
1 41.573480 6.613228 27.778511 0.760742 -0.402344 0.508301 0.843750 0.000000 1 1 1.000000
1 38.650524 6.613228 31.719664 0.707520 -0.402344 0.580566 0.859375 0.000000 1 1 1.000000
1 38.950382 -0.562184 26.025812 0.696289 -0.546387 0.465088 0.843750 0.500000 1 1 1.000000
1efc_ring29_mesh1
1 38.650524 6.613228 31.719664 0.707520 -0.402344 0.580566 0.859375 0.000000 1 1 1.000000
1 36.211853 -0.562185 29.718298 0.646973 -0.546387 0.531250 0.859375 0.500000 1 1 1.000000
1 38.950382 -0.562184 26.025812 0.696289 -0.546387 0.465088 0.843750 0.500000 1 1 1.000000
1efc_ring29_mesh1
1 38.950382 -0.562184 26.025812 0.696289 -0.546387 0.465088 0.843750 0.500000 1 1 1.000000
1 36.211853 -0.562185 29.718298 0.646973 -0.546387 0.531250 0.859375 0.500000 1 1 1.000000
1 31.067942 -7.737597 25.496796 0.566406 -0.679688 0.465088 0.859375 1.000000 1 1 1.000000
1efc_ring29_mesh1
1 36.211853 -0.562185 29.718298 0.646973 -0.546387 0.531250 0.859375 0.500000 1 1 1.000000
1 28.419218 -7.737599 28.419212 0.518066 -0.679688 0.518066 0.875000 1.000000 1 1 1.000000
1 31.067942 -7.737597 25.496796 0.566406 -0.679688 0.465088 0.859375 1.000000 1 1 1.000000
1efc_ring29_mesh1
1 38.650524 6.613228 31.719664 0.707520 -0.402344 0.580566 0.859375 0.000000 1 1 1.000000
1 35.355340 6.613228 35.355340 0.646973 -0.402344 0.646973 0.875000 0.000000 1 1 1.000000
1 36.211853 -0.562185 29.718298 0.646973 -0.546387 0.531250 0.859375 0.500000 1 1 1.000000
1efc_ring29_mesh1
1 35.355340 6.613228 35.355340 0.646973 -0.402344 0.646973 0.875000 0.000000 1 1 1.000000
1 33.124580 -0.562186 33.124580 0.591797 -0.546387 0.591797 0.875000 0.500000 1 1 1.000000
1 36.211853 -0.562185 29.718298 0.646973 -0.546387 0.531250 0.859375 0.500000 1 1 1.000000
1efc_ring29_mesh1
1 36.211853 -0.562185 29.718298 0.646973 -0.546387 0.531250 0.859375 0.500000 1 1 1.000000
1 33.124580 -0.562186 33.124580 0.591797 -0.546387 0.591797 0.875000 0.500000 1 1 1.000000
1 28.419218 -7.737599 28.419212 0.518066 -0.679688 0.518066 0.875000 1.000000 1 1 1.000000
1efc_ring29_mesh1
1 33.124580 -0.562186 33.124580 0.591797 -0.546387 0.591797 0.875000 0.500000 1 1 1.000000
1 25.496803 -7.737595 31.067938 0.465088 -0.679688 0.566406 0.890625 1.000000 1 1 1.000000
1 28.419218 -7.737599 28.419212 0.518066 -0.679688 0.518066 0.875000 1.000000 1 1 1.000000
1efc_ring29_mesh1
1 35.355340 6.613228 35.355340 0.646973 -0.402344 0.646973 0.875000 0.000000 1 1 1.000000
1 31.719666 6.613227 38.650520 0.580566 -0.402344 0.707520 0.890625 0.000000 1 1 1.000000
1 33.124580 -0.562186 33.124580 0.591797 -0.546387 0.591797 0.875000 0.500000 1 1 1.000000
1efc_ring29_mesh1
1 31.719666 6.613227 38.650520 0.580566 -0.402344 0.707520 0.890625 0.000000 1 1 1.000000
1 29.718300 -0.562184 36.211853 0.531250 -0.546387 0.646973 0.890625 0.500000 1 1 1.000000
1 33.124580 -0.562186 33.124580 0.591797 -0.546387 0.591797 0.875000 0.500000 1 1 1.000000
1efc_ring29_mesh1
1 33.124580 -0.562186 33.124580 0.591797 -0.546387 0.591797 0.875000 0.500000 1 1 1.000000
1 29.718300 -0.562184 36.211853 0.531250 -0.546387 0.646973 0.890625 0.500000 1 1 1.000000
1 25.496803 -7.737595 31.067938 0.465088 -0.679688 0.566406 0.890625 1.000000 1 1 1.000000
1efc_ring29_mesh1
1 29.718300 -0.562184 36.211853 0.531250 -0.546387 0.646973 0.890625 0.500000 1 1 1.000000
1 22.328840 -7.737595 33.417458 0.407227 -0.679688 0.609375 0.905762 1.000000 1 1 1.000000
1 25.496803 -7.737595 31.067938 0.465088 -0.679688 0.566406 0.890625 1.000000 1 1 1.000000
1efc_ring29_mesh1
1 31.719666 6.613227 38.650520 0.580566 -0.402344 0.707520 0.890625 0.000000 1 1 1.000000
1 27.778515 6.613227 41.573480 0.508301 -0.402344 0.760742 0.905762 0.000000 1 1 1.000000
1 29.718300 -0.562184 36.211853 0.531250 -0.546387 0.646973 0.890625 0.500000 1 1 1.000000
1efc_ring29_mesh1
1 27.778515 6.613227 41.573480 0.508301 -0.402344 0.760742 0.905762 0.000000 1 1 1.000000
1 26.025818 -0.562184 38.950382 0.465088 -0.546387 0.696289 0.905762 0.500000 1 1 1.000000
1 29.718300 -0.562184 36.211853 0.531250 -0.546387 0.646973 0.890625 0.500000 1 1 1.000000
1efc_ring29_mesh1
1 29.718300 -0.562184 36.211853 0.531250 -0.546387 0.646973 0.890625 0.500000 1 1 1.000000
1 26.025818 -0.562184 38.950382 0.465088 -0.546387 0.696289 0.905762 0.500000 1 1 1.000000
1 22.328840 -7.737595 33.417458 0.407227 -0.679688 0.609375 0.905762 1.000000 1 1 1.000000
1efc_ring29_mesh1
1 26.025818 -0.562184 38.950382 0.465088 -0.546387 0.696289 0.905762 0.500000 1 1 1.000000
1 18.945833 -7.737596 35.445152 0.345459 -0.679688 0.646484 0.921875 1.000000 1 1 1.000000
1 22.328840 -7.737595 33.417458 0.407227 -0.679688 0.609375 0.905762 1.000000 1 1 1.000000
1efc_ring29_mesh1
1 27.778515 6.613227 41.573480 0.508301 -0.402344 0.760742 0.905762 0.000000 1 1 1.000000
1 23.569838 6.613227 44.096060 0.431396 -0.402344 0.807129 0.921875 0.000000 1 1 1.000000
1 26.025818 -0.562184 38.950382 0.465088 -0.546387 0.696289 0.905762 0.500000 1 1 1.000000
1efc_ring29_mesh1
1 23.569838 6.613227 44.096060 0.431396 -0.402344 0.807129 0.921875 0.000000 1 1 1.000000
1 22.082690 -0.562185 41.313805 0.394775 -0.546387 0.738281 0.921875 0.500000 1 1 1.000000
1 26.025818 -0.562184 38.950382 0.465088 -0.546387 0.696289 0.905762 0.500000 1 1 1.000000
1efc_ring29_mesh1
1 26.025818 -0.562184 38.950382 0.465088 -0.546387 0.696289 0.905762 0.500000 1 1 1.000000
1 22.082690 -0.562185 41.313805 0.394775 -0.546387 0.738281 0.921875 0.500000 1 1 1.000000
1 18.945833 -7.737596 35.445152 0.345459 -0.679688 0.646484 0.921875 1.000000 1 1 1.000000
1efc_ring29_mesh1
1 22.082690 -0.562185 41.313805 0.394775 -0.546387 0.738281 0.921875 0.500000 1 1 1.000000
1 15.380368 -7.737597 37.131496 0.280518 -0.679688 0.677246 0.937500 1.000000 1 1 1.000000
1 18.945833 -7.737596 35.445152 0.345459 -0.679688 0.646484 0.921875 1.000000 1 1 1.000000
1efc_ring29_mesh1
1 23.569838 6.613227 44.096060 0.431396 -0.402344 0.807129 0.921875 0.000000 1 1 1.000000
1 19.134170 6.613227 46.193977 0.350098 -0.402344 0.845703 0.937500 0.000000 1 1 1.000000
1 22.082690 -0.562185 41.313805 0.394775 -0.546387 0.738281 0.921875 0.500000 1 1 1.000000
1efc_ring29_mesh1
1 19.134170 6.613227 46.193977 0.350098 -0.402344 0.845703 0.937500 0.000000 1 1 1.000000
1 17.926891 -0.562185 43.279350 0.320312 -0.546387 0.773438 0.937500 0.500000 1 1 1.000000
1 22.082690 -0.562185 41.313805 0.394775 -0.546387 0.738281 0.921875 0.500000 1 1 1.000000
1efc_ring29_mesh1
1 22.082690 -0.562185 41.313805 0.394775 -0.546387 0.738281 0.921875 0.500000 1 1 1.000000
1 17.926891 -0.562185 43.279350 0.320312 -0.546387 0.773438 0.937500 0.500000 1 1 1.000000
1 15.380368 -7.737597 37.131496 0.280518 -0.679688 0.677246 0.937500 1.000000 1 1 1.000000
1efc_ring29_mesh1
1 17.926891 -0.562185 43.279350 0.320312 -0.546387 0.773438 0.937500 0.500000 1 1 1.000000
1 11.666781 -7.737599 38.460236 0.212769 -0.679688 0.701172 0.953125 1.000000 1 1 1.000000
1 15.380368 -7.737597 37.131496 0.280518 -0.679688 0.677246 0.937500 1.000000 1 1 1.000000
1efc_ring29_mesh1
1 19.134170 6.613227 46.193977 0.350098 -0.402344 0.845703 0.937500 0.000000 1 1 1.000000
1 14.514232 6.613227 47.847020 0.265625 -0.402344 0.875977 0.953125 0.000000 1 1 1.000000
1 17.926891 -0.562185 43.279350 0.320312 -0.546387 0.773438 0.937500 0.500000 1 1 1.000000
1efc_ring29_mesh1
1 14.514232 6.613227 47.847020 0.265625 -0.402344 0.875977 0.953125 0.000000 1 1 1.000000
1 13.598450 -0.562186 44.828090 0.243042 -0.546387 0.801270 0.953125 0.500000 1 1 1.000000
1 17.926891 -0.562185 43.279350 0.320312 -0.546387 0.773438 0.937500 0.500000 1 1 1.000000
1efc_ring29_mesh1
1 17.926891 -0.562185 43.279350 0.320312 -0.546387 0.773438 0.937500 0.500000 1 1 1.000000
1 13.598450 -0.562186 44.828090 0.243042 -0.546387 0.801270 0.953125 0.500000 1 1 1.000000
1 11.666781 -7.737599 38.460236 0.212769 -0.679688 0.701172 0.953125 1.000000 1 1 1.000000
1efc_ring29_mesh1
1 13.598450 -0.562186 44.828090 0.243042 -0.546387 0.801270 0.953125 0.500000 1 1 1.000000
1 7.840840 -7.737599 39.418580 0.142944 -0.679688 0.718750 0.968750 1.000000 1 1 1.000000
1 11.666781 -7.737599 38.460236 0.212769 -0.679688 0.701172 0.953125 1.000000 1 1 1.000000
1efc_ring29_mesh1
1 14.514232 6.613227 47.847020 0.265625 -0.402344 0.875977 0.953125 0.000000 1 1 1.000000
1 9.754512 6.613227 49.039265 0.178589 -0.402344 0.897461 0.968750 0.000000 1 1 1.000000
1 13.598450 -0.562186 44.828090 0.243042 -0.546387 0.801270 0.953125 0.500000 1 1 1.000000
1efc_ring29_mesh1
1 9.754512 6.613227 49.039265 0.178589 -0.402344 0.897461 0.968750 0.000000 1 1 1.000000
1 9.139047 -0.562186 45.945110 0.163330 -0.546387 0.821289 0.968750 0.500000 1 1 1.000000
1 13.598450 -0.562186 44.828090 0.243042 -0.546387 0.801270 0.953125 0.500000 1 1 1.000000
1efc_ring29_mesh1
1 13.598450 -0.562186 44.828090 0.243042 -0.546387 0.801270 0.953125 0.500000 1 1 1.000000
1 9.139047 -0.562186 45.945110 0.163330 -0.546387 0.821289 0.968750 0.500000 1 1 1.000000
1 7.840840 -7.737599 39.418580 0.142944 -0.679688 0.718750 0.968750 1.000000 1 1 1.000000
1efc_ring29_mesh1
1 9.139047 -0.562186 45.945110 0.163330 -0.546387 0.821289 0.968750 0.500000 1 1 1.000000
1 3.939385 -7.737599 39.997307 0.071838 -0.679688 0.729492 0.984375 1.000000 1 1 1.000000
1 7.840840 -7.737599 39.418580 0.142944 -0.679688 0.718750 0.968750 1.000000 1 1 1.000000
1efc_ring29_mesh1
1 9.754512 6.613227 49.039265 0.178589 -0.402344 0.897461 0.968750 0.000000 1 1 1.000000
1 4.900851 6.613227 49.759235 0.089722 -0.402344 0.910645 0.984375 0.000000 1 1 1.000000
1 9.139047 -0.562186 45.945110 0.163330 -0.546387 0.821289 0.968750 0.500000 1 1 1.000000
1efc_ring29_mesh1
1 4.900851 6.613227 49.759235 0.089722 -0.402344 0.910645 0.984375 0.000000 1 1 1.000000
1 4.591629 -0.562186 46.619656 0.082031 -0.546387 0.833008 0.984375 0.500000 1 1 1.000000
1 9.139047 -0.562186 45.945110 0.163330 -0.546387 0.821289 0.968750 0.500000 1 1 1.000000
1efc_ring29_mesh1
1 9.139047 -0.562186 45.945110 0.163330 -0.546387 0.821289 0.968750 0.500000 1 1 1.000000
1 4.591629 -0.562186 46.619656 0.082031 -0.546387 0.833008 0.984375 0.500000 1 1 1.000000
1 3.939385 -7.737599 39.997307 0.071838 -0.679688 0.729492 0.984375 1.000000 1 1 1.000000
1efc_ring29_mesh1
1 4.591629 -0.562186 46.619656 0.082031 -0.546387 0.833008 0.984375 0.500000 1 1 1.000000
1 0.000000 -7.737599 40.190840 0.000000 -0.679688 0.732910 1.000000 1.000000 1 1 1.000000
1 3.939385 -7.737599 39.997307 0.071838 -0.679688 0.729492 0.984375 1.000000 1 1 1.000000
1efc_ring29_mesh1
1 4.900851 6.613227 49.759235 0.089722 -0.402344 0.910645 0.984375 0.000000 1 1 1.000000
1 0.000000 6.613227 50.000000 0.000000 -0.402344 0.915039 1.000000 0.000000 1 1 1.000000
1 4.591629 -0.562186 46.619656 0.082031 -0.546387 0.833008 0.984375 0.500000 1 1 1.000000
1efc_ring29_mesh1
1 0.000000 6.613227 50.000000 0.000000 -0.402344 0.915039 1.000000 0.000000 1 1 1.000000
1 0.000000 -0.562186 46.845230 0.000000 -0.546387 0.837402 1.000000 0.500000 1 1 1.000000
1 4.591629 -0.562186 46.619656 0.082031 -0.546387 0.833008 0.984375 0.500000 1 1 1.000000
1efc_ring29_mesh1
1 4.591629 -0.562186 46.619656 0.082031 -0.546387 0.833008 0.984375 0.500000 1 1 1.000000
1 0.000000 -0.562186 46.845230 0.000000 -0.546387 0.837402 1.000000 0.500000 1 1 1.000000
1 0.000000 -7.737599 40.190840 0.000000 -0.679688 0.732910 1.000000 1.000000 1 1 1.000000
1efc_ring29_mesh1
1 -3.939401 -7.737599 39.997307 -0.071838 -0.679688 0.729492 0.015625 1.000000 1 1 1.000000
1 0.000000 -7.737599 40.190840 0.000000 -0.679688 0.732910 0.000000 1.000000 1 1 1.000000
1 0.000000 -0.562186 46.845230 0.000000 -0.546387 0.837402 0.000000 0.500000 1 1 1.000000
end
