version 1
nodes
0 "root" -1
1 "draw1_1efc_wtr03" 0
end
skeleton
time 0
0 0.000000 0.000000 0.000000 0.000000 -0.000000 0.000000
1 0.000000 0.000000 0.000000 0.000000 -0.000000 0.000000
end
triangles
1efc_wtr03_mesh1
1 -50.000000 0.000000 50.000000 0.000000 -1.000000 0.000000 0.000000 1.000000 1 1 1.000000
1 -50.000000 0.000000 -50.000000 0.000000 -1.000000 0.000000 0.000000 0.000000 1 1 1.000000
1 50.000000 0.000000 50.000000 0.000000 -1.000000 0.000000 1.000000 1.000000 1 1 1.000000
1efc_wtr03_mesh1
1 -50.000000 0.000000 -50.000000 0.000000 -1.000000 0.000000 0.000000 0.000000 1 1 1.000000
1 50.000000 0.000000 -50.000000 0.000000 -1.000000 0.000000 1.000000 0.000000 1 1 1.000000
1 50.000000 0.000000 50.000000 0.000000 -1.000000 0.000000 1.000000 1.000000 1 1 1.000000
end
