version 1
nodes
0 "root" -1
1 "draw1_1fireff1_07" 0
end
skeleton
time 0
0 0.000000 0.000000 0.000000 0.000000 -0.000000 0.000000
1 0.000000 0.000000 0.000000 0.000000 -0.000000 0.000000
end
triangles
1fireff1_07_mesh1
1 -5.602273 -14.136366 23.633610 0.414795 -0.279541 0.865723 0.219849 0.146973 1 1 1.000000
1 0.000000 -6.666668 23.361265 0.000000 -0.198120 0.979980 0.500000 0.333496 1 1 1.000000
1 -8.087330 -6.666668 27.457780 0.447754 -0.154541 0.880371 0.095581 0.333496 1 1 1.000000
1fireff1_07_mesh1
1 0.000000 -6.666668 23.361265 0.000000 -0.198120 0.979980 0.500000 0.333496 1 1 1.000000
1 0.000000 -0.144610 23.792896 0.000000 0.000000 0.999512 0.500000 0.496582 1 1 1.000000
1 -8.087330 -6.666668 27.457780 0.447754 -0.154541 0.880371 0.095581 0.333496 1 1 1.000000
1fireff1_07_mesh1
1 -8.087330 -6.666668 27.457780 0.447754 -0.154541 0.880371 0.095581 0.333496 1 1 1.000000
1 0.000000 -0.144610 23.792896 0.000000 0.000000 0.999512 0.500000 0.496582 1 1 1.000000
1 -8.540079 -0.791934 28.118744 0.452393 -0.013100 0.891602 0.072937 0.480469 1 1 1.000000
1fireff1_07_mesh1
1 0.000000 -0.144610 23.792896 0.000000 0.000000 0.999512 0.500000 0.496582 1 1 1.000000
1 -6.604127 6.666665 26.706484 0.447754 0.109192 0.887207 0.169678 0.666748 1 1 1.000000
1 -8.540079 -0.791934 28.118744 0.452393 -0.013100 0.891602 0.072937 0.480469 1 1 1.000000
1fireff1_07_mesh1
1 -5.602273 -14.136366 23.633610 0.414795 -0.279541 0.865723 0.219849 0.146973 1 1 1.000000
1 0.000000 -18.659260 19.644264 0.015793 -0.295898 0.954590 0.500000 0.033691 1 1 1.000000
1 0.000000 -6.666668 23.361265 0.000000 -0.198120 0.979980 0.500000 0.333496 1 1 1.000000
1fireff1_07_mesh1
1 0.000000 -18.659260 19.644264 0.015793 -0.295898 0.954590 0.500000 0.033691 1 1 1.000000
1 5.315289 -13.753719 23.619660 -0.415039 -0.279785 0.865234 0.765625 0.156250 1 1 1.000000
1 0.000000 -6.666668 23.361265 0.000000 -0.198120 0.979980 0.500000 0.333496 1 1 1.000000
1fireff1_07_mesh1
1 0.000000 -6.666668 23.361265 0.000000 -0.198120 0.979980 0.500000 0.333496 1 1 1.000000
1 5.315289 -13.753719 23.619660 -0.415039 -0.279785 0.865234 0.765625 0.156250 1 1 1.000000
1 8.243444 -6.666668 27.536856 -0.448486 -0.152344 0.880371 0.912109 0.333496 1 1 1.000000
1fireff1_07_mesh1
1 0.000000 -6.666668 23.361265 0.000000 -0.198120 0.979980 0.500000 0.333496 1 1 1.000000
1 8.243444 -6.666668 27.536856 -0.448486 -0.152344 0.880371 0.912109 0.333496 1 1 1.000000
1 0.000000 -0.144610 23.792896 0.000000 0.000000 0.999512 0.500000 0.496582 1 1 1.000000
1fireff1_07_mesh1
1 8.243444 -6.666668 27.536856 -0.448486 -0.152344 0.880371 0.912109 0.333496 1 1 1.000000
1 8.608684 -0.978555 28.153494 -0.452881 -0.014130 0.891113 0.930176 0.475586 1 1 1.000000
1 0.000000 -0.144610 23.792896 0.000000 0.000000 0.999512 0.500000 0.496582 1 1 1.000000
1fireff1_07_mesh1
1 0.000000 -0.144610 23.792896 0.000000 0.000000 0.999512 0.500000 0.496582 1 1 1.000000
1 8.608684 -0.978555 28.153494 -0.452881 -0.014130 0.891113 0.930176 0.475586 1 1 1.000000
1 7.161140 6.666665 26.988630 -0.447266 0.112854 0.886719 0.857910 0.666748 1 1 1.000000
1fireff1_07_mesh1
1 -3.963692 11.951589 24.080286 0.423828 0.197754 0.883789 0.301758 0.798828 1 1 1.000000
1 0.000000 6.666665 23.361265 0.001122 0.148682 0.988770 0.500000 0.666748 1 1 1.000000
1 0.000000 17.933655 20.984411 -0.022659 0.206299 0.978027 0.500000 0.948364 1 1 1.000000
1fireff1_07_mesh1
1 0.000000 6.666665 23.361265 0.001122 0.148682 0.988770 0.500000 0.666748 1 1 1.000000
1 4.333197 12.444260 24.098248 -0.418945 0.201294 0.885254 0.716309 0.811157 1 1 1.000000
1 0.000000 17.933655 20.984411 -0.022659 0.206299 0.978027 0.500000 0.948364 1 1 1.000000
1fireff1_07_mesh1
1 -3.963692 11.951589 24.080286 0.423828 0.197754 0.883789 0.301758 0.798828 1 1 1.000000
1 -6.604127 6.666665 26.706484 0.447754 0.109192 0.887207 0.169678 0.666748 1 1 1.000000
1 0.000000 6.666665 23.361265 0.001122 0.148682 0.988770 0.500000 0.666748 1 1 1.000000
1fireff1_07_mesh1
1 -6.604127 6.666665 26.706484 0.447754 0.109192 0.887207 0.169678 0.666748 1 1 1.000000
1 0.000000 -0.144610 23.792896 0.000000 0.000000 0.999512 0.500000 0.496582 1 1 1.000000
1 0.000000 6.666665 23.361265 0.001122 0.148682 0.988770 0.500000 0.666748 1 1 1.000000
1fireff1_07_mesh1
1 0.000000 6.666665 23.361265 0.001122 0.148682 0.988770 0.500000 0.666748 1 1 1.000000
1 0.000000 -0.144610 23.792896 0.000000 0.000000 0.999512 0.500000 0.496582 1 1 1.000000
1 7.161140 6.666665 26.988630 -0.447266 0.112854 0.886719 0.857910 0.666748 1 1 1.000000
1fireff1_07_mesh1
1 0.000000 6.666665 23.361265 0.001122 0.148682 0.988770 0.500000 0.666748 1 1 1.000000
1 7.161140 6.666665 26.988630 -0.447266 0.112854 0.886719 0.857910 0.666748 1 1 1.000000
1 4.333197 12.444260 24.098248 -0.418945 0.201294 0.885254 0.716309 0.811157 1 1 1.000000
end
