version 1
nodes
0 "root" -1
1 "draw1_1fireff1_08" 0
end
skeleton
time 0
0 0.000000 0.000000 0.000000 0.000000 -0.000000 0.000000
1 0.000000 0.000000 0.000000 0.000000 -0.000000 0.000000
end
triangles
1fireff1_08_mesh1
1 -7.314293 -10.530361 25.544780 0.431885 -0.292725 0.852539 0.134277 0.236816 1 1 1.000000
1 -1.579087 -8.772117 23.243550 0.385254 -0.256592 0.886230 0.420898 0.280762 1 1 1.000000
1 -8.124279 -6.666668 27.282017 0.447998 -0.126587 0.884766 0.093750 0.333496 1 1 1.000000
1fireff1_08_mesh1
1 -1.579087 -8.772117 23.243550 0.385254 -0.256592 0.886230 0.420898 0.280762 1 1 1.000000
1 0.000000 -6.666668 23.166786 0.000000 -0.153809 0.987793 0.500000 0.333496 1 1 1.000000
1 -8.124279 -6.666668 27.282017 0.447998 -0.126587 0.884766 0.093750 0.333496 1 1 1.000000
1fireff1_08_mesh1
1 -8.124279 -6.666668 27.282017 0.447998 -0.126587 0.884766 0.093750 0.333496 1 1 1.000000
1 0.000000 -6.666668 23.166786 0.000000 -0.153809 0.987793 0.500000 0.333496 1 1 1.000000
1 -8.504227 1.206124 27.474476 0.448242 0.000000 0.893555 0.074768 0.530273 1 1 1.000000
1fireff1_08_mesh1
1 0.000000 -6.666668 23.166786 0.000000 -0.153809 0.987793 0.500000 0.333496 1 1 1.000000
1 -8.504227 1.206124 27.474476 0.450195 0.000000 0.892578 0.074768 0.530273 1 1 1.000000
1 -8.504227 1.206124 27.474476 0.448242 0.000000 0.893555 0.074768 0.530273 1 1 1.000000
1fireff1_08_mesh1
1 5.061123 10.573658 24.388597 -0.431885 0.292725 0.852539 0.752930 0.764404 1 1 1.000000
1 4.270712 12.360947 23.374400 -0.380615 0.253174 0.889160 0.713379 0.809082 1 1 1.000000
1 2.772199 10.362929 23.301550 -0.366943 0.242554 0.897949 0.638184 0.759155 1 1 1.000000
1fireff1_08_mesh1
1 4.270712 12.360947 23.374400 -0.380615 0.253174 0.889160 0.713379 0.809082 1 1 1.000000
1 0.000000 18.073267 20.311570 -0.347656 0.227661 0.909180 0.500000 0.951843 1 1 1.000000
1 2.772199 10.362929 23.301550 -0.366943 0.242554 0.897949 0.638184 0.759155 1 1 1.000000
1fireff1_08_mesh1
1 2.772199 10.362929 23.301550 -0.366943 0.242554 0.897949 0.638184 0.759155 1 1 1.000000
1 0.000000 18.073267 20.311570 -0.347656 0.227661 0.909180 0.500000 0.951843 1 1 1.000000
1 1.471585 8.628777 23.238325 -0.345215 0.225830 0.910645 0.573242 0.715820 1 1 1.000000
1fireff1_08_mesh1
1 0.000000 18.073267 20.311570 -0.347656 0.227661 0.909180 0.500000 0.951843 1 1 1.000000
1 0.000000 18.073267 20.311570 0.195190 0.238037 0.951172 0.500000 0.951843 1 1 1.000000
1 1.471585 8.628777 23.238325 -0.345215 0.225830 0.910645 0.573242 0.715820 1 1 1.000000
1fireff1_08_mesh1
1 1.471585 8.628777 23.238325 -0.345215 0.225830 0.910645 0.573242 0.715820 1 1 1.000000
1 0.000000 18.073267 20.311570 0.195190 0.238037 0.951172 0.500000 0.951843 1 1 1.000000
1 0.000000 6.666665 23.166786 0.026154 0.156860 0.986816 0.500000 0.666748 1 1 1.000000
1fireff1_08_mesh1
1 0.000000 18.073267 20.311570 0.195190 0.238037 0.951172 0.500000 0.951843 1 1 1.000000
1 -3.753676 11.671567 23.349264 0.380371 0.252686 0.889160 0.312256 0.791870 1 1 1.000000
1 0.000000 6.666665 23.166786 0.026154 0.156860 0.986816 0.500000 0.666748 1 1 1.000000
1fireff1_08_mesh1
1 0.000000 6.666665 23.166786 0.026154 0.156860 0.986816 0.500000 0.666748 1 1 1.000000
1 -3.753676 11.671567 23.349264 0.380371 0.252686 0.889160 0.312256 0.791870 1 1 1.000000
1 -6.240833 6.666665 26.327986 0.449707 0.096619 0.887695 0.187866 0.666748 1 1 1.000000
1fireff1_08_mesh1
1 -6.240833 6.666665 26.327986 0.449707 0.096619 0.887695 0.187866 0.666748 1 1 1.000000
1 -8.504227 1.206124 27.474476 0.450195 0.000000 0.892578 0.074768 0.530273 1 1 1.000000
1 0.000000 6.666665 23.166786 0.026154 0.156860 0.986816 0.500000 0.666748 1 1 1.000000
1fireff1_08_mesh1
1 -8.504227 1.206124 27.474476 0.450195 0.000000 0.892578 0.074768 0.530273 1 1 1.000000
1 0.000000 1.551668 23.166786 0.000000 0.000000 1.000000 0.500000 0.538818 1 1 1.000000
1 0.000000 6.666665 23.166786 0.026154 0.156860 0.986816 0.500000 0.666748 1 1 1.000000
1fireff1_08_mesh1
1 0.000000 6.666665 23.166786 0.026154 0.156860 0.986816 0.500000 0.666748 1 1 1.000000
1 0.000000 1.551668 23.166786 0.000000 0.000000 1.000000 0.500000 0.538818 1 1 1.000000
1 2.180337 5.410689 24.271202 -0.430908 0.044006 0.900879 0.608887 0.635498 1 1 1.000000
1fireff1_08_mesh1
1 0.000000 1.551668 23.166786 0.000000 0.000000 1.000000 0.500000 0.538818 1 1 1.000000
1 0.000000 -6.666668 23.166786 0.000000 -0.153809 0.987793 0.500000 0.333496 1 1 1.000000
1 2.180337 5.410689 24.271202 -0.430908 0.044006 0.900879 0.608887 0.635498 1 1 1.000000
1fireff1_08_mesh1
1 2.180337 5.410689 24.271202 -0.430908 0.044006 0.900879 0.608887 0.635498 1 1 1.000000
1 0.000000 -6.666668 23.166786 0.000000 -0.153809 0.987793 0.500000 0.333496 1 1 1.000000
1 3.847378 4.450396 25.115618 -0.451660 0.000000 0.891602 0.691895 0.611328 1 1 1.000000
1fireff1_08_mesh1
1 0.000000 -6.666668 23.166786 0.000000 -0.153809 0.987793 0.500000 0.333496 1 1 1.000000
1 8.666908 1.281811 27.556875 -0.451660 0.000000 0.891602 0.933105 0.532227 1 1 1.000000
1 3.847378 4.450396 25.115618 -0.451660 0.000000 0.891602 0.691895 0.611328 1 1 1.000000
1fireff1_08_mesh1
1 3.847378 4.450396 25.115618 -0.451660 0.000000 0.891602 0.691895 0.611328 1 1 1.000000
1 8.666908 1.281811 27.556875 -0.451660 0.000000 0.891602 0.933105 0.532227 1 1 1.000000
1 6.788953 6.666665 26.605627 -0.451660 0.000000 0.891602 0.839355 0.666748 1 1 1.000000
1fireff1_08_mesh1
1 8.666908 1.281811 27.556875 -0.451660 0.000000 0.891602 0.933105 0.532227 1 1 1.000000
1 0.000000 -6.666668 23.166786 0.000000 -0.153809 0.987793 0.500000 0.333496 1 1 1.000000
1 8.022052 -6.666668 27.230234 -0.447998 -0.130005 0.884277 0.900879 0.333496 1 1 1.000000
1fireff1_08_mesh1
1 0.000000 -6.666668 23.166786 0.000000 -0.153809 0.987793 0.500000 0.333496 1 1 1.000000
1 7.740827 -9.031672 26.275547 -0.431885 -0.292725 0.852539 0.886719 0.274414 1 1 1.000000
1 8.022052 -6.666668 27.230234 -0.447998 -0.130005 0.884277 0.900879 0.333496 1 1 1.000000
1fireff1_08_mesh1
1 7.740827 -9.031672 26.275547 -0.431885 -0.292725 0.852539 0.886719 0.274414 1 1 1.000000
1 0.000000 -6.666668 23.166786 0.000000 -0.153809 0.987793 0.500000 0.333496 1 1 1.000000
1 7.740827 -9.031672 26.275547 -0.431885 -0.292725 0.852539 0.886719 0.274414 1 1 1.000000
1fireff1_08_mesh1
1 0.000000 -6.666668 23.166786 0.000000 -0.153809 0.987793 0.500000 0.333496 1 1 1.000000
1 5.102173 -13.469566 23.414820 -0.379639 -0.252197 0.889648 0.754883 0.163574 1 1 1.000000
1 7.740827 -9.031672 26.275547 -0.431885 -0.292725 0.852539 0.886719 0.274414 1 1 1.000000
1fireff1_08_mesh1
1 5.102173 -13.469566 23.414820 -0.379639 -0.252197 0.889648 0.754883 0.163574 1 1 1.000000
1 0.000000 -6.666668 23.166786 0.000000 -0.153809 0.987793 0.500000 0.333496 1 1 1.000000
1 4.274295 -15.842353 22.504333 -0.347656 -0.227661 0.909180 0.713379 0.104004 1 1 1.000000
1fireff1_08_mesh1
1 0.000000 -6.666668 23.166786 0.000000 -0.153809 0.987793 0.500000 0.333496 1 1 1.000000
1 0.000000 -20.000000 19.829287 -0.247192 -0.235229 0.939941 0.500000 0.000000 1 1 1.000000
1 4.274295 -15.842353 22.504333 -0.347656 -0.227661 0.909180 0.713379 0.104004 1 1 1.000000
1fireff1_08_mesh1
1 0.000000 -6.666668 23.166786 0.000000 -0.153809 0.987793 0.500000 0.333496 1 1 1.000000
1 -1.579087 -8.772117 23.243550 0.385254 -0.256592 0.886230 0.420898 0.280762 1 1 1.000000
1 0.000000 -20.000000 19.829287 -0.247192 -0.235229 0.939941 0.500000 0.000000 1 1 1.000000
1fireff1_08_mesh1
1 -1.579087 -8.772117 23.243550 0.385254 -0.256592 0.886230 0.420898 0.280762 1 1 1.000000
1 0.000000 -20.000000 19.829287 0.347656 -0.227661 0.909180 0.500000 0.000000 1 1 1.000000
1 0.000000 -20.000000 19.829287 -0.247192 -0.235229 0.939941 0.500000 0.000000 1 1 1.000000
1fireff1_08_mesh1
1 4.270712 12.360947 23.374400 -0.380615 0.253174 0.889160 0.713379 0.809082 1 1 1.000000
1 0.000000 18.073267 20.311570 0.195190 0.238037 0.951172 0.500000 0.951843 1 1 1.000000
1 0.000000 18.073267 20.311570 -0.347656 0.227661 0.909180 0.500000 0.951843 1 1 1.000000
1fireff1_08_mesh1
1 1.471585 8.628777 23.238325 -0.345215 0.225830 0.910645 0.573242 0.715820 1 1 1.000000
1 0.000000 6.666665 23.166786 0.026154 0.156860 0.986816 0.500000 0.666748 1 1 1.000000
1 2.180337 5.410689 24.271202 -0.430908 0.044006 0.900879 0.608887 0.635498 1 1 1.000000
1fireff1_08_mesh1
1 -1.579087 -8.772117 23.243550 0.385254 -0.256592 0.886230 0.420898 0.280762 1 1 1.000000
1 -5.612317 -14.149756 23.439621 0.347656 -0.227661 0.909180 0.219360 0.146484 1 1 1.000000
1 0.000000 -20.000000 19.829287 0.347656 -0.227661 0.909180 0.500000 0.000000 1 1 1.000000
1fireff1_08_mesh1
1 -8.504227 1.206124 27.474476 0.450195 0.000000 0.892578 0.074768 0.530273 1 1 1.000000
1 0.000000 -6.666668 23.166786 0.000000 -0.153809 0.987793 0.500000 0.333496 1 1 1.000000
1 0.000000 1.551668 23.166786 0.000000 0.000000 1.000000 0.500000 0.538818 1 1 1.000000
end
