version 1
nodes
0 "root" -1
1 "draw1_1fireff1_01_ne01" 0
2 "draw2_1fireff1_01_ne02" 0
3 "draw3_1fireff1_01_ne03" 0
4 "draw4_1fireff1_01_ne04" 0
5 "draw5_1fireff1_01_ne05" 0
end
skeleton
time 0
0 0.000000 0.000000 0.000000 0.000000 -0.000000 0.000000
1 -72.403442 -15.925571 -123.955078 1.027116 0.790272 0.912113
2 -18.529293 -19.099861 -95.784164 -1.570676 0.524898 -1.249211
3 -9.857725 -17.403023 -94.463936 1.570767 0.869427 1.336631
4 77.764359 1.276409 -113.007172 2.435851 1.157296 2.776108
5 42.643951 -22.421009 -96.743164 -1.570733 0.470066 -1.728898
time 1
0 0.000000 0.000000 0.000000 0.000000 -0.000000 0.000000
1 -72.403442 -15.925571 -123.955078 1.027286 0.790296 0.912291
2 -18.529293 -19.099861 -84.117493 -1.570796 0.524838 -1.249331
3 -9.857725 -17.403023 -94.463936 1.570796 0.869419 1.336661
4 77.764359 1.276409 -109.705734 2.435870 1.157285 2.776126
5 42.643951 -22.421009 -84.952179 -1.570796 0.636489 -1.728961
time 2
0 0.000000 0.000000 0.000000 0.000000 -0.000000 0.000000
1 -72.403442 -15.925571 -123.955078 1.027116 0.790272 0.912113
2 -18.529293 -19.099861 -72.450829 -1.570676 0.524898 -1.249211
3 -9.857725 -17.403023 -94.463936 1.570767 0.869427 1.336631
4 77.764359 1.276409 -106.404305 2.435851 1.157296 2.776108
5 42.643951 -22.421009 -73.161201 -1.570596 0.803011 -1.728761
time 3
0 0.000000 0.000000 0.000000 0.000000 -0.000000 0.000000
1 -72.403442 -15.925571 -123.955078 1.027286 0.790296 0.912291
2 -18.529293 -19.099861 -50.784161 -1.570796 0.524838 -1.249331
3 -9.857725 -17.403023 -94.463936 1.570796 0.869419 1.336661
4 77.764359 1.276409 -97.890083 2.435870 1.157285 2.776126
5 42.643951 -22.421009 -51.263664 -1.570797 0.990806 -1.728962
time 4
0 0.000000 0.000000 0.000000 0.000000 -0.000000 0.000000
1 -72.403442 -15.925571 -123.955078 1.027116 0.790272 0.912113
2 -18.529293 -19.099861 -29.117495 -1.570676 0.524898 -1.249211
3 -9.857725 -17.403023 -94.463936 1.570767 0.869427 1.336631
4 77.764359 1.276409 -89.375862 2.435851 1.157296 2.776108
5 42.643951 -22.421009 -29.366125 -1.570685 1.178654 -1.728850
time 5
0 0.000000 0.000000 0.000000 0.000000 -0.000000 0.000000
1 -72.403442 -15.925571 -106.749146 1.033868 0.779309 0.921604
2 -18.529293 -19.099861 -17.450829 -1.570796 0.641761 -1.249331
3 -9.857725 -17.403023 -94.463936 1.570796 0.869419 1.336661
4 77.764359 1.276409 -77.733971 2.256989 1.067041 2.576959
5 42.643951 -22.421009 -17.575146 -1.570796 1.378606 -1.728961
time 6
0 0.000000 0.000000 0.000000 0.000000 -0.000000 0.000000
1 -72.403442 -15.925571 -89.543205 1.040069 0.768259 0.930541
2 -18.529293 -19.099861 -5.784164 -1.570757 0.758690 -1.249292
3 -9.857725 -17.403023 -94.463936 1.570767 0.869427 1.336631
4 77.764359 1.276409 -66.092079 2.137622 0.964960 2.436795
5 42.643951 -22.421009 -5.784164 1.567459 1.563028 1.409294
time 7
0 0.000000 0.000000 0.000000 0.000000 -0.000000 0.000000
1 -72.403442 -15.925571 -70.526115 1.057343 0.736512 0.955744
2 -18.529293 -19.099861 -6.669581 -1.570796 0.888368 -1.249331
3 -9.857725 -17.403023 -94.463936 1.570796 0.869419 1.336661
4 77.764359 1.276409 -53.407623 2.048505 0.843000 2.323660
5 42.643951 -22.421009 -7.737983 1.570796 1.359907 1.412631
time 8
0 0.000000 0.000000 0.000000 0.000000 -0.000000 0.000000
1 -72.403442 -15.925571 -51.509026 1.072879 0.704448 0.979312
2 -18.529293 -19.099861 -7.554998 -1.570602 1.018091 -1.249137
3 -9.857725 -17.403023 -94.463936 1.570767 0.869427 1.336631
4 77.764359 1.276409 -40.723167 1.988193 0.716349 2.238169
5 42.643951 -22.421009 -9.691802 1.570424 1.156805 1.412259
time 9
0 0.000000 0.000000 0.000000 0.000000 -0.000000 0.000000
1 -72.403442 -15.925571 -36.114239 1.094712 0.653477 1.014040
2 -18.529293 -19.099861 -10.002914 -1.570796 1.156829 -1.249331
3 -9.857725 -17.403023 -94.463936 1.570796 0.869419 1.336661
4 77.764359 1.276409 -29.081272 1.944494 0.577646 2.165744
5 42.643951 -22.421009 -14.730598 1.570796 0.959774 1.412631
time 10
0 0.000000 0.000000 0.000000 0.000000 -0.000000 0.000000
1 -72.403442 -15.925571 -20.719446 1.113387 0.601963 1.045925
2 -18.529293 -19.099861 -12.450831 -1.570334 1.295614 -1.248869
3 -9.857725 -17.403023 -94.463936 1.570767 0.869427 1.336631
4 77.764359 1.276409 -17.439379 1.915014 0.437112 2.105298
5 42.643951 -22.421009 -19.769394 1.570677 0.762818 1.412512
time 11
0 0.000000 0.000000 0.000000 0.000000 -0.000000 0.000000
1 -72.403442 -15.925571 -14.380414 1.134419 0.533699 1.084881
2 -18.529293 -19.099861 -16.148748 -1.570798 1.439502 -1.249333
3 -9.857725 -17.403023 -90.007278 1.570796 0.749976 1.336661
4 77.764359 1.276409 -8.925159 1.895712 0.290563 2.050977
5 42.643951 -22.421009 -26.659178 1.570796 0.581041 1.412631
time 12
0 0.000000 0.000000 0.000000 0.000000 -0.000000 0.000000
1 -72.403442 -15.925571 -8.041385 1.151507 0.464836 1.120590
2 -18.529293 -19.099861 -19.846664 1.570692 1.558194 1.892157
3 -9.857725 -17.403023 -85.550621 1.570733 0.630556 1.336598
4 77.764359 1.276409 -0.410937 1.884922 0.143432 2.001140
5 42.643951 -22.421009 -33.548962 1.570650 0.399382 1.412485
time 13
0 0.000000 0.000000 0.000000 0.000000 -0.000000 0.000000
1 -72.403442 -15.925571 -9.139573 1.167934 0.381414 1.160499
2 -18.529293 -19.099861 -24.482082 1.570797 1.412945 1.892262
3 -9.857725 -17.403023 -74.923210 1.570796 0.497242 1.336661
4 77.764359 1.276409 2.890496 1.881628 -0.004197 1.953421
5 42.643951 -22.421009 -41.055740 1.570796 0.242019 1.412631
time 14
0 0.000000 0.000000 0.000000 0.000000 -0.000000 0.000000
1 -72.403442 -15.925571 -10.237761 1.180216 0.297514 1.197607
2 -18.529293 -19.099861 -29.117498 1.570542 1.267701 1.892007
3 -9.857725 -17.403023 -64.295792 1.570755 0.363981 1.336619
4 77.764359 1.276409 6.191928 1.885311 -0.151708 1.905585
5 42.643951 -22.421009 -48.562519 1.570710 0.084828 1.412545
time 15
0 0.000000 0.000000 0.000000 0.000000 -0.000000 0.000000
1 -72.403442 -15.925571 -13.301129 1.190268 0.201717 1.237848
2 -18.529293 -19.099861 -34.377914 1.570796 1.124982 1.892261
3 -9.857725 -17.403023 -51.611462 1.570796 0.221423 1.336661
4 77.764359 1.276409 3.170958 1.896100 -0.294382 1.857216
5 42.643951 -22.421009 -55.452301 1.570796 -0.038959 1.412631
time 16
0 0.000000 0.000000 0.000000 0.000000 -0.000000 0.000000
1 -72.403442 -15.925571 -16.364500 1.196130 0.105680 1.276324
2 -18.529293 -19.099861 -39.638329 1.570716 0.982291 1.892181
3 -9.857725 -17.403023 -38.927128 1.570713 0.078961 1.336578
4 77.764359 1.276409 0.149988 1.914972 -0.436225 1.804415
5 42.643951 -22.421009 -62.342087 1.570753 -0.162612 1.412588
time 17
0 0.000000 0.000000 0.000000 0.000000 -0.000000 0.000000
1 -72.403442 -15.925571 -21.046251 1.198366 0.000569 1.317600
2 -18.529293 -19.099861 -45.211246 1.570796 0.846096 1.892261
3 -9.857725 -17.403023 -28.299711 1.570796 -0.068318 1.336661
4 77.764359 1.276409 -7.640936 1.942034 -0.567787 1.748403
5 42.643951 -22.421009 -67.380882 1.570796 -0.243618 1.412631
time 18
0 0.000000 0.000000 0.000000 0.000000 -0.000000 0.000000
1 -72.403442 -15.925571 -25.728003 1.196157 -0.104481 1.358730
2 -18.529293 -19.099861 -50.784164 1.570704 0.709944 1.892169
3 -9.857725 -17.403023 -17.672295 1.570749 -0.215460 1.336613
4 77.764359 1.276409 -15.431859 1.981288 -0.697585 1.682134
5 42.643951 -22.421009 -72.419678 1.570720 -0.324477 1.412555
time 19
0 0.000000 0.000000 0.000000 0.000000 -0.000000 0.000000
1 -72.403442 -15.925571 -31.681341 1.189087 -0.215631 1.403497
2 -18.529293 -19.099861 -56.357079 1.570796 0.584003 1.892261
3 -9.857725 -17.403023 -13.215637 1.570796 -0.362597 1.336661
4 77.764359 1.276409 -26.084755 2.031335 -0.811820 1.609253
5 42.643951 -22.421009 -74.373497 1.570796 -0.353581 1.412631
time 20
0 0.000000 0.000000 0.000000 0.000000 -0.000000 0.000000
1 -72.403442 -15.925571 -37.634682 1.176476 -0.326262 1.450352
2 -18.529293 -19.099861 -61.929996 1.570787 0.458105 1.892252
3 -9.857725 -17.403023 -8.758980 1.570764 -0.509629 1.336629
4 77.764359 1.276409 -36.737656 2.102044 -0.922646 1.516688
5 42.643951 -22.421009 -76.327316 1.570790 -0.382573 1.412625
time 21
0 0.000000 0.000000 0.000000 0.000000 -0.000000 0.000000
1 -72.403442 -15.925571 -44.512814 1.156958 -0.439677 1.502635
2 -18.529293 -19.099861 -67.190414 1.570796 0.346398 1.892261
3 -9.857725 -17.403023 -11.063835 1.570796 -0.652248 1.336661
4 77.764359 1.276409 -48.344543 2.185792 -1.012069 1.415113
5 42.643951 -22.421009 -76.327316 1.570796 -0.382582 1.412631
time 22
0 0.000000 0.000000 0.000000 0.000000 -0.000000 0.000000
1 -72.403442 -15.925571 -51.390942 1.129259 -0.551872 1.560715
2 -18.529293 -19.099861 -72.450836 1.570693 0.234768 1.892158
3 -9.857725 -17.403023 -13.368690 1.570792 -0.794805 1.336657
4 77.764359 1.276409 -59.951431 2.302481 -1.095318 1.281003
5 42.643951 -22.421009 -76.327316 1.570790 -0.382573 1.412625
time 23
0 0.000000 0.000000 0.000000 0.000000 -0.000000 0.000000
1 -72.403442 -15.925571 -58.847065 1.090806 -0.663224 1.627990
2 -18.529293 -19.099861 -77.086250 1.570796 0.141152 1.892261
3 -9.857725 -17.403023 -19.312790 1.570796 -0.928089 1.336661
4 77.764359 1.276409 -70.604324 2.424661 -1.153021 1.145664
5 42.643951 -22.421009 -76.327316 1.570796 -0.382582 1.412631
time 24
0 0.000000 0.000000 0.000000 0.000000 -0.000000 0.000000
1 -72.403442 -15.925571 -66.303185 1.038134 -0.771934 1.707903
2 -18.529293 -19.099861 -81.721664 1.570709 0.047699 1.892174
3 -9.857725 -17.403023 -25.256891 1.570786 -1.061349 1.336651
4 77.764359 1.276409 -81.257225 2.583721 -1.201986 0.973564
5 42.643951 -22.421009 -76.327316 1.570790 -0.382573 1.412625
time 25
0 0.000000 0.000000 0.000000 0.000000 -0.000000 0.000000
1 -72.403442 -15.925571 -73.990509 0.966897 -0.875261 1.804889
2 -18.529293 -19.099861 -85.419579 1.570796 -0.024066 1.892261
3 -9.857725 -17.403023 -33.384541 1.570796 -1.180839 1.336661
4 77.764359 1.276409 -89.048149 2.708477 -1.227108 0.840490
5 42.643951 -22.421009 -76.327316 1.570796 -0.382582 1.412631
time 26
0 0.000000 0.000000 0.000000 0.000000 -0.000000 0.000000
1 -72.403442 -15.925571 -81.677826 0.868196 -0.972644 1.928331
2 -18.529293 -19.099861 -89.117493 1.570728 -0.095672 1.892193
3 -9.857725 -17.403023 -41.512188 1.570791 -1.300298 1.336656
4 77.764359 1.276409 -96.839073 2.850535 -1.245831 0.690136
5 42.643951 -22.421009 -76.327316 1.570790 -0.382573 1.412625
time 27
0 0.000000 0.000000 0.000000 0.000000 -0.000000 0.000000
1 -72.403442 -15.925571 -89.249550 0.736354 -1.057424 2.083346
2 -18.529293 -19.099861 -91.565414 1.570796 -0.141584 1.892261
3 -9.857725 -17.403023 -50.367683 1.570796 -1.401191 1.336661
4 77.764359 1.276409 -99.860046 2.904473 -1.250706 0.633273
5 42.643951 -22.421009 -76.327316 1.570796 -0.382582 1.412631
time 28
0 0.000000 0.000000 0.000000 0.000000 -0.000000 0.000000
1 -72.403442 -15.925571 -96.821274 0.554548 -1.128488 2.287786
2 -18.529293 -19.099861 -94.013329 1.570740 -0.187354 1.892205
3 -9.857725 -17.403023 -59.223183 1.570795 -1.502070 1.336660
4 77.764359 1.276409 -102.881012 2.959903 -1.254586 0.574916
5 42.643951 -22.421009 -76.327316 1.570790 -0.382573 1.412625
time 29
0 0.000000 0.000000 0.000000 0.000000 -0.000000 0.000000
1 -72.403442 -15.925571 -103.930603 0.330334 -1.175937 2.532935
2 -18.529293 -19.099861 -94.898743 1.570796 -0.203559 1.892261
3 -9.857725 -17.403023 -67.350830 -1.570796 -1.561726 -1.804931
4 77.764359 1.276409 -102.881012 2.959907 -1.254587 0.574913
5 42.643951 -22.421009 -76.327316 1.570796 -0.382582 1.412631
time 30
0 0.000000 0.000000 0.000000 0.000000 -0.000000 0.000000
1 -72.403442 -15.925571 -111.039925 0.062226 -1.197608 2.821806
2 -18.529293 -19.099861 -95.784164 1.570735 -0.219622 1.892200
3 -9.857725 -17.403023 -75.478485 -1.570795 -1.483930 -1.804930
4 77.764359 1.276409 -102.881012 2.959903 -1.254586 0.574916
5 42.643951 -22.421009 -76.327316 1.570790 -0.382573 1.412625
time 31
0 0.000000 0.000000 0.000000 0.000000 -0.000000 0.000000
1 -72.403442 -15.925571 -117.340057 -0.189587 -1.191228 3.092349
2 -18.529293 -19.099861 -95.784164 1.570796 -0.219697 1.892261
3 -9.857725 -17.403023 -81.422585 -1.570796 -1.433915 -1.804931
4 77.764359 1.276409 -102.881012 2.959907 -1.254587 0.574913
5 42.643951 -22.421009 -76.327316 1.570796 -0.382582 1.412631
time 32
0 0.000000 0.000000 0.000000 0.000000 -0.000000 0.000000
1 -72.403442 -15.925571 -123.640198 -0.418017 -1.161282 -2.943606
2 -18.529293 -19.099861 -95.784164 1.570735 -0.219622 1.892200
3 -9.857725 -17.403023 -87.366684 -1.570791 -1.383885 -1.804926
4 77.764359 1.276409 -102.881012 2.959903 -1.254586 0.574916
5 42.643951 -22.421009 -76.327316 1.570790 -0.382573 1.412625
time 33
0 0.000000 0.000000 0.000000 0.000000 -0.000000 0.000000
1 -72.403442 -15.925571 -123.640198 -0.418013 -1.161283 -2.943614
2 -18.529293 -19.099861 -95.784164 1.570796 -0.219697 1.892261
3 -9.857725 -17.403023 -89.671539 -1.570796 -1.366108 -1.804931
4 77.764359 1.276409 -102.881012 2.959907 -1.254587 0.574913
5 42.643951 -22.421009 -76.327316 1.570796 -0.382582 1.412631
time 34
0 0.000000 0.000000 0.000000 0.000000 -0.000000 0.000000
1 -72.403442 -15.925571 -123.640198 -0.418017 -1.161282 -2.943606
2 -18.529293 -19.099861 -95.784164 1.570735 -0.219622 1.892200
3 -9.857725 -17.403023 -91.976395 -1.570790 -1.348307 -1.804925
4 77.764359 1.276409 -102.881012 2.959903 -1.254586 0.574916
5 42.643951 -22.421009 -76.327316 1.570790 -0.382573 1.412625
time 35
0 0.000000 0.000000 0.000000 0.000000 -0.000000 0.000000
1 -72.403442 -15.925571 -123.640198 -0.418013 -1.161283 -2.943614
2 -18.529293 -19.099861 -95.784164 1.570796 -0.219697 1.892261
3 -9.857725 -17.403023 -91.976395 -1.570796 -1.348319 -1.804931
4 77.764359 1.276409 -102.881012 2.959907 -1.254587 0.574913
5 42.643951 -22.421009 -76.327316 1.570796 -0.382582 1.412631
time 36
0 0.000000 0.000000 0.000000 0.000000 -0.000000 0.000000
1 -72.403442 -15.925571 -123.640198 -0.418017 -1.161282 -2.943606
2 -18.529293 -19.099861 -95.784164 1.570735 -0.219622 1.892200
3 -9.857725 -17.403023 -91.976395 -1.570790 -1.348307 -1.804925
4 77.764359 1.276409 -102.881012 2.959903 -1.254586 0.574916
5 42.643951 -22.421009 -76.327316 1.570790 -0.382573 1.412625
time 37
0 0.000000 0.000000 0.000000 0.000000 -0.000000 0.000000
1 -72.403442 -15.925571 -123.640198 -0.418013 -1.161283 -2.943614
2 -18.529293 -19.099861 -95.784164 1.570796 -0.219697 1.892261
3 -9.857725 -17.403023 -91.976395 -1.570796 -1.348319 -1.804931
4 77.764359 1.276409 -102.881012 2.959907 -1.254587 0.574913
5 42.643951 -22.421009 -76.327316 1.570796 -0.382582 1.412631
time 38
0 0.000000 0.000000 0.000000 0.000000 -0.000000 0.000000
1 -72.403442 -15.925571 -123.640198 -0.418017 -1.161282 -2.943606
2 -18.529293 -19.099861 -95.784164 1.570735 -0.219622 1.892200
3 -9.857725 -17.403023 -91.976395 -1.570790 -1.348307 -1.804925
4 77.764359 1.276409 -102.881012 2.959903 -1.254586 0.574916
5 42.643951 -22.421009 -76.327316 1.570790 -0.382573 1.412625
time 39
0 0.000000 0.000000 0.000000 0.000000 -0.000000 0.000000
1 -72.403442 -15.925571 -123.640198 -0.418013 -1.161283 -2.943614
2 -18.529293 -19.099861 -95.784164 1.570796 -0.219697 1.892261
3 -9.857725 -17.403023 -91.976395 -1.570796 -1.348319 -1.804931
4 77.764359 1.276409 -102.881012 2.959907 -1.254587 0.574913
5 42.643951 -22.421009 -76.327316 1.570796 -0.382582 1.412631
time 40
0 0.000000 0.000000 0.000000 0.000000 -0.000000 0.000000
1 -72.403442 -15.925571 -123.640198 -0.418017 -1.161282 -2.943606
2 -18.529293 -19.099861 -95.784164 1.570735 -0.219622 1.892200
3 -9.857725 -17.403023 -91.976395 -1.570790 -1.348307 -1.804925
4 77.764359 1.276409 -102.881012 2.959903 -1.254586 0.574916
5 42.643951 -22.421009 -76.327316 1.570790 -0.382573 1.412625
end
