version 1
nodes
0 "root" -1
1 "draw1_1fireff1_08" 0
end
skeleton
time 0
0 0.000000 0.000000 0.000000 0.000000 -0.000000 0.000000
1 0.000000 0.000000 0.000000 0.000000 -0.000000 0.000000
time 1
0 0.000000 0.000000 0.000000 0.000000 -0.000000 0.000000
1 0.000000 0.000000 0.000000 0.129902 -0.059935 0.068003
time 2
0 0.000000 0.000000 0.000000 0.000000 -0.000000 0.000000
1 0.000000 0.000000 0.000000 0.256190 -0.128052 0.128021
time 3
0 0.000000 0.000000 0.000000 0.000000 -0.000000 0.000000
1 0.000000 0.000000 0.000000 0.390435 -0.190130 0.198565
time 4
0 0.000000 0.000000 0.000000 0.000000 -0.000000 0.000000
1 0.000000 0.000000 0.000000 0.521828 -0.260837 0.260936
time 5
0 0.000000 0.000000 0.000000 0.000000 -0.000000 0.000000
1 0.000000 0.000000 0.000000 0.660087 -0.325076 0.333785
time 6
0 0.000000 0.000000 0.000000 0.000000 -0.000000 0.000000
1 0.000000 0.000000 0.000000 0.796482 -0.398195 0.398223
time 7
0 0.000000 0.000000 0.000000 0.000000 -0.000000 0.000000
1 0.000000 0.000000 0.000000 0.938193 -0.464458 0.473304
time 8
0 0.000000 0.000000 0.000000 0.000000 -0.000000 0.000000
1 0.000000 0.000000 0.000000 1.079258 -0.539605 0.539664
time 9
0 0.000000 0.000000 0.000000 0.000000 -0.000000 0.000000
1 0.000000 0.000000 0.000000 1.224067 -0.607898 0.616872
time 10
0 0.000000 0.000000 0.000000 0.000000 -0.000000 0.000000
1 0.000000 0.000000 0.000000 1.369714 -0.684770 0.684860
time 11
0 0.000000 0.000000 0.000000 0.000000 -0.000000 0.000000
1 0.000000 0.000000 0.000000 1.517082 -0.755192 0.764222
time 12
0 0.000000 0.000000 0.000000 0.000000 -0.000000 0.000000
1 0.000000 0.000000 0.000000 1.667238 -0.833620 0.833546
time 13
0 0.000000 0.000000 0.000000 0.000000 -0.000000 0.000000
1 0.000000 0.000000 0.000000 1.816506 -0.906041 0.915233
time 14
0 0.000000 0.000000 0.000000 0.000000 -0.000000 0.000000
1 0.000000 0.000000 0.000000 1.971140 -0.985554 0.985530
time 15
0 0.000000 0.000000 0.000000 0.000000 -0.000000 0.000000
1 0.000000 0.000000 0.000000 2.121429 -1.060132 1.069902
time 16
0 0.000000 0.000000 0.000000 0.000000 -0.000000 0.000000
1 0.000000 0.000000 0.000000 2.280908 -1.140561 1.140362
time 17
0 0.000000 0.000000 0.000000 0.000000 -0.000000 0.000000
1 0.000000 0.000000 0.000000 2.430378 -1.217086 1.228731
time 18
0 0.000000 0.000000 0.000000 0.000000 -0.000000 0.000000
1 0.000000 0.000000 0.000000 2.595671 -1.297956 1.297985
time 19
0 0.000000 0.000000 0.000000 0.000000 -0.000000 0.000000
1 0.000000 0.000000 0.000000 2.739372 -1.376555 1.394935
time 20
0 0.000000 0.000000 0.000000 0.000000 -0.000000 0.000000
1 0.000000 0.000000 0.000000 2.915445 -1.457723 1.457700
time 21
0 0.000000 0.000000 0.000000 0.000000 -0.000000 0.000000
1 0.000000 0.000000 0.000000 2.975831 -1.538262 1.640135
time 22
0 0.000000 0.000000 0.000000 0.000000 -0.000000 0.000000
1 0.000000 0.000000 0.000000 0.095553 -1.521948 -1.520175
time 23
0 0.000000 0.000000 0.000000 0.000000 -0.000000 0.000000
1 0.000000 0.000000 0.000000 0.285962 -1.439370 -1.465983
time 24
0 0.000000 0.000000 0.000000 0.000000 -0.000000 0.000000
1 0.000000 0.000000 0.000000 0.424060 -1.358530 -1.358076
time 25
0 0.000000 0.000000 0.000000 0.000000 -0.000000 0.000000
1 0.000000 0.000000 0.000000 0.600089 -1.274081 -1.288307
time 26
0 0.000000 0.000000 0.000000 0.000000 -0.000000 0.000000
1 0.000000 0.000000 0.000000 0.754038 -1.193537 -1.193332
time 27
0 0.000000 0.000000 0.000000 0.000000 -0.000000 0.000000
1 0.000000 0.000000 0.000000 0.926468 -1.107551 -1.119167
time 28
0 0.000000 0.000000 0.000000 0.000000 -0.000000 0.000000
1 0.000000 0.000000 0.000000 1.086169 -1.027677 -1.027384
time 29
0 0.000000 0.000000 0.000000 0.000000 -0.000000 0.000000
1 0.000000 0.000000 0.000000 1.256758 -0.940158 -0.951140
time 30
0 0.000000 0.000000 0.000000 0.000000 -0.000000 0.000000
1 0.000000 0.000000 0.000000 1.419730 -0.860838 -0.860505
time 31
0 0.000000 0.000000 0.000000 0.000000 -0.000000 0.000000
1 0.000000 0.000000 0.000000 1.589254 -0.772107 -0.783494
time 32
0 0.000000 0.000000 0.000000 0.000000 -0.000000 0.000000
1 0.000000 0.000000 0.000000 1.754578 -0.693407 -0.693496
time 33
0 0.000000 0.000000 0.000000 0.000000 -0.000000 0.000000
1 0.000000 0.000000 0.000000 1.922825 -0.603872 -0.615877
time 34
0 0.000000 0.000000 0.000000 0.000000 -0.000000 0.000000
1 0.000000 0.000000 0.000000 2.089651 -0.525922 -0.525899
time 35
0 0.000000 0.000000 0.000000 0.000000 -0.000000 0.000000
1 0.000000 0.000000 0.000000 2.256647 -0.435831 -0.448344
time 36
0 0.000000 0.000000 0.000000 0.000000 -0.000000 0.000000
1 0.000000 0.000000 0.000000 2.424647 -0.358480 -0.358503
time 37
0 0.000000 0.000000 0.000000 0.000000 -0.000000 0.000000
1 0.000000 0.000000 0.000000 2.589998 -0.268192 -0.281284
time 38
0 0.000000 0.000000 0.000000 0.000000 -0.000000 0.000000
1 0.000000 0.000000 0.000000 2.758674 -0.191372 -0.191476
time 39
0 0.000000 0.000000 0.000000 0.000000 -0.000000 0.000000
1 0.000000 0.000000 0.000000 2.922267 -0.101317 -0.114857
time 40
0 0.000000 0.000000 0.000000 0.000000 -0.000000 0.000000
1 0.000000 0.000000 0.000000 3.091354 -0.025053 -0.025016
time 41
0 0.000000 0.000000 0.000000 0.000000 -0.000000 0.000000
1 0.000000 0.000000 0.000000 -3.030397 0.064368 0.050484
time 42
0 0.000000 0.000000 0.000000 0.000000 -0.000000 0.000000
1 0.000000 0.000000 0.000000 -2.861287 0.140156 0.140117
time 43
0 0.000000 0.000000 0.000000 0.000000 -0.000000 0.000000
1 0.000000 0.000000 0.000000 -2.702236 0.228738 0.214461
time 44
0 0.000000 0.000000 0.000000 0.000000 -0.000000 0.000000
1 0.000000 0.000000 0.000000 -2.533136 0.304197 0.304201
time 45
0 0.000000 0.000000 0.000000 0.000000 -0.000000 0.000000
1 0.000000 0.000000 0.000000 -2.377064 0.391514 0.376883
time 46
0 0.000000 0.000000 0.000000 0.000000 -0.000000 0.000000
1 0.000000 0.000000 0.000000 -2.208363 0.466624 0.466565
time 47
0 0.000000 0.000000 0.000000 0.000000 -0.000000 0.000000
1 0.000000 0.000000 0.000000 -2.055658 0.552370 0.537243
time 48
0 0.000000 0.000000 0.000000 0.000000 -0.000000 0.000000
1 0.000000 0.000000 0.000000 -1.887393 0.627132 0.627025
time 49
0 0.000000 0.000000 0.000000 0.000000 -0.000000 0.000000
1 0.000000 0.000000 0.000000 -1.738614 0.711009 0.695260
time 50
0 0.000000 0.000000 0.000000 0.000000 -0.000000 0.000000
1 0.000000 0.000000 0.000000 -1.570753 0.785388 0.785419
time 51
0 0.000000 0.000000 0.000000 0.000000 -0.000000 0.000000
1 0.000000 0.000000 0.000000 -1.426833 0.867156 0.850388
time 52
0 0.000000 0.000000 0.000000 0.000000 -0.000000 0.000000
1 0.000000 0.000000 0.000000 -1.259190 0.941057 0.941220
time 53
0 0.000000 0.000000 0.000000 0.000000 -0.000000 0.000000
1 0.000000 0.000000 0.000000 -1.121402 1.020613 1.001778
time 54
0 0.000000 0.000000 0.000000 0.000000 -0.000000 0.000000
1 0.000000 0.000000 0.000000 -0.953313 1.094026 1.094166
time 55
0 0.000000 0.000000 0.000000 0.000000 -0.000000 0.000000
1 0.000000 0.000000 0.000000 -0.823941 1.171094 1.148081
time 56
0 0.000000 0.000000 0.000000 0.000000 -0.000000 0.000000
1 0.000000 0.000000 0.000000 -0.653640 1.243798 1.243924
time 57
0 0.000000 0.000000 0.000000 0.000000 -0.000000 0.000000
1 0.000000 0.000000 0.000000 -0.538590 1.318377 1.285510
time 58
0 0.000000 0.000000 0.000000 0.000000 -0.000000 0.000000
1 0.000000 0.000000 0.000000 -0.360728 1.390341 1.390429
time 59
0 0.000000 0.000000 0.000000 0.000000 -0.000000 0.000000
1 0.000000 0.000000 0.000000 -0.288266 1.462052 1.391473
time 60
0 0.000000 0.000000 0.000000 0.000000 -0.000000 0.000000
1 0.000000 0.000000 0.000000 -0.078999 1.533055 1.529455
time 61
0 0.000000 0.000000 0.000000 0.000000 -0.000000 0.000000
1 0.000000 0.000000 0.000000 -2.853089 1.538464 -1.313863
time 62
0 0.000000 0.000000 0.000000 0.000000 -0.000000 0.000000
1 0.000000 0.000000 0.000000 -2.939424 1.469848 -1.469618
time 63
0 0.000000 0.000000 0.000000 0.000000 -0.000000 0.000000
1 0.000000 0.000000 0.000000 -2.765308 1.403277 -1.362490
time 64
0 0.000000 0.000000 0.000000 0.000000 -0.000000 0.000000
1 0.000000 0.000000 0.000000 -2.670800 1.335539 -1.335435
time 65
0 0.000000 0.000000 0.000000 0.000000 -0.000000 0.000000
1 0.000000 0.000000 0.000000 -2.520312 1.271782 -1.249461
time 66
0 0.000000 0.000000 0.000000 0.000000 -0.000000 0.000000
1 0.000000 0.000000 0.000000 -2.410942 1.205723 -1.205337
time 67
0 0.000000 0.000000 0.000000 0.000000 -0.000000 0.000000
1 0.000000 0.000000 0.000000 -2.273250 1.144886 -1.129555
time 68
0 0.000000 0.000000 0.000000 0.000000 -0.000000 0.000000
1 0.000000 0.000000 0.000000 -2.161560 1.080966 -1.080732
time 69
0 0.000000 0.000000 0.000000 0.000000 -0.000000 0.000000
1 0.000000 0.000000 0.000000 -2.032944 1.022935 -1.011332
time 70
0 0.000000 0.000000 0.000000 0.000000 -0.000000 0.000000
1 0.000000 0.000000 0.000000 -1.922471 0.961259 -0.961189
time 71
0 0.000000 0.000000 0.000000 0.000000 -0.000000 0.000000
1 0.000000 0.000000 0.000000 -1.801848 0.906218 -0.897019
time 72
0 0.000000 0.000000 0.000000 0.000000 -0.000000 0.000000
1 0.000000 0.000000 0.000000 -1.694413 0.847210 -0.847264
time 73
0 0.000000 0.000000 0.000000 0.000000 -0.000000 0.000000
1 0.000000 0.000000 0.000000 -1.581254 0.795213 -0.787528
time 74
0 0.000000 0.000000 0.000000 0.000000 -0.000000 0.000000
1 0.000000 0.000000 0.000000 -1.477912 0.739122 -0.738902
time 75
0 0.000000 0.000000 0.000000 0.000000 -0.000000 0.000000
1 0.000000 0.000000 0.000000 -1.372108 0.690045 -0.683500
time 76
0 0.000000 0.000000 0.000000 0.000000 -0.000000 0.000000
1 0.000000 0.000000 0.000000 -1.273729 0.636941 -0.636835
time 77
0 0.000000 0.000000 0.000000 0.000000 -0.000000 0.000000
1 0.000000 0.000000 0.000000 -1.175275 0.591048 -0.585542
time 78
0 0.000000 0.000000 0.000000 0.000000 -0.000000 0.000000
1 0.000000 0.000000 0.000000 -1.082419 0.541333 -0.541142
time 79
0 0.000000 0.000000 0.000000 0.000000 -0.000000 0.000000
1 0.000000 0.000000 0.000000 -0.991409 0.498575 -0.493956
time 80
0 0.000000 0.000000 0.000000 0.000000 -0.000000 0.000000
1 0.000000 0.000000 0.000000 -0.904661 0.452324 -0.452259
time 81
0 0.000000 0.000000 0.000000 0.000000 -0.000000 0.000000
1 0.000000 0.000000 0.000000 -0.821195 0.412926 -0.409126
time 82
0 0.000000 0.000000 0.000000 0.000000 -0.000000 0.000000
1 0.000000 0.000000 0.000000 -0.740927 0.370433 -0.370325
time 83
0 0.000000 0.000000 0.000000 0.000000 -0.000000 0.000000
1 0.000000 0.000000 0.000000 -0.665252 0.334516 -0.331425
time 84
0 0.000000 0.000000 0.000000 0.000000 -0.000000 0.000000
1 0.000000 0.000000 0.000000 -0.591879 0.295943 -0.295868
time 85
0 0.000000 0.000000 0.000000 0.000000 -0.000000 0.000000
1 0.000000 0.000000 0.000000 -0.524132 0.263546 -0.261150
time 86
0 0.000000 0.000000 0.000000 0.000000 -0.000000 0.000000
1 0.000000 0.000000 0.000000 -0.458061 0.228961 -0.229004
time 87
0 0.000000 0.000000 0.000000 0.000000 -0.000000 0.000000
1 0.000000 0.000000 0.000000 -0.398457 0.200376 -0.198515
time 88
0 0.000000 0.000000 0.000000 0.000000 -0.000000 0.000000
1 0.000000 0.000000 0.000000 -0.340057 0.170070 -0.169955
time 89
0 0.000000 0.000000 0.000000 0.000000 -0.000000 0.000000
1 0.000000 0.000000 0.000000 -0.288967 0.145316 -0.143937
time 90
0 0.000000 0.000000 0.000000 0.000000 -0.000000 0.000000
1 0.000000 0.000000 0.000000 -0.238685 0.119279 -0.119297
time 91
0 0.000000 0.000000 0.000000 0.000000 -0.000000 0.000000
1 0.000000 0.000000 0.000000 -0.196263 0.098650 -0.097771
time 92
0 0.000000 0.000000 0.000000 0.000000 -0.000000 0.000000
1 0.000000 0.000000 0.000000 -0.154341 0.077122 -0.077165
time 93
0 0.000000 0.000000 0.000000 0.000000 -0.000000 0.000000
1 0.000000 0.000000 0.000000 -0.120874 0.060737 -0.060224
time 94
0 0.000000 0.000000 0.000000 0.000000 -0.000000 0.000000
1 0.000000 0.000000 0.000000 -0.087695 0.043787 -0.043843
time 95
0 0.000000 0.000000 0.000000 0.000000 -0.000000 0.000000
1 0.000000 0.000000 0.000000 -0.063466 0.031860 -0.031615
time 96
0 0.000000 0.000000 0.000000 0.000000 -0.000000 0.000000
1 0.000000 0.000000 0.000000 -0.039383 0.019637 -0.019679
time 97
0 0.000000 0.000000 0.000000 0.000000 -0.000000 0.000000
1 0.000000 0.000000 0.000000 -0.024615 0.012303 -0.012238
time 98
0 0.000000 0.000000 0.000000 0.000000 -0.000000 0.000000
1 0.000000 0.000000 0.000000 -0.009899 0.004858 -0.004907
time 99
0 0.000000 0.000000 0.000000 0.000000 -0.000000 0.000000
1 0.000000 0.000000 0.000000 -0.004947 0.002435 -0.002448
time 100
0 0.000000 0.000000 0.000000 0.000000 -0.000000 0.000000
1 0.000000 0.000000 0.000000 0.000000 -0.000000 0.000000
end
