version 1
nodes
0 "root" -1
1 "draw1_2efb_kyj01" 0
2 "draw2_0_2efb_kyj02_trall" 0
3 "draw2_1_2efb_kyj02_bone01" 0
4 "draw2_2_2efb_kyj02_bone02" 0
5 "draw2_3_2efb_kyj02_bone03" 0
6 "draw3_0_2efb_kyj02_trall" 0
7 "draw3_1_2efb_kyj02_bone01" 0
8 "draw3_2_2efb_kyj02_bone02" 0
9 "draw3_3_2efb_kyj02_bone03" 0
10 "draw4_0_2efb_kyj02_trall" 0
11 "draw4_1_2efb_kyj02_bone01" 0
12 "draw4_2_2efb_kyj02_bone02" 0
13 "draw4_3_2efb_kyj02_bone03" 0
14 "draw5_0_2efb_kyj02_trall" 0
15 "draw5_1_2efb_kyj02_bone01" 0
16 "draw5_2_2efb_kyj02_bone02" 0
17 "draw5_3_2efb_kyj02_bone03" 0
18 "draw6_0_2efb_kyj02_trall" 0
19 "draw6_1_2efb_kyj02_bone01" 0
20 "draw6_2_2efb_kyj02_bone02" 0
21 "draw6_3_2efb_kyj02_bone03" 0
end
skeleton
time 0
0 0.000000 0.000000 0.000000 0.000000 -0.000000 0.000000
1 0.000010 -52.185059 -0.000000 0.000000 0.000000 0.000000
2 -77.624229 38.804276 0.000013 -0.000000 -0.000000 -2.498887
3 -77.624229 38.804276 0.000013 -0.000000 -0.000000 -2.498887
4 -85.045091 48.715168 0.000014 -0.000000 -0.000000 -2.498887
5 -102.848259 72.492103 0.000017 -0.000000 -0.000000 -2.498887
6 -111.152847 -92.430908 -0.000009 -0.000000 -0.000000 -1.220634
7 -111.152847 -92.430908 -0.000009 -0.000000 -0.000000 -1.220634
8 -122.782754 -96.678291 -0.000007 -0.000000 -0.000000 -1.220634
9 -150.683721 -106.868065 -0.000004 -0.000000 -0.000000 -1.220634
10 0.614944 -171.602219 -0.000007 -0.000000 0.000000 -0.006916
11 0.614944 -171.602219 -0.000007 -0.000000 0.000000 -0.006916
12 0.533440 -183.386933 -0.000006 -0.000000 0.000000 -0.006916
13 0.337908 -211.659312 -0.000003 -0.000000 0.000000 -0.006916
14 102.467407 -112.359314 -0.000002 0.000000 0.000000 1.080133
15 102.467407 -112.359314 -0.000002 0.000000 0.000000 1.080133
16 114.139189 -118.594846 -0.000002 0.000000 0.000000 1.080133
17 142.140636 -133.554331 -0.000003 0.000000 0.000000 1.080133
18 77.481171 39.088112 0.000000 0.000000 -0.000000 2.364396
19 77.481171 39.088112 0.000000 0.000000 -0.000000 2.364396
20 86.163930 47.914473 -0.000001 0.000000 -0.000000 2.364396
21 106.994503 69.089560 -0.000005 0.000000 -0.000000 2.364396
time 1
0 0.000000 0.000000 0.000000 0.000000 -0.000000 0.000000
1 0.000010 -52.185059 -0.000000 0.000000 0.000000 0.000000
2 -77.624229 38.804276 0.000013 -0.000000 -0.000000 -2.498887
3 -77.624229 38.804276 0.000013 -0.000000 -0.000000 -2.498887
4 -85.045091 48.715168 0.000014 -0.000000 -0.000000 -2.498887
5 -102.848259 72.492103 0.000017 -0.000000 -0.000000 -2.498887
6 -111.152847 -92.430908 -0.000009 -0.000000 -0.000000 -1.220634
7 -111.152847 -92.430908 -0.000009 -0.000000 -0.000000 -1.220634
8 -122.782754 -96.678291 -0.000007 -0.000000 -0.000000 -1.220634
9 -150.683721 -106.868065 -0.000004 -0.000000 -0.000000 -1.220634
10 0.614944 -171.602219 -0.000007 -0.000000 0.000000 -0.006916
11 0.614944 -171.602219 -0.000007 -0.000000 0.000000 -0.006916
12 0.533440 -183.386933 -0.000006 -0.000000 0.000000 -0.006916
13 0.337908 -211.659312 -0.000003 -0.000000 0.000000 -0.006916
14 102.467407 -112.359314 -0.000002 0.000000 0.000000 1.080133
15 102.467407 -112.359314 -0.000002 0.000000 0.000000 1.080133
16 114.139189 -118.594846 -0.000002 0.000000 0.000000 1.080133
17 142.140636 -133.554331 -0.000003 0.000000 0.000000 1.080133
18 77.481171 39.088112 0.000000 0.000000 -0.000000 2.364396
19 77.481171 39.088112 0.000000 0.000000 -0.000000 2.364396
20 86.163930 47.914473 -0.000001 0.000000 -0.000000 2.364396
21 106.994503 69.089560 -0.000005 0.000000 -0.000000 2.364396
time 2
0 0.000000 0.000000 0.000000 0.000000 -0.000000 0.000000
1 0.000010 -52.185059 -0.000000 0.000000 0.000000 0.000000
2 -77.624229 38.804276 0.000013 -0.000000 -0.000000 -2.498887
3 -77.624229 38.804276 0.000013 -0.000000 -0.000000 -2.498887
4 -85.045091 48.715168 0.000014 -0.000000 -0.000000 -2.498887
5 -102.848259 72.492103 0.000017 -0.000000 -0.000000 -2.498887
6 -111.152847 -92.430908 -0.000009 -0.000000 -0.000000 -1.220634
7 -111.152847 -92.430908 -0.000009 -0.000000 -0.000000 -1.220634
8 -122.782754 -96.678291 -0.000007 -0.000000 -0.000000 -1.220634
9 -150.683721 -106.868065 -0.000004 -0.000000 -0.000000 -1.220634
10 0.614944 -171.602219 -0.000007 -0.000000 0.000000 -0.006916
11 0.614944 -171.602219 -0.000007 -0.000000 0.000000 -0.006916
12 0.533440 -183.386933 -0.000006 -0.000000 0.000000 -0.006916
13 0.337908 -211.659312 -0.000003 -0.000000 0.000000 -0.006916
14 102.467407 -112.359314 -0.000002 0.000000 0.000000 1.080133
15 102.467407 -112.359314 -0.000002 0.000000 0.000000 1.080133
16 114.139189 -118.594846 -0.000002 0.000000 0.000000 1.080133
17 142.140636 -133.554331 -0.000003 0.000000 0.000000 1.080133
18 77.481171 39.088112 0.000000 0.000000 -0.000000 2.364396
19 77.481171 39.088112 0.000000 0.000000 -0.000000 2.364396
20 86.163930 47.914473 -0.000001 0.000000 -0.000000 2.364396
21 106.994503 69.089560 -0.000005 0.000000 -0.000000 2.364396
time 3
0 0.000000 0.000000 0.000000 0.000000 -0.000000 0.000000
1 0.000010 -52.185059 -0.000000 0.000000 0.000000 0.000000
2 -77.624229 38.804276 0.000013 -0.000000 -0.000000 -2.498887
3 -77.624229 38.804276 0.000013 -0.000000 -0.000000 -2.498887
4 -85.045091 48.715168 0.000014 -0.000000 -0.000000 -2.498887
5 -102.848259 72.492103 0.000017 -0.000000 -0.000000 -2.498887
6 -111.152847 -92.430908 -0.000009 -0.000000 -0.000000 -1.220634
7 -111.152847 -92.430908 -0.000009 -0.000000 -0.000000 -1.220634
8 -122.782754 -96.678291 -0.000007 -0.000000 -0.000000 -1.220634
9 -150.683721 -106.868065 -0.000004 -0.000000 -0.000000 -1.220634
10 0.614944 -171.602219 -0.000007 -0.000000 0.000000 -0.006916
11 0.614944 -171.602219 -0.000007 -0.000000 0.000000 -0.006916
12 0.533440 -183.386933 -0.000006 -0.000000 0.000000 -0.006916
13 0.337908 -211.659312 -0.000003 -0.000000 0.000000 -0.006916
14 102.467407 -112.359314 -0.000002 0.000000 0.000000 1.080133
15 102.467407 -112.359314 -0.000002 0.000000 0.000000 1.080133
16 114.139189 -118.594846 -0.000002 0.000000 0.000000 1.080133
17 142.140636 -133.554331 -0.000003 0.000000 0.000000 1.080133
18 77.481171 39.088112 0.000000 0.000000 -0.000000 2.364396
19 77.481171 39.088112 0.000000 0.000000 -0.000000 2.364396
20 86.163930 47.914473 -0.000001 0.000000 -0.000000 2.364396
21 106.994503 69.089560 -0.000005 0.000000 -0.000000 2.364396
time 4
0 0.000000 0.000000 0.000000 0.000000 -0.000000 0.000000
1 0.000010 -52.185059 -0.000000 0.000000 0.000000 0.000000
2 -77.624229 38.804276 0.000013 -0.000000 -0.000000 -2.498887
3 -77.624229 38.804276 0.000013 -0.000000 -0.000000 -2.498887
4 -85.045091 48.715168 0.000014 -0.000000 -0.000000 -2.498887
5 -102.848259 72.492103 0.000017 -0.000000 -0.000000 -2.498887
6 -111.152847 -92.430908 -0.000009 -0.000000 -0.000000 -1.220634
7 -111.152847 -92.430908 -0.000009 -0.000000 -0.000000 -1.220634
8 -122.782754 -96.678291 -0.000007 -0.000000 -0.000000 -1.220634
9 -150.683721 -106.868065 -0.000004 -0.000000 -0.000000 -1.220634
10 0.614944 -171.602219 -0.000007 -0.000000 0.000000 -0.006916
11 0.614944 -171.602219 -0.000007 -0.000000 0.000000 -0.006916
12 0.533440 -183.386933 -0.000006 -0.000000 0.000000 -0.006916
13 0.337908 -211.659312 -0.000003 -0.000000 0.000000 -0.006916
14 102.467407 -112.359314 -0.000002 0.000000 0.000000 1.080133
15 102.467407 -112.359314 -0.000002 0.000000 0.000000 1.080133
16 114.139189 -118.594846 -0.000002 0.000000 0.000000 1.080133
17 142.140636 -133.554331 -0.000003 0.000000 0.000000 1.080133
18 77.481171 39.088112 0.000000 0.000000 -0.000000 2.364396
19 77.481171 39.088112 0.000000 0.000000 -0.000000 2.364396
20 86.163930 47.914473 -0.000001 0.000000 -0.000000 2.364396
21 106.994503 69.089560 -0.000005 0.000000 -0.000000 2.364396
time 5
0 0.000000 0.000000 0.000000 0.000000 -0.000000 0.000000
1 0.000010 -52.185059 -0.000000 0.000000 0.000000 0.000000
2 -77.624229 38.804276 0.000013 -0.000000 -0.000000 -2.498887
3 -77.624229 38.804276 0.000013 -0.000000 -0.000000 -2.498887
4 -85.045091 48.715168 0.000014 -0.000000 -0.000000 -2.498887
5 -102.848259 72.492103 0.000017 -0.000000 -0.000000 -2.498887
6 -111.152847 -92.430908 -0.000009 -0.000000 -0.000000 -1.220634
7 -111.152847 -92.430908 -0.000009 -0.000000 -0.000000 -1.220634
8 -122.782754 -96.678291 -0.000007 -0.000000 -0.000000 -1.220634
9 -150.683721 -106.868065 -0.000004 -0.000000 -0.000000 -1.220634
10 0.614944 -171.602219 -0.000007 -0.000000 0.000000 -0.006916
11 0.614944 -171.602219 -0.000007 -0.000000 0.000000 -0.006916
12 0.533440 -183.386933 -0.000006 -0.000000 0.000000 -0.006916
13 0.337908 -211.659312 -0.000003 -0.000000 0.000000 -0.006916
14 102.467407 -112.359314 -0.000002 0.000000 0.000000 1.080133
15 102.467407 -112.359314 -0.000002 0.000000 0.000000 1.080133
16 114.139189 -118.594846 -0.000002 0.000000 0.000000 1.080133
17 142.140636 -133.554331 -0.000003 0.000000 0.000000 1.080133
18 77.481171 39.088112 0.000000 0.000000 -0.000000 2.364396
19 77.481171 39.088112 0.000000 0.000000 -0.000000 2.364396
20 86.163930 47.914473 -0.000001 0.000000 -0.000000 2.364396
21 106.994503 69.089560 -0.000005 0.000000 -0.000000 2.364396
time 6
0 0.000000 0.000000 0.000000 0.000000 -0.000000 0.000000
1 0.000010 -52.185059 -0.000000 0.000000 0.000000 0.000000
2 -77.624229 38.804276 0.000013 -0.000000 -0.000000 -2.498887
3 -77.624229 38.804276 0.000013 -0.000000 -0.000000 -2.498887
4 -85.045091 48.715168 0.000014 -0.000000 -0.000000 -2.498887
5 -102.848259 72.492103 0.000017 -0.000000 -0.000000 -2.498887
6 -111.152847 -92.430908 -0.000009 -0.000000 -0.000000 -1.220634
7 -111.152847 -92.430908 -0.000009 -0.000000 -0.000000 -1.220634
8 -122.782754 -96.678291 -0.000007 -0.000000 -0.000000 -1.220634
9 -150.683721 -106.868065 -0.000004 -0.000000 -0.000000 -1.220634
10 0.614944 -171.602219 -0.000007 -0.000000 0.000000 -0.006916
11 0.614944 -171.602219 -0.000007 -0.000000 0.000000 -0.006916
12 0.533440 -183.386933 -0.000006 -0.000000 0.000000 -0.006916
13 0.337908 -211.659312 -0.000003 -0.000000 0.000000 -0.006916
14 102.467407 -112.359314 -0.000002 0.000000 0.000000 1.080133
15 102.467407 -112.359314 -0.000002 0.000000 0.000000 1.080133
16 114.139189 -118.594846 -0.000002 0.000000 0.000000 1.080133
17 142.140636 -133.554331 -0.000003 0.000000 0.000000 1.080133
18 77.481171 39.088112 0.000000 0.000000 -0.000000 2.364396
19 77.481171 39.088112 0.000000 0.000000 -0.000000 2.364396
20 86.163930 47.914473 -0.000001 0.000000 -0.000000 2.364396
21 106.994503 69.089560 -0.000005 0.000000 -0.000000 2.364396
time 7
0 0.000000 0.000000 0.000000 0.000000 -0.000000 0.000000
1 0.000010 -52.185059 -0.000000 0.000000 0.000000 0.000000
2 -77.624229 38.804276 0.000013 -0.000000 -0.000000 -2.498887
3 -77.624229 38.804276 0.000013 -0.000000 -0.000000 -2.498887
4 -85.045091 48.715168 0.000014 -0.000000 -0.000000 -2.498887
5 -102.848259 72.492103 0.000017 -0.000000 -0.000000 -2.498887
6 -111.152847 -92.430908 -0.000009 -0.000000 -0.000000 -1.220634
7 -111.152847 -92.430908 -0.000009 -0.000000 -0.000000 -1.220634
8 -122.782754 -96.678291 -0.000007 -0.000000 -0.000000 -1.220634
9 -150.683721 -106.868065 -0.000004 -0.000000 -0.000000 -1.220634
10 0.614944 -171.602219 -0.000007 -0.000000 0.000000 -0.006916
11 0.614944 -171.602219 -0.000007 -0.000000 0.000000 -0.006916
12 0.533440 -183.386933 -0.000006 -0.000000 0.000000 -0.006916
13 0.337908 -211.659312 -0.000003 -0.000000 0.000000 -0.006916
14 102.467407 -112.359314 -0.000002 0.000000 0.000000 1.080133
15 102.467407 -112.359314 -0.000002 0.000000 0.000000 1.080133
16 114.139189 -118.594846 -0.000002 0.000000 0.000000 1.080133
17 142.140636 -133.554331 -0.000003 0.000000 0.000000 1.080133
18 77.481171 39.088112 0.000000 0.000000 -0.000000 2.364396
19 77.481171 39.088112 0.000000 0.000000 -0.000000 2.364396
20 86.163930 47.914473 -0.000001 0.000000 -0.000000 2.364396
21 106.994503 69.089560 -0.000005 0.000000 -0.000000 2.364396
time 8
0 0.000000 0.000000 0.000000 0.000000 -0.000000 0.000000
1 0.000010 -52.185059 -0.000000 0.000000 0.000000 0.000000
2 -77.624229 38.804276 0.000013 -0.000000 -0.000000 -2.498887
3 -77.624229 38.804276 0.000013 -0.000000 -0.000000 -2.498887
4 -85.045091 48.715168 0.000014 -0.000000 -0.000000 -2.498887
5 -102.848259 72.492103 0.000017 -0.000000 -0.000000 -2.498887
6 -111.152847 -92.430908 -0.000009 -0.000000 -0.000000 -1.220634
7 -111.152847 -92.430908 -0.000009 -0.000000 -0.000000 -1.220634
8 -122.782754 -96.678291 -0.000007 -0.000000 -0.000000 -1.220634
9 -150.683721 -106.868065 -0.000004 -0.000000 -0.000000 -1.220634
10 0.614944 -171.602219 -0.000007 -0.000000 0.000000 -0.006916
11 0.614944 -171.602219 -0.000007 -0.000000 0.000000 -0.006916
12 0.533440 -183.386933 -0.000006 -0.000000 0.000000 -0.006916
13 0.337908 -211.659312 -0.000003 -0.000000 0.000000 -0.006916
14 102.467407 -112.359314 -0.000002 0.000000 0.000000 1.080133
15 102.467407 -112.359314 -0.000002 0.000000 0.000000 1.080133
16 114.139189 -118.594846 -0.000002 0.000000 0.000000 1.080133
17 142.140636 -133.554331 -0.000003 0.000000 0.000000 1.080133
18 77.481171 39.088112 0.000000 0.000000 -0.000000 2.364396
19 77.481171 39.088112 0.000000 0.000000 -0.000000 2.364396
20 86.163930 47.914473 -0.000001 0.000000 -0.000000 2.364396
21 106.994503 69.089560 -0.000005 0.000000 -0.000000 2.364396
time 9
0 0.000000 0.000000 0.000000 0.000000 -0.000000 0.000000
1 0.000010 -52.185059 -0.000000 0.000000 0.000000 0.000000
2 -77.624229 38.804276 0.000013 -0.000000 -0.000000 -2.498887
3 -77.624229 38.804276 0.000013 -0.000000 -0.000000 -2.498887
4 -85.045091 48.715168 0.000014 -0.000000 -0.000000 -2.498887
5 -102.848259 72.492103 0.000017 -0.000000 -0.000000 -2.498887
6 -111.152847 -92.430908 -0.000009 -0.000000 -0.000000 -1.220634
7 -111.152847 -92.430908 -0.000009 -0.000000 -0.000000 -1.220634
8 -122.782754 -96.678291 -0.000007 -0.000000 -0.000000 -1.220634
9 -150.683721 -106.868065 -0.000004 -0.000000 -0.000000 -1.220634
10 0.614944 -171.602219 -0.000007 -0.000000 0.000000 -0.006916
11 0.614944 -171.602219 -0.000007 -0.000000 0.000000 -0.006916
12 0.533440 -183.386933 -0.000006 -0.000000 0.000000 -0.006916
13 0.337908 -211.659312 -0.000003 -0.000000 0.000000 -0.006916
14 102.467407 -112.359314 -0.000002 0.000000 0.000000 1.080133
15 102.467407 -112.359314 -0.000002 0.000000 0.000000 1.080133
16 114.139189 -118.594846 -0.000002 0.000000 0.000000 1.080133
17 142.140636 -133.554331 -0.000003 0.000000 0.000000 1.080133
18 77.481171 39.088112 0.000000 0.000000 -0.000000 2.364396
19 77.481171 39.088112 0.000000 0.000000 -0.000000 2.364396
20 86.163930 47.914473 -0.000001 0.000000 -0.000000 2.364396
21 106.994503 69.089560 -0.000005 0.000000 -0.000000 2.364396
time 10
0 0.000000 0.000000 0.000000 0.000000 -0.000000 0.000000
1 0.000010 -52.185059 -0.000000 0.000000 0.000000 0.000000
2 -77.624229 38.804276 0.000013 -0.000000 -0.000000 -2.498887
3 -77.624229 38.804276 0.000013 -0.000000 -0.000000 -2.498887
4 -85.045091 48.715168 0.000014 -0.000000 -0.000000 -2.498887
5 -102.848259 72.492103 0.000017 -0.000000 -0.000000 -2.498887
6 -111.152847 -92.430908 -0.000009 -0.000000 -0.000000 -1.220634
7 -111.152847 -92.430908 -0.000009 -0.000000 -0.000000 -1.220634
8 -122.782754 -96.678291 -0.000007 -0.000000 -0.000000 -1.220634
9 -150.683721 -106.868065 -0.000004 -0.000000 -0.000000 -1.220634
10 0.614944 -171.602219 -0.000007 -0.000000 0.000000 -0.006916
11 0.614944 -171.602219 -0.000007 -0.000000 0.000000 -0.006916
12 0.533440 -183.386933 -0.000006 -0.000000 0.000000 -0.006916
13 0.337908 -211.659312 -0.000003 -0.000000 0.000000 -0.006916
14 102.467407 -112.359314 -0.000002 0.000000 0.000000 1.080133
15 102.467407 -112.359314 -0.000002 0.000000 0.000000 1.080133
16 114.139189 -118.594846 -0.000002 0.000000 0.000000 1.080133
17 142.140636 -133.554331 -0.000003 0.000000 0.000000 1.080133
18 77.481171 39.088112 0.000000 0.000000 -0.000000 2.364396
19 77.481171 39.088112 0.000000 0.000000 -0.000000 2.364396
20 86.163930 47.914473 -0.000001 0.000000 -0.000000 2.364396
21 106.994503 69.089560 -0.000005 0.000000 -0.000000 2.364396
time 11
0 0.000000 0.000000 0.000000 0.000000 -0.000000 0.000000
1 0.000010 -52.185059 -0.000000 0.000000 0.000000 0.000000
2 -77.624229 38.804276 0.000013 -0.000000 -0.000000 -2.498887
3 -77.624229 38.804276 0.000013 -0.000000 -0.000000 -2.498887
4 -85.045091 48.715168 0.000014 -0.000000 -0.000000 -2.498887
5 -102.848259 72.492103 0.000017 -0.000000 -0.000000 -2.498887
6 -111.152847 -92.430908 -0.000009 -0.000000 -0.000000 -1.220634
7 -111.152847 -92.430908 -0.000009 -0.000000 -0.000000 -1.220634
8 -122.782754 -96.678291 -0.000007 -0.000000 -0.000000 -1.220634
9 -150.683721 -106.868065 -0.000004 -0.000000 -0.000000 -1.220634
10 0.614944 -171.602219 -0.000007 -0.000000 0.000000 -0.006916
11 0.614944 -171.602219 -0.000007 -0.000000 0.000000 -0.006916
12 0.533440 -183.386933 -0.000006 -0.000000 0.000000 -0.006916
13 0.337908 -211.659312 -0.000003 -0.000000 0.000000 -0.006916
14 102.467407 -112.359314 -0.000002 0.000000 0.000000 1.080133
15 102.467407 -112.359314 -0.000002 0.000000 0.000000 1.080133
16 114.139189 -118.594846 -0.000002 0.000000 0.000000 1.080133
17 142.140636 -133.554331 -0.000003 0.000000 0.000000 1.080133
18 77.481171 39.088112 0.000000 0.000000 -0.000000 2.364396
19 77.481171 39.088112 0.000000 0.000000 -0.000000 2.364396
20 86.163930 47.914473 -0.000001 0.000000 -0.000000 2.364396
21 106.994503 69.089560 -0.000005 0.000000 -0.000000 2.364396
time 12
0 0.000000 0.000000 0.000000 0.000000 -0.000000 0.000000
1 0.000010 -52.185059 -0.000000 0.000000 0.000000 0.000000
2 -77.624229 38.804276 0.000013 -0.000000 -0.000000 -2.498887
3 -77.624229 38.804276 0.000013 -0.000000 -0.000000 -2.498887
4 -85.045091 48.715168 0.000014 -0.000000 -0.000000 -2.498887
5 -102.848259 72.492103 0.000017 -0.000000 -0.000000 -2.498887
6 -111.152847 -92.430908 -0.000009 -0.000000 -0.000000 -1.220634
7 -111.152847 -92.430908 -0.000009 -0.000000 -0.000000 -1.220634
8 -122.782754 -96.678291 -0.000007 -0.000000 -0.000000 -1.220634
9 -150.683721 -106.868065 -0.000004 -0.000000 -0.000000 -1.220634
10 0.614944 -171.602219 -0.000007 -0.000000 0.000000 -0.006916
11 0.614944 -171.602219 -0.000007 -0.000000 0.000000 -0.006916
12 0.533440 -183.386933 -0.000006 -0.000000 0.000000 -0.006916
13 0.337908 -211.659312 -0.000003 -0.000000 0.000000 -0.006916
14 102.467407 -112.359314 -0.000002 0.000000 0.000000 1.080133
15 102.467407 -112.359314 -0.000002 0.000000 0.000000 1.080133
16 114.139189 -118.594846 -0.000002 0.000000 0.000000 1.080133
17 142.140636 -133.554331 -0.000003 0.000000 0.000000 1.080133
18 77.481171 39.088112 0.000000 0.000000 -0.000000 2.364396
19 77.481171 39.088112 0.000000 0.000000 -0.000000 2.364396
20 86.163930 47.914473 -0.000001 0.000000 -0.000000 2.364396
21 106.994503 69.089560 -0.000005 0.000000 -0.000000 2.364396
time 13
0 0.000000 0.000000 0.000000 0.000000 -0.000000 0.000000
1 0.000010 -52.185059 -0.000000 0.000000 0.000000 0.000000
2 -77.624229 38.804276 0.000013 -0.000000 -0.000000 -2.498887
3 -77.624229 38.804276 0.000013 -0.000000 -0.000000 -2.498887
4 -85.045091 48.715168 0.000014 -0.000000 -0.000000 -2.498887
5 -102.848259 72.492103 0.000017 -0.000000 -0.000000 -2.498887
6 -111.152847 -92.430908 -0.000009 -0.000000 -0.000000 -1.220634
7 -111.152847 -92.430908 -0.000009 -0.000000 -0.000000 -1.220634
8 -122.782754 -96.678291 -0.000007 -0.000000 -0.000000 -1.220634
9 -150.683721 -106.868065 -0.000004 -0.000000 -0.000000 -1.220634
10 0.614944 -171.602219 -0.000007 -0.000000 0.000000 -0.006916
11 0.614944 -171.602219 -0.000007 -0.000000 0.000000 -0.006916
12 0.533440 -183.386933 -0.000006 -0.000000 0.000000 -0.006916
13 0.337908 -211.659312 -0.000003 -0.000000 0.000000 -0.006916
14 102.467407 -112.359314 -0.000002 0.000000 0.000000 1.080133
15 102.467407 -112.359314 -0.000002 0.000000 0.000000 1.080133
16 114.139189 -118.594846 -0.000002 0.000000 0.000000 1.080133
17 142.140636 -133.554331 -0.000003 0.000000 0.000000 1.080133
18 77.481171 39.088112 0.000000 0.000000 -0.000000 2.364396
19 77.481171 39.088112 0.000000 0.000000 -0.000000 2.364396
20 86.163930 47.914473 -0.000001 0.000000 -0.000000 2.364396
21 106.994503 69.089560 -0.000005 0.000000 -0.000000 2.364396
time 14
0 0.000000 0.000000 0.000000 0.000000 -0.000000 0.000000
1 0.000010 -52.185059 -0.000000 0.000000 0.000000 0.000000
2 -77.624229 38.804276 0.000013 -0.000000 -0.000000 -2.498887
3 -77.624229 38.804276 0.000013 -0.000000 -0.000000 -2.498887
4 -85.045091 48.715168 0.000014 -0.000000 -0.000000 -2.498887
5 -102.848259 72.492103 0.000017 -0.000000 -0.000000 -2.498887
6 -111.152847 -92.430908 -0.000009 -0.000000 -0.000000 -1.220634
7 -111.152847 -92.430908 -0.000009 -0.000000 -0.000000 -1.220634
8 -122.782754 -96.678291 -0.000007 -0.000000 -0.000000 -1.220634
9 -150.683721 -106.868065 -0.000004 -0.000000 -0.000000 -1.220634
10 0.614944 -171.602219 -0.000007 -0.000000 0.000000 -0.006916
11 0.614944 -171.602219 -0.000007 -0.000000 0.000000 -0.006916
12 0.533440 -183.386933 -0.000006 -0.000000 0.000000 -0.006916
13 0.337908 -211.659312 -0.000003 -0.000000 0.000000 -0.006916
14 102.467407 -112.359314 -0.000002 0.000000 0.000000 1.080133
15 102.467407 -112.359314 -0.000002 0.000000 0.000000 1.080133
16 114.139189 -118.594846 -0.000002 0.000000 0.000000 1.080133
17 142.140636 -133.554331 -0.000003 0.000000 0.000000 1.080133
18 77.481171 39.088112 0.000000 0.000000 -0.000000 2.364396
19 77.481171 39.088112 0.000000 0.000000 -0.000000 2.364396
20 86.163930 47.914473 -0.000001 0.000000 -0.000000 2.364396
21 106.994503 69.089560 -0.000005 0.000000 -0.000000 2.364396
time 15
0 0.000000 0.000000 0.000000 0.000000 -0.000000 0.000000
1 0.000010 -52.185059 -0.000000 0.000000 0.000000 0.000000
2 -77.624229 38.804276 0.000013 -0.000000 -0.000000 -2.498887
3 -77.624229 38.804276 0.000013 -0.000000 -0.000000 -2.498887
4 -85.045091 48.715168 0.000014 -0.000000 -0.000000 -2.498887
5 -102.848259 72.492103 0.000017 -0.000000 -0.000000 -2.498887
6 -111.152847 -92.430908 -0.000009 -0.000000 -0.000000 -1.220634
7 -111.152847 -92.430908 -0.000009 -0.000000 -0.000000 -1.220634
8 -122.782754 -96.678291 -0.000007 -0.000000 -0.000000 -1.220634
9 -150.683721 -106.868065 -0.000004 -0.000000 -0.000000 -1.220634
10 0.614944 -171.602219 -0.000007 -0.000000 0.000000 -0.006916
11 0.614944 -171.602219 -0.000007 -0.000000 0.000000 -0.006916
12 0.533440 -183.386933 -0.000006 -0.000000 0.000000 -0.006916
13 0.337908 -211.659312 -0.000003 -0.000000 0.000000 -0.006916
14 102.467407 -112.359314 -0.000002 0.000000 0.000000 1.080133
15 102.467407 -112.359314 -0.000002 0.000000 0.000000 1.080133
16 114.139189 -118.594846 -0.000002 0.000000 0.000000 1.080133
17 142.140636 -133.554331 -0.000003 0.000000 0.000000 1.080133
18 77.481171 39.088112 0.000000 0.000000 -0.000000 2.364396
19 77.481171 39.088112 0.000000 0.000000 -0.000000 2.364396
20 86.163930 47.914473 -0.000001 0.000000 -0.000000 2.364396
21 106.994503 69.089560 -0.000005 0.000000 -0.000000 2.364396
time 16
0 0.000000 0.000000 0.000000 0.000000 -0.000000 0.000000
1 0.000010 -52.185059 -0.000000 0.000000 0.000000 0.000000
2 -77.624229 38.804276 0.000013 -0.000000 -0.000000 -2.498887
3 -77.624229 38.804276 0.000013 -0.000000 -0.000000 -2.498887
4 -85.045091 48.715168 0.000014 -0.000000 -0.000000 -2.498887
5 -102.848259 72.492103 0.000017 -0.000000 -0.000000 -2.498887
6 -111.152847 -92.430908 -0.000009 -0.000000 -0.000000 -1.220634
7 -111.152847 -92.430908 -0.000009 -0.000000 -0.000000 -1.220634
8 -122.782754 -96.678291 -0.000007 -0.000000 -0.000000 -1.220634
9 -150.683721 -106.868065 -0.000004 -0.000000 -0.000000 -1.220634
10 0.614944 -171.602219 -0.000007 -0.000000 0.000000 -0.006916
11 0.614944 -171.602219 -0.000007 -0.000000 0.000000 -0.006916
12 0.533440 -183.386933 -0.000006 -0.000000 0.000000 -0.006916
13 0.337908 -211.659312 -0.000003 -0.000000 0.000000 -0.006916
14 102.467407 -112.359314 -0.000002 0.000000 0.000000 1.080133
15 102.467407 -112.359314 -0.000002 0.000000 0.000000 1.080133
16 114.139189 -118.594846 -0.000002 0.000000 0.000000 1.080133
17 142.140636 -133.554331 -0.000003 0.000000 0.000000 1.080133
18 77.481171 39.088112 0.000000 0.000000 -0.000000 2.364396
19 77.481171 39.088112 0.000000 0.000000 -0.000000 2.364396
20 86.163930 47.914473 -0.000001 0.000000 -0.000000 2.364396
21 106.994503 69.089560 -0.000005 0.000000 -0.000000 2.364396
time 17
0 0.000000 0.000000 0.000000 0.000000 -0.000000 0.000000
1 0.000010 -52.185059 -0.000000 0.000000 0.000000 0.000000
2 -77.624229 38.804276 0.000013 -0.000000 -0.000000 -2.498887
3 -77.624229 38.804276 0.000013 -0.000000 -0.000000 -2.498887
4 -85.045091 48.715168 0.000014 -0.000000 -0.000000 -2.498887
5 -102.848259 72.492103 0.000017 -0.000000 -0.000000 -2.498887
6 -111.152847 -92.430908 -0.000009 -0.000000 -0.000000 -1.220634
7 -111.152847 -92.430908 -0.000009 -0.000000 -0.000000 -1.220634
8 -122.782754 -96.678291 -0.000007 -0.000000 -0.000000 -1.220634
9 -150.683721 -106.868065 -0.000004 -0.000000 -0.000000 -1.220634
10 0.614944 -171.602219 -0.000007 -0.000000 0.000000 -0.006916
11 0.614944 -171.602219 -0.000007 -0.000000 0.000000 -0.006916
12 0.533440 -183.386933 -0.000006 -0.000000 0.000000 -0.006916
13 0.337908 -211.659312 -0.000003 -0.000000 0.000000 -0.006916
14 102.467407 -112.359314 -0.000002 0.000000 0.000000 1.080133
15 102.467407 -112.359314 -0.000002 0.000000 0.000000 1.080133
16 114.139189 -118.594846 -0.000002 0.000000 0.000000 1.080133
17 142.140636 -133.554331 -0.000003 0.000000 0.000000 1.080133
18 77.481171 39.088112 0.000000 0.000000 -0.000000 2.364396
19 77.481171 39.088112 0.000000 0.000000 -0.000000 2.364396
20 86.163930 47.914473 -0.000001 0.000000 -0.000000 2.364396
21 106.994503 69.089560 -0.000005 0.000000 -0.000000 2.364396
time 18
0 0.000000 0.000000 0.000000 0.000000 -0.000000 0.000000
1 0.000010 -52.185059 -0.000000 0.000000 0.000000 0.000000
2 -77.624229 38.804276 0.000013 -0.000000 -0.000000 -2.498887
3 -77.624229 38.804276 0.000013 -0.000000 -0.000000 -2.498887
4 -85.045091 48.715168 0.000014 -0.000000 -0.000000 -2.498887
5 -102.848259 72.492103 0.000017 -0.000000 -0.000000 -2.498887
6 -111.152847 -92.430908 -0.000009 -0.000000 -0.000000 -1.220634
7 -111.152847 -92.430908 -0.000009 -0.000000 -0.000000 -1.220634
8 -122.782754 -96.678291 -0.000007 -0.000000 -0.000000 -1.220634
9 -150.683721 -106.868065 -0.000004 -0.000000 -0.000000 -1.220634
10 0.614944 -171.602219 -0.000007 -0.000000 0.000000 -0.006916
11 0.614944 -171.602219 -0.000007 -0.000000 0.000000 -0.006916
12 0.533440 -183.386933 -0.000006 -0.000000 0.000000 -0.006916
13 0.337908 -211.659312 -0.000003 -0.000000 0.000000 -0.006916
14 102.467407 -112.359314 -0.000002 0.000000 0.000000 1.080133
15 102.467407 -112.359314 -0.000002 0.000000 0.000000 1.080133
16 114.139189 -118.594846 -0.000002 0.000000 0.000000 1.080133
17 142.140636 -133.554331 -0.000003 0.000000 0.000000 1.080133
18 77.481171 39.088112 0.000000 0.000000 -0.000000 2.364396
19 77.481171 39.088112 0.000000 0.000000 -0.000000 2.364396
20 86.163930 47.914473 -0.000001 0.000000 -0.000000 2.364396
21 106.994503 69.089560 -0.000005 0.000000 -0.000000 2.364396
time 19
0 0.000000 0.000000 0.000000 0.000000 -0.000000 0.000000
1 0.000010 -52.185059 -0.000000 0.000000 0.000000 0.000000
2 -77.624229 38.804276 0.000013 -0.000000 -0.000000 -2.498887
3 -77.624229 38.804276 0.000013 -0.000000 -0.000000 -2.498887
4 -85.045091 48.715168 0.000014 -0.000000 -0.000000 -2.498887
5 -102.848259 72.492103 0.000017 -0.000000 -0.000000 -2.498887
6 -111.152847 -92.430908 -0.000009 -0.000000 -0.000000 -1.220634
7 -111.152847 -92.430908 -0.000009 -0.000000 -0.000000 -1.220634
8 -122.782754 -96.678291 -0.000007 -0.000000 -0.000000 -1.220634
9 -150.683721 -106.868065 -0.000004 -0.000000 -0.000000 -1.220634
10 0.614944 -171.602219 -0.000007 -0.000000 0.000000 -0.006916
11 0.614944 -171.602219 -0.000007 -0.000000 0.000000 -0.006916
12 0.533440 -183.386933 -0.000006 -0.000000 0.000000 -0.006916
13 0.337908 -211.659312 -0.000003 -0.000000 0.000000 -0.006916
14 102.467407 -112.359314 -0.000002 0.000000 0.000000 1.080133
15 102.467407 -112.359314 -0.000002 0.000000 0.000000 1.080133
16 114.139189 -118.594846 -0.000002 0.000000 0.000000 1.080133
17 142.140636 -133.554331 -0.000003 0.000000 0.000000 1.080133
18 77.481171 39.088112 0.000000 0.000000 -0.000000 2.364396
19 77.481171 39.088112 0.000000 0.000000 -0.000000 2.364396
20 86.163930 47.914473 -0.000001 0.000000 -0.000000 2.364396
21 106.994503 69.089560 -0.000005 0.000000 -0.000000 2.364396
time 20
0 0.000000 0.000000 0.000000 0.000000 -0.000000 0.000000
1 0.000010 -52.185059 -0.000000 0.000000 0.000000 0.000000
2 -77.624229 38.804276 0.000013 -0.000000 -0.000000 -2.498887
3 -77.624229 38.804276 0.000013 -0.000000 -0.000000 -2.498887
4 -85.045091 48.715168 0.000014 -0.000000 -0.000000 -2.498887
5 -102.848259 72.492103 0.000017 -0.000000 -0.000000 -2.498887
6 -111.152847 -92.430908 -0.000009 -0.000000 -0.000000 -1.220634
7 -111.152847 -92.430908 -0.000009 -0.000000 -0.000000 -1.220634
8 -122.782754 -96.678291 -0.000007 -0.000000 -0.000000 -1.220634
9 -150.683721 -106.868065 -0.000004 -0.000000 -0.000000 -1.220634
10 0.614944 -171.602219 -0.000007 -0.000000 0.000000 -0.006916
11 0.614944 -171.602219 -0.000007 -0.000000 0.000000 -0.006916
12 0.533440 -183.386933 -0.000006 -0.000000 0.000000 -0.006916
13 0.337908 -211.659312 -0.000003 -0.000000 0.000000 -0.006916
14 102.467407 -112.359314 -0.000002 0.000000 0.000000 1.080133
15 102.467407 -112.359314 -0.000002 0.000000 0.000000 1.080133
16 114.139189 -118.594846 -0.000002 0.000000 0.000000 1.080133
17 142.140636 -133.554331 -0.000003 0.000000 0.000000 1.080133
18 77.481171 39.088112 0.000000 0.000000 -0.000000 2.364396
19 77.481171 39.088112 0.000000 0.000000 -0.000000 2.364396
20 86.163930 47.914473 -0.000001 0.000000 -0.000000 2.364396
21 106.994503 69.089560 -0.000005 0.000000 -0.000000 2.364396
time 21
0 0.000000 0.000000 0.000000 0.000000 -0.000000 0.000000
1 0.000010 -52.185059 -0.000000 0.000000 0.000000 0.000000
2 -77.624229 38.804276 0.000013 -0.000000 -0.000000 -2.498887
3 -77.624229 38.804276 0.000013 -0.000000 -0.000000 -2.498887
4 -85.045091 48.715168 0.000014 -0.000000 -0.000000 -2.498887
5 -102.848259 72.492103 0.000017 -0.000000 -0.000000 -2.498887
6 -111.152847 -92.430908 -0.000009 -0.000000 -0.000000 -1.220634
7 -111.152847 -92.430908 -0.000009 -0.000000 -0.000000 -1.220634
8 -122.782754 -96.678291 -0.000007 -0.000000 -0.000000 -1.220634
9 -150.683721 -106.868065 -0.000004 -0.000000 -0.000000 -1.220634
10 0.614944 -171.602219 -0.000007 -0.000000 0.000000 -0.006916
11 0.614944 -171.602219 -0.000007 -0.000000 0.000000 -0.006916
12 0.533440 -183.386933 -0.000006 -0.000000 0.000000 -0.006916
13 0.337908 -211.659312 -0.000003 -0.000000 0.000000 -0.006916
14 102.467407 -112.359314 -0.000002 0.000000 0.000000 1.080133
15 102.467407 -112.359314 -0.000002 0.000000 0.000000 1.080133
16 114.139189 -118.594846 -0.000002 0.000000 0.000000 1.080133
17 142.140636 -133.554331 -0.000003 0.000000 0.000000 1.080133
18 77.481171 39.088112 0.000000 0.000000 -0.000000 2.364396
19 77.481171 39.088112 0.000000 0.000000 -0.000000 2.364396
20 86.163930 47.914473 -0.000001 0.000000 -0.000000 2.364396
21 106.994503 69.089560 -0.000005 0.000000 -0.000000 2.364396
time 22
0 0.000000 0.000000 0.000000 0.000000 -0.000000 0.000000
1 0.000010 -52.185059 -0.000000 0.000000 0.000000 0.000000
2 -77.624229 38.804276 0.000013 -0.000000 -0.000000 -2.498887
3 -77.624229 38.804276 0.000013 -0.000000 -0.000000 -2.498887
4 -85.045091 48.715168 0.000014 -0.000000 -0.000000 -2.498887
5 -102.848259 72.492103 0.000017 -0.000000 -0.000000 -2.498887
6 -111.152847 -92.430908 -0.000009 -0.000000 -0.000000 -1.220634
7 -111.152847 -92.430908 -0.000009 -0.000000 -0.000000 -1.220634
8 -122.782754 -96.678291 -0.000007 -0.000000 -0.000000 -1.220634
9 -150.683721 -106.868065 -0.000004 -0.000000 -0.000000 -1.220634
10 0.614944 -171.602219 -0.000007 -0.000000 0.000000 -0.006916
11 0.614944 -171.602219 -0.000007 -0.000000 0.000000 -0.006916
12 0.533440 -183.386933 -0.000006 -0.000000 0.000000 -0.006916
13 0.337908 -211.659312 -0.000003 -0.000000 0.000000 -0.006916
14 102.467407 -112.359314 -0.000002 0.000000 0.000000 1.080133
15 102.467407 -112.359314 -0.000002 0.000000 0.000000 1.080133
16 114.139189 -118.594846 -0.000002 0.000000 0.000000 1.080133
17 142.140636 -133.554331 -0.000003 0.000000 0.000000 1.080133
18 77.481171 39.088112 0.000000 0.000000 -0.000000 2.364396
19 77.481171 39.088112 0.000000 0.000000 -0.000000 2.364396
20 86.163930 47.914473 -0.000001 0.000000 -0.000000 2.364396
21 106.994503 69.089560 -0.000005 0.000000 -0.000000 2.364396
time 23
0 0.000000 0.000000 0.000000 0.000000 -0.000000 0.000000
1 0.000010 -52.185059 -0.000000 0.000000 0.000000 0.000000
2 -77.624229 38.804276 0.000013 -0.000000 -0.000000 -2.498887
3 -77.624229 38.804276 0.000013 -0.000000 -0.000000 -2.498887
4 -85.045091 48.715168 0.000014 -0.000000 -0.000000 -2.498887
5 -102.848259 72.492103 0.000017 -0.000000 -0.000000 -2.498887
6 -111.152847 -92.430908 -0.000009 -0.000000 -0.000000 -1.220634
7 -111.152847 -92.430908 -0.000009 -0.000000 -0.000000 -1.220634
8 -122.782754 -96.678291 -0.000007 -0.000000 -0.000000 -1.220634
9 -150.683721 -106.868065 -0.000004 -0.000000 -0.000000 -1.220634
10 0.614944 -171.602219 -0.000007 -0.000000 0.000000 -0.006916
11 0.614944 -171.602219 -0.000007 -0.000000 0.000000 -0.006916
12 0.533440 -183.386933 -0.000006 -0.000000 0.000000 -0.006916
13 0.337908 -211.659312 -0.000003 -0.000000 0.000000 -0.006916
14 102.467407 -112.359314 -0.000002 0.000000 0.000000 1.080133
15 102.467407 -112.359314 -0.000002 0.000000 0.000000 1.080133
16 114.139189 -118.594846 -0.000002 0.000000 0.000000 1.080133
17 142.140636 -133.554331 -0.000003 0.000000 0.000000 1.080133
18 77.481171 39.088112 0.000000 0.000000 -0.000000 2.364396
19 77.481171 39.088112 0.000000 0.000000 -0.000000 2.364396
20 86.163930 47.914473 -0.000001 0.000000 -0.000000 2.364396
21 106.994503 69.089560 -0.000005 0.000000 -0.000000 2.364396
time 24
0 0.000000 0.000000 0.000000 0.000000 -0.000000 0.000000
1 0.000010 -52.185059 -0.000000 0.000000 0.000000 0.000000
2 -77.624229 38.804276 0.000013 -0.000000 -0.000000 -2.498887
3 -77.624229 38.804276 0.000013 -0.000000 -0.000000 -2.498887
4 -85.045091 48.715168 0.000014 -0.000000 -0.000000 -2.498887
5 -102.848259 72.492103 0.000017 -0.000000 -0.000000 -2.498887
6 -111.152847 -92.430908 -0.000009 -0.000000 -0.000000 -1.220634
7 -111.152847 -92.430908 -0.000009 -0.000000 -0.000000 -1.220634
8 -122.782754 -96.678291 -0.000007 -0.000000 -0.000000 -1.220634
9 -150.683721 -106.868065 -0.000004 -0.000000 -0.000000 -1.220634
10 0.614944 -171.602219 -0.000007 -0.000000 0.000000 -0.006916
11 0.614944 -171.602219 -0.000007 -0.000000 0.000000 -0.006916
12 0.533440 -183.386933 -0.000006 -0.000000 0.000000 -0.006916
13 0.337908 -211.659312 -0.000003 -0.000000 0.000000 -0.006916
14 102.467407 -112.359314 -0.000002 0.000000 0.000000 1.080133
15 102.467407 -112.359314 -0.000002 0.000000 0.000000 1.080133
16 114.139189 -118.594846 -0.000002 0.000000 0.000000 1.080133
17 142.140636 -133.554331 -0.000003 0.000000 0.000000 1.080133
18 77.481171 39.088112 0.000000 0.000000 -0.000000 2.364396
19 77.481171 39.088112 0.000000 0.000000 -0.000000 2.364396
20 86.163930 47.914473 -0.000001 0.000000 -0.000000 2.364396
21 106.994503 69.089560 -0.000005 0.000000 -0.000000 2.364396
time 25
0 0.000000 0.000000 0.000000 0.000000 -0.000000 0.000000
1 0.000010 -52.185059 -0.000000 0.000000 0.000000 0.000000
2 -77.624229 38.804276 0.000013 -0.000000 -0.000000 -2.498887
3 -77.624229 38.804276 0.000013 -0.000000 -0.000000 -2.498887
4 -85.045091 48.715168 0.000014 -0.000000 -0.000000 -2.498887
5 -102.848259 72.492103 0.000017 -0.000000 -0.000000 -2.498887
6 -111.152847 -92.430908 -0.000009 -0.000000 -0.000000 -1.220634
7 -111.152847 -92.430908 -0.000009 -0.000000 -0.000000 -1.220634
8 -122.782754 -96.678291 -0.000007 -0.000000 -0.000000 -1.220634
9 -150.683721 -106.868065 -0.000004 -0.000000 -0.000000 -1.220634
10 0.614944 -171.602219 -0.000007 -0.000000 0.000000 -0.006916
11 0.614944 -171.602219 -0.000007 -0.000000 0.000000 -0.006916
12 0.533440 -183.386933 -0.000006 -0.000000 0.000000 -0.006916
13 0.337908 -211.659312 -0.000003 -0.000000 0.000000 -0.006916
14 102.467407 -112.359314 -0.000002 0.000000 0.000000 1.080133
15 102.467407 -112.359314 -0.000002 0.000000 0.000000 1.080133
16 114.139189 -118.594846 -0.000002 0.000000 0.000000 1.080133
17 142.140636 -133.554331 -0.000003 0.000000 0.000000 1.080133
18 77.481171 39.088112 0.000000 0.000000 -0.000000 2.364396
19 77.481171 39.088112 0.000000 0.000000 -0.000000 2.364396
20 86.163930 47.914473 -0.000001 0.000000 -0.000000 2.364396
21 106.994503 69.089560 -0.000005 0.000000 -0.000000 2.364396
time 26
0 0.000000 0.000000 0.000000 0.000000 -0.000000 0.000000
1 0.000010 -52.185059 -0.000000 0.000000 0.000000 0.000000
2 -77.624229 38.804276 0.000013 -0.000000 -0.000000 -2.498887
3 -77.624229 38.804276 0.000013 -0.000000 -0.000000 -2.498887
4 -85.045091 48.715168 0.000014 -0.000000 -0.000000 -2.498887
5 -102.848259 72.492103 0.000017 -0.000000 -0.000000 -2.498887
6 -111.152847 -92.430908 -0.000009 -0.000000 -0.000000 -1.220634
7 -111.152847 -92.430908 -0.000009 -0.000000 -0.000000 -1.220634
8 -122.782754 -96.678291 -0.000007 -0.000000 -0.000000 -1.220634
9 -150.683721 -106.868065 -0.000004 -0.000000 -0.000000 -1.220634
10 0.614944 -171.602219 -0.000007 -0.000000 0.000000 -0.006916
11 0.614944 -171.602219 -0.000007 -0.000000 0.000000 -0.006916
12 0.533440 -183.386933 -0.000006 -0.000000 0.000000 -0.006916
13 0.337908 -211.659312 -0.000003 -0.000000 0.000000 -0.006916
14 102.467407 -112.359314 -0.000002 0.000000 0.000000 1.080133
15 102.467407 -112.359314 -0.000002 0.000000 0.000000 1.080133
16 114.139189 -118.594846 -0.000002 0.000000 0.000000 1.080133
17 142.140636 -133.554331 -0.000003 0.000000 0.000000 1.080133
18 77.481171 39.088112 0.000000 0.000000 -0.000000 2.364396
19 77.481171 39.088112 0.000000 0.000000 -0.000000 2.364396
20 86.163930 47.914473 -0.000001 0.000000 -0.000000 2.364396
21 106.994503 69.089560 -0.000005 0.000000 -0.000000 2.364396
time 27
0 0.000000 0.000000 0.000000 0.000000 -0.000000 0.000000
1 0.000010 -52.185059 -0.000000 0.000000 0.000000 0.000000
2 -77.624229 38.804276 0.000013 -0.000000 -0.000000 -2.498887
3 -77.624229 38.804276 0.000013 -0.000000 -0.000000 -2.498887
4 -85.045091 48.715168 0.000014 -0.000000 -0.000000 -2.498887
5 -102.848259 72.492103 0.000017 -0.000000 -0.000000 -2.498887
6 -111.152847 -92.430908 -0.000009 -0.000000 -0.000000 -1.220634
7 -111.152847 -92.430908 -0.000009 -0.000000 -0.000000 -1.220634
8 -122.782754 -96.678291 -0.000007 -0.000000 -0.000000 -1.220634
9 -150.683721 -106.868065 -0.000004 -0.000000 -0.000000 -1.220634
10 0.614944 -171.602219 -0.000007 -0.000000 0.000000 -0.006916
11 0.614944 -171.602219 -0.000007 -0.000000 0.000000 -0.006916
12 0.533440 -183.386933 -0.000006 -0.000000 0.000000 -0.006916
13 0.337908 -211.659312 -0.000003 -0.000000 0.000000 -0.006916
14 102.467407 -112.359314 -0.000002 0.000000 0.000000 1.080133
15 102.467407 -112.359314 -0.000002 0.000000 0.000000 1.080133
16 114.139189 -118.594846 -0.000002 0.000000 0.000000 1.080133
17 142.140636 -133.554331 -0.000003 0.000000 0.000000 1.080133
18 77.481171 39.088112 0.000000 0.000000 -0.000000 2.364396
19 77.481171 39.088112 0.000000 0.000000 -0.000000 2.364396
20 86.163930 47.914473 -0.000001 0.000000 -0.000000 2.364396
21 106.994503 69.089560 -0.000005 0.000000 -0.000000 2.364396
time 28
0 0.000000 0.000000 0.000000 0.000000 -0.000000 0.000000
1 0.000010 -52.185059 -0.000000 0.000000 0.000000 0.000000
2 -77.624229 38.804276 0.000013 -0.000000 -0.000000 -2.498887
3 -77.624229 38.804276 0.000013 -0.000000 -0.000000 -2.498887
4 -85.045091 48.715168 0.000014 -0.000000 -0.000000 -2.498887
5 -102.848259 72.492103 0.000017 -0.000000 -0.000000 -2.498887
6 -111.152847 -92.430908 -0.000009 -0.000000 -0.000000 -1.220634
7 -111.152847 -92.430908 -0.000009 -0.000000 -0.000000 -1.220634
8 -122.782754 -96.678291 -0.000007 -0.000000 -0.000000 -1.220634
9 -150.683721 -106.868065 -0.000004 -0.000000 -0.000000 -1.220634
10 0.614944 -171.602219 -0.000007 -0.000000 0.000000 -0.006916
11 0.614944 -171.602219 -0.000007 -0.000000 0.000000 -0.006916
12 0.533440 -183.386933 -0.000006 -0.000000 0.000000 -0.006916
13 0.337908 -211.659312 -0.000003 -0.000000 0.000000 -0.006916
14 102.467407 -112.359314 -0.000002 0.000000 0.000000 1.080133
15 102.467407 -112.359314 -0.000002 0.000000 0.000000 1.080133
16 114.139189 -118.594846 -0.000002 0.000000 0.000000 1.080133
17 142.140636 -133.554331 -0.000003 0.000000 0.000000 1.080133
18 77.481171 39.088112 0.000000 0.000000 -0.000000 2.364396
19 77.481171 39.088112 0.000000 0.000000 -0.000000 2.364396
20 86.163930 47.914473 -0.000001 0.000000 -0.000000 2.364396
21 106.994503 69.089560 -0.000005 0.000000 -0.000000 2.364396
time 29
0 0.000000 0.000000 0.000000 0.000000 -0.000000 0.000000
1 0.000010 -52.185059 -0.000000 0.000000 0.000000 0.000000
2 -77.624229 38.804276 0.000013 -0.000000 -0.000000 -2.498887
3 -77.624229 38.804276 0.000013 -0.000000 -0.000000 -2.498887
4 -85.045091 48.715168 0.000014 -0.000000 -0.000000 -2.498887
5 -102.848259 72.492103 0.000017 -0.000000 -0.000000 -2.498887
6 -111.152847 -92.430908 -0.000009 -0.000000 -0.000000 -1.220634
7 -111.152847 -92.430908 -0.000009 -0.000000 -0.000000 -1.220634
8 -122.782754 -96.678291 -0.000007 -0.000000 -0.000000 -1.220634
9 -150.683721 -106.868065 -0.000004 -0.000000 -0.000000 -1.220634
10 0.614944 -171.602219 -0.000007 -0.000000 0.000000 -0.006916
11 0.614944 -171.602219 -0.000007 -0.000000 0.000000 -0.006916
12 0.533440 -183.386933 -0.000006 -0.000000 0.000000 -0.006916
13 0.337908 -211.659312 -0.000003 -0.000000 0.000000 -0.006916
14 102.467407 -112.359314 -0.000002 0.000000 0.000000 1.080133
15 102.467407 -112.359314 -0.000002 0.000000 0.000000 1.080133
16 114.139189 -118.594846 -0.000002 0.000000 0.000000 1.080133
17 142.140636 -133.554331 -0.000003 0.000000 0.000000 1.080133
18 77.481171 39.088112 0.000000 0.000000 -0.000000 2.364396
19 77.481171 39.088112 0.000000 0.000000 -0.000000 2.364396
20 86.163930 47.914473 -0.000001 0.000000 -0.000000 2.364396
21 106.994503 69.089560 -0.000005 0.000000 -0.000000 2.364396
time 30
0 0.000000 0.000000 0.000000 0.000000 -0.000000 0.000000
1 0.000010 -52.185059 -0.000000 0.000000 0.000000 0.000000
2 -77.624229 38.804276 0.000013 -0.000000 -0.000000 -2.498887
3 -77.624229 38.804276 0.000013 -0.000000 -0.000000 -2.498887
4 -85.045091 48.715168 0.000014 -0.000000 -0.000000 -2.498887
5 -102.848259 72.492103 0.000017 -0.000000 -0.000000 -2.498887
6 -111.152847 -92.430908 -0.000009 -0.000000 -0.000000 -1.220634
7 -111.152847 -92.430908 -0.000009 -0.000000 -0.000000 -1.220634
8 -122.782754 -96.678291 -0.000007 -0.000000 -0.000000 -1.220634
9 -150.683721 -106.868065 -0.000004 -0.000000 -0.000000 -1.220634
10 0.614944 -171.602219 -0.000007 -0.000000 0.000000 -0.006916
11 0.614944 -171.602219 -0.000007 -0.000000 0.000000 -0.006916
12 0.533440 -183.386933 -0.000006 -0.000000 0.000000 -0.006916
13 0.337908 -211.659312 -0.000003 -0.000000 0.000000 -0.006916
14 102.467407 -112.359314 -0.000002 0.000000 0.000000 1.080133
15 102.467407 -112.359314 -0.000002 0.000000 0.000000 1.080133
16 114.139189 -118.594846 -0.000002 0.000000 0.000000 1.080133
17 142.140636 -133.554331 -0.000003 0.000000 0.000000 1.080133
18 77.481171 39.088112 0.000000 0.000000 -0.000000 2.364396
19 77.481171 39.088112 0.000000 0.000000 -0.000000 2.364396
20 86.163930 47.914473 -0.000001 0.000000 -0.000000 2.364396
21 106.994503 69.089560 -0.000005 0.000000 -0.000000 2.364396
time 31
0 0.000000 0.000000 0.000000 0.000000 -0.000000 0.000000
1 0.000010 -52.185059 -0.000000 0.000000 0.000000 0.000000
2 -77.624229 38.804276 0.000013 -0.000000 -0.000000 -2.498887
3 -77.624229 38.804276 0.000013 -0.000000 -0.000000 -2.498887
4 -85.045091 48.715168 0.000014 -0.000000 -0.000000 -2.498887
5 -102.848259 72.492103 0.000017 -0.000000 -0.000000 -2.498887
6 -111.152847 -92.430908 -0.000009 -0.000000 -0.000000 -1.220634
7 -111.152847 -92.430908 -0.000009 -0.000000 -0.000000 -1.220634
8 -122.782754 -96.678291 -0.000007 -0.000000 -0.000000 -1.220634
9 -150.683721 -106.868065 -0.000004 -0.000000 -0.000000 -1.220634
10 0.614944 -171.602219 -0.000007 -0.000000 0.000000 -0.006916
11 0.614944 -171.602219 -0.000007 -0.000000 0.000000 -0.006916
12 0.533440 -183.386933 -0.000006 -0.000000 0.000000 -0.006916
13 0.337908 -211.659312 -0.000003 -0.000000 0.000000 -0.006916
14 102.467407 -112.359314 -0.000002 0.000000 0.000000 1.080133
15 102.467407 -112.359314 -0.000002 0.000000 0.000000 1.080133
16 114.139189 -118.594846 -0.000002 0.000000 0.000000 1.080133
17 142.140636 -133.554331 -0.000003 0.000000 0.000000 1.080133
18 77.481171 39.088112 0.000000 0.000000 -0.000000 2.364396
19 77.481171 39.088112 0.000000 0.000000 -0.000000 2.364396
20 86.163930 47.914473 -0.000001 0.000000 -0.000000 2.364396
21 106.994503 69.089560 -0.000005 0.000000 -0.000000 2.364396
time 32
0 0.000000 0.000000 0.000000 0.000000 -0.000000 0.000000
1 0.000010 -52.185059 -0.000000 0.000000 0.000000 0.000000
2 -77.624229 38.804276 0.000013 -0.000000 -0.000000 -2.498887
3 -77.624229 38.804276 0.000013 -0.000000 -0.000000 -2.498887
4 -85.045091 48.715168 0.000014 -0.000000 -0.000000 -2.498887
5 -102.848259 72.492103 0.000017 -0.000000 -0.000000 -2.498887
6 -111.152847 -92.430908 -0.000009 -0.000000 -0.000000 -1.220634
7 -111.152847 -92.430908 -0.000009 -0.000000 -0.000000 -1.220634
8 -122.782754 -96.678291 -0.000007 -0.000000 -0.000000 -1.220634
9 -150.683721 -106.868065 -0.000004 -0.000000 -0.000000 -1.220634
10 0.614944 -171.602219 -0.000007 -0.000000 0.000000 -0.006916
11 0.614944 -171.602219 -0.000007 -0.000000 0.000000 -0.006916
12 0.533440 -183.386933 -0.000006 -0.000000 0.000000 -0.006916
13 0.337908 -211.659312 -0.000003 -0.000000 0.000000 -0.006916
14 102.467407 -112.359314 -0.000002 0.000000 0.000000 1.080133
15 102.467407 -112.359314 -0.000002 0.000000 0.000000 1.080133
16 114.139189 -118.594846 -0.000002 0.000000 0.000000 1.080133
17 142.140636 -133.554331 -0.000003 0.000000 0.000000 1.080133
18 77.481171 39.088112 0.000000 0.000000 -0.000000 2.364396
19 77.481171 39.088112 0.000000 0.000000 -0.000000 2.364396
20 86.163930 47.914473 -0.000001 0.000000 -0.000000 2.364396
21 106.994503 69.089560 -0.000005 0.000000 -0.000000 2.364396
time 33
0 0.000000 0.000000 0.000000 0.000000 -0.000000 0.000000
1 0.000010 -52.185059 -0.000000 0.000000 0.000000 0.000000
2 -77.624229 38.804276 0.000013 -0.000000 -0.000000 -2.498887
3 -77.624229 38.804276 0.000013 -0.000000 -0.000000 -2.498887
4 -85.045091 48.715168 0.000014 -0.000000 -0.000000 -2.498887
5 -102.848259 72.492103 0.000017 -0.000000 -0.000000 -2.498887
6 -111.152847 -92.430908 -0.000009 -0.000000 -0.000000 -1.220634
7 -111.152847 -92.430908 -0.000009 -0.000000 -0.000000 -1.220634
8 -122.782754 -96.678291 -0.000007 -0.000000 -0.000000 -1.220634
9 -150.683721 -106.868065 -0.000004 -0.000000 -0.000000 -1.220634
10 0.614944 -171.602219 -0.000007 -0.000000 0.000000 -0.006916
11 0.614944 -171.602219 -0.000007 -0.000000 0.000000 -0.006916
12 0.533440 -183.386933 -0.000006 -0.000000 0.000000 -0.006916
13 0.337908 -211.659312 -0.000003 -0.000000 0.000000 -0.006916
14 102.467407 -112.359314 -0.000002 0.000000 0.000000 1.080133
15 102.467407 -112.359314 -0.000002 0.000000 0.000000 1.080133
16 114.139189 -118.594846 -0.000002 0.000000 0.000000 1.080133
17 142.140636 -133.554331 -0.000003 0.000000 0.000000 1.080133
18 77.481171 39.088112 0.000000 0.000000 -0.000000 2.364396
19 77.481171 39.088112 0.000000 0.000000 -0.000000 2.364396
20 86.163930 47.914473 -0.000001 0.000000 -0.000000 2.364396
21 106.994503 69.089560 -0.000005 0.000000 -0.000000 2.364396
time 34
0 0.000000 0.000000 0.000000 0.000000 -0.000000 0.000000
1 0.000010 -52.185059 -0.000000 0.000000 0.000000 0.000000
2 -77.624229 38.804276 0.000013 -0.000000 -0.000000 -2.498887
3 -77.624229 38.804276 0.000013 -0.000000 -0.000000 -2.498887
4 -85.045091 48.715168 0.000014 -0.000000 -0.000000 -2.498887
5 -102.848259 72.492103 0.000017 -0.000000 -0.000000 -2.498887
6 -111.152847 -92.430908 -0.000009 -0.000000 -0.000000 -1.220634
7 -111.152847 -92.430908 -0.000009 -0.000000 -0.000000 -1.220634
8 -122.782754 -96.678291 -0.000007 -0.000000 -0.000000 -1.220634
9 -150.683721 -106.868065 -0.000004 -0.000000 -0.000000 -1.220634
10 0.614944 -171.602219 -0.000007 -0.000000 0.000000 -0.006916
11 0.614944 -171.602219 -0.000007 -0.000000 0.000000 -0.006916
12 0.533440 -183.386933 -0.000006 -0.000000 0.000000 -0.006916
13 0.337908 -211.659312 -0.000003 -0.000000 0.000000 -0.006916
14 102.467407 -112.359314 -0.000002 0.000000 0.000000 1.080133
15 102.467407 -112.359314 -0.000002 0.000000 0.000000 1.080133
16 114.139189 -118.594846 -0.000002 0.000000 0.000000 1.080133
17 142.140636 -133.554331 -0.000003 0.000000 0.000000 1.080133
18 77.481171 39.088112 0.000000 0.000000 -0.000000 2.364396
19 77.481171 39.088112 0.000000 0.000000 -0.000000 2.364396
20 86.163930 47.914473 -0.000001 0.000000 -0.000000 2.364396
21 106.994503 69.089560 -0.000005 0.000000 -0.000000 2.364396
time 35
0 0.000000 0.000000 0.000000 0.000000 -0.000000 0.000000
1 0.000010 -52.185059 -0.000000 0.000000 0.000000 0.000000
2 -77.624229 38.804276 0.000013 -0.000000 -0.000000 -2.498887
3 -77.624229 38.804276 0.000013 -0.000000 -0.000000 -2.498887
4 -85.045091 48.715168 0.000014 -0.000000 -0.000000 -2.498887
5 -102.848259 72.492103 0.000017 -0.000000 -0.000000 -2.498887
6 -111.152847 -92.430908 -0.000009 -0.000000 -0.000000 -1.220634
7 -111.152847 -92.430908 -0.000009 -0.000000 -0.000000 -1.220634
8 -122.782754 -96.678291 -0.000007 -0.000000 -0.000000 -1.220634
9 -150.683721 -106.868065 -0.000004 -0.000000 -0.000000 -1.220634
10 0.614944 -171.602219 -0.000007 -0.000000 0.000000 -0.006916
11 0.614944 -171.602219 -0.000007 -0.000000 0.000000 -0.006916
12 0.533440 -183.386933 -0.000006 -0.000000 0.000000 -0.006916
13 0.337908 -211.659312 -0.000003 -0.000000 0.000000 -0.006916
14 102.467407 -112.359314 -0.000002 0.000000 0.000000 1.080133
15 102.467407 -112.359314 -0.000002 0.000000 0.000000 1.080133
16 114.139189 -118.594846 -0.000002 0.000000 0.000000 1.080133
17 142.140636 -133.554331 -0.000003 0.000000 0.000000 1.080133
18 77.481171 39.088112 0.000000 0.000000 -0.000000 2.364396
19 77.481171 39.088112 0.000000 0.000000 -0.000000 2.364396
20 86.163930 47.914473 -0.000001 0.000000 -0.000000 2.364396
21 106.994503 69.089560 -0.000005 0.000000 -0.000000 2.364396
time 36
0 0.000000 0.000000 0.000000 0.000000 -0.000000 0.000000
1 0.000010 -52.185059 -0.000000 0.000000 0.000000 0.000000
2 -77.624229 38.804276 0.000013 -0.000000 -0.000000 -2.498887
3 -77.624229 38.804276 0.000013 -0.000000 -0.000000 -2.498887
4 -85.045091 48.715168 0.000014 -0.000000 -0.000000 -2.498887
5 -102.848259 72.492103 0.000017 -0.000000 -0.000000 -2.498887
6 -111.152847 -92.430908 -0.000009 -0.000000 -0.000000 -1.220634
7 -111.152847 -92.430908 -0.000009 -0.000000 -0.000000 -1.220634
8 -122.782754 -96.678291 -0.000007 -0.000000 -0.000000 -1.220634
9 -150.683721 -106.868065 -0.000004 -0.000000 -0.000000 -1.220634
10 0.614944 -171.602219 -0.000007 -0.000000 0.000000 -0.006916
11 0.614944 -171.602219 -0.000007 -0.000000 0.000000 -0.006916
12 0.533440 -183.386933 -0.000006 -0.000000 0.000000 -0.006916
13 0.337908 -211.659312 -0.000003 -0.000000 0.000000 -0.006916
14 102.467407 -112.359314 -0.000002 0.000000 0.000000 1.080133
15 102.467407 -112.359314 -0.000002 0.000000 0.000000 1.080133
16 114.139189 -118.594846 -0.000002 0.000000 0.000000 1.080133
17 142.140636 -133.554331 -0.000003 0.000000 0.000000 1.080133
18 77.481171 39.088112 0.000000 0.000000 -0.000000 2.364396
19 77.481171 39.088112 0.000000 0.000000 -0.000000 2.364396
20 86.163930 47.914473 -0.000001 0.000000 -0.000000 2.364396
21 106.994503 69.089560 -0.000005 0.000000 -0.000000 2.364396
time 37
0 0.000000 0.000000 0.000000 0.000000 -0.000000 0.000000
1 0.000010 -52.185059 -0.000000 0.000000 0.000000 0.000000
2 -77.624229 38.804276 0.000013 -0.000000 -0.000000 -2.498887
3 -77.624229 38.804276 0.000013 -0.000000 -0.000000 -2.498887
4 -85.045091 48.715168 0.000014 -0.000000 -0.000000 -2.498887
5 -102.848259 72.492103 0.000017 -0.000000 -0.000000 -2.498887
6 -111.152847 -92.430908 -0.000009 -0.000000 -0.000000 -1.220634
7 -111.152847 -92.430908 -0.000009 -0.000000 -0.000000 -1.220634
8 -122.782754 -96.678291 -0.000007 -0.000000 -0.000000 -1.220634
9 -150.683721 -106.868065 -0.000004 -0.000000 -0.000000 -1.220634
10 0.614944 -171.602219 -0.000007 -0.000000 0.000000 -0.006916
11 0.614944 -171.602219 -0.000007 -0.000000 0.000000 -0.006916
12 0.533440 -183.386933 -0.000006 -0.000000 0.000000 -0.006916
13 0.337908 -211.659312 -0.000003 -0.000000 0.000000 -0.006916
14 102.467407 -112.359314 -0.000002 0.000000 0.000000 1.080133
15 102.467407 -112.359314 -0.000002 0.000000 0.000000 1.080133
16 114.139189 -118.594846 -0.000002 0.000000 0.000000 1.080133
17 142.140636 -133.554331 -0.000003 0.000000 0.000000 1.080133
18 77.481171 39.088112 0.000000 0.000000 -0.000000 2.364396
19 77.481171 39.088112 0.000000 0.000000 -0.000000 2.364396
20 86.163930 47.914473 -0.000001 0.000000 -0.000000 2.364396
21 106.994503 69.089560 -0.000005 0.000000 -0.000000 2.364396
time 38
0 0.000000 0.000000 0.000000 0.000000 -0.000000 0.000000
1 0.000010 -52.185059 -0.000000 0.000000 0.000000 0.000000
2 -77.624229 38.804276 0.000013 -0.000000 -0.000000 -2.498887
3 -77.624229 38.804276 0.000013 -0.000000 -0.000000 -2.498887
4 -85.045091 48.715168 0.000014 -0.000000 -0.000000 -2.498887
5 -102.848259 72.492103 0.000017 -0.000000 -0.000000 -2.498887
6 -111.152847 -92.430908 -0.000009 -0.000000 -0.000000 -1.220634
7 -111.152847 -92.430908 -0.000009 -0.000000 -0.000000 -1.220634
8 -122.782754 -96.678291 -0.000007 -0.000000 -0.000000 -1.220634
9 -150.683721 -106.868065 -0.000004 -0.000000 -0.000000 -1.220634
10 0.614944 -171.602219 -0.000007 -0.000000 0.000000 -0.006916
11 0.614944 -171.602219 -0.000007 -0.000000 0.000000 -0.006916
12 0.533440 -183.386933 -0.000006 -0.000000 0.000000 -0.006916
13 0.337908 -211.659312 -0.000003 -0.000000 0.000000 -0.006916
14 102.467407 -112.359314 -0.000002 0.000000 0.000000 1.080133
15 102.467407 -112.359314 -0.000002 0.000000 0.000000 1.080133
16 114.139189 -118.594846 -0.000002 0.000000 0.000000 1.080133
17 142.140636 -133.554331 -0.000003 0.000000 0.000000 1.080133
18 77.481171 39.088112 0.000000 0.000000 -0.000000 2.364396
19 77.481171 39.088112 0.000000 0.000000 -0.000000 2.364396
20 86.163930 47.914473 -0.000001 0.000000 -0.000000 2.364396
21 106.994503 69.089560 -0.000005 0.000000 -0.000000 2.364396
time 39
0 0.000000 0.000000 0.000000 0.000000 -0.000000 0.000000
1 0.000010 -52.185059 -0.000000 0.000000 0.000000 0.000000
2 -77.624229 38.804276 0.000013 -0.000000 -0.000000 -2.498887
3 -77.624229 38.804276 0.000013 -0.000000 -0.000000 -2.498887
4 -85.045091 48.715168 0.000014 -0.000000 -0.000000 -2.498887
5 -102.848259 72.492103 0.000017 -0.000000 -0.000000 -2.498887
6 -111.152847 -92.430908 -0.000009 -0.000000 -0.000000 -1.220634
7 -111.152847 -92.430908 -0.000009 -0.000000 -0.000000 -1.220634
8 -122.782754 -96.678291 -0.000007 -0.000000 -0.000000 -1.220634
9 -150.683721 -106.868065 -0.000004 -0.000000 -0.000000 -1.220634
10 0.614944 -171.602219 -0.000007 -0.000000 0.000000 -0.006916
11 0.614944 -171.602219 -0.000007 -0.000000 0.000000 -0.006916
12 0.533440 -183.386933 -0.000006 -0.000000 0.000000 -0.006916
13 0.337908 -211.659312 -0.000003 -0.000000 0.000000 -0.006916
14 102.467407 -112.359314 -0.000002 0.000000 0.000000 1.080133
15 102.467407 -112.359314 -0.000002 0.000000 0.000000 1.080133
16 114.139189 -118.594846 -0.000002 0.000000 0.000000 1.080133
17 142.140636 -133.554331 -0.000003 0.000000 0.000000 1.080133
18 77.481171 39.088112 0.000000 0.000000 -0.000000 2.364396
19 77.481171 39.088112 0.000000 0.000000 -0.000000 2.364396
20 86.163930 47.914473 -0.000001 0.000000 -0.000000 2.364396
21 106.994503 69.089560 -0.000005 0.000000 -0.000000 2.364396
time 40
0 0.000000 0.000000 0.000000 0.000000 -0.000000 0.000000
1 0.000010 -52.185059 -0.000000 0.000000 0.000000 0.000000
2 -77.624229 38.804276 0.000013 -0.000000 -0.000000 -2.498887
3 -77.624229 38.804276 0.000013 -0.000000 -0.000000 -2.498887
4 -85.045091 48.715168 0.000014 -0.000000 -0.000000 -2.498887
5 -102.848259 72.492103 0.000017 -0.000000 -0.000000 -2.498887
6 -111.152847 -92.430908 -0.000009 -0.000000 -0.000000 -1.220634
7 -111.152847 -92.430908 -0.000009 -0.000000 -0.000000 -1.220634
8 -122.782754 -96.678291 -0.000007 -0.000000 -0.000000 -1.220634
9 -150.683721 -106.868065 -0.000004 -0.000000 -0.000000 -1.220634
10 0.614944 -171.602219 -0.000007 -0.000000 0.000000 -0.006916
11 0.614944 -171.602219 -0.000007 -0.000000 0.000000 -0.006916
12 0.533440 -183.386933 -0.000006 -0.000000 0.000000 -0.006916
13 0.337908 -211.659312 -0.000003 -0.000000 0.000000 -0.006916
14 102.467407 -112.359314 -0.000002 0.000000 0.000000 1.080133
15 102.467407 -112.359314 -0.000002 0.000000 0.000000 1.080133
16 114.139189 -118.594846 -0.000002 0.000000 0.000000 1.080133
17 142.140636 -133.554331 -0.000003 0.000000 0.000000 1.080133
18 77.481171 39.088112 0.000000 0.000000 -0.000000 2.364396
19 77.481171 39.088112 0.000000 0.000000 -0.000000 2.364396
20 86.163930 47.914473 -0.000001 0.000000 -0.000000 2.364396
21 106.994503 69.089560 -0.000005 0.000000 -0.000000 2.364396
time 41
0 0.000000 0.000000 0.000000 0.000000 -0.000000 0.000000
1 0.000010 -52.185059 -0.000000 0.000000 0.000000 0.000000
2 -77.624229 38.804276 0.000013 -0.000000 -0.000000 -2.498887
3 -77.624229 38.804276 0.000013 -0.000000 -0.000000 -2.498887
4 -85.045091 48.715168 0.000014 -0.000000 -0.000000 -2.498887
5 -102.848259 72.492103 0.000017 -0.000000 -0.000000 -2.498887
6 -111.152847 -92.430908 -0.000009 -0.000000 -0.000000 -1.220634
7 -111.152847 -92.430908 -0.000009 -0.000000 -0.000000 -1.220634
8 -122.782754 -96.678291 -0.000007 -0.000000 -0.000000 -1.220634
9 -150.683721 -106.868065 -0.000004 -0.000000 -0.000000 -1.220634
10 0.614944 -171.602219 -0.000007 -0.000000 0.000000 -0.006916
11 0.614944 -171.602219 -0.000007 -0.000000 0.000000 -0.006916
12 0.533440 -183.386933 -0.000006 -0.000000 0.000000 -0.006916
13 0.337908 -211.659312 -0.000003 -0.000000 0.000000 -0.006916
14 102.467407 -112.359314 -0.000002 0.000000 0.000000 1.080133
15 102.467407 -112.359314 -0.000002 0.000000 0.000000 1.080133
16 114.139189 -118.594846 -0.000002 0.000000 0.000000 1.080133
17 142.140636 -133.554331 -0.000003 0.000000 0.000000 1.080133
18 77.481171 39.088112 0.000000 0.000000 -0.000000 2.364396
19 77.481171 39.088112 0.000000 0.000000 -0.000000 2.364396
20 86.163930 47.914473 -0.000001 0.000000 -0.000000 2.364396
21 106.994503 69.089560 -0.000005 0.000000 -0.000000 2.364396
time 42
0 0.000000 0.000000 0.000000 0.000000 -0.000000 0.000000
1 0.000010 -52.185059 -0.000000 0.000000 0.000000 0.000000
2 -77.624229 38.804276 0.000013 -0.000000 -0.000000 -2.498887
3 -77.624229 38.804276 0.000013 -0.000000 -0.000000 -2.498887
4 -85.045091 48.715168 0.000014 -0.000000 -0.000000 -2.498887
5 -102.848259 72.492103 0.000017 -0.000000 -0.000000 -2.498887
6 -111.152847 -92.430908 -0.000009 -0.000000 -0.000000 -1.220634
7 -111.152847 -92.430908 -0.000009 -0.000000 -0.000000 -1.220634
8 -122.782754 -96.678291 -0.000007 -0.000000 -0.000000 -1.220634
9 -150.683721 -106.868065 -0.000004 -0.000000 -0.000000 -1.220634
10 0.614944 -171.602219 -0.000007 -0.000000 0.000000 -0.006916
11 0.614944 -171.602219 -0.000007 -0.000000 0.000000 -0.006916
12 0.533440 -183.386933 -0.000006 -0.000000 0.000000 -0.006916
13 0.337908 -211.659312 -0.000003 -0.000000 0.000000 -0.006916
14 102.467407 -112.359314 -0.000002 0.000000 0.000000 1.080133
15 102.467407 -112.359314 -0.000002 0.000000 0.000000 1.080133
16 114.139189 -118.594846 -0.000002 0.000000 0.000000 1.080133
17 142.140636 -133.554331 -0.000003 0.000000 0.000000 1.080133
18 77.481171 39.088112 0.000000 0.000000 -0.000000 2.364396
19 77.481171 39.088112 0.000000 0.000000 -0.000000 2.364396
20 86.163930 47.914473 -0.000001 0.000000 -0.000000 2.364396
21 106.994503 69.089560 -0.000005 0.000000 -0.000000 2.364396
time 43
0 0.000000 0.000000 0.000000 0.000000 -0.000000 0.000000
1 0.000010 -52.185059 -0.000000 0.000000 0.000000 0.000000
2 -77.624229 38.804276 0.000013 -0.000000 -0.000000 -2.498887
3 -77.624229 38.804276 0.000013 -0.000000 -0.000000 -2.498887
4 -85.045091 48.715168 0.000014 -0.000000 -0.000000 -2.498887
5 -102.848259 72.492103 0.000017 -0.000000 -0.000000 -2.498887
6 -111.152847 -92.430908 -0.000009 -0.000000 -0.000000 -1.220634
7 -111.152847 -92.430908 -0.000009 -0.000000 -0.000000 -1.220634
8 -122.782754 -96.678291 -0.000007 -0.000000 -0.000000 -1.220634
9 -150.683721 -106.868065 -0.000004 -0.000000 -0.000000 -1.220634
10 0.614944 -171.602219 -0.000007 -0.000000 0.000000 -0.006916
11 0.614944 -171.602219 -0.000007 -0.000000 0.000000 -0.006916
12 0.533440 -183.386933 -0.000006 -0.000000 0.000000 -0.006916
13 0.337908 -211.659312 -0.000003 -0.000000 0.000000 -0.006916
14 102.467407 -112.359314 -0.000002 0.000000 0.000000 1.080133
15 102.467407 -112.359314 -0.000002 0.000000 0.000000 1.080133
16 114.139189 -118.594846 -0.000002 0.000000 0.000000 1.080133
17 142.140636 -133.554331 -0.000003 0.000000 0.000000 1.080133
18 77.481171 39.088112 0.000000 0.000000 -0.000000 2.364396
19 77.481171 39.088112 0.000000 0.000000 -0.000000 2.364396
20 86.163930 47.914473 -0.000001 0.000000 -0.000000 2.364396
21 106.994503 69.089560 -0.000005 0.000000 -0.000000 2.364396
time 44
0 0.000000 0.000000 0.000000 0.000000 -0.000000 0.000000
1 0.000010 -52.185059 -0.000000 0.000000 0.000000 0.000000
2 -77.624229 38.804276 0.000013 -0.000000 -0.000000 -2.498887
3 -77.624229 38.804276 0.000013 -0.000000 -0.000000 -2.498887
4 -85.045091 48.715168 0.000014 -0.000000 -0.000000 -2.498887
5 -102.848259 72.492103 0.000017 -0.000000 -0.000000 -2.498887
6 -111.152847 -92.430908 -0.000009 -0.000000 -0.000000 -1.220634
7 -111.152847 -92.430908 -0.000009 -0.000000 -0.000000 -1.220634
8 -122.782754 -96.678291 -0.000007 -0.000000 -0.000000 -1.220634
9 -150.683721 -106.868065 -0.000004 -0.000000 -0.000000 -1.220634
10 0.614944 -171.602219 -0.000007 -0.000000 0.000000 -0.006916
11 0.614944 -171.602219 -0.000007 -0.000000 0.000000 -0.006916
12 0.533440 -183.386933 -0.000006 -0.000000 0.000000 -0.006916
13 0.337908 -211.659312 -0.000003 -0.000000 0.000000 -0.006916
14 102.467407 -112.359314 -0.000002 0.000000 0.000000 1.080133
15 102.467407 -112.359314 -0.000002 0.000000 0.000000 1.080133
16 114.139189 -118.594846 -0.000002 0.000000 0.000000 1.080133
17 142.140636 -133.554331 -0.000003 0.000000 0.000000 1.080133
18 77.481171 39.088112 0.000000 0.000000 -0.000000 2.364396
19 77.481171 39.088112 0.000000 0.000000 -0.000000 2.364396
20 86.163930 47.914473 -0.000001 0.000000 -0.000000 2.364396
21 106.994503 69.089560 -0.000005 0.000000 -0.000000 2.364396
time 45
0 0.000000 0.000000 0.000000 0.000000 -0.000000 0.000000
1 0.000010 -52.185059 -0.000000 0.000000 0.000000 0.000000
2 -77.624229 38.804276 0.000013 -0.000000 -0.000000 -2.498887
3 -77.624229 38.804276 0.000013 -0.000000 -0.000000 -2.498887
4 -85.045091 48.715168 0.000014 -0.000000 -0.000000 -2.498887
5 -102.848259 72.492103 0.000017 -0.000000 -0.000000 -2.498887
6 -111.152847 -92.430908 -0.000009 -0.000000 -0.000000 -1.220634
7 -111.152847 -92.430908 -0.000009 -0.000000 -0.000000 -1.220634
8 -122.782754 -96.678291 -0.000007 -0.000000 -0.000000 -1.220634
9 -150.683721 -106.868065 -0.000004 -0.000000 -0.000000 -1.220634
10 0.614944 -171.602219 -0.000007 -0.000000 0.000000 -0.006916
11 0.614944 -171.602219 -0.000007 -0.000000 0.000000 -0.006916
12 0.533440 -183.386933 -0.000006 -0.000000 0.000000 -0.006916
13 0.337908 -211.659312 -0.000003 -0.000000 0.000000 -0.006916
14 102.467407 -112.359314 -0.000002 0.000000 0.000000 1.080133
15 102.467407 -112.359314 -0.000002 0.000000 0.000000 1.080133
16 114.139189 -118.594846 -0.000002 0.000000 0.000000 1.080133
17 142.140636 -133.554331 -0.000003 0.000000 0.000000 1.080133
18 77.481171 39.088112 0.000000 0.000000 -0.000000 2.364396
19 77.481171 39.088112 0.000000 0.000000 -0.000000 2.364396
20 86.163930 47.914473 -0.000001 0.000000 -0.000000 2.364396
21 106.994503 69.089560 -0.000005 0.000000 -0.000000 2.364396
time 46
0 0.000000 0.000000 0.000000 0.000000 -0.000000 0.000000
1 0.000010 -52.185059 -0.000000 0.000000 0.000000 0.000000
2 -77.624229 38.804276 0.000013 -0.000000 -0.000000 -2.498887
3 -77.624229 38.804276 0.000013 -0.000000 -0.000000 -2.498887
4 -85.045091 48.715168 0.000014 -0.000000 -0.000000 -2.498887
5 -102.848259 72.492103 0.000017 -0.000000 -0.000000 -2.498887
6 -111.152847 -92.430908 -0.000009 -0.000000 -0.000000 -1.220634
7 -111.152847 -92.430908 -0.000009 -0.000000 -0.000000 -1.220634
8 -122.782754 -96.678291 -0.000007 -0.000000 -0.000000 -1.220634
9 -150.683721 -106.868065 -0.000004 -0.000000 -0.000000 -1.220634
10 0.614944 -171.602219 -0.000007 -0.000000 0.000000 -0.006916
11 0.614944 -171.602219 -0.000007 -0.000000 0.000000 -0.006916
12 0.533440 -183.386933 -0.000006 -0.000000 0.000000 -0.006916
13 0.337908 -211.659312 -0.000003 -0.000000 0.000000 -0.006916
14 102.467407 -112.359314 -0.000002 0.000000 0.000000 1.080133
15 102.467407 -112.359314 -0.000002 0.000000 0.000000 1.080133
16 114.139189 -118.594846 -0.000002 0.000000 0.000000 1.080133
17 142.140636 -133.554331 -0.000003 0.000000 0.000000 1.080133
18 77.481171 39.088112 0.000000 0.000000 -0.000000 2.364396
19 77.481171 39.088112 0.000000 0.000000 -0.000000 2.364396
20 86.163930 47.914473 -0.000001 0.000000 -0.000000 2.364396
21 106.994503 69.089560 -0.000005 0.000000 -0.000000 2.364396
time 47
0 0.000000 0.000000 0.000000 0.000000 -0.000000 0.000000
1 0.000010 -52.185059 -0.000000 0.000000 0.000000 0.000000
2 -77.624229 38.804276 0.000013 -0.000000 -0.000000 -2.498887
3 -77.624229 38.804276 0.000013 -0.000000 -0.000000 -2.498887
4 -85.045091 48.715168 0.000014 -0.000000 -0.000000 -2.498887
5 -102.848259 72.492103 0.000017 -0.000000 -0.000000 -2.498887
6 -111.152847 -92.430908 -0.000009 -0.000000 -0.000000 -1.220634
7 -111.152847 -92.430908 -0.000009 -0.000000 -0.000000 -1.220634
8 -122.782754 -96.678291 -0.000007 -0.000000 -0.000000 -1.220634
9 -150.683721 -106.868065 -0.000004 -0.000000 -0.000000 -1.220634
10 0.614944 -171.602219 -0.000007 -0.000000 0.000000 -0.006916
11 0.614944 -171.602219 -0.000007 -0.000000 0.000000 -0.006916
12 0.533440 -183.386933 -0.000006 -0.000000 0.000000 -0.006916
13 0.337908 -211.659312 -0.000003 -0.000000 0.000000 -0.006916
14 102.467407 -112.359314 -0.000002 0.000000 0.000000 1.080133
15 102.467407 -112.359314 -0.000002 0.000000 0.000000 1.080133
16 114.139189 -118.594846 -0.000002 0.000000 0.000000 1.080133
17 142.140636 -133.554331 -0.000003 0.000000 0.000000 1.080133
18 77.481171 39.088112 0.000000 0.000000 -0.000000 2.364396
19 77.481171 39.088112 0.000000 0.000000 -0.000000 2.364396
20 86.163930 47.914473 -0.000001 0.000000 -0.000000 2.364396
21 106.994503 69.089560 -0.000005 0.000000 -0.000000 2.364396
time 48
0 0.000000 0.000000 0.000000 0.000000 -0.000000 0.000000
1 0.000010 -52.185059 -0.000000 0.000000 0.000000 0.000000
2 -77.624229 38.804276 0.000013 -0.000000 -0.000000 -2.498887
3 -77.624229 38.804276 0.000013 -0.000000 -0.000000 -2.498887
4 -85.045091 48.715168 0.000014 -0.000000 -0.000000 -2.498887
5 -102.848259 72.492103 0.000017 -0.000000 -0.000000 -2.498887
6 -111.152847 -92.430908 -0.000009 -0.000000 -0.000000 -1.220634
7 -111.152847 -92.430908 -0.000009 -0.000000 -0.000000 -1.220634
8 -122.782754 -96.678291 -0.000007 -0.000000 -0.000000 -1.220634
9 -150.683721 -106.868065 -0.000004 -0.000000 -0.000000 -1.220634
10 0.614944 -171.602219 -0.000007 -0.000000 0.000000 -0.006916
11 0.614944 -171.602219 -0.000007 -0.000000 0.000000 -0.006916
12 0.533440 -183.386933 -0.000006 -0.000000 0.000000 -0.006916
13 0.337908 -211.659312 -0.000003 -0.000000 0.000000 -0.006916
14 102.467407 -112.359314 -0.000002 0.000000 0.000000 1.080133
15 102.467407 -112.359314 -0.000002 0.000000 0.000000 1.080133
16 114.139189 -118.594846 -0.000002 0.000000 0.000000 1.080133
17 142.140636 -133.554331 -0.000003 0.000000 0.000000 1.080133
18 77.481171 39.088112 0.000000 0.000000 -0.000000 2.364396
19 77.481171 39.088112 0.000000 0.000000 -0.000000 2.364396
20 86.163930 47.914473 -0.000001 0.000000 -0.000000 2.364396
21 106.994503 69.089560 -0.000005 0.000000 -0.000000 2.364396
time 49
0 0.000000 0.000000 0.000000 0.000000 -0.000000 0.000000
1 0.000010 -52.185059 -0.000000 0.000000 0.000000 0.000000
2 -77.624229 38.804276 0.000013 -0.000000 -0.000000 -2.498887
3 -77.624229 38.804276 0.000013 -0.000000 -0.000000 -2.498887
4 -85.045091 48.715168 0.000014 -0.000000 -0.000000 -2.498887
5 -102.848259 72.492103 0.000017 -0.000000 -0.000000 -2.498887
6 -111.152847 -92.430908 -0.000009 -0.000000 -0.000000 -1.220634
7 -111.152847 -92.430908 -0.000009 -0.000000 -0.000000 -1.220634
8 -122.782754 -96.678291 -0.000007 -0.000000 -0.000000 -1.220634
9 -150.683721 -106.868065 -0.000004 -0.000000 -0.000000 -1.220634
10 0.614944 -171.602219 -0.000007 -0.000000 0.000000 -0.006916
11 0.614944 -171.602219 -0.000007 -0.000000 0.000000 -0.006916
12 0.533440 -183.386933 -0.000006 -0.000000 0.000000 -0.006916
13 0.337908 -211.659312 -0.000003 -0.000000 0.000000 -0.006916
14 102.467407 -112.359314 -0.000002 0.000000 0.000000 1.080133
15 102.467407 -112.359314 -0.000002 0.000000 0.000000 1.080133
16 114.139189 -118.594846 -0.000002 0.000000 0.000000 1.080133
17 142.140636 -133.554331 -0.000003 0.000000 0.000000 1.080133
18 77.481171 39.088112 0.000000 0.000000 -0.000000 2.364396
19 77.481171 39.088112 0.000000 0.000000 -0.000000 2.364396
20 86.163930 47.914473 -0.000001 0.000000 -0.000000 2.364396
21 106.994503 69.089560 -0.000005 0.000000 -0.000000 2.364396
time 50
0 0.000000 0.000000 0.000000 0.000000 -0.000000 0.000000
1 0.000010 -52.185059 -0.000000 0.000000 0.000000 0.000000
2 -77.624229 38.804276 0.000013 -0.000000 -0.000000 -2.498887
3 -77.624229 38.804276 0.000013 -0.000000 -0.000000 -2.498887
4 -85.045091 48.715168 0.000014 -0.000000 -0.000000 -2.498887
5 -102.848259 72.492103 0.000017 -0.000000 -0.000000 -2.498887
6 -111.152847 -92.430908 -0.000009 -0.000000 -0.000000 -1.220634
7 -111.152847 -92.430908 -0.000009 -0.000000 -0.000000 -1.220634
8 -122.782754 -96.678291 -0.000007 -0.000000 -0.000000 -1.220634
9 -150.683721 -106.868065 -0.000004 -0.000000 -0.000000 -1.220634
10 0.614944 -171.602219 -0.000007 -0.000000 0.000000 -0.006916
11 0.614944 -171.602219 -0.000007 -0.000000 0.000000 -0.006916
12 0.533440 -183.386933 -0.000006 -0.000000 0.000000 -0.006916
13 0.337908 -211.659312 -0.000003 -0.000000 0.000000 -0.006916
14 102.467407 -112.359314 -0.000002 0.000000 0.000000 1.080133
15 102.467407 -112.359314 -0.000002 0.000000 0.000000 1.080133
16 114.139189 -118.594846 -0.000002 0.000000 0.000000 1.080133
17 142.140636 -133.554331 -0.000003 0.000000 0.000000 1.080133
18 77.481171 39.088112 0.000000 0.000000 -0.000000 2.364396
19 77.481171 39.088112 0.000000 0.000000 -0.000000 2.364396
20 86.163930 47.914473 -0.000001 0.000000 -0.000000 2.364396
21 106.994503 69.089560 -0.000005 0.000000 -0.000000 2.364396
end
