version 1
nodes
0 "root" -1
1 "draw1_0_2efb_kyj02_trall" 0
2 "draw1_1_2efb_kyj02_bone01" 0
3 "draw1_2_2efb_kyj02_bone02" 0
4 "draw1_3_2efb_kyj02_bone03" 0
end
skeleton
time 0
0 0.000000 0.000000 0.000000 0.000000 -0.000000 0.000000
1 0.000000 0.000000 0.000000 0.000000 -0.000000 0.000000
2 0.000000 0.000000 0.000000 0.000000 -0.000000 0.000000
3 0.000000 -18.571853 0.000000 0.000000 -0.000000 0.000000
4 0.000000 -63.127064 0.000000 0.000000 -0.000000 0.000000
end
triangles
2efb_kyj02_body_mesh1
2 -0.981194 -19.960551 -0.025195 0.000000 -0.545168 -0.838327 0.116699 0.158691 2 2 0.294789 3 0.705211
2 -0.981194 -18.520173 0.911486 0.000000 0.000000 1.000000 0.128906 0.169922 2 2 0.306770 3 0.693230
2 -0.981194 -18.520178 -0.961875 0.000000 0.000000 -1.000000 0.104553 0.170898 2 2 0.307175 3 0.692825
2efb_kyj02_body_mesh1
2 -0.981194 -18.520173 0.911486 0.000000 0.000000 1.000000 0.128906 0.169922 2 2 0.306770 3 0.693230
2 -0.981194 -17.079798 -0.025195 0.000000 0.545166 -0.838328 0.116699 0.182617 2 2 0.328501 3 0.671499
2 -0.981194 -18.520178 -0.961875 0.000000 0.000000 -1.000000 0.104553 0.170898 2 2 0.307175 3 0.692825
2efb_kyj02_body_mesh1
2 -0.981194 -18.520178 -0.961875 0.000000 0.000000 -1.000000 0.013794 0.000000 2 2 0.307175 3 0.692825
2 0.724525 -18.520178 -0.961875 1.000000 0.000000 0.000000 0.129395 0.000000 2 2 0.307175 3 0.692825
2 -0.981194 -19.960551 -0.025195 0.000000 -0.545168 -0.838327 0.013794 0.250000 2 2 0.294789 3 0.705211
2efb_kyj02_body_mesh1
2 0.724525 -18.520178 -0.961875 1.000000 0.000000 0.000000 0.129395 0.000000 2 2 0.307175 3 0.692825
2 0.724525 -19.960551 -0.025195 1.000000 0.000000 0.000000 0.129395 0.250488 2 2 0.294789 3 0.705211
2 -0.981194 -19.960551 -0.025195 0.000000 -0.545168 -0.838327 0.013794 0.250000 2 2 0.294789 3 0.705211
2efb_kyj02_body_mesh1
2 -0.981194 -19.960551 -0.025195 0.000000 -0.545168 -0.838327 0.013794 0.250000 2 2 0.294789 3 0.705211
2 0.724525 -19.960551 -0.025195 1.000000 0.000000 0.000000 0.129395 0.250488 2 2 0.294789 3 0.705211
2 -0.981194 -18.520173 0.911486 0.000000 0.000000 1.000000 0.013794 0.500000 2 2 0.306770 3 0.693230
2efb_kyj02_body_mesh1
2 0.724525 -19.960551 -0.025195 1.000000 0.000000 0.000000 0.129395 0.250488 2 2 0.294789 3 0.705211
2 0.724525 -18.520173 0.911486 1.000000 0.000000 0.000000 0.129395 0.500244 2 2 0.306770 3 0.693230
2 -0.981194 -18.520173 0.911486 0.000000 0.000000 1.000000 0.013794 0.500000 2 2 0.306770 3 0.693230
2efb_kyj02_body_mesh1
2 -0.981194 -18.520173 0.911486 0.000000 0.000000 1.000000 0.013794 0.500000 2 2 0.306770 3 0.693230
2 0.724525 -18.520173 0.911486 1.000000 0.000000 0.000000 0.129395 0.500244 2 2 0.306770 3 0.693230
2 -0.981194 -17.079798 -0.025195 0.000000 0.545166 -0.838328 0.013794 0.750000 2 2 0.328501 3 0.671499
2efb_kyj02_body_mesh1
2 0.724525 -18.520173 0.911486 1.000000 0.000000 0.000000 0.129395 0.500244 2 2 0.306770 3 0.693230
2 0.724525 -17.079798 -0.025195 1.000000 0.000000 0.000000 0.129395 0.750122 2 2 0.328501 3 0.671499
2 -0.981194 -17.079798 -0.025195 0.000000 0.545166 -0.838328 0.013794 0.750000 2 2 0.328501 3 0.671499
2efb_kyj02_body_mesh1
2 -0.981194 -17.079798 -0.025195 0.000000 0.545166 -0.838328 0.013794 0.750000 2 2 0.328501 3 0.671499
2 0.724525 -17.079798 -0.025195 1.000000 0.000000 0.000000 0.129395 0.750122 2 2 0.328501 3 0.671499
2 -0.981194 -18.520178 -0.961875 0.000000 0.000000 -1.000000 0.013794 1.000000 2 2 0.307175 3 0.692825
2efb_kyj02_body_mesh1
2 0.724525 -17.079798 -0.025195 1.000000 0.000000 0.000000 0.129395 0.750122 2 2 0.328501 3 0.671499
2 0.724525 -18.520178 -0.961875 1.000000 0.000000 0.000000 0.129395 1.000000 2 2 0.307175 3 0.692825
2 -0.981194 -18.520178 -0.961875 0.000000 0.000000 -1.000000 0.013794 1.000000 2 2 0.307175 3 0.692825
2efb_kyj02_body_mesh1
2 0.724525 -19.960551 -0.025195 1.000000 0.000000 0.000000 0.116699 0.158691 2 2 0.294789 3 0.705211
2 0.724525 -18.520178 -0.961875 1.000000 0.000000 0.000000 0.104553 0.170898 2 2 0.307175 3 0.692825
2 0.724525 -18.520173 0.911486 1.000000 0.000000 0.000000 0.128906 0.169922 2 2 0.306770 3 0.693230
2efb_kyj02_body_mesh1
2 0.724525 -18.520178 -0.961875 1.000000 0.000000 0.000000 0.104553 0.170898 2 2 0.307175 3 0.692825
2 0.724525 -17.079798 -0.025195 1.000000 0.000000 0.000000 0.116699 0.182617 2 2 0.328501 3 0.671499
2 0.724525 -18.520173 0.911486 1.000000 0.000000 0.000000 0.128906 0.169922 2 2 0.306770 3 0.693230
2efb_kyj02_body_mesh1
1 -0.136667 -0.004681 -0.857741 -0.694712 0.000000 -0.719288 0.132812 1.000000 2 1 0.500000 2 0.500000
1 0.717784 -0.225832 -0.032406 0.694393 0.002628 0.719592 0.000000 1.000000 2 1 0.500000 2 0.500000
2 -0.136667 -4.552136 -0.856095 -0.700386 -0.001300 -0.713763 0.132812 0.750000 2 2 0.800000 3 0.200000
2efb_kyj02_body_mesh1
1 0.717784 -0.225832 -0.032406 0.694393 0.002628 0.719592 0.000000 1.000000 2 1 0.500000 2 0.500000
2 0.717784 -4.662711 -0.016203 0.700197 0.003699 0.713940 0.000000 0.750000 2 2 0.800000 3 0.200000
2 -0.136667 -4.552136 -0.856095 -0.700386 -0.001300 -0.713763 0.132812 0.750000 2 2 0.800000 3 0.200000
2efb_kyj02_body_mesh1
2 -0.136667 -4.552136 -0.856095 -0.700386 -0.001300 -0.713763 0.132812 0.750000 2 2 0.800000 3 0.200000
2 0.717784 -4.662711 -0.016203 0.700197 0.003699 0.713940 0.000000 0.750000 2 2 0.800000 3 0.200000
2 -0.136666 -9.099590 -0.854450 -0.705240 0.002731 -0.708964 0.132812 0.500000 2 2 0.625000 3 0.375000
2efb_kyj02_body_mesh1
2 0.717784 -4.662711 -0.016203 0.700197 0.003699 0.713940 0.000000 0.750000 2 2 0.800000 3 0.200000
2 0.717784 -9.099590 0.000000 0.705105 -0.004802 0.709086 0.000000 0.500000 2 2 0.625000 3 0.375000
2 -0.136666 -9.099590 -0.854450 -0.705240 0.002731 -0.708964 0.132812 0.500000 2 2 0.625000 3 0.375000
2efb_kyj02_body_mesh1
2 -0.136666 -9.099590 -0.854450 -0.705240 0.002731 -0.708964 0.132812 0.500000 2 2 0.625000 3 0.375000
2 0.717784 -9.099590 0.000000 0.705105 -0.004802 0.709086 0.000000 0.500000 2 2 0.625000 3 0.375000
2 0.717784 -13.789965 -0.057033 0.686970 -0.012015 0.726586 0.000000 0.250000 2 2 0.450000 3 0.550000
2efb_kyj02_body_mesh1
2 -0.136666 -9.099590 -0.854450 -0.705240 0.002731 -0.708964 0.132812 0.500000 2 2 0.625000 3 0.375000
2 0.717784 -13.789965 -0.057033 0.686970 -0.012015 0.726586 0.000000 0.250000 2 2 0.450000 3 0.550000
2 -0.136666 -13.970519 -0.871456 -0.687855 0.005483 -0.725827 0.132812 0.250000 2 2 0.450000 3 0.550000
2efb_kyj02_body_mesh1
2 0.717784 -13.789965 -0.057033 0.686970 -0.012015 0.726586 0.000000 0.250000 2 2 0.450000 3 0.550000
2 0.717784 -18.480341 -0.114067 0.669417 -0.009033 0.742832 0.000000 0.000000 2 2 0.300932 3 0.699068
2 -0.136666 -13.970519 -0.871456 -0.687855 0.005483 -0.725827 0.132812 0.250000 2 2 0.450000 3 0.550000
2efb_kyj02_body_mesh1
2 -0.136666 -13.970519 -0.871456 -0.687855 0.005483 -0.725827 0.132812 0.250000 2 2 0.450000 3 0.550000
2 0.717784 -18.480341 -0.114067 0.669417 -0.009033 0.742832 0.000000 0.000000 2 2 0.300932 3 0.699068
2 -0.136666 -18.841450 -0.888462 -0.670940 0.002589 -0.741507 0.132812 0.000000 2 2 0.303291 3 0.696709
2efb_kyj02_body_mesh1
1 -0.136667 -0.004681 -0.857741 -0.694712 0.000000 -0.719288 0.000000 1.000000 2 1 0.500000 2 0.500000
2 -0.136667 -4.552136 -0.856095 -0.700386 -0.001300 -0.713763 0.000000 0.750000 2 2 0.800000 3 0.200000
1 -0.991117 -0.225832 -0.032406 -0.694392 0.002628 0.719592 0.132812 1.000000 2 1 0.500000 2 0.500000
2efb_kyj02_body_mesh1
2 -0.136667 -4.552136 -0.856095 -0.700386 -0.001300 -0.713763 0.000000 0.750000 2 2 0.800000 3 0.200000
2 -0.991117 -4.662711 -0.016203 -0.700197 0.003699 0.713941 0.132812 0.750000 2 2 0.800000 3 0.200000
1 -0.991117 -0.225832 -0.032406 -0.694392 0.002628 0.719592 0.132812 1.000000 2 1 0.500000 2 0.500000
2efb_kyj02_body_mesh1
1 -0.991117 -0.225832 -0.032406 -0.694392 0.002628 0.719592 0.000000 1.000000 2 1 0.500000 2 0.500000
2 -0.991117 -4.662711 -0.016203 -0.700197 0.003699 0.713941 0.000000 0.750000 2 2 0.800000 3 0.200000
1 -0.136667 -0.446983 0.792930 0.695384 0.003013 0.718632 0.132812 1.000000 2 1 0.500000 2 0.500000
2efb_kyj02_body_mesh1
2 -0.991117 -4.662711 -0.016203 -0.700197 0.003699 0.713941 0.000000 0.750000 2 2 0.800000 3 0.200000
2 -0.136666 -4.773287 0.823690 0.701299 0.003973 0.712856 0.132812 0.750000 2 2 0.800000 3 0.200000
1 -0.136667 -0.446983 0.792930 0.695384 0.003013 0.718632 0.132812 1.000000 2 1 0.500000 2 0.500000
2efb_kyj02_body_mesh1
1 0.717784 -0.225832 -0.032406 0.694393 0.002628 0.719592 0.132812 1.000000 2 1 0.500000 2 0.500000
1 -0.136667 -0.446983 0.792930 0.695384 0.003013 0.718632 0.000000 1.000000 2 1 0.500000 2 0.500000
2 0.717784 -4.662711 -0.016203 0.700197 0.003699 0.713940 0.132812 0.750000 2 2 0.800000 3 0.200000
2efb_kyj02_body_mesh1
1 -0.136667 -0.446983 0.792930 0.695384 0.003013 0.718632 0.000000 1.000000 2 1 0.500000 2 0.500000
2 -0.136666 -4.773287 0.823690 0.701299 0.003973 0.712856 0.000000 0.750000 2 2 0.800000 3 0.200000
2 0.717784 -4.662711 -0.016203 0.700197 0.003699 0.713940 0.132812 0.750000 2 2 0.800000 3 0.200000
2efb_kyj02_body_mesh1
2 0.717784 -4.662711 -0.016203 0.700197 0.003699 0.713940 0.132812 0.750000 2 2 0.800000 3 0.200000
2 -0.136666 -4.773287 0.823690 0.701299 0.003973 0.712856 0.000000 0.750000 2 2 0.800000 3 0.200000
2 0.717784 -9.099590 0.000000 0.705105 -0.004802 0.709086 0.132812 0.500000 2 2 0.625000 3 0.375000
2efb_kyj02_body_mesh1
2 -0.136666 -4.773287 0.823690 0.701299 0.003973 0.712856 0.000000 0.750000 2 2 0.800000 3 0.200000
2 -0.136666 -9.099590 0.854450 0.707098 -0.005062 0.707098 0.000000 0.500000 2 2 0.625000 3 0.375000
2 0.717784 -9.099590 0.000000 0.705105 -0.004802 0.709086 0.132812 0.500000 2 2 0.625000 3 0.375000
2efb_kyj02_body_mesh1
2 0.717784 -9.099590 0.000000 0.705105 -0.004802 0.709086 0.132812 0.500000 2 2 0.625000 3 0.375000
2 -0.136666 -9.099590 0.854450 0.707098 -0.005062 0.707098 0.000000 0.500000 2 2 0.625000 3 0.375000
2 -0.136666 -13.609412 0.757389 0.690116 -0.012388 0.723592 0.000000 0.250000 2 2 0.450000 3 0.550000
2efb_kyj02_body_mesh1
2 0.717784 -9.099590 0.000000 0.705105 -0.004802 0.709086 0.132812 0.500000 2 2 0.625000 3 0.375000
2 -0.136666 -13.609412 0.757389 0.690116 -0.012388 0.723592 0.000000 0.250000 2 2 0.450000 3 0.550000
2 0.717784 -13.789965 -0.057033 0.686970 -0.012015 0.726586 0.132812 0.250000 2 2 0.450000 3 0.550000
2efb_kyj02_body_mesh1
2 -0.136666 -13.609412 0.757389 0.690116 -0.012388 0.723592 0.000000 0.250000 2 2 0.450000 3 0.550000
2 -0.136666 -18.119234 0.660328 0.672087 -0.009962 0.740405 0.000000 0.000000 2 2 0.310447 3 0.689553
2 0.717784 -13.789965 -0.057033 0.686970 -0.012015 0.726586 0.132812 0.250000 2 2 0.450000 3 0.550000
2efb_kyj02_body_mesh1
2 0.717784 -13.789965 -0.057033 0.686970 -0.012015 0.726586 0.132812 0.250000 2 2 0.450000 3 0.550000
2 -0.136666 -18.119234 0.660328 0.672087 -0.009962 0.740405 0.000000 0.000000 2 2 0.310447 3 0.689553
2 0.717784 -18.480341 -0.114067 0.669417 -0.009033 0.742832 0.132812 0.000000 2 2 0.300932 3 0.699068
2efb_kyj02_body_mesh1
1 -0.981194 -1.438614 -0.025195 0.000000 -0.654652 -0.755930 0.116699 0.158691 2 1 0.500000 2 0.500000
1 -0.981194 0.001768 1.222208 0.000000 -0.654652 0.755930 0.128906 0.169922 2 1 0.500000 2 0.500000
1 -0.981194 0.001768 -1.272598 0.000000 0.654654 -0.755929 0.104553 0.170898 2 1 0.500000 2 0.500000
2efb_kyj02_body_mesh1
1 -0.981194 0.001768 1.222208 0.000000 -0.654652 0.755930 0.128906 0.169922 2 1 0.500000 2 0.500000
1 -0.981194 1.442144 -0.025195 0.000000 0.654654 -0.755929 0.116699 0.182617 2 1 0.500000 2 0.500000
1 -0.981194 0.001768 -1.272598 0.000000 0.654654 -0.755929 0.104553 0.170898 2 1 0.500000 2 0.500000
2efb_kyj02_body_mesh1
1 -0.981194 0.001768 -1.272598 0.000000 0.654654 -0.755929 0.013214 0.000000 2 1 0.500000 2 0.500000
1 0.724525 0.001768 -1.272598 1.000000 0.000000 0.000000 0.129639 0.000000 2 1 0.500000 2 0.500000
1 -0.981194 -1.438614 -0.025195 0.000000 -0.654652 -0.755930 0.013214 0.250488 2 1 0.500000 2 0.500000
2efb_kyj02_body_mesh1
1 0.724525 0.001768 -1.272598 1.000000 0.000000 0.000000 0.129639 0.000000 2 1 0.500000 2 0.500000
1 0.724525 -1.438614 -0.025195 1.000000 0.000000 0.000000 0.129639 0.250488 2 1 0.500000 2 0.500000
1 -0.981194 -1.438614 -0.025195 0.000000 -0.654652 -0.755930 0.013214 0.250488 2 1 0.500000 2 0.500000
2efb_kyj02_body_mesh1
1 -0.981194 -1.438614 -0.025195 0.000000 -0.654652 -0.755930 0.013214 0.250488 2 1 0.500000 2 0.500000
1 0.724525 -1.438614 -0.025195 1.000000 0.000000 0.000000 0.129639 0.250488 2 1 0.500000 2 0.500000
1 -0.981194 0.001768 1.222208 0.000000 -0.654652 0.755930 0.013214 0.500244 2 1 0.500000 2 0.500000
2efb_kyj02_body_mesh1
1 0.724525 -1.438614 -0.025195 1.000000 0.000000 0.000000 0.129639 0.250488 2 1 0.500000 2 0.500000
1 0.724525 0.001768 1.222208 1.000000 0.000000 0.000000 0.129639 0.500244 2 1 0.500000 2 0.500000
1 -0.981194 0.001768 1.222208 0.000000 -0.654652 0.755930 0.013214 0.500244 2 1 0.500000 2 0.500000
2efb_kyj02_body_mesh1
1 -0.981194 0.001768 1.222208 0.000000 -0.654652 0.755930 0.013214 0.500244 2 1 0.500000 2 0.500000
1 0.724525 0.001768 1.222208 1.000000 0.000000 0.000000 0.129639 0.500244 2 1 0.500000 2 0.500000
1 -0.981194 1.442144 -0.025195 0.000000 0.654654 -0.755929 0.013214 0.750122 2 1 0.500000 2 0.500000
2efb_kyj02_body_mesh1
1 0.724525 0.001768 1.222208 1.000000 0.000000 0.000000 0.129639 0.500244 2 1 0.500000 2 0.500000
1 0.724525 1.442144 -0.025195 1.000000 0.000000 0.000000 0.129639 0.750122 2 1 0.500000 2 0.500000
1 -0.981194 1.442144 -0.025195 0.000000 0.654654 -0.755929 0.013214 0.750122 2 1 0.500000 2 0.500000
2efb_kyj02_body_mesh1
1 -0.981194 1.442144 -0.025195 0.000000 0.654654 -0.755929 0.013214 0.750122 2 1 0.500000 2 0.500000
1 0.724525 1.442144 -0.025195 1.000000 0.000000 0.000000 0.129639 0.750122 2 1 0.500000 2 0.500000
1 -0.981194 0.001768 -1.272598 0.000000 0.654654 -0.755929 0.013214 1.000000 2 1 0.500000 2 0.500000
2efb_kyj02_body_mesh1
1 0.724525 1.442144 -0.025195 1.000000 0.000000 0.000000 0.129639 0.750122 2 1 0.500000 2 0.500000
1 0.724525 0.001768 -1.272598 1.000000 0.000000 0.000000 0.129639 1.000000 2 1 0.500000 2 0.500000
1 -0.981194 0.001768 -1.272598 0.000000 0.654654 -0.755929 0.013214 1.000000 2 1 0.500000 2 0.500000
2efb_kyj02_body_mesh1
1 0.724525 -1.438614 -0.025195 1.000000 0.000000 0.000000 0.116699 0.158691 2 1 0.500000 2 0.500000
1 0.724525 0.001768 -1.272598 1.000000 0.000000 0.000000 0.104553 0.170898 2 1 0.500000 2 0.500000
1 0.724525 0.001768 1.222208 1.000000 0.000000 0.000000 0.128906 0.169922 2 1 0.500000 2 0.500000
2efb_kyj02_body_mesh1
1 0.724525 0.001768 -1.272598 1.000000 0.000000 0.000000 0.104553 0.170898 2 1 0.500000 2 0.500000
1 0.724525 1.442144 -0.025195 1.000000 0.000000 0.000000 0.116699 0.182617 2 1 0.500000 2 0.500000
1 0.724525 0.001768 1.222208 1.000000 0.000000 0.000000 0.128906 0.169922 2 1 0.500000 2 0.500000
2efb_kyj02_body_mesh1
2 -11.134433 -18.618423 0.000000 0.000000 0.000000 1.000000 0.145386 1.000000 2 2 0.355496 3 0.644504
2 -11.134430 -26.069081 0.000000 0.000000 0.000000 1.000000 0.145386 0.833374 3 2 0.288191 3 0.690337 4 0.021473
2 -3.711476 -18.618422 0.000000 0.000000 0.000000 1.000000 0.431885 1.000000 2 2 0.307059 3 0.692941
2efb_kyj02_body_mesh1
2 -11.134430 -26.069081 0.000000 0.000000 0.000000 1.000000 0.145386 0.833374 3 2 0.288191 3 0.690337 4 0.021473
2 -3.711475 -26.069075 0.000000 0.000000 0.000000 1.000000 0.431885 0.833374 3 2 0.272343 3 0.713544 4 0.014113
2 -3.711476 -18.618422 0.000000 0.000000 0.000000 1.000000 0.431885 1.000000 2 2 0.307059 3 0.692941
2efb_kyj02_body_mesh1
2 -3.711476 -18.618422 0.000000 0.000000 0.000000 1.000000 0.431885 1.000000 2 2 0.307059 3 0.692941
2 -3.711475 -26.069075 0.000000 0.000000 0.000000 1.000000 0.431885 0.833374 3 2 0.272343 3 0.713544 4 0.014113
2 3.711481 -18.618422 0.000000 0.000000 0.000000 1.000000 0.718262 1.000000 2 2 0.307059 3 0.692941
2efb_kyj02_body_mesh1
2 -3.711475 -26.069075 0.000000 0.000000 0.000000 1.000000 0.431885 0.833374 3 2 0.272343 3 0.713544 4 0.014113
2 3.711482 -26.069075 0.000000 0.000000 0.000000 1.000000 0.718262 0.833374 3 2 0.272343 3 0.713544 4 0.014113
2 3.711481 -18.618422 0.000000 0.000000 0.000000 1.000000 0.718262 1.000000 2 2 0.307059 3 0.692941
2efb_kyj02_body_mesh1
2 3.711481 -18.618422 0.000000 0.000000 0.000000 1.000000 0.718262 1.000000 2 2 0.307059 3 0.692941
2 3.711482 -26.069075 0.000000 0.000000 0.000000 1.000000 0.718262 0.833374 3 2 0.272343 3 0.713544 4 0.014113
2 11.134438 -18.618420 0.000000 0.000000 0.000000 1.000000 1.004883 1.000000 2 2 0.355496 3 0.644504
2efb_kyj02_body_mesh1
2 3.711482 -26.069075 0.000000 0.000000 0.000000 1.000000 0.718262 0.833374 3 2 0.272343 3 0.713544 4 0.014113
2 11.134439 -26.069072 0.000000 0.000000 0.000000 1.000000 1.004883 0.833374 3 2 0.288191 3 0.690337 4 0.021473
2 11.134438 -18.618420 0.000000 0.000000 0.000000 1.000000 1.004883 1.000000 2 2 0.355496 3 0.644504
2efb_kyj02_body_mesh1
2 -11.134430 -26.069081 0.000000 0.000000 0.000000 1.000000 0.145386 0.833374 3 2 0.288191 3 0.690337 4 0.021473
2 -11.134432 -33.519731 0.000000 0.000000 0.000000 1.000000 0.145386 0.666748 3 2 0.229347 3 0.670777 4 0.099876
2 -3.711475 -26.069075 0.000000 0.000000 0.000000 1.000000 0.431885 0.833374 3 2 0.272343 3 0.713544 4 0.014113
2efb_kyj02_body_mesh1
2 -11.134432 -33.519731 0.000000 0.000000 0.000000 1.000000 0.145386 0.666748 3 2 0.229347 3 0.670777 4 0.099876
2 -3.711473 -33.519728 0.000000 0.000000 0.000000 1.000000 0.431885 0.666748 3 2 0.224374 3 0.680348 4 0.095278
2 -3.711475 -26.069075 0.000000 0.000000 0.000000 1.000000 0.431885 0.833374 3 2 0.272343 3 0.713544 4 0.014113
2efb_kyj02_body_mesh1
2 -3.711475 -26.069075 0.000000 0.000000 0.000000 1.000000 0.431885 0.833374 3 2 0.272343 3 0.713544 4 0.014113
2 -3.711473 -33.519728 0.000000 0.000000 0.000000 1.000000 0.431885 0.666748 3 2 0.224374 3 0.680348 4 0.095278
2 3.711482 -26.069075 0.000000 0.000000 0.000000 1.000000 0.718262 0.833374 3 2 0.272343 3 0.713544 4 0.014113
2efb_kyj02_body_mesh1
2 -3.711473 -33.519728 0.000000 0.000000 0.000000 1.000000 0.431885 0.666748 3 2 0.224374 3 0.680348 4 0.095278
2 3.711483 -33.519728 0.000000 0.000000 0.000000 1.000000 0.718262 0.666748 3 2 0.224374 3 0.680348 4 0.095278
2 3.711482 -26.069075 0.000000 0.000000 0.000000 1.000000 0.718262 0.833374 3 2 0.272343 3 0.713544 4 0.014113
2efb_kyj02_body_mesh1
2 3.711482 -26.069075 0.000000 0.000000 0.000000 1.000000 0.718262 0.833374 3 2 0.272343 3 0.713544 4 0.014113
2 3.711483 -33.519728 0.000000 0.000000 0.000000 1.000000 0.718262 0.666748 3 2 0.224374 3 0.680348 4 0.095278
2 11.134439 -26.069072 0.000000 0.000000 0.000000 1.000000 1.004883 0.833374 3 2 0.288191 3 0.690337 4 0.021473
2efb_kyj02_body_mesh1
2 3.711483 -33.519728 0.000000 0.000000 0.000000 1.000000 0.718262 0.666748 3 2 0.224374 3 0.680348 4 0.095278
2 11.134440 -33.519725 0.000000 0.000000 0.000000 1.000000 1.004883 0.666748 3 2 0.229347 3 0.670777 4 0.099876
2 11.134439 -26.069072 0.000000 0.000000 0.000000 1.000000 1.004883 0.833374 3 2 0.288191 3 0.690337 4 0.021473
2efb_kyj02_body_mesh1
2 -11.134432 -33.519731 0.000000 0.000000 0.000000 1.000000 0.145386 0.666748 3 2 0.229347 3 0.670777 4 0.099876
2 -11.134428 -40.970381 0.000000 0.000000 0.000000 1.000000 0.145386 0.500000 3 2 0.162864 3 0.594138 4 0.242998
2 -3.711473 -33.519728 0.000000 0.000000 0.000000 1.000000 0.431885 0.666748 3 2 0.224374 3 0.680348 4 0.095278
2efb_kyj02_body_mesh1
2 -11.134428 -40.970381 0.000000 0.000000 0.000000 1.000000 0.145386 0.500000 3 2 0.162864 3 0.594138 4 0.242998
2 -3.711473 -40.970385 0.000000 0.000000 0.000000 1.000000 0.431885 0.500000 3 2 0.161159 3 0.595080 4 0.243762
2 -3.711473 -33.519728 0.000000 0.000000 0.000000 1.000000 0.431885 0.666748 3 2 0.224374 3 0.680348 4 0.095278
2efb_kyj02_body_mesh1
2 -3.711473 -33.519728 0.000000 0.000000 0.000000 1.000000 0.431885 0.666748 3 2 0.224374 3 0.680348 4 0.095278
2 -3.711473 -40.970385 0.000000 0.000000 0.000000 1.000000 0.431885 0.500000 3 2 0.161159 3 0.595080 4 0.243762
2 3.711483 -33.519728 0.000000 0.000000 0.000000 1.000000 0.718262 0.666748 3 2 0.224374 3 0.680348 4 0.095278
2efb_kyj02_body_mesh1
2 -3.711473 -40.970385 0.000000 0.000000 0.000000 1.000000 0.431885 0.500000 3 2 0.161159 3 0.595080 4 0.243762
2 3.711484 -40.970385 0.000000 0.000000 0.000000 1.000000 0.718262 0.500000 3 2 0.161159 3 0.595080 4 0.243762
2 3.711483 -33.519728 0.000000 0.000000 0.000000 1.000000 0.718262 0.666748 3 2 0.224374 3 0.680348 4 0.095278
2efb_kyj02_body_mesh1
2 3.711483 -33.519728 0.000000 0.000000 0.000000 1.000000 0.718262 0.666748 3 2 0.224374 3 0.680348 4 0.095278
2 3.711484 -40.970385 0.000000 0.000000 0.000000 1.000000 0.718262 0.500000 3 2 0.161159 3 0.595080 4 0.243762
2 11.134440 -33.519725 0.000000 0.000000 0.000000 1.000000 1.004883 0.666748 3 2 0.229347 3 0.670777 4 0.099876
2efb_kyj02_body_mesh1
2 3.711484 -40.970385 0.000000 0.000000 0.000000 1.000000 0.718262 0.500000 3 2 0.161159 3 0.595080 4 0.243762
2 11.134440 -40.970375 0.000000 0.000000 0.000000 1.000000 1.004883 0.500000 3 2 0.162864 3 0.594138 4 0.242998
2 11.134440 -33.519725 0.000000 0.000000 0.000000 1.000000 1.004883 0.666748 3 2 0.229347 3 0.670777 4 0.099876
2efb_kyj02_body_mesh1
2 -11.134425 -63.322335 0.000000 0.000000 0.000000 1.000000 0.145386 0.000000 3 2 0.014462 3 0.269404 4 0.716134
2 -3.711469 -63.322335 0.000000 0.000000 0.000000 1.000000 0.431885 0.000000 3 2 0.014540 3 0.253008 4 0.732451
2 -11.134425 -59.597010 0.000000 0.000000 0.000000 1.000000 0.145386 0.083496 3 2 0.026400 3 0.295458 4 0.678142
2efb_kyj02_body_mesh1
2 -3.711469 -63.322335 0.000000 0.000000 0.000000 1.000000 0.431885 0.000000 3 2 0.014540 3 0.253008 4 0.732451
2 -3.711470 -59.597010 0.000000 0.000000 0.000000 1.000000 0.431885 0.083496 3 2 0.026035 3 0.279580 4 0.694385
2 -11.134425 -59.597010 0.000000 0.000000 0.000000 1.000000 0.145386 0.083496 3 2 0.026400 3 0.295458 4 0.678142
2efb_kyj02_body_mesh1
2 -11.134425 -59.597010 0.000000 0.000000 0.000000 1.000000 0.145386 0.083496 3 2 0.026400 3 0.295458 4 0.678142
2 -3.711470 -59.597010 0.000000 0.000000 0.000000 1.000000 0.431885 0.083496 3 2 0.026035 3 0.279580 4 0.694385
2 -3.711471 -55.871700 0.000000 0.000000 0.000000 1.000000 0.431885 0.166992 3 2 0.041967 3 0.321425 4 0.636608
2efb_kyj02_body_mesh1
2 -3.711470 -59.597010 0.000000 0.000000 0.000000 1.000000 0.431885 0.083496 3 2 0.026035 3 0.279580 4 0.694385
2 3.711487 -55.871700 0.000000 0.000000 0.000000 1.000000 0.718262 0.166992 3 2 0.041967 3 0.321426 4 0.636608
2 -3.711471 -55.871700 0.000000 0.000000 0.000000 1.000000 0.431885 0.166992 3 2 0.041967 3 0.321425 4 0.636608
2efb_kyj02_body_mesh1
2 -3.711471 -55.871700 0.000000 0.000000 0.000000 1.000000 0.431885 0.166992 3 2 0.041967 3 0.321425 4 0.636608
2 3.711487 -55.871700 0.000000 0.000000 0.000000 1.000000 0.718262 0.166992 3 2 0.041967 3 0.321426 4 0.636608
2 -3.711471 -52.146366 0.000000 0.000000 0.000000 1.000000 0.431885 0.250000 3 2 0.063330 3 0.377260 4 0.559409
2efb_kyj02_body_mesh1
2 3.711487 -55.871700 0.000000 0.000000 0.000000 1.000000 0.718262 0.166992 3 2 0.041967 3 0.321426 4 0.636608
2 3.711486 -52.146366 0.000000 0.000000 0.000000 1.000000 0.718262 0.250000 3 2 0.063330 3 0.377260 4 0.559409
2 -3.711471 -52.146366 0.000000 0.000000 0.000000 1.000000 0.431885 0.250000 3 2 0.063330 3 0.377260 4 0.559409
2efb_kyj02_body_mesh1
2 -3.711471 -52.146366 0.000000 0.000000 0.000000 1.000000 0.431885 0.250000 3 2 0.063330 3 0.377260 4 0.559409
2 3.711486 -52.146366 0.000000 0.000000 0.000000 1.000000 0.718262 0.250000 3 2 0.063330 3 0.377260 4 0.559409
2 3.711485 -48.421040 0.000000 0.000000 0.000000 1.000000 0.718262 0.333496 3 2 0.090803 3 0.445155 4 0.464041
2efb_kyj02_body_mesh1
2 3.711486 -52.146366 0.000000 0.000000 0.000000 1.000000 0.718262 0.250000 3 2 0.063330 3 0.377260 4 0.559409
2 11.134443 -48.421040 0.000000 0.000000 0.000000 1.000000 1.004883 0.333496 3 2 0.091740 3 0.451914 4 0.456346
2 3.711485 -48.421040 0.000000 0.000000 0.000000 1.000000 0.718262 0.333496 3 2 0.090803 3 0.445155 4 0.464041
2efb_kyj02_body_mesh1
2 3.711485 -48.421040 0.000000 0.000000 0.000000 1.000000 0.718262 0.333496 3 2 0.090803 3 0.445155 4 0.464041
2 11.134443 -48.421040 0.000000 0.000000 0.000000 1.000000 1.004883 0.333496 3 2 0.091740 3 0.451914 4 0.456346
2 3.711485 -44.695707 0.000000 0.000000 0.000000 1.000000 0.718262 0.416992 3 2 0.123989 3 0.520148 4 0.355863
2efb_kyj02_body_mesh1
2 11.134443 -48.421040 0.000000 0.000000 0.000000 1.000000 1.004883 0.333496 3 2 0.091740 3 0.451914 4 0.456346
2 11.134441 -44.695707 0.000000 0.000000 0.000000 1.000000 1.004883 0.416992 3 2 0.125151 3 0.523209 4 0.351640
2 3.711485 -44.695707 0.000000 0.000000 0.000000 1.000000 0.718262 0.416992 3 2 0.123989 3 0.520148 4 0.355863
2efb_kyj02_body_mesh1
2 3.711485 -44.695707 0.000000 0.000000 0.000000 1.000000 0.718262 0.416992 3 2 0.123989 3 0.520148 4 0.355863
2 11.134441 -44.695707 0.000000 0.000000 0.000000 1.000000 1.004883 0.416992 3 2 0.125151 3 0.523209 4 0.351640
2 11.134440 -40.970375 0.000000 0.000000 0.000000 1.000000 1.004883 0.500000 3 2 0.162864 3 0.594138 4 0.242998
2efb_kyj02_body_mesh1
2 -3.711469 -63.322335 0.000000 0.000000 0.000000 1.000000 0.431885 0.000000 3 2 0.014540 3 0.253008 4 0.732451
2 3.711488 -63.322335 0.000000 0.000000 0.000000 1.000000 0.718262 0.000000 3 2 0.014540 3 0.253008 4 0.732451
2 -3.711470 -59.597010 0.000000 0.000000 0.000000 1.000000 0.431885 0.083496 3 2 0.026035 3 0.279580 4 0.694385
2efb_kyj02_body_mesh1
2 3.711488 -63.322335 0.000000 0.000000 0.000000 1.000000 0.718262 0.000000 3 2 0.014540 3 0.253008 4 0.732451
2 3.711487 -59.597013 0.000000 0.000000 0.000000 1.000000 0.718262 0.083496 3 2 0.026035 3 0.279580 4 0.694385
2 -3.711470 -59.597010 0.000000 0.000000 0.000000 1.000000 0.431885 0.083496 3 2 0.026035 3 0.279580 4 0.694385
2efb_kyj02_body_mesh1
2 -3.711470 -59.597010 0.000000 0.000000 0.000000 1.000000 0.431885 0.083496 3 2 0.026035 3 0.279580 4 0.694385
2 3.711487 -59.597013 0.000000 0.000000 0.000000 1.000000 0.718262 0.083496 3 2 0.026035 3 0.279580 4 0.694385
2 3.711487 -55.871700 0.000000 0.000000 0.000000 1.000000 0.718262 0.166992 3 2 0.041967 3 0.321426 4 0.636608
2efb_kyj02_body_mesh1
2 3.711487 -59.597013 0.000000 0.000000 0.000000 1.000000 0.718262 0.083496 3 2 0.026035 3 0.279580 4 0.694385
2 11.134443 -55.871700 0.000000 0.000000 0.000000 1.000000 1.004883 0.166992 3 2 0.042585 3 0.334462 4 0.622953
2 3.711487 -55.871700 0.000000 0.000000 0.000000 1.000000 0.718262 0.166992 3 2 0.041967 3 0.321426 4 0.636608
2efb_kyj02_body_mesh1
2 3.711487 -55.871700 0.000000 0.000000 0.000000 1.000000 0.718262 0.166992 3 2 0.041967 3 0.321426 4 0.636608
2 11.134443 -55.871700 0.000000 0.000000 0.000000 1.000000 1.004883 0.166992 3 2 0.042585 3 0.334462 4 0.622953
2 3.711486 -52.146366 0.000000 0.000000 0.000000 1.000000 0.718262 0.250000 3 2 0.063330 3 0.377260 4 0.559409
2efb_kyj02_body_mesh1
2 11.134443 -55.871700 0.000000 0.000000 0.000000 1.000000 1.004883 0.166992 3 2 0.042585 3 0.334462 4 0.622953
2 11.134442 -52.146366 0.000000 0.000000 0.000000 1.000000 1.004883 0.250000 3 2 0.064125 3 0.387320 4 0.548555
2 3.711486 -52.146366 0.000000 0.000000 0.000000 1.000000 0.718262 0.250000 3 2 0.063330 3 0.377260 4 0.559409
2efb_kyj02_body_mesh1
2 3.711486 -52.146366 0.000000 0.000000 0.000000 1.000000 0.718262 0.250000 3 2 0.063330 3 0.377260 4 0.559409
2 11.134442 -52.146366 0.000000 0.000000 0.000000 1.000000 1.004883 0.250000 3 2 0.064125 3 0.387320 4 0.548555
2 11.134443 -48.421040 0.000000 0.000000 0.000000 1.000000 1.004883 0.333496 3 2 0.091740 3 0.451914 4 0.456346
2efb_kyj02_body_mesh1
2 3.711488 -63.322335 0.000000 0.000000 0.000000 1.000000 0.718262 0.000000 3 2 0.014540 3 0.253008 4 0.732451
2 11.134443 -63.322335 0.000000 0.000000 0.000000 1.000000 1.004883 0.000000 3 2 0.014462 3 0.269404 4 0.716134
2 3.711487 -59.597013 0.000000 0.000000 0.000000 1.000000 0.718262 0.083496 3 2 0.026035 3 0.279580 4 0.694385
2efb_kyj02_body_mesh1
2 11.134443 -63.322335 0.000000 0.000000 0.000000 1.000000 1.004883 0.000000 3 2 0.014462 3 0.269404 4 0.716134
2 11.134443 -59.597019 0.000000 0.000000 0.000000 1.000000 1.004883 0.083496 3 2 0.026400 3 0.295458 4 0.678142
2 3.711487 -59.597013 0.000000 0.000000 0.000000 1.000000 0.718262 0.083496 3 2 0.026035 3 0.279580 4 0.694385
2efb_kyj02_body_mesh1
2 3.711487 -59.597013 0.000000 0.000000 0.000000 1.000000 0.718262 0.083496 3 2 0.026035 3 0.279580 4 0.694385
2 11.134443 -59.597019 0.000000 0.000000 0.000000 1.000000 1.004883 0.083496 3 2 0.026400 3 0.295458 4 0.678142
2 11.134443 -55.871700 0.000000 0.000000 0.000000 1.000000 1.004883 0.166992 3 2 0.042585 3 0.334462 4 0.622953
2efb_kyj02_body_mesh1
2 -0.136667 -4.552136 -0.856095 -0.700386 -0.001300 -0.713763 0.000000 0.750000 2 2 0.800000 3 0.200000
2 -0.136666 -9.099590 -0.854450 -0.705240 0.002731 -0.708964 0.000000 0.500000 2 2 0.625000 3 0.375000
2 -0.991117 -4.662711 -0.016203 -0.700197 0.003699 0.713941 0.132812 0.750000 2 2 0.800000 3 0.200000
2efb_kyj02_body_mesh1
2 -0.136666 -9.099590 -0.854450 -0.705240 0.002731 -0.708964 0.000000 0.500000 2 2 0.625000 3 0.375000
2 -0.991116 -9.099590 0.000000 -0.705105 -0.004802 0.709087 0.132812 0.500000 2 2 0.625000 3 0.375000
2 -0.991117 -4.662711 -0.016203 -0.700197 0.003699 0.713941 0.132812 0.750000 2 2 0.800000 3 0.200000
2efb_kyj02_body_mesh1
2 -0.991116 -9.099590 0.000000 -0.705105 -0.004802 0.709087 0.132812 0.500000 2 2 0.625000 3 0.375000
2 -0.136666 -9.099590 -0.854450 -0.705240 0.002731 -0.708964 0.000000 0.500000 2 2 0.625000 3 0.375000
2 -0.991116 -13.789965 -0.057033 -0.686970 -0.012015 0.726587 0.132812 0.250000 2 2 0.450000 3 0.550000
2efb_kyj02_body_mesh1
2 -0.136666 -9.099590 -0.854450 -0.705240 0.002731 -0.708964 0.000000 0.500000 2 2 0.625000 3 0.375000
2 -0.136666 -13.970519 -0.871456 -0.687855 0.005483 -0.725827 0.000000 0.250000 2 2 0.450000 3 0.550000
2 -0.991116 -13.789965 -0.057033 -0.686970 -0.012015 0.726587 0.132812 0.250000 2 2 0.450000 3 0.550000
2efb_kyj02_body_mesh1
2 -0.991116 -13.789965 -0.057033 -0.686970 -0.012015 0.726587 0.132812 0.250000 2 2 0.450000 3 0.550000
2 -0.136666 -13.970519 -0.871456 -0.687855 0.005483 -0.725827 0.000000 0.250000 2 2 0.450000 3 0.550000
2 -0.991116 -18.480341 -0.114067 -0.669417 -0.009033 0.742832 0.132812 0.000000 2 2 0.300932 3 0.699068
2efb_kyj02_body_mesh1
2 -0.136666 -13.970519 -0.871456 -0.687855 0.005483 -0.725827 0.000000 0.250000 2 2 0.450000 3 0.550000
2 -0.136666 -18.841450 -0.888462 -0.670940 0.002589 -0.741507 0.000000 0.000000 2 2 0.303291 3 0.696709
2 -0.991116 -18.480341 -0.114067 -0.669417 -0.009033 0.742832 0.132812 0.000000 2 2 0.300932 3 0.699068
2efb_kyj02_body_mesh1
2 -0.991117 -4.662711 -0.016203 -0.700197 0.003699 0.713941 0.000000 0.750000 2 2 0.800000 3 0.200000
2 -0.991116 -9.099590 0.000000 -0.705105 -0.004802 0.709087 0.000000 0.500000 2 2 0.625000 3 0.375000
2 -0.136666 -4.773287 0.823690 0.701299 0.003973 0.712856 0.132812 0.750000 2 2 0.800000 3 0.200000
2efb_kyj02_body_mesh1
2 -0.991116 -9.099590 0.000000 -0.705105 -0.004802 0.709087 0.000000 0.500000 2 2 0.625000 3 0.375000
2 -0.136666 -9.099590 0.854450 0.707098 -0.005062 0.707098 0.132812 0.500000 2 2 0.625000 3 0.375000
2 -0.136666 -4.773287 0.823690 0.701299 0.003973 0.712856 0.132812 0.750000 2 2 0.800000 3 0.200000
2efb_kyj02_body_mesh1
2 -0.136666 -9.099590 0.854450 0.707098 -0.005062 0.707098 0.132812 0.500000 2 2 0.625000 3 0.375000
2 -0.991116 -9.099590 0.000000 -0.705105 -0.004802 0.709087 0.000000 0.500000 2 2 0.625000 3 0.375000
2 -0.136666 -13.609412 0.757389 0.690116 -0.012388 0.723592 0.132812 0.250000 2 2 0.450000 3 0.550000
2efb_kyj02_body_mesh1
2 -0.991116 -9.099590 0.000000 -0.705105 -0.004802 0.709087 0.000000 0.500000 2 2 0.625000 3 0.375000
2 -0.991116 -13.789965 -0.057033 -0.686970 -0.012015 0.726587 0.000000 0.250000 2 2 0.450000 3 0.550000
2 -0.136666 -13.609412 0.757389 0.690116 -0.012388 0.723592 0.132812 0.250000 2 2 0.450000 3 0.550000
2efb_kyj02_body_mesh1
2 -0.136666 -13.609412 0.757389 0.690116 -0.012388 0.723592 0.132812 0.250000 2 2 0.450000 3 0.550000
2 -0.991116 -13.789965 -0.057033 -0.686970 -0.012015 0.726587 0.000000 0.250000 2 2 0.450000 3 0.550000
2 -0.136666 -18.119234 0.660328 0.672087 -0.009962 0.740405 0.132812 0.000000 2 2 0.310447 3 0.689553
2efb_kyj02_body_mesh1
2 -0.991116 -13.789965 -0.057033 -0.686970 -0.012015 0.726587 0.000000 0.250000 2 2 0.450000 3 0.550000
2 -0.991116 -18.480341 -0.114067 -0.669417 -0.009033 0.742832 0.000000 0.000000 2 2 0.300932 3 0.699068
2 -0.136666 -18.119234 0.660328 0.672087 -0.009962 0.740405 0.132812 0.000000 2 2 0.310447 3 0.689553
2efb_kyj02_body_mesh1
2 -11.134425 -59.597010 0.000000 0.000000 0.000000 1.000000 0.145386 0.083496 3 2 0.026400 3 0.295458 4 0.678142
2 -3.711471 -55.871700 0.000000 0.000000 0.000000 1.000000 0.431885 0.166992 3 2 0.041967 3 0.321425 4 0.636608
2 -11.134427 -55.871685 0.000000 0.000000 0.000000 1.000000 0.145386 0.166992 3 2 0.042585 3 0.334462 4 0.622953
2efb_kyj02_body_mesh1
2 -3.711471 -55.871700 0.000000 0.000000 0.000000 1.000000 0.431885 0.166992 3 2 0.041967 3 0.321425 4 0.636608
2 -11.134426 -52.146366 0.000000 0.000000 0.000000 1.000000 0.145386 0.250000 3 2 0.064125 3 0.387320 4 0.548555
2 -11.134427 -55.871685 0.000000 0.000000 0.000000 1.000000 0.145386 0.166992 3 2 0.042585 3 0.334462 4 0.622953
2efb_kyj02_body_mesh1
2 -3.711471 -55.871700 0.000000 0.000000 0.000000 1.000000 0.431885 0.166992 3 2 0.041967 3 0.321425 4 0.636608
2 -3.711471 -52.146366 0.000000 0.000000 0.000000 1.000000 0.431885 0.250000 3 2 0.063330 3 0.377260 4 0.559409
2 -11.134426 -52.146366 0.000000 0.000000 0.000000 1.000000 0.145386 0.250000 3 2 0.064125 3 0.387320 4 0.548555
2efb_kyj02_body_mesh1
2 -3.711471 -52.146366 0.000000 0.000000 0.000000 1.000000 0.431885 0.250000 3 2 0.063330 3 0.377260 4 0.559409
2 -3.711471 -48.421040 0.000000 0.000000 0.000000 1.000000 0.431885 0.333496 3 2 0.090803 3 0.445155 4 0.464041
2 -11.134426 -52.146366 0.000000 0.000000 0.000000 1.000000 0.145386 0.250000 3 2 0.064125 3 0.387320 4 0.548555
2efb_kyj02_body_mesh1
2 -11.134426 -52.146366 0.000000 0.000000 0.000000 1.000000 0.145386 0.250000 3 2 0.064125 3 0.387320 4 0.548555
2 -3.711471 -48.421040 0.000000 0.000000 0.000000 1.000000 0.431885 0.333496 3 2 0.090803 3 0.445155 4 0.464041
2 -11.134429 -48.421040 0.000000 0.000000 0.000000 1.000000 0.145386 0.333496 3 2 0.091740 3 0.451914 4 0.456346
2efb_kyj02_body_mesh1
2 -3.711471 -48.421040 0.000000 0.000000 0.000000 1.000000 0.431885 0.333496 3 2 0.090803 3 0.445155 4 0.464041
2 -11.134429 -44.695716 0.000000 0.000000 0.000000 1.000000 0.145386 0.416992 3 2 0.125151 3 0.523209 4 0.351640
2 -11.134429 -48.421040 0.000000 0.000000 0.000000 1.000000 0.145386 0.333496 3 2 0.091740 3 0.451914 4 0.456346
2efb_kyj02_body_mesh1
2 -3.711471 -52.146366 0.000000 0.000000 0.000000 1.000000 0.431885 0.250000 3 2 0.063330 3 0.377260 4 0.559409
2 3.711485 -48.421040 0.000000 0.000000 0.000000 1.000000 0.718262 0.333496 3 2 0.090803 3 0.445155 4 0.464041
2 -3.711471 -48.421040 0.000000 0.000000 0.000000 1.000000 0.431885 0.333496 3 2 0.090803 3 0.445155 4 0.464041
2efb_kyj02_body_mesh1
2 3.711485 -48.421040 0.000000 0.000000 0.000000 1.000000 0.718262 0.333496 3 2 0.090803 3 0.445155 4 0.464041
2 -3.711472 -44.695707 0.000000 0.000000 0.000000 1.000000 0.431885 0.416992 3 2 0.123989 3 0.520148 4 0.355863
2 -3.711471 -48.421040 0.000000 0.000000 0.000000 1.000000 0.431885 0.333496 3 2 0.090803 3 0.445155 4 0.464041
2efb_kyj02_body_mesh1
2 -3.711471 -48.421040 0.000000 0.000000 0.000000 1.000000 0.431885 0.333496 3 2 0.090803 3 0.445155 4 0.464041
2 -3.711472 -44.695707 0.000000 0.000000 0.000000 1.000000 0.431885 0.416992 3 2 0.123989 3 0.520148 4 0.355863
2 -11.134429 -44.695716 0.000000 0.000000 0.000000 1.000000 0.145386 0.416992 3 2 0.125151 3 0.523209 4 0.351640
2efb_kyj02_body_mesh1
2 -3.711472 -44.695707 0.000000 0.000000 0.000000 1.000000 0.431885 0.416992 3 2 0.123989 3 0.520148 4 0.355863
2 -3.711473 -40.970385 0.000000 0.000000 0.000000 1.000000 0.431885 0.500000 3 2 0.161159 3 0.595080 4 0.243762
2 -11.134429 -44.695716 0.000000 0.000000 0.000000 1.000000 0.145386 0.416992 3 2 0.125151 3 0.523209 4 0.351640
2efb_kyj02_body_mesh1
2 -11.134429 -44.695716 0.000000 0.000000 0.000000 1.000000 0.145386 0.416992 3 2 0.125151 3 0.523209 4 0.351640
2 -3.711473 -40.970385 0.000000 0.000000 0.000000 1.000000 0.431885 0.500000 3 2 0.161159 3 0.595080 4 0.243762
2 -11.134428 -40.970381 0.000000 0.000000 0.000000 1.000000 0.145386 0.500000 3 2 0.162864 3 0.594138 4 0.242998
2efb_kyj02_body_mesh1
2 3.711485 -48.421040 0.000000 0.000000 0.000000 1.000000 0.718262 0.333496 3 2 0.090803 3 0.445155 4 0.464041
2 3.711485 -44.695707 0.000000 0.000000 0.000000 1.000000 0.718262 0.416992 3 2 0.123989 3 0.520148 4 0.355863
2 -3.711472 -44.695707 0.000000 0.000000 0.000000 1.000000 0.431885 0.416992 3 2 0.123989 3 0.520148 4 0.355863
2efb_kyj02_body_mesh1
2 3.711485 -44.695707 0.000000 0.000000 0.000000 1.000000 0.718262 0.416992 3 2 0.123989 3 0.520148 4 0.355863
2 3.711484 -40.970385 0.000000 0.000000 0.000000 1.000000 0.718262 0.500000 3 2 0.161159 3 0.595080 4 0.243762
2 -3.711472 -44.695707 0.000000 0.000000 0.000000 1.000000 0.431885 0.416992 3 2 0.123989 3 0.520148 4 0.355863
2efb_kyj02_body_mesh1
2 -3.711472 -44.695707 0.000000 0.000000 0.000000 1.000000 0.431885 0.416992 3 2 0.123989 3 0.520148 4 0.355863
2 3.711484 -40.970385 0.000000 0.000000 0.000000 1.000000 0.718262 0.500000 3 2 0.161159 3 0.595080 4 0.243762
2 -3.711473 -40.970385 0.000000 0.000000 0.000000 1.000000 0.431885 0.500000 3 2 0.161159 3 0.595080 4 0.243762
2efb_kyj02_body_mesh1
2 -11.134432 -18.618420 -0.044534 0.000000 0.000000 -1.000000 1.004883 1.000000 2 2 0.355496 3 0.644504
2 -3.711476 -18.618420 -0.044534 0.000000 0.000000 -1.000000 0.718262 1.000000 2 2 0.305630 3 0.694370
2 -11.134430 -26.069085 -0.044534 0.000000 0.000000 -1.000000 1.004883 0.833374 3 2 0.288191 3 0.690337 4 0.021473
2efb_kyj02_body_mesh1
2 -3.711476 -18.618420 -0.044534 0.000000 0.000000 -1.000000 0.718262 1.000000 2 2 0.305630 3 0.694370
2 -3.711475 -26.069075 -0.044534 0.000000 0.000000 -1.000000 0.718262 0.833374 3 2 0.272491 3 0.713489 4 0.014019
2 -11.134430 -26.069085 -0.044534 0.000000 0.000000 -1.000000 1.004883 0.833374 3 2 0.288191 3 0.690337 4 0.021473
2efb_kyj02_body_mesh1
2 -11.134430 -26.069085 -0.044534 0.000000 0.000000 -1.000000 1.004883 0.833374 3 2 0.288191 3 0.690337 4 0.021473
2 -3.711475 -26.069075 -0.044534 0.000000 0.000000 -1.000000 0.718262 0.833374 3 2 0.272491 3 0.713489 4 0.014019
2 -11.134432 -33.519731 -0.044534 0.000000 0.000000 -1.000000 1.004883 0.666748 3 2 0.229347 3 0.670777 4 0.099876
2efb_kyj02_body_mesh1
2 -3.711475 -26.069075 -0.044534 0.000000 0.000000 -1.000000 0.718262 0.833374 3 2 0.272491 3 0.713489 4 0.014019
2 -3.711474 -33.519728 -0.044534 0.000000 0.000000 -1.000000 0.718262 0.666748 3 2 0.224374 3 0.680348 4 0.095278
2 -11.134432 -33.519731 -0.044534 0.000000 0.000000 -1.000000 1.004883 0.666748 3 2 0.229347 3 0.670777 4 0.099876
2efb_kyj02_body_mesh1
2 -11.134432 -33.519731 -0.044534 0.000000 0.000000 -1.000000 1.004883 0.666748 3 2 0.229347 3 0.670777 4 0.099876
2 -3.711474 -33.519728 -0.044534 0.000000 0.000000 -1.000000 0.718262 0.666748 3 2 0.224374 3 0.680348 4 0.095278
2 -11.134428 -40.970381 -0.044534 0.000000 0.000000 -1.000000 1.004883 0.500000 3 2 0.162418 3 0.593300 4 0.244281
2efb_kyj02_body_mesh1
2 -3.711474 -33.519728 -0.044534 0.000000 0.000000 -1.000000 0.718262 0.666748 3 2 0.224374 3 0.680348 4 0.095278
2 -3.711473 -40.970387 -0.044534 0.000000 0.000000 -1.000000 0.718262 0.500000 3 2 0.160720 3 0.594195 4 0.245086
2 -11.134428 -40.970381 -0.044534 0.000000 0.000000 -1.000000 1.004883 0.500000 3 2 0.162418 3 0.593300 4 0.244281
2efb_kyj02_body_mesh1
2 -11.134428 -40.970381 -0.044534 0.000000 0.000000 -1.000000 1.004883 0.500000 3 2 0.162418 3 0.593300 4 0.244281
2 -3.711473 -40.970387 -0.044534 0.000000 0.000000 -1.000000 0.718262 0.500000 3 2 0.160720 3 0.594195 4 0.245086
2 -11.134430 -44.695719 -0.044534 0.000000 0.000000 -1.000000 1.004883 0.416992 3 2 0.126233 3 0.523117 4 0.350650
2efb_kyj02_body_mesh1
2 -3.711473 -40.970387 -0.044534 0.000000 0.000000 -1.000000 0.718262 0.500000 3 2 0.160720 3 0.594195 4 0.245086
2 -3.711473 -44.695710 -0.044534 0.000000 0.000000 -1.000000 0.718262 0.416992 3 2 0.124991 3 0.520133 4 0.354876
2 -11.134430 -44.695719 -0.044534 0.000000 0.000000 -1.000000 1.004883 0.416992 3 2 0.126233 3 0.523117 4 0.350650
2efb_kyj02_body_mesh1
2 -11.134430 -44.695719 -0.044534 0.000000 0.000000 -1.000000 1.004883 0.416992 3 2 0.126233 3 0.523117 4 0.350650
2 -3.711473 -44.695710 -0.044534 0.000000 0.000000 -1.000000 0.718262 0.416992 3 2 0.124991 3 0.520133 4 0.354876
2 -3.711473 -48.421040 -0.044534 0.000000 0.000000 -1.000000 0.718262 0.333496 3 2 0.092240 3 0.446940 4 0.460820
2efb_kyj02_body_mesh1
2 -3.711473 -44.695710 -0.044534 0.000000 0.000000 -1.000000 0.718262 0.416992 3 2 0.124991 3 0.520133 4 0.354876
2 3.711484 -48.421040 -0.044534 0.000000 0.000000 -1.000000 0.431885 0.333496 3 2 0.092240 3 0.446940 4 0.460820
2 -3.711473 -48.421040 -0.044534 0.000000 0.000000 -1.000000 0.718262 0.333496 3 2 0.092240 3 0.446940 4 0.460820
2efb_kyj02_body_mesh1
2 -3.711473 -48.421040 -0.044534 0.000000 0.000000 -1.000000 0.718262 0.333496 3 2 0.092240 3 0.446940 4 0.460820
2 3.711484 -48.421040 -0.044534 0.000000 0.000000 -1.000000 0.431885 0.333496 3 2 0.092240 3 0.446940 4 0.460820
2 -3.711471 -52.146366 -0.044534 0.000000 0.000000 -1.000000 0.718262 0.250000 3 2 0.064867 3 0.380293 4 0.554840
2efb_kyj02_body_mesh1
2 3.711484 -48.421040 -0.044534 0.000000 0.000000 -1.000000 0.431885 0.333496 3 2 0.092240 3 0.446940 4 0.460820
2 3.711485 -52.146366 -0.044534 0.000000 0.000000 -1.000000 0.431885 0.250000 3 2 0.064867 3 0.380293 4 0.554840
2 -3.711471 -52.146366 -0.044534 0.000000 0.000000 -1.000000 0.718262 0.250000 3 2 0.064867 3 0.380293 4 0.554840
2efb_kyj02_body_mesh1
2 -3.711471 -52.146366 -0.044534 0.000000 0.000000 -1.000000 0.718262 0.250000 3 2 0.064867 3 0.380293 4 0.554840
2 3.711485 -52.146366 -0.044534 0.000000 0.000000 -1.000000 0.431885 0.250000 3 2 0.064867 3 0.380293 4 0.554840
2 3.711486 -55.871700 -0.044534 0.000000 0.000000 -1.000000 0.431885 0.166992 3 2 0.043333 3 0.324944 4 0.631724
2efb_kyj02_body_mesh1
2 3.711485 -52.146366 -0.044534 0.000000 0.000000 -1.000000 0.431885 0.250000 3 2 0.064867 3 0.380293 4 0.554840
2 11.134444 -55.871700 -0.044534 0.000000 0.000000 -1.000000 0.145386 0.166992 3 2 0.043932 3 0.337946 4 0.618122
2 3.711486 -55.871700 -0.044534 0.000000 0.000000 -1.000000 0.431885 0.166992 3 2 0.043333 3 0.324944 4 0.631724
2efb_kyj02_body_mesh1
2 3.711486 -55.871700 -0.044534 0.000000 0.000000 -1.000000 0.431885 0.166992 3 2 0.043333 3 0.324944 4 0.631724
2 11.134444 -55.871700 -0.044534 0.000000 0.000000 -1.000000 0.145386 0.166992 3 2 0.043932 3 0.337946 4 0.618122
2 3.711486 -59.597019 -0.044534 0.000000 0.000000 -1.000000 0.431885 0.083496 3 2 0.027151 3 0.283421 4 0.689428
2efb_kyj02_body_mesh1
2 11.134444 -55.871700 -0.044534 0.000000 0.000000 -1.000000 0.145386 0.166992 3 2 0.043932 3 0.337946 4 0.618122
2 11.134444 -59.597019 -0.044534 0.000000 0.000000 -1.000000 0.145386 0.083496 3 2 0.027468 3 0.298715 4 0.673817
2 3.711486 -59.597019 -0.044534 0.000000 0.000000 -1.000000 0.431885 0.083496 3 2 0.027151 3 0.283421 4 0.689428
2efb_kyj02_body_mesh1
2 3.711486 -59.597019 -0.044534 0.000000 0.000000 -1.000000 0.431885 0.083496 3 2 0.027151 3 0.283421 4 0.689428
2 11.134444 -59.597019 -0.044534 0.000000 0.000000 -1.000000 0.145386 0.083496 3 2 0.027468 3 0.298715 4 0.673817
2 11.134443 -63.322335 -0.044534 0.000000 0.000000 -1.000000 0.145386 0.000000 3 2 0.014603 3 0.269712 4 0.715686
2efb_kyj02_body_mesh1
2 -3.711476 -18.618420 -0.044534 0.000000 0.000000 -1.000000 0.718262 1.000000 2 2 0.305630 3 0.694370
2 3.711480 -18.618422 -0.044534 0.000000 0.000000 -1.000000 0.431885 1.000000 2 2 0.305636 3 0.694364
2 -3.711475 -26.069075 -0.044534 0.000000 0.000000 -1.000000 0.718262 0.833374 3 2 0.272491 3 0.713489 4 0.014019
2efb_kyj02_body_mesh1
2 3.711480 -18.618422 -0.044534 0.000000 0.000000 -1.000000 0.431885 1.000000 2 2 0.305636 3 0.694364
2 3.711482 -26.069075 -0.044534 0.000000 0.000000 -1.000000 0.431885 0.833374 3 2 0.272489 3 0.713490 4 0.014021
2 -3.711475 -26.069075 -0.044534 0.000000 0.000000 -1.000000 0.718262 0.833374 3 2 0.272491 3 0.713489 4 0.014019
2efb_kyj02_body_mesh1
2 -3.711475 -26.069075 -0.044534 0.000000 0.000000 -1.000000 0.718262 0.833374 3 2 0.272491 3 0.713489 4 0.014019
2 3.711482 -26.069075 -0.044534 0.000000 0.000000 -1.000000 0.431885 0.833374 3 2 0.272489 3 0.713490 4 0.014021
2 -3.711474 -33.519728 -0.044534 0.000000 0.000000 -1.000000 0.718262 0.666748 3 2 0.224374 3 0.680348 4 0.095278
2efb_kyj02_body_mesh1
2 3.711482 -26.069075 -0.044534 0.000000 0.000000 -1.000000 0.431885 0.833374 3 2 0.272489 3 0.713490 4 0.014021
2 3.711482 -33.519728 -0.044534 0.000000 0.000000 -1.000000 0.431885 0.666748 3 2 0.224374 3 0.680348 4 0.095278
2 -3.711474 -33.519728 -0.044534 0.000000 0.000000 -1.000000 0.718262 0.666748 3 2 0.224374 3 0.680348 4 0.095278
2efb_kyj02_body_mesh1
2 -3.711474 -33.519728 -0.044534 0.000000 0.000000 -1.000000 0.718262 0.666748 3 2 0.224374 3 0.680348 4 0.095278
2 3.711482 -33.519728 -0.044534 0.000000 0.000000 -1.000000 0.431885 0.666748 3 2 0.224374 3 0.680348 4 0.095278
2 -3.711473 -40.970387 -0.044534 0.000000 0.000000 -1.000000 0.718262 0.500000 3 2 0.160720 3 0.594195 4 0.245086
2efb_kyj02_body_mesh1
2 3.711482 -33.519728 -0.044534 0.000000 0.000000 -1.000000 0.431885 0.666748 3 2 0.224374 3 0.680348 4 0.095278
2 3.711484 -40.970387 -0.044534 0.000000 0.000000 -1.000000 0.431885 0.500000 3 2 0.160720 3 0.594195 4 0.245086
2 -3.711473 -40.970387 -0.044534 0.000000 0.000000 -1.000000 0.718262 0.500000 3 2 0.160720 3 0.594195 4 0.245086
2efb_kyj02_body_mesh1
2 -3.711473 -40.970387 -0.044534 0.000000 0.000000 -1.000000 0.718262 0.500000 3 2 0.160720 3 0.594195 4 0.245086
2 3.711484 -40.970387 -0.044534 0.000000 0.000000 -1.000000 0.431885 0.500000 3 2 0.160720 3 0.594195 4 0.245086
2 -3.711473 -44.695710 -0.044534 0.000000 0.000000 -1.000000 0.718262 0.416992 3 2 0.124991 3 0.520133 4 0.354876
2efb_kyj02_body_mesh1
2 3.711484 -40.970387 -0.044534 0.000000 0.000000 -1.000000 0.431885 0.500000 3 2 0.160720 3 0.594195 4 0.245086
2 3.711484 -44.695710 -0.044534 0.000000 0.000000 -1.000000 0.431885 0.416992 3 2 0.124991 3 0.520133 4 0.354876
2 -3.711473 -44.695710 -0.044534 0.000000 0.000000 -1.000000 0.718262 0.416992 3 2 0.124991 3 0.520133 4 0.354876
2efb_kyj02_body_mesh1
2 -3.711473 -44.695710 -0.044534 0.000000 0.000000 -1.000000 0.718262 0.416992 3 2 0.124991 3 0.520133 4 0.354876
2 3.711484 -44.695710 -0.044534 0.000000 0.000000 -1.000000 0.431885 0.416992 3 2 0.124991 3 0.520133 4 0.354876
2 3.711484 -48.421040 -0.044534 0.000000 0.000000 -1.000000 0.431885 0.333496 3 2 0.092240 3 0.446940 4 0.460820
2efb_kyj02_body_mesh1
2 3.711484 -44.695710 -0.044534 0.000000 0.000000 -1.000000 0.431885 0.416992 3 2 0.124991 3 0.520133 4 0.354876
2 11.134443 -48.421040 -0.044534 0.000000 0.000000 -1.000000 0.145386 0.333496 3 2 0.093198 3 0.453599 4 0.453203
2 3.711484 -48.421040 -0.044534 0.000000 0.000000 -1.000000 0.431885 0.333496 3 2 0.092240 3 0.446940 4 0.460820
2efb_kyj02_body_mesh1
2 3.711484 -48.421040 -0.044534 0.000000 0.000000 -1.000000 0.431885 0.333496 3 2 0.092240 3 0.446940 4 0.460820
2 11.134443 -48.421040 -0.044534 0.000000 0.000000 -1.000000 0.145386 0.333496 3 2 0.093198 3 0.453599 4 0.453203
2 3.711485 -52.146366 -0.044534 0.000000 0.000000 -1.000000 0.431885 0.250000 3 2 0.064867 3 0.380293 4 0.554840
2efb_kyj02_body_mesh1
2 11.134443 -48.421040 -0.044534 0.000000 0.000000 -1.000000 0.145386 0.333496 3 2 0.093198 3 0.453599 4 0.453203
2 11.134441 -52.146366 -0.044534 0.000000 0.000000 -1.000000 0.145386 0.250000 3 2 0.065653 3 0.390272 4 0.544076
2 3.711485 -52.146366 -0.044534 0.000000 0.000000 -1.000000 0.431885 0.250000 3 2 0.064867 3 0.380293 4 0.554840
2efb_kyj02_body_mesh1
2 3.711485 -52.146366 -0.044534 0.000000 0.000000 -1.000000 0.431885 0.250000 3 2 0.064867 3 0.380293 4 0.554840
2 11.134441 -52.146366 -0.044534 0.000000 0.000000 -1.000000 0.145386 0.250000 3 2 0.065653 3 0.390272 4 0.544076
2 11.134444 -55.871700 -0.044534 0.000000 0.000000 -1.000000 0.145386 0.166992 3 2 0.043932 3 0.337946 4 0.618122
2efb_kyj02_body_mesh1
2 3.711480 -18.618422 -0.044534 0.000000 0.000000 -1.000000 0.431885 1.000000 2 2 0.305636 3 0.694364
2 11.134439 -18.618423 -0.044534 0.000000 0.000000 -1.000000 0.145386 1.000000 2 2 0.355496 3 0.644504
2 3.711482 -26.069075 -0.044534 0.000000 0.000000 -1.000000 0.431885 0.833374 3 2 0.272489 3 0.713490 4 0.014021
2efb_kyj02_body_mesh1
2 11.134439 -18.618423 -0.044534 0.000000 0.000000 -1.000000 0.145386 1.000000 2 2 0.355496 3 0.644504
2 11.134440 -26.069072 -0.044534 0.000000 0.000000 -1.000000 0.145386 0.833374 3 2 0.288191 3 0.690337 4 0.021473
2 3.711482 -26.069075 -0.044534 0.000000 0.000000 -1.000000 0.431885 0.833374 3 2 0.272489 3 0.713490 4 0.014021
2efb_kyj02_body_mesh1
2 3.711482 -26.069075 -0.044534 0.000000 0.000000 -1.000000 0.431885 0.833374 3 2 0.272489 3 0.713490 4 0.014021
2 11.134440 -26.069072 -0.044534 0.000000 0.000000 -1.000000 0.145386 0.833374 3 2 0.288191 3 0.690337 4 0.021473
2 3.711482 -33.519728 -0.044534 0.000000 0.000000 -1.000000 0.431885 0.666748 3 2 0.224374 3 0.680348 4 0.095278
2efb_kyj02_body_mesh1
2 11.134440 -26.069072 -0.044534 0.000000 0.000000 -1.000000 0.145386 0.833374 3 2 0.288191 3 0.690337 4 0.021473
2 11.134440 -33.519725 -0.044534 0.000000 0.000000 -1.000000 0.145386 0.666748 3 2 0.229347 3 0.670777 4 0.099876
2 3.711482 -33.519728 -0.044534 0.000000 0.000000 -1.000000 0.431885 0.666748 3 2 0.224374 3 0.680348 4 0.095278
2efb_kyj02_body_mesh1
2 3.711482 -33.519728 -0.044534 0.000000 0.000000 -1.000000 0.431885 0.666748 3 2 0.224374 3 0.680348 4 0.095278
2 11.134440 -33.519725 -0.044534 0.000000 0.000000 -1.000000 0.145386 0.666748 3 2 0.229347 3 0.670777 4 0.099876
2 3.711484 -40.970387 -0.044534 0.000000 0.000000 -1.000000 0.431885 0.500000 3 2 0.160720 3 0.594195 4 0.245086
2efb_kyj02_body_mesh1
2 11.134440 -33.519725 -0.044534 0.000000 0.000000 -1.000000 0.145386 0.666748 3 2 0.229347 3 0.670777 4 0.099876
2 11.134440 -40.970375 -0.044534 0.000000 0.000000 -1.000000 0.145386 0.500000 3 2 0.162418 3 0.593300 4 0.244281
2 3.711484 -40.970387 -0.044534 0.000000 0.000000 -1.000000 0.431885 0.500000 3 2 0.160720 3 0.594195 4 0.245086
2efb_kyj02_body_mesh1
2 3.711484 -40.970387 -0.044534 0.000000 0.000000 -1.000000 0.431885 0.500000 3 2 0.160720 3 0.594195 4 0.245086
2 11.134440 -40.970375 -0.044534 0.000000 0.000000 -1.000000 0.145386 0.500000 3 2 0.162418 3 0.593300 4 0.244281
2 3.711484 -44.695710 -0.044534 0.000000 0.000000 -1.000000 0.431885 0.416992 3 2 0.124991 3 0.520133 4 0.354876
2efb_kyj02_body_mesh1
2 11.134440 -40.970375 -0.044534 0.000000 0.000000 -1.000000 0.145386 0.500000 3 2 0.162418 3 0.593300 4 0.244281
2 11.134441 -44.695710 -0.044534 0.000000 0.000000 -1.000000 0.145386 0.416992 3 2 0.126233 3 0.523117 4 0.350650
2 3.711484 -44.695710 -0.044534 0.000000 0.000000 -1.000000 0.431885 0.416992 3 2 0.124991 3 0.520133 4 0.354876
2efb_kyj02_body_mesh1
2 3.711484 -44.695710 -0.044534 0.000000 0.000000 -1.000000 0.431885 0.416992 3 2 0.124991 3 0.520133 4 0.354876
2 11.134441 -44.695710 -0.044534 0.000000 0.000000 -1.000000 0.145386 0.416992 3 2 0.126233 3 0.523117 4 0.350650
2 11.134443 -48.421040 -0.044534 0.000000 0.000000 -1.000000 0.145386 0.333496 3 2 0.093198 3 0.453599 4 0.453203
2efb_kyj02_body_mesh1
2 -11.134430 -44.695719 -0.044534 0.000000 0.000000 -1.000000 1.004883 0.416992 3 2 0.126233 3 0.523117 4 0.350650
2 -3.711473 -48.421040 -0.044534 0.000000 0.000000 -1.000000 0.718262 0.333496 3 2 0.092240 3 0.446940 4 0.460820
2 -11.134429 -48.421040 -0.044534 0.000000 0.000000 -1.000000 1.004883 0.333496 3 2 0.093198 3 0.453599 4 0.453203
2efb_kyj02_body_mesh1
2 -3.711473 -48.421040 -0.044534 0.000000 0.000000 -1.000000 0.718262 0.333496 3 2 0.092240 3 0.446940 4 0.460820
2 -11.134427 -52.146366 -0.044534 0.000000 0.000000 -1.000000 1.004883 0.250000 3 2 0.065653 3 0.390272 4 0.544076
2 -11.134429 -48.421040 -0.044534 0.000000 0.000000 -1.000000 1.004883 0.333496 3 2 0.093198 3 0.453599 4 0.453203
2efb_kyj02_body_mesh1
2 11.134443 -63.322335 -0.044534 0.000000 0.000000 -1.000000 0.145386 0.000000 3 2 0.014603 3 0.269712 4 0.715686
2 3.711487 -63.322335 -0.044534 0.000000 0.000000 -1.000000 0.431885 0.000000 3 2 0.014676 3 0.253322 4 0.732002
2 3.711486 -59.597019 -0.044534 0.000000 0.000000 -1.000000 0.431885 0.083496 3 2 0.027151 3 0.283421 4 0.689428
2efb_kyj02_body_mesh1
2 3.711487 -63.322335 -0.044534 0.000000 0.000000 -1.000000 0.431885 0.000000 3 2 0.014676 3 0.253322 4 0.732002
2 -3.711470 -59.597010 -0.044534 0.000000 0.000000 -1.000000 0.718262 0.083496 3 2 0.027151 3 0.283421 4 0.689428
2 3.711486 -59.597019 -0.044534 0.000000 0.000000 -1.000000 0.431885 0.083496 3 2 0.027151 3 0.283421 4 0.689428
2efb_kyj02_body_mesh1
2 3.711486 -59.597019 -0.044534 0.000000 0.000000 -1.000000 0.431885 0.083496 3 2 0.027151 3 0.283421 4 0.689428
2 -3.711470 -59.597010 -0.044534 0.000000 0.000000 -1.000000 0.718262 0.083496 3 2 0.027151 3 0.283421 4 0.689428
2 3.711486 -55.871700 -0.044534 0.000000 0.000000 -1.000000 0.431885 0.166992 3 2 0.043333 3 0.324944 4 0.631724
2efb_kyj02_body_mesh1
2 -3.711470 -59.597010 -0.044534 0.000000 0.000000 -1.000000 0.718262 0.083496 3 2 0.027151 3 0.283421 4 0.689428
2 -3.711471 -55.871700 -0.044534 0.000000 0.000000 -1.000000 0.718262 0.166992 3 2 0.043333 3 0.324944 4 0.631724
2 3.711486 -55.871700 -0.044534 0.000000 0.000000 -1.000000 0.431885 0.166992 3 2 0.043333 3 0.324944 4 0.631724
2efb_kyj02_body_mesh1
2 3.711486 -55.871700 -0.044534 0.000000 0.000000 -1.000000 0.431885 0.166992 3 2 0.043333 3 0.324944 4 0.631724
2 -3.711471 -55.871700 -0.044534 0.000000 0.000000 -1.000000 0.718262 0.166992 3 2 0.043333 3 0.324944 4 0.631724
2 -3.711471 -52.146366 -0.044534 0.000000 0.000000 -1.000000 0.718262 0.250000 3 2 0.064867 3 0.380293 4 0.554840
2efb_kyj02_body_mesh1
2 -3.711471 -55.871700 -0.044534 0.000000 0.000000 -1.000000 0.718262 0.166992 3 2 0.043333 3 0.324944 4 0.631724
2 -11.134427 -52.146366 -0.044534 0.000000 0.000000 -1.000000 1.004883 0.250000 3 2 0.065653 3 0.390272 4 0.544076
2 -3.711471 -52.146366 -0.044534 0.000000 0.000000 -1.000000 0.718262 0.250000 3 2 0.064867 3 0.380293 4 0.554840
2efb_kyj02_body_mesh1
2 -3.711471 -52.146366 -0.044534 0.000000 0.000000 -1.000000 0.718262 0.250000 3 2 0.064867 3 0.380293 4 0.554840
2 -11.134427 -52.146366 -0.044534 0.000000 0.000000 -1.000000 1.004883 0.250000 3 2 0.065653 3 0.390272 4 0.544076
2 -3.711473 -48.421040 -0.044534 0.000000 0.000000 -1.000000 0.718262 0.333496 3 2 0.092240 3 0.446940 4 0.460820
2efb_kyj02_body_mesh1
2 -11.134427 -52.146366 -0.044534 0.000000 0.000000 -1.000000 1.004883 0.250000 3 2 0.065653 3 0.390272 4 0.544076
2 -3.711471 -55.871700 -0.044534 0.000000 0.000000 -1.000000 0.718262 0.166992 3 2 0.043333 3 0.324944 4 0.631724
2 -11.134427 -55.871693 -0.044534 0.000000 0.000000 -1.000000 1.004883 0.166992 3 2 0.043932 3 0.337946 4 0.618122
2efb_kyj02_body_mesh1
2 -3.711471 -55.871700 -0.044534 0.000000 0.000000 -1.000000 0.718262 0.166992 3 2 0.043333 3 0.324944 4 0.631724
2 -11.134425 -59.597010 -0.044534 0.000000 0.000000 -1.000000 1.004883 0.083496 3 2 0.027468 3 0.298715 4 0.673817
2 -11.134427 -55.871693 -0.044534 0.000000 0.000000 -1.000000 1.004883 0.166992 3 2 0.043932 3 0.337946 4 0.618122
2efb_kyj02_body_mesh1
2 3.711487 -63.322335 -0.044534 0.000000 0.000000 -1.000000 0.431885 0.000000 3 2 0.014676 3 0.253322 4 0.732002
2 -3.711470 -63.322335 -0.044534 0.000000 0.000000 -1.000000 0.718262 0.000000 3 2 0.014676 3 0.253322 4 0.732002
2 -3.711470 -59.597010 -0.044534 0.000000 0.000000 -1.000000 0.718262 0.083496 3 2 0.027151 3 0.283421 4 0.689428
2efb_kyj02_body_mesh1
2 -3.711470 -63.322335 -0.044534 0.000000 0.000000 -1.000000 0.718262 0.000000 3 2 0.014676 3 0.253322 4 0.732002
2 -11.134425 -59.597010 -0.044534 0.000000 0.000000 -1.000000 1.004883 0.083496 3 2 0.027468 3 0.298715 4 0.673817
2 -3.711470 -59.597010 -0.044534 0.000000 0.000000 -1.000000 0.718262 0.083496 3 2 0.027151 3 0.283421 4 0.689428
2efb_kyj02_body_mesh1
2 -3.711470 -59.597010 -0.044534 0.000000 0.000000 -1.000000 0.718262 0.083496 3 2 0.027151 3 0.283421 4 0.689428
2 -11.134425 -59.597010 -0.044534 0.000000 0.000000 -1.000000 1.004883 0.083496 3 2 0.027468 3 0.298715 4 0.673817
2 -3.711471 -55.871700 -0.044534 0.000000 0.000000 -1.000000 0.718262 0.166992 3 2 0.043333 3 0.324944 4 0.631724
2efb_kyj02_body_mesh1
2 11.134440 -40.970375 0.000000 0.000000 0.000000 1.000000 1.004883 0.500000 3 2 0.162864 3 0.594138 4 0.242998
2 3.711484 -40.970385 0.000000 0.000000 0.000000 1.000000 0.718262 0.500000 3 2 0.161159 3 0.595080 4 0.243762
2 3.711485 -44.695707 0.000000 0.000000 0.000000 1.000000 0.718262 0.416992 3 2 0.123989 3 0.520148 4 0.355863
2efb_kyj02_body_mesh1
2 -3.711470 -63.322335 -0.044534 0.000000 0.000000 -1.000000 0.718262 0.000000 3 2 0.014676 3 0.253322 4 0.732002
2 -11.134425 -63.322329 -0.044534 0.000000 0.000000 -1.000000 1.004883 0.000000 3 2 0.014603 3 0.269712 4 0.715686
2 -11.134425 -59.597010 -0.044534 0.000000 0.000000 -1.000000 1.004883 0.083496 3 2 0.027468 3 0.298715 4 0.673817
end
