version 1
nodes
0 "root" -1
1 "draw1_2efb_kyj01" 0
2 "draw2_0_2efb_kyj02_trall" 0
3 "draw2_1_2efb_kyj02_bone01" 0
4 "draw2_2_2efb_kyj02_bone02" 0
5 "draw2_3_2efb_kyj02_bone03" 0
6 "draw3_0_2efb_kyj02_trall" 0
7 "draw3_1_2efb_kyj02_bone01" 0
8 "draw3_2_2efb_kyj02_bone02" 0
9 "draw3_3_2efb_kyj02_bone03" 0
10 "draw4_0_2efb_kyj02_trall" 0
11 "draw4_1_2efb_kyj02_bone01" 0
12 "draw4_2_2efb_kyj02_bone02" 0
13 "draw4_3_2efb_kyj02_bone03" 0
14 "draw5_0_2efb_kyj02_trall" 0
15 "draw5_1_2efb_kyj02_bone01" 0
16 "draw5_2_2efb_kyj02_bone02" 0
17 "draw5_3_2efb_kyj02_bone03" 0
18 "draw6_0_2efb_kyj02_trall" 0
19 "draw6_1_2efb_kyj02_bone01" 0
20 "draw6_2_2efb_kyj02_bone02" 0
21 "draw6_3_2efb_kyj02_bone03" 0
end
skeleton
time 0
0 0.000000 0.000000 0.000000 0.000000 -0.000000 0.000000
1 0.000010 -52.185059 -0.000000 0.000000 0.000000 0.000000
2 0.000000 0.000000 0.000000 0.000000 -0.000000 0.000000
3 0.000000 0.000000 0.000000 0.000000 -0.000000 0.000000
4 0.000000 -12.381235 0.000000 0.000000 -0.000000 0.000000
5 0.000000 -42.084709 0.000000 0.000000 -0.000000 0.000000
6 0.000000 0.000000 0.000000 0.000000 -0.000000 0.000000
7 0.000000 0.000000 0.000000 0.000000 -0.000000 0.000000
8 0.000000 -12.381235 0.000000 0.000000 -0.000000 0.000000
9 0.000000 -42.084710 0.000000 0.000000 -0.000000 0.000000
10 0.000000 0.000000 0.000000 0.000000 -0.000000 0.000000
11 0.000000 0.000000 0.000000 0.000000 -0.000000 0.000000
12 0.000000 -11.784997 0.000000 0.000000 -0.000000 0.000000
13 0.000000 -40.058052 0.000000 0.000000 -0.000000 0.000000
14 0.000000 0.000000 0.000000 0.000000 -0.000000 0.000000
15 0.000000 0.000000 0.000000 0.000000 -0.000000 0.000000
16 0.000000 -13.233002 0.000000 0.000000 -0.000000 0.000000
17 0.000000 -44.979926 0.000000 0.000000 -0.000000 0.000000
18 0.000000 0.000000 0.000000 0.000000 -0.000000 0.000000
19 0.000000 0.000000 0.000000 0.000000 -0.000000 0.000000
20 0.000000 -12.381234 0.000000 0.000000 -0.000000 0.000000
21 0.000000 -42.084706 0.000000 0.000000 -0.000000 0.000000
end
triangles
2efb_kyj01_mesh1
1 -0.000000 66.843561 1.532148 0.000000 0.044607 0.999005 0.430420 0.500000 1 1 1.000000
1 -0.000000 67.999214 -0.000000 -0.000000 1.000000 0.000000 0.430420 0.500000 1 1 1.000000
1 -20.866204 66.157448 0.000002 -0.173778 0.984785 0.000000 0.430420 0.500000 1 1 1.000000
2efb_kyj01_mesh1
1 -0.000000 67.999214 -0.000000 -0.000000 1.000000 0.000000 0.430420 0.500000 1 1 1.000000
1 -20.666668 65.021506 -1.529280 -0.007786 0.043213 -0.999036 0.430420 0.500000 1 1 1.000000
1 -20.866204 66.157448 0.000002 -0.173778 0.984785 0.000000 0.430420 0.500000 1 1 1.000000
2efb_kyj01_mesh1
1 -20.866204 66.157448 0.000002 -0.173778 0.984785 0.000000 0.430420 0.500000 1 1 1.000000
1 -20.666668 65.021506 -1.529280 -0.007786 0.043213 -0.999036 0.430420 0.500000 1 1 1.000000
1 -41.103940 60.747090 0.000004 -0.341900 0.939736 0.000000 0.430420 0.500000 1 1 1.000000
2efb_kyj01_mesh1
1 -20.666668 65.021506 -1.529280 -0.007786 0.043213 -0.999036 0.430420 0.500000 1 1 1.000000
1 -40.710189 59.665247 -1.526494 -0.015258 0.041920 -0.999004 0.430420 0.500000 1 1 1.000000
1 -41.103940 60.747090 0.000004 -0.341900 0.939736 0.000000 0.430420 0.500000 1 1 1.000000
2efb_kyj01_mesh1
1 -41.103940 60.747090 0.000004 -0.341900 0.939736 0.000000 0.430420 0.500000 1 1 1.000000
1 -40.710189 59.665247 -1.526494 -0.015258 0.041920 -0.999004 0.430420 0.500000 1 1 1.000000
1 -59.507342 50.884672 -1.529273 -0.021820 0.038117 -0.999035 0.430420 0.500000 1 1 1.000000
2efb_kyj01_mesh1
1 -40.710189 59.665247 -1.526494 -0.015258 0.041920 -0.999004 0.430420 0.500000 1 1 1.000000
1 -58.930042 49.886264 0.000005 0.500131 -0.865950 -0.000000 0.430420 0.500000 1 1 1.000000
1 -59.507342 50.884672 -1.529273 -0.021820 0.038117 -0.999035 0.430420 0.500000 1 1 1.000000
2efb_kyj01_mesh1
1 -59.507342 50.884672 -1.529273 -0.021820 0.038117 -0.999035 0.430420 0.500000 1 1 1.000000
1 -58.930042 49.886264 0.000005 0.500131 -0.865950 -0.000000 0.430420 0.500000 1 1 1.000000
1 -76.510127 38.996151 -1.532053 -0.028670 0.034165 -0.999005 0.430420 0.500000 1 1 1.000000
2efb_kyj01_mesh1
1 -58.930042 49.886264 0.000005 0.500131 -0.865950 -0.000000 0.430420 0.500000 1 1 1.000000
1 -75.767300 38.110894 0.000007 0.642871 -0.765974 -0.000000 0.430420 0.500000 1 1 1.000000
1 -76.510127 38.996151 -1.532053 -0.028670 0.034165 -0.999005 0.430420 0.500000 1 1 1.000000
2efb_kyj01_mesh1
1 -76.510127 38.996151 -1.532053 -0.028670 0.034165 -0.999005 0.430420 0.500000 1 1 1.000000
1 -75.767300 38.110894 0.000007 0.642871 -0.765974 -0.000000 0.430420 0.500000 1 1 1.000000
1 -90.287525 23.574199 0.000008 0.765974 -0.642871 -0.000000 0.430420 0.500000 1 1 1.000000
2efb_kyj01_mesh1
1 -75.767300 38.110894 0.000007 0.642871 -0.765974 -0.000000 0.430420 0.500000 1 1 1.000000
1 -91.170523 24.316089 1.529382 -0.033753 0.028107 0.999035 0.430420 0.500000 1 1 1.000000
1 -90.287525 23.574199 0.000008 0.765974 -0.642871 -0.000000 0.430420 0.500000 1 1 1.000000
2efb_kyj01_mesh1
1 -90.287525 23.574199 0.000008 0.765974 -0.642871 -0.000000 0.430420 0.500000 1 1 1.000000
1 -91.170523 24.316089 1.529382 -0.033753 0.028107 0.999035 0.430420 0.500000 1 1 1.000000
1 -102.084798 6.753631 0.000009 0.865950 -0.500131 -0.000000 0.430420 0.500000 1 1 1.000000
2efb_kyj01_mesh1
1 -91.170523 24.316089 1.529382 -0.033753 0.028107 0.999035 0.430420 0.500000 1 1 1.000000
1 -103.081804 7.329240 1.526601 -0.038653 0.022304 0.999004 0.430420 0.500000 1 1 1.000000
1 -102.084798 6.753631 0.000009 0.865950 -0.500131 -0.000000 0.430420 0.500000 1 1 1.000000
2efb_kyj01_mesh1
1 -102.084798 6.753631 0.000009 0.865950 -0.500131 -0.000000 0.430420 0.500000 1 1 1.000000
1 -103.081804 7.329240 1.526601 -0.038653 0.022304 0.999004 0.430420 0.500000 1 1 1.000000
1 -111.837202 -11.479651 1.529384 -0.041199 0.015175 0.999036 0.430420 0.500000 1 1 1.000000
2efb_kyj01_mesh1
1 -103.081804 7.329240 1.526601 -0.038653 0.022304 0.999004 0.430420 0.500000 1 1 1.000000
1 -112.921220 -11.085884 0.000010 -0.939658 0.342115 0.000000 0.430420 0.500000 1 1 1.000000
1 -111.837202 -11.479651 1.529384 -0.041199 0.015175 0.999036 0.430420 0.500000 1 1 1.000000
2efb_kyj01_mesh1
1 -111.837202 -11.479651 1.529384 -0.041199 0.015175 0.999036 0.430420 0.500000 1 1 1.000000
1 -112.921220 -11.085884 0.000010 -0.939658 0.342115 0.000000 0.430420 0.500000 1 1 1.000000
1 -117.220287 -31.515961 1.532166 -0.043935 0.007747 0.999004 0.430420 0.500000 1 1 1.000000
2efb_kyj01_mesh1
1 -112.921220 -11.085884 0.000010 -0.939658 0.342115 0.000000 0.430420 0.500000 1 1 1.000000
1 -118.358398 -31.315281 0.000010 -0.984806 0.173660 0.000000 0.430420 0.500000 1 1 1.000000
1 -117.220287 -31.515961 1.532166 -0.043935 0.007747 0.999004 0.430420 0.500000 1 1 1.000000
2efb_kyj01_mesh1
1 -117.220287 -31.515961 1.532166 -0.043935 0.007747 0.999004 0.430420 0.500000 1 1 1.000000
1 -118.358398 -31.315281 0.000010 -0.984806 0.173660 0.000000 0.430420 0.500000 1 1 1.000000
1 -120.167990 -52.185069 0.000011 -1.000000 -0.000000 0.000000 0.430420 0.500000 1 1 1.000000
2efb_kyj01_mesh1
1 -118.358398 -31.315281 0.000010 -0.984806 0.173660 0.000000 0.430420 0.500000 1 1 1.000000
1 -119.014664 -52.185069 -1.529267 -0.043915 -0.000000 -0.999035 0.430420 0.500000 1 1 1.000000
1 -120.167990 -52.185069 0.000011 -1.000000 -0.000000 0.000000 0.430420 0.500000 1 1 1.000000
2efb_kyj01_mesh1
1 -120.167990 -52.185069 0.000011 -1.000000 -0.000000 0.000000 0.430420 0.500000 1 1 1.000000
1 -119.014664 -52.185069 -1.529267 -0.043915 -0.000000 -0.999035 0.430420 0.500000 1 1 1.000000
1 -118.354056 -73.054081 0.000010 -0.984806 -0.173660 0.000000 0.430420 0.500000 1 1 1.000000
2efb_kyj01_mesh1
1 -119.014664 -52.185069 -1.529267 -0.043915 -0.000000 -0.999035 0.430420 0.500000 1 1 1.000000
1 -117.220283 -72.854175 -1.526486 -0.043936 -0.007747 -0.999004 0.430420 0.500000 1 1 1.000000
1 -118.354056 -73.054081 0.000010 -0.984806 -0.173660 0.000000 0.430420 0.500000 1 1 1.000000
2efb_kyj01_mesh1
1 -118.354056 -73.054081 0.000010 -0.984806 -0.173660 0.000000 0.430420 0.500000 1 1 1.000000
1 -117.220283 -72.854175 -1.526486 -0.043936 -0.007747 -0.999004 0.430420 0.500000 1 1 1.000000
1 -111.837195 -92.890489 -1.529271 -0.041321 -0.014870 -0.999035 0.430420 0.500000 1 1 1.000000
2efb_kyj01_mesh1
1 -117.220283 -72.854175 -1.526486 -0.043936 -0.007747 -0.999004 0.430420 0.500000 1 1 1.000000
1 -110.753721 -92.495333 0.000010 0.939658 0.342116 -0.000000 0.430420 0.500000 1 1 1.000000
1 -111.837195 -92.890489 -1.529271 -0.041321 -0.014870 -0.999035 0.430420 0.500000 1 1 1.000000
2efb_kyj01_mesh1
1 -111.837195 -92.890489 -1.529271 -0.041321 -0.014870 -0.999035 0.430420 0.500000 1 1 1.000000
1 -110.753721 -92.495333 0.000010 0.939658 0.342116 -0.000000 0.430420 0.500000 1 1 1.000000
1 -103.081781 -111.699375 -1.532056 -0.038623 -0.022304 -0.999005 0.430420 0.500000 1 1 1.000000
2efb_kyj01_mesh1
1 -110.753721 -92.495333 0.000010 0.939658 0.342116 -0.000000 0.430420 0.500000 1 1 1.000000
1 -102.080993 -111.121565 0.000009 0.865950 0.500131 -0.000000 0.430420 0.500000 1 1 1.000000
1 -103.081781 -111.699375 -1.532056 -0.038623 -0.022304 -0.999005 0.430420 0.500000 1 1 1.000000
2efb_kyj01_mesh1
1 -103.081781 -111.699375 -1.532056 -0.038623 -0.022304 -0.999005 0.430420 0.500000 1 1 1.000000
1 -102.080993 -111.121565 0.000009 0.865950 0.500131 -0.000000 0.430420 0.500000 1 1 1.000000
1 -90.286560 -127.945468 0.000008 0.765974 0.642871 -0.000000 0.430420 0.500000 1 1 1.000000
2efb_kyj01_mesh1
1 -102.080993 -111.121565 0.000009 0.865950 0.500131 -0.000000 0.430420 0.500000 1 1 1.000000
1 -91.170510 -128.686230 1.529373 -0.033539 -0.028351 0.999035 0.430420 0.500000 1 1 1.000000
1 -90.286560 -127.945468 0.000008 0.765974 0.642871 -0.000000 0.430420 0.500000 1 1 1.000000
2efb_kyj01_mesh1
1 -90.286560 -127.945468 0.000008 0.765974 0.642871 -0.000000 0.430420 0.500000 1 1 1.000000
1 -91.170510 -128.686230 1.529373 -0.033539 -0.028351 0.999035 0.430420 0.500000 1 1 1.000000
1 -75.770100 -142.484384 0.000007 0.642871 0.765974 -0.000000 0.430420 0.500000 1 1 1.000000
2efb_kyj01_mesh1
1 -91.170510 -128.686230 1.529373 -0.033539 -0.028351 0.999035 0.430420 0.500000 1 1 1.000000
1 -76.510100 -143.366288 1.526586 -0.028685 -0.034165 0.999004 0.430420 0.500000 1 1 1.000000
1 -75.770100 -142.484384 0.000007 0.642871 0.765974 -0.000000 0.430420 0.500000 1 1 1.000000
2efb_kyj01_mesh1
1 -75.770100 -142.484384 0.000007 0.642871 0.765974 -0.000000 0.430420 0.500000 1 1 1.000000
1 -76.510100 -143.366288 1.526586 -0.028685 -0.034165 0.999004 0.430420 0.500000 1 1 1.000000
1 -59.507316 -155.254800 1.529365 -0.022095 -0.037934 0.999036 0.430420 0.500000 1 1 1.000000
2efb_kyj01_mesh1
1 -76.510100 -143.366288 1.526586 -0.028685 -0.034165 0.999004 0.430420 0.500000 1 1 1.000000
1 -60.083340 -156.253981 0.000005 -0.500131 -0.865950 0.000000 0.430420 0.500000 1 1 1.000000
1 -59.507316 -155.254800 1.529365 -0.022095 -0.037934 0.999036 0.430420 0.500000 1 1 1.000000
2efb_kyj01_mesh1
1 -59.507316 -155.254800 1.529365 -0.022095 -0.037934 0.999036 0.430420 0.500000 1 1 1.000000
1 -60.083340 -156.253981 0.000005 -0.500131 -0.865950 0.000000 0.430420 0.500000 1 1 1.000000
1 -40.710166 -164.035371 1.532143 -0.015258 -0.041920 0.999004 0.430420 0.500000 1 1 1.000000
2efb_kyj01_mesh1
1 -60.083340 -156.253981 0.000005 -0.500131 -0.865950 0.000000 0.430420 0.500000 1 1 1.000000
1 -41.105426 -165.121335 0.000004 -0.341900 -0.939736 0.000000 0.430420 0.500000 1 1 1.000000
1 -40.710166 -164.035371 1.532143 -0.015258 -0.041920 0.999004 0.430420 0.500000 1 1 1.000000
2efb_kyj01_mesh1
1 -40.710166 -164.035371 1.532143 -0.015258 -0.041920 0.999004 0.430420 0.500000 1 1 1.000000
1 -41.105426 -165.121335 0.000004 -0.341900 -0.939736 0.000000 0.430420 0.500000 1 1 1.000000
1 -20.867668 -170.527315 0.000002 -0.173541 -0.984827 0.000000 0.430420 0.500000 1 1 1.000000
2efb_kyj01_mesh1
1 -41.105426 -165.121335 0.000004 -0.341900 -0.939736 0.000000 0.430420 0.500000 1 1 1.000000
1 -20.666658 -169.391639 -1.529294 -0.007466 -0.043274 -0.999035 0.430420 0.500000 1 1 1.000000
1 -20.867668 -170.527315 0.000002 -0.173541 -0.984827 0.000000 0.430420 0.500000 1 1 1.000000
2efb_kyj01_mesh1
1 -20.867668 -170.527315 0.000002 -0.173541 -0.984827 0.000000 0.430420 0.500000 1 1 1.000000
1 -20.666658 -169.391639 -1.529294 -0.007466 -0.043274 -0.999035 0.430420 0.500000 1 1 1.000000
1 0.000021 -172.364926 -0.000000 0.000000 -1.000000 0.000000 0.430420 0.500000 1 1 1.000000
2efb_kyj01_mesh1
1 -20.666658 -169.391639 -1.529294 -0.007466 -0.043274 -0.999035 0.430420 0.500000 1 1 1.000000
1 0.000020 -171.213678 -1.526517 -0.000000 -0.044607 -0.999005 0.430420 0.500000 1 1 1.000000
1 0.000021 -172.364926 -0.000000 0.000000 -1.000000 0.000000 0.430420 0.500000 1 1 1.000000
2efb_kyj01_mesh1
1 0.000021 -172.364926 -0.000000 0.000000 -1.000000 0.000000 0.430420 0.500000 1 1 1.000000
1 0.000020 -171.213678 -1.526517 -0.000000 -0.044607 -0.999005 0.430420 0.500000 1 1 1.000000
1 20.666696 -169.391636 -1.529303 0.007465 -0.043274 -0.999035 0.430420 0.500000 1 1 1.000000
2efb_kyj01_mesh1
1 0.000020 -171.213678 -1.526517 -0.000000 -0.044607 -0.999005 0.430420 0.500000 1 1 1.000000
1 20.465692 -168.255990 -0.000002 -0.173778 0.984785 0.000000 0.430420 0.500000 1 1 1.000000
1 20.666696 -169.391636 -1.529303 0.007465 -0.043274 -0.999035 0.430420 0.500000 1 1 1.000000
2efb_kyj01_mesh1
1 20.666696 -169.391636 -1.529303 0.007465 -0.043274 -0.999035 0.430420 0.500000 1 1 1.000000
1 20.465692 -168.255990 -0.000002 -0.173778 0.984785 0.000000 0.430420 0.500000 1 1 1.000000
1 40.710195 -164.035376 -1.532089 0.015258 -0.041920 -0.999004 0.430420 0.500000 1 1 1.000000
2efb_kyj01_mesh1
1 20.465692 -168.255990 -0.000002 -0.173778 0.984785 0.000000 0.430420 0.500000 1 1 1.000000
1 40.314941 -162.949448 -0.000004 -0.341900 0.939736 0.000000 0.430420 0.500000 1 1 1.000000
1 40.710195 -164.035376 -1.532089 0.015258 -0.041920 -0.999004 0.430420 0.500000 1 1 1.000000
2efb_kyj01_mesh1
1 40.710195 -164.035376 -1.532089 0.015258 -0.041920 -0.999004 0.430420 0.500000 1 1 1.000000
1 40.314941 -162.949448 -0.000004 -0.341900 0.939736 0.000000 0.430420 0.500000 1 1 1.000000
1 58.931327 -154.255644 -0.000005 -0.499948 0.866055 0.000000 0.430420 0.500000 1 1 1.000000
2efb_kyj01_mesh1
1 40.314941 -162.949448 -0.000004 -0.341900 0.939736 0.000000 0.430420 0.500000 1 1 1.000000
1 59.507338 -155.254795 1.529340 0.022095 -0.037964 0.999035 0.430420 0.500000 1 1 1.000000
1 58.931327 -154.255644 -0.000005 -0.499948 0.866055 0.000000 0.430420 0.500000 1 1 1.000000
2efb_kyj01_mesh1
1 58.931327 -154.255644 -0.000005 -0.499948 0.866055 0.000000 0.430420 0.500000 1 1 1.000000
1 59.507338 -155.254795 1.529340 0.022095 -0.037964 0.999035 0.430420 0.500000 1 1 1.000000
1 75.770119 -142.484379 -0.000007 -0.642871 0.765974 0.000000 0.430420 0.500000 1 1 1.000000
2efb_kyj01_mesh1
1 59.507338 -155.254795 1.529340 0.022095 -0.037964 0.999035 0.430420 0.500000 1 1 1.000000
1 76.510124 -143.366274 1.526555 0.028685 -0.034165 0.999004 0.430420 0.500000 1 1 1.000000
1 75.770119 -142.484379 -0.000007 -0.642871 0.765974 0.000000 0.430420 0.500000 1 1 1.000000
2efb_kyj01_mesh1
1 75.770119 -142.484379 -0.000007 -0.642871 0.765974 0.000000 0.430420 0.500000 1 1 1.000000
1 76.510124 -143.366274 1.526555 0.028685 -0.034165 0.999004 0.430420 0.500000 1 1 1.000000
1 91.170526 -128.686231 1.529335 0.033539 -0.028351 0.999035 0.430420 0.500000 1 1 1.000000
2efb_kyj01_mesh1
1 76.510124 -143.366274 1.526555 0.028685 -0.034165 0.999004 0.430420 0.500000 1 1 1.000000
1 92.054499 -129.427013 -0.000008 0.765974 -0.642871 -0.000000 0.430420 0.500000 1 1 1.000000
1 91.170526 -128.686231 1.529335 0.033539 -0.028351 0.999035 0.430420 0.500000 1 1 1.000000
2efb_kyj01_mesh1
1 91.170526 -128.686231 1.529335 0.033539 -0.028351 0.999035 0.430420 0.500000 1 1 1.000000
1 92.054499 -129.427013 -0.000008 0.765974 -0.642871 -0.000000 0.430420 0.500000 1 1 1.000000
1 103.081812 -111.699386 1.532116 0.038623 -0.022304 0.999005 0.430420 0.500000 1 1 1.000000
2efb_kyj01_mesh1
1 92.054499 -129.427013 -0.000008 0.765974 -0.642871 -0.000000 0.430420 0.500000 1 1 1.000000
1 104.082625 -112.277220 -0.000009 0.865950 -0.500131 -0.000000 0.430420 0.500000 1 1 1.000000
1 103.081812 -111.699386 1.532116 0.038623 -0.022304 0.999005 0.430420 0.500000 1 1 1.000000
2efb_kyj01_mesh1
1 103.081812 -111.699386 1.532116 0.038623 -0.022304 0.999005 0.430420 0.500000 1 1 1.000000
1 104.082625 -112.277220 -0.000009 0.865950 -0.500131 -0.000000 0.430420 0.500000 1 1 1.000000
1 112.920733 -93.285657 -0.000010 0.939736 -0.341900 -0.000000 0.430420 0.500000 1 1 1.000000
2efb_kyj01_mesh1
1 104.082625 -112.277220 -0.000009 0.865950 -0.500131 -0.000000 0.430420 0.500000 1 1 1.000000
1 111.837210 -92.890492 -1.529317 0.041321 -0.014870 -0.999035 0.430420 0.500000 1 1 1.000000
1 112.920733 -93.285657 -0.000010 0.939736 -0.341900 -0.000000 0.430420 0.500000 1 1 1.000000
2efb_kyj01_mesh1
1 112.920733 -93.285657 -0.000010 0.939736 -0.341900 -0.000000 0.430420 0.500000 1 1 1.000000
1 111.837210 -92.890492 -1.529317 0.041321 -0.014870 -0.999035 0.430420 0.500000 1 1 1.000000
1 118.354080 -73.054111 -0.000010 0.984806 -0.173660 -0.000000 0.430420 0.500000 1 1 1.000000
2efb_kyj01_mesh1
1 111.837210 -92.890492 -1.529317 0.041321 -0.014870 -0.999035 0.430420 0.500000 1 1 1.000000
1 117.220295 -72.854184 -1.526535 0.043935 -0.007747 -0.999004 0.430420 0.500000 1 1 1.000000
1 118.354080 -73.054111 -0.000010 0.984806 -0.173660 -0.000000 0.430420 0.500000 1 1 1.000000
2efb_kyj01_mesh1
1 118.354080 -73.054111 -0.000010 0.984806 -0.173660 -0.000000 0.430420 0.500000 1 1 1.000000
1 117.220295 -72.854184 -1.526535 0.043935 -0.007747 -0.999004 0.430420 0.500000 1 1 1.000000
1 119.014684 -52.185048 -1.529316 0.043915 0.000000 -0.999035 0.430420 0.500000 1 1 1.000000
2efb_kyj01_mesh1
1 117.220295 -72.854184 -1.526535 0.043935 -0.007747 -0.999004 0.430420 0.500000 1 1 1.000000
1 117.861382 -52.185048 -0.000010 -1.000000 -0.000000 0.000000 0.430420 0.500000 1 1 1.000000
1 119.014684 -52.185048 -1.529316 0.043915 0.000000 -0.999035 0.430420 0.500000 1 1 1.000000
2efb_kyj01_mesh1
1 119.014684 -52.185048 -1.529316 0.043915 0.000000 -0.999035 0.430420 0.500000 1 1 1.000000
1 117.861382 -52.185048 -0.000010 -1.000000 -0.000000 0.000000 0.430420 0.500000 1 1 1.000000
1 117.220304 -31.515991 -1.532097 0.043935 0.007747 -0.999004 0.430420 0.500000 1 1 1.000000
2efb_kyj01_mesh1
1 117.861382 -52.185048 -0.000010 -1.000000 -0.000000 0.000000 0.430420 0.500000 1 1 1.000000
1 116.082253 -31.716671 -0.000010 -0.984806 -0.173660 0.000000 0.430420 0.500000 1 1 1.000000
1 117.220304 -31.515991 -1.532097 0.043935 0.007747 -0.999004 0.430420 0.500000 1 1 1.000000
2efb_kyj01_mesh1
1 117.220304 -31.515991 -1.532097 0.043935 0.007747 -0.999004 0.430420 0.500000 1 1 1.000000
1 116.082253 -31.716671 -0.000010 -0.984806 -0.173660 0.000000 0.430420 0.500000 1 1 1.000000
1 110.753245 -11.873442 -0.000010 -0.939736 -0.341900 0.000000 0.430420 0.500000 1 1 1.000000
2efb_kyj01_mesh1
1 116.082253 -31.716671 -0.000010 -0.984806 -0.173660 0.000000 0.430420 0.500000 1 1 1.000000
1 111.837240 -11.479686 1.529338 0.041230 0.015175 0.999034 0.430420 0.500000 1 1 1.000000
1 110.753245 -11.873442 -0.000010 -0.939736 -0.341900 0.000000 0.430420 0.500000 1 1 1.000000
2efb_kyj01_mesh1
1 110.753245 -11.873442 -0.000010 -0.939736 -0.341900 0.000000 0.430420 0.500000 1 1 1.000000
1 111.837240 -11.479686 1.529338 0.041230 0.015175 0.999034 0.430420 0.500000 1 1 1.000000
1 102.084844 6.753591 -0.000009 -0.866055 -0.499948 0.000000 0.430420 0.500000 1 1 1.000000
2efb_kyj01_mesh1
1 111.837240 -11.479686 1.529338 0.041230 0.015175 0.999034 0.430420 0.500000 1 1 1.000000
1 103.081850 7.329212 1.526558 0.038623 0.022304 0.999005 0.430420 0.500000 1 1 1.000000
1 102.084844 6.753591 -0.000009 -0.866055 -0.499948 0.000000 0.430420 0.500000 1 1 1.000000
2efb_kyj01_mesh1
1 102.084844 6.753591 -0.000009 -0.866055 -0.499948 0.000000 0.430420 0.500000 1 1 1.000000
1 103.081850 7.329212 1.526558 0.038623 0.022304 0.999005 0.430420 0.500000 1 1 1.000000
1 91.170579 24.316060 1.529344 0.033753 0.028107 0.999035 0.430420 0.500000 1 1 1.000000
2efb_kyj01_mesh1
1 103.081850 7.329212 1.526558 0.038623 0.022304 0.999005 0.430420 0.500000 1 1 1.000000
1 92.053603 25.057967 -0.000008 0.765974 0.642871 -0.000000 0.430420 0.500000 1 1 1.000000
1 91.170579 24.316060 1.529344 0.033753 0.028107 0.999035 0.430420 0.500000 1 1 1.000000
2efb_kyj01_mesh1
1 91.170579 24.316060 1.529344 0.033753 0.028107 0.999035 0.430420 0.500000 1 1 1.000000
1 92.053603 25.057967 -0.000008 0.765974 0.642871 -0.000000 0.430420 0.500000 1 1 1.000000
1 76.510186 38.996119 1.532130 0.028670 0.034165 0.999005 0.430420 0.500000 1 1 1.000000
2efb_kyj01_mesh1
1 92.053603 25.057967 -0.000008 0.765974 0.642871 -0.000000 0.430420 0.500000 1 1 1.000000
1 77.253030 39.881402 -0.000007 0.642871 0.765974 -0.000000 0.430420 0.500000 1 1 1.000000
1 76.510186 38.996119 1.532130 0.028670 0.034165 0.999005 0.430420 0.500000 1 1 1.000000
2efb_kyj01_mesh1
1 76.510186 38.996119 1.532130 0.028670 0.034165 0.999005 0.430420 0.500000 1 1 1.000000
1 77.253030 39.881402 -0.000007 0.642871 0.765974 -0.000000 0.430420 0.500000 1 1 1.000000
1 60.084708 51.883066 -0.000005 0.499948 0.866055 -0.000000 0.430420 0.500000 1 1 1.000000
2efb_kyj01_mesh1
1 77.253030 39.881402 -0.000007 0.642871 0.765974 -0.000000 0.430420 0.500000 1 1 1.000000
1 59.507392 50.884634 -1.529298 0.021820 0.038117 -0.999035 0.430420 0.500000 1 1 1.000000
1 60.084708 51.883066 -0.000005 0.499948 0.866055 -0.000000 0.430420 0.500000 1 1 1.000000
2efb_kyj01_mesh1
1 60.084708 51.883066 -0.000005 0.499948 0.866055 -0.000000 0.430420 0.500000 1 1 1.000000
1 59.507392 50.884634 -1.529298 0.021820 0.038117 -0.999035 0.430420 0.500000 1 1 1.000000
1 41.104014 60.747073 -0.000004 0.341900 0.939736 -0.000000 0.430420 0.500000 1 1 1.000000
2efb_kyj01_mesh1
1 59.507392 50.884634 -1.529298 0.021820 0.038117 -0.999035 0.430420 0.500000 1 1 1.000000
1 40.710242 59.665230 -1.526511 0.015258 0.041920 -0.999004 0.430420 0.500000 1 1 1.000000
1 41.104014 60.747073 -0.000004 0.341900 0.939736 -0.000000 0.430420 0.500000 1 1 1.000000
2efb_kyj01_mesh1
1 41.104014 60.747073 -0.000004 0.341900 0.939736 -0.000000 0.430420 0.500000 1 1 1.000000
1 40.710242 59.665230 -1.526511 0.015258 0.041920 -0.999004 0.430420 0.500000 1 1 1.000000
1 20.666732 65.021498 -1.529289 0.007786 0.043213 -0.999036 0.430420 0.500000 1 1 1.000000
2efb_kyj01_mesh1
1 40.710242 59.665230 -1.526511 0.015258 0.041920 -0.999004 0.430420 0.500000 1 1 1.000000
1 20.467201 63.885598 -0.000002 -0.173541 -0.984827 0.000000 0.430420 0.500000 1 1 1.000000
1 20.666732 65.021498 -1.529289 0.007786 0.043213 -0.999036 0.430420 0.500000 1 1 1.000000
2efb_kyj01_mesh1
1 20.666732 65.021498 -1.529289 0.007786 0.043213 -0.999036 0.430420 0.500000 1 1 1.000000
1 20.467201 63.885598 -0.000002 -0.173541 -0.984827 0.000000 0.430420 0.500000 1 1 1.000000
1 -0.000000 65.687939 -0.000000 0.000000 -1.000000 0.000000 0.430420 0.500000 1 1 1.000000
2efb_kyj01_mesh1
1 20.467201 63.885598 -0.000002 -0.173541 -0.984827 0.000000 0.430420 0.500000 1 1 1.000000
1 -0.000000 66.843561 1.532148 0.000000 0.044607 0.999005 0.430420 0.500000 1 1 1.000000
1 -0.000000 65.687939 -0.000000 0.000000 -1.000000 0.000000 0.430420 0.500000 1 1 1.000000
2efb_kyj01_mesh1
1 -0.000000 65.687939 -0.000000 0.000000 -1.000000 0.000000 0.430420 0.500000 1 1 1.000000
1 -0.000000 66.843561 1.532148 0.000000 0.044607 0.999005 0.430420 0.500000 1 1 1.000000
1 -20.666663 65.021506 1.529370 -0.007786 0.043213 0.999036 0.430420 0.500000 1 1 1.000000
2efb_kyj01_mesh1
1 -0.000000 66.843561 1.532148 0.000000 0.044607 0.999005 0.430420 0.500000 1 1 1.000000
1 -20.866204 66.157448 0.000002 -0.173778 0.984785 0.000000 0.430420 0.500000 1 1 1.000000
1 -20.666663 65.021506 1.529370 -0.007786 0.043213 0.999036 0.430420 0.500000 1 1 1.000000
2efb_kyj01_mesh1
1 -20.666663 65.021506 1.529370 -0.007786 0.043213 0.999036 0.430420 0.500000 1 1 1.000000
1 -20.866204 66.157448 0.000002 -0.173778 0.984785 0.000000 0.430420 0.500000 1 1 1.000000
1 -40.710185 59.665247 1.526591 -0.015258 0.041920 0.999004 0.430420 0.500000 1 1 1.000000
2efb_kyj01_mesh1
1 -20.866204 66.157448 0.000002 -0.173778 0.984785 0.000000 0.430420 0.500000 1 1 1.000000
1 -41.103940 60.747090 0.000004 -0.341900 0.939736 0.000000 0.430420 0.500000 1 1 1.000000
1 -40.710185 59.665247 1.526591 -0.015258 0.041920 0.999004 0.430420 0.500000 1 1 1.000000
2efb_kyj01_mesh1
1 -40.710185 59.665247 1.526591 -0.015258 0.041920 0.999004 0.430420 0.500000 1 1 1.000000
1 -41.103940 60.747090 0.000004 -0.341900 0.939736 0.000000 0.430420 0.500000 1 1 1.000000
1 -60.084638 51.883104 0.000005 -0.499948 0.866055 0.000000 0.430420 0.500000 1 1 1.000000
2efb_kyj01_mesh1
1 -41.103940 60.747090 0.000004 -0.341900 0.939736 0.000000 0.430420 0.500000 1 1 1.000000
1 -59.507342 50.884672 -1.529273 -0.021820 0.038117 -0.999035 0.430420 0.500000 1 1 1.000000
1 -60.084638 51.883104 0.000005 -0.499948 0.866055 0.000000 0.430420 0.500000 1 1 1.000000
2efb_kyj01_mesh1
1 -60.084638 51.883104 0.000005 -0.499948 0.866055 0.000000 0.430420 0.500000 1 1 1.000000
1 -59.507342 50.884672 -1.529273 -0.021820 0.038117 -0.999035 0.430420 0.500000 1 1 1.000000
1 -77.252962 39.881424 0.000007 -0.642871 0.765974 0.000000 0.430420 0.500000 1 1 1.000000
2efb_kyj01_mesh1
1 -59.507342 50.884672 -1.529273 -0.021820 0.038117 -0.999035 0.430420 0.500000 1 1 1.000000
1 -76.510127 38.996151 -1.532053 -0.028670 0.034165 -0.999005 0.430420 0.500000 1 1 1.000000
1 -77.252962 39.881424 0.000007 -0.642871 0.765974 0.000000 0.430420 0.500000 1 1 1.000000
2efb_kyj01_mesh1
1 -77.252962 39.881424 0.000007 -0.642871 0.765974 0.000000 0.430420 0.500000 1 1 1.000000
1 -76.510127 38.996151 -1.532053 -0.028670 0.034165 -0.999005 0.430420 0.500000 1 1 1.000000
1 -91.170529 24.316089 -1.529268 -0.033753 0.028107 -0.999035 0.430420 0.500000 1 1 1.000000
2efb_kyj01_mesh1
1 -76.510127 38.996151 -1.532053 -0.028670 0.034165 -0.999005 0.430420 0.500000 1 1 1.000000
1 -90.287525 23.574199 0.000008 0.765974 -0.642871 -0.000000 0.430420 0.500000 1 1 1.000000
1 -91.170529 24.316089 -1.529268 -0.033753 0.028107 -0.999035 0.430420 0.500000 1 1 1.000000
2efb_kyj01_mesh1
1 -91.170529 24.316089 -1.529268 -0.033753 0.028107 -0.999035 0.430420 0.500000 1 1 1.000000
1 -90.287525 23.574199 0.000008 0.765974 -0.642871 -0.000000 0.430420 0.500000 1 1 1.000000
1 -103.081804 7.329236 -1.526485 -0.038653 0.022304 -0.999004 0.430420 0.500000 1 1 1.000000
2efb_kyj01_mesh1
1 -90.287525 23.574199 0.000008 0.765974 -0.642871 -0.000000 0.430420 0.500000 1 1 1.000000
1 -102.084798 6.753631 0.000009 0.865950 -0.500131 -0.000000 0.430420 0.500000 1 1 1.000000
1 -103.081804 7.329236 -1.526485 -0.038653 0.022304 -0.999004 0.430420 0.500000 1 1 1.000000
2efb_kyj01_mesh1
1 -103.081804 7.329236 -1.526485 -0.038653 0.022304 -0.999004 0.430420 0.500000 1 1 1.000000
1 -102.084798 6.753631 0.000009 0.865950 -0.500131 -0.000000 0.430420 0.500000 1 1 1.000000
1 -110.753208 -11.873401 0.000010 0.939736 -0.341900 -0.000000 0.430420 0.500000 1 1 1.000000
2efb_kyj01_mesh1
1 -102.084798 6.753631 0.000009 0.865950 -0.500131 -0.000000 0.430420 0.500000 1 1 1.000000
1 -111.837202 -11.479651 1.529384 -0.041199 0.015175 0.999036 0.430420 0.500000 1 1 1.000000
1 -110.753208 -11.873401 0.000010 0.939736 -0.341900 -0.000000 0.430420 0.500000 1 1 1.000000
2efb_kyj01_mesh1
1 -110.753208 -11.873401 0.000010 0.939736 -0.341900 -0.000000 0.430420 0.500000 1 1 1.000000
1 -111.837202 -11.479651 1.529384 -0.041199 0.015175 0.999036 0.430420 0.500000 1 1 1.000000
1 -116.082224 -31.716631 0.000010 0.984806 -0.173660 -0.000000 0.430420 0.500000 1 1 1.000000
2efb_kyj01_mesh1
1 -111.837202 -11.479651 1.529384 -0.041199 0.015175 0.999036 0.430420 0.500000 1 1 1.000000
1 -117.220287 -31.515961 1.532166 -0.043935 0.007747 0.999004 0.430420 0.500000 1 1 1.000000
1 -116.082224 -31.716631 0.000010 0.984806 -0.173660 -0.000000 0.430420 0.500000 1 1 1.000000
2efb_kyj01_mesh1
1 -116.082224 -31.716631 0.000010 0.984806 -0.173660 -0.000000 0.430420 0.500000 1 1 1.000000
1 -117.220287 -31.515961 1.532166 -0.043935 0.007747 0.999004 0.430420 0.500000 1 1 1.000000
1 -119.014663 -52.185069 1.529383 -0.043915 -0.000000 0.999035 0.430420 0.500000 1 1 1.000000
2efb_kyj01_mesh1
1 -117.220287 -31.515961 1.532166 -0.043935 0.007747 0.999004 0.430420 0.500000 1 1 1.000000
1 -120.167990 -52.185069 0.000011 -1.000000 -0.000000 0.000000 0.430420 0.500000 1 1 1.000000
1 -119.014663 -52.185069 1.529383 -0.043915 -0.000000 0.999035 0.430420 0.500000 1 1 1.000000
2efb_kyj01_mesh1
1 -119.014663 -52.185069 1.529383 -0.043915 -0.000000 0.999035 0.430420 0.500000 1 1 1.000000
1 -120.167990 -52.185069 0.000011 -1.000000 -0.000000 0.000000 0.430420 0.500000 1 1 1.000000
1 -117.220283 -72.854170 1.526599 -0.043935 -0.007747 0.999004 0.430420 0.500000 1 1 1.000000
2efb_kyj01_mesh1
1 -120.167990 -52.185069 0.000011 -1.000000 -0.000000 0.000000 0.430420 0.500000 1 1 1.000000
1 -118.354056 -73.054081 0.000010 -0.984806 -0.173660 0.000000 0.430420 0.500000 1 1 1.000000
1 -117.220283 -72.854170 1.526599 -0.043935 -0.007747 0.999004 0.430420 0.500000 1 1 1.000000
2efb_kyj01_mesh1
1 -117.220283 -72.854170 1.526599 -0.043935 -0.007747 0.999004 0.430420 0.500000 1 1 1.000000
1 -118.354056 -73.054081 0.000010 -0.984806 -0.173660 0.000000 0.430420 0.500000 1 1 1.000000
1 -112.920706 -93.285637 0.000010 -0.939736 -0.341900 0.000000 0.430420 0.500000 1 1 1.000000
2efb_kyj01_mesh1
1 -118.354056 -73.054081 0.000010 -0.984806 -0.173660 0.000000 0.430420 0.500000 1 1 1.000000
1 -111.837195 -92.890489 -1.529271 -0.041321 -0.014870 -0.999035 0.430420 0.500000 1 1 1.000000
1 -112.920706 -93.285637 0.000010 -0.939736 -0.341900 0.000000 0.430420 0.500000 1 1 1.000000
2efb_kyj01_mesh1
1 -112.920706 -93.285637 0.000010 -0.939736 -0.341900 0.000000 0.430420 0.500000 1 1 1.000000
1 -111.837195 -92.890489 -1.529271 -0.041321 -0.014870 -0.999035 0.430420 0.500000 1 1 1.000000
1 -104.082630 -112.277198 0.000009 -0.866055 -0.499948 0.000000 0.430420 0.500000 1 1 1.000000
2efb_kyj01_mesh1
1 -111.837195 -92.890489 -1.529271 -0.041321 -0.014870 -0.999035 0.430420 0.500000 1 1 1.000000
1 -103.081781 -111.699375 -1.532056 -0.038623 -0.022304 -0.999005 0.430420 0.500000 1 1 1.000000
1 -104.082630 -112.277198 0.000009 -0.866055 -0.499948 0.000000 0.430420 0.500000 1 1 1.000000
2efb_kyj01_mesh1
1 -104.082630 -112.277198 0.000009 -0.866055 -0.499948 0.000000 0.430420 0.500000 1 1 1.000000
1 -103.081781 -111.699375 -1.532056 -0.038623 -0.022304 -0.999005 0.430420 0.500000 1 1 1.000000
1 -91.170504 -128.686234 -1.529278 -0.033539 -0.028351 -0.999035 0.430420 0.500000 1 1 1.000000
2efb_kyj01_mesh1
1 -103.081781 -111.699375 -1.532056 -0.038623 -0.022304 -0.999005 0.430420 0.500000 1 1 1.000000
1 -90.286560 -127.945468 0.000008 0.765974 0.642871 -0.000000 0.430420 0.500000 1 1 1.000000
1 -91.170504 -128.686234 -1.529278 -0.033539 -0.028351 -0.999035 0.430420 0.500000 1 1 1.000000
2efb_kyj01_mesh1
1 -91.170504 -128.686234 -1.529278 -0.033539 -0.028351 -0.999035 0.430420 0.500000 1 1 1.000000
1 -90.286560 -127.945468 0.000008 0.765974 0.642871 -0.000000 0.430420 0.500000 1 1 1.000000
1 -76.510100 -143.366288 -1.526499 -0.028685 -0.034165 -0.999004 0.430420 0.500000 1 1 1.000000
2efb_kyj01_mesh1
1 -90.286560 -127.945468 0.000008 0.765974 0.642871 -0.000000 0.430420 0.500000 1 1 1.000000
1 -75.770100 -142.484384 0.000007 0.642871 0.765974 -0.000000 0.430420 0.500000 1 1 1.000000
1 -76.510100 -143.366288 -1.526499 -0.028685 -0.034165 -0.999004 0.430420 0.500000 1 1 1.000000
2efb_kyj01_mesh1
1 -76.510100 -143.366288 -1.526499 -0.028685 -0.034165 -0.999004 0.430420 0.500000 1 1 1.000000
1 -75.770100 -142.484384 0.000007 0.642871 0.765974 -0.000000 0.430420 0.500000 1 1 1.000000
1 -58.931313 -154.255655 0.000005 0.499948 0.866055 -0.000000 0.430420 0.500000 1 1 1.000000
2efb_kyj01_mesh1
1 -75.770100 -142.484384 0.000007 0.642871 0.765974 -0.000000 0.430420 0.500000 1 1 1.000000
1 -59.507316 -155.254800 1.529365 -0.022095 -0.037934 0.999036 0.430420 0.500000 1 1 1.000000
1 -58.931313 -154.255655 0.000005 0.499948 0.866055 -0.000000 0.430420 0.500000 1 1 1.000000
2efb_kyj01_mesh1
1 -58.931313 -154.255655 0.000005 0.499948 0.866055 -0.000000 0.430420 0.500000 1 1 1.000000
1 -59.507316 -155.254800 1.529365 -0.022095 -0.037934 0.999036 0.430420 0.500000 1 1 1.000000
1 -40.314923 -162.949443 0.000004 0.341900 0.939736 -0.000000 0.430420 0.500000 1 1 1.000000
2efb_kyj01_mesh1
1 -59.507316 -155.254800 1.529365 -0.022095 -0.037934 0.999036 0.430420 0.500000 1 1 1.000000
1 -40.710166 -164.035371 1.532143 -0.015258 -0.041920 0.999004 0.430420 0.500000 1 1 1.000000
1 -40.314923 -162.949443 0.000004 0.341900 0.939736 -0.000000 0.430420 0.500000 1 1 1.000000
2efb_kyj01_mesh1
1 -40.314923 -162.949443 0.000004 0.341900 0.939736 -0.000000 0.430420 0.500000 1 1 1.000000
1 -40.710166 -164.035371 1.532143 -0.015258 -0.041920 0.999004 0.430420 0.500000 1 1 1.000000
1 -20.666663 -169.391639 1.529356 -0.007465 -0.043274 0.999035 0.430420 0.500000 1 1 1.000000
2efb_kyj01_mesh1
1 -40.710166 -164.035371 1.532143 -0.015258 -0.041920 0.999004 0.430420 0.500000 1 1 1.000000
1 -20.867668 -170.527315 0.000002 -0.173541 -0.984827 0.000000 0.430420 0.500000 1 1 1.000000
1 -20.666663 -169.391639 1.529356 -0.007465 -0.043274 0.999035 0.430420 0.500000 1 1 1.000000
2efb_kyj01_mesh1
1 -20.666663 -169.391639 1.529356 -0.007465 -0.043274 0.999035 0.430420 0.500000 1 1 1.000000
1 -20.867668 -170.527315 0.000002 -0.173541 -0.984827 0.000000 0.430420 0.500000 1 1 1.000000
1 0.000021 -171.213691 1.526569 0.000000 -0.044638 0.999003 0.430420 0.500000 1 1 1.000000
2efb_kyj01_mesh1
1 -20.867668 -170.527315 0.000002 -0.173541 -0.984827 0.000000 0.430420 0.500000 1 1 1.000000
1 0.000021 -172.364926 -0.000000 0.000000 -1.000000 0.000000 0.430420 0.500000 1 1 1.000000
1 0.000021 -171.213691 1.526569 0.000000 -0.044638 0.999003 0.430420 0.500000 1 1 1.000000
2efb_kyj01_mesh1
1 0.000021 -171.213691 1.526569 0.000000 -0.044638 0.999003 0.430420 0.500000 1 1 1.000000
1 0.000021 -172.364926 -0.000000 0.000000 -1.000000 0.000000 0.430420 0.500000 1 1 1.000000
1 20.867689 -170.527311 -0.000002 0.173542 -0.984827 -0.000000 0.430420 0.500000 1 1 1.000000
2efb_kyj01_mesh1
1 0.000021 -172.364926 -0.000000 0.000000 -1.000000 0.000000 0.430420 0.500000 1 1 1.000000
1 20.666696 -169.391636 -1.529303 0.007465 -0.043274 -0.999035 0.430420 0.500000 1 1 1.000000
1 20.867689 -170.527311 -0.000002 0.173542 -0.984827 -0.000000 0.430420 0.500000 1 1 1.000000
2efb_kyj01_mesh1
1 20.867689 -170.527311 -0.000002 0.173542 -0.984827 -0.000000 0.430420 0.500000 1 1 1.000000
1 20.666696 -169.391636 -1.529303 0.007465 -0.043274 -0.999035 0.430420 0.500000 1 1 1.000000
1 41.105447 -165.121328 -0.000004 0.341900 -0.939736 -0.000000 0.430420 0.500000 1 1 1.000000
2efb_kyj01_mesh1
1 20.666696 -169.391636 -1.529303 0.007465 -0.043274 -0.999035 0.430420 0.500000 1 1 1.000000
1 40.710195 -164.035376 -1.532089 0.015258 -0.041920 -0.999004 0.430420 0.500000 1 1 1.000000
1 41.105447 -165.121328 -0.000004 0.341900 -0.939736 -0.000000 0.430420 0.500000 1 1 1.000000
2efb_kyj01_mesh1
1 41.105447 -165.121328 -0.000004 0.341900 -0.939736 -0.000000 0.430420 0.500000 1 1 1.000000
1 40.710195 -164.035376 -1.532089 0.015258 -0.041920 -0.999004 0.430420 0.500000 1 1 1.000000
1 59.507350 -155.254795 -1.529310 0.022095 -0.037964 -0.999035 0.430420 0.500000 1 1 1.000000
2efb_kyj01_mesh1
1 40.710195 -164.035376 -1.532089 0.015258 -0.041920 -0.999004 0.430420 0.500000 1 1 1.000000
1 58.931327 -154.255644 -0.000005 -0.499948 0.866055 0.000000 0.430420 0.500000 1 1 1.000000
1 59.507350 -155.254795 -1.529310 0.022095 -0.037964 -0.999035 0.430420 0.500000 1 1 1.000000
2efb_kyj01_mesh1
1 59.507350 -155.254795 -1.529310 0.022095 -0.037964 -0.999035 0.430420 0.500000 1 1 1.000000
1 58.931327 -154.255644 -0.000005 -0.499948 0.866055 0.000000 0.430420 0.500000 1 1 1.000000
1 76.510124 -143.366274 -1.526531 0.028685 -0.034165 -0.999004 0.430420 0.500000 1 1 1.000000
2efb_kyj01_mesh1
1 58.931327 -154.255644 -0.000005 -0.499948 0.866055 0.000000 0.430420 0.500000 1 1 1.000000
1 75.770119 -142.484379 -0.000007 -0.642871 0.765974 0.000000 0.430420 0.500000 1 1 1.000000
1 76.510124 -143.366274 -1.526531 0.028685 -0.034165 -0.999004 0.430420 0.500000 1 1 1.000000
2efb_kyj01_mesh1
1 76.510124 -143.366274 -1.526531 0.028685 -0.034165 -0.999004 0.430420 0.500000 1 1 1.000000
1 75.770119 -142.484379 -0.000007 -0.642871 0.765974 0.000000 0.430420 0.500000 1 1 1.000000
1 90.286565 -127.945470 -0.000008 -0.765974 0.642871 0.000000 0.430420 0.500000 1 1 1.000000
2efb_kyj01_mesh1
1 75.770119 -142.484379 -0.000007 -0.642871 0.765974 0.000000 0.430420 0.500000 1 1 1.000000
1 91.170526 -128.686231 1.529335 0.033539 -0.028351 0.999035 0.430420 0.500000 1 1 1.000000
1 90.286565 -127.945470 -0.000008 -0.765974 0.642871 0.000000 0.430420 0.500000 1 1 1.000000
2efb_kyj01_mesh1
1 90.286565 -127.945470 -0.000008 -0.765974 0.642871 0.000000 0.430420 0.500000 1 1 1.000000
1 91.170526 -128.686231 1.529335 0.033539 -0.028351 0.999035 0.430420 0.500000 1 1 1.000000
1 102.081000 -111.121570 -0.000009 -0.865950 0.500131 0.000000 0.430420 0.500000 1 1 1.000000
2efb_kyj01_mesh1
1 91.170526 -128.686231 1.529335 0.033539 -0.028351 0.999035 0.430420 0.500000 1 1 1.000000
1 103.081812 -111.699386 1.532116 0.038623 -0.022304 0.999005 0.430420 0.500000 1 1 1.000000
1 102.081000 -111.121570 -0.000009 -0.865950 0.500131 0.000000 0.430420 0.500000 1 1 1.000000
2efb_kyj01_mesh1
1 102.081000 -111.121570 -0.000009 -0.865950 0.500131 0.000000 0.430420 0.500000 1 1 1.000000
1 103.081812 -111.699386 1.532116 0.038623 -0.022304 0.999005 0.430420 0.500000 1 1 1.000000
1 111.837211 -92.890499 1.529333 0.041321 -0.014870 0.999035 0.430420 0.500000 1 1 1.000000
2efb_kyj01_mesh1
1 103.081812 -111.699386 1.532116 0.038623 -0.022304 0.999005 0.430420 0.500000 1 1 1.000000
1 112.920733 -93.285657 -0.000010 0.939736 -0.341900 -0.000000 0.430420 0.500000 1 1 1.000000
1 111.837211 -92.890499 1.529333 0.041321 -0.014870 0.999035 0.430420 0.500000 1 1 1.000000
2efb_kyj01_mesh1
1 111.837211 -92.890499 1.529333 0.041321 -0.014870 0.999035 0.430420 0.500000 1 1 1.000000
1 112.920733 -93.285657 -0.000010 0.939736 -0.341900 -0.000000 0.430420 0.500000 1 1 1.000000
1 117.220308 -72.854194 1.526550 0.043936 -0.007747 0.999004 0.430420 0.500000 1 1 1.000000
2efb_kyj01_mesh1
1 112.920733 -93.285657 -0.000010 0.939736 -0.341900 -0.000000 0.430420 0.500000 1 1 1.000000
1 118.354080 -73.054111 -0.000010 0.984806 -0.173660 -0.000000 0.430420 0.500000 1 1 1.000000
1 117.220308 -72.854194 1.526550 0.043936 -0.007747 0.999004 0.430420 0.500000 1 1 1.000000
2efb_kyj01_mesh1
1 117.220308 -72.854194 1.526550 0.043936 -0.007747 0.999004 0.430420 0.500000 1 1 1.000000
1 118.354080 -73.054111 -0.000010 0.984806 -0.173660 -0.000000 0.430420 0.500000 1 1 1.000000
1 120.168010 -52.185048 -0.000011 1.000000 0.000000 -0.000000 0.430420 0.500000 1 1 1.000000
2efb_kyj01_mesh1
1 118.354080 -73.054111 -0.000010 0.984806 -0.173660 -0.000000 0.430420 0.500000 1 1 1.000000
1 119.014684 -52.185048 -1.529316 0.043915 0.000000 -0.999035 0.430420 0.500000 1 1 1.000000
1 120.168010 -52.185048 -0.000011 1.000000 0.000000 -0.000000 0.430420 0.500000 1 1 1.000000
2efb_kyj01_mesh1
1 120.168010 -52.185048 -0.000011 1.000000 0.000000 -0.000000 0.430420 0.500000 1 1 1.000000
1 119.014684 -52.185048 -1.529316 0.043915 0.000000 -0.999035 0.430420 0.500000 1 1 1.000000
1 118.358427 -31.315324 -0.000010 0.984806 0.173660 -0.000000 0.430420 0.500000 1 1 1.000000
2efb_kyj01_mesh1
1 119.014684 -52.185048 -1.529316 0.043915 0.000000 -0.999035 0.430420 0.500000 1 1 1.000000
1 117.220304 -31.515991 -1.532097 0.043935 0.007747 -0.999004 0.430420 0.500000 1 1 1.000000
1 118.358427 -31.315324 -0.000010 0.984806 0.173660 -0.000000 0.430420 0.500000 1 1 1.000000
2efb_kyj01_mesh1
1 118.358427 -31.315324 -0.000010 0.984806 0.173660 -0.000000 0.430420 0.500000 1 1 1.000000
1 117.220304 -31.515991 -1.532097 0.043935 0.007747 -0.999004 0.430420 0.500000 1 1 1.000000
1 111.837233 -11.479680 -1.529313 0.041199 0.015175 -0.999036 0.430420 0.500000 1 1 1.000000
2efb_kyj01_mesh1
1 117.220304 -31.515991 -1.532097 0.043935 0.007747 -0.999004 0.430420 0.500000 1 1 1.000000
1 110.753245 -11.873442 -0.000010 -0.939736 -0.341900 0.000000 0.430420 0.500000 1 1 1.000000
1 111.837233 -11.479680 -1.529313 0.041199 0.015175 -0.999036 0.430420 0.500000 1 1 1.000000
2efb_kyj01_mesh1
1 111.837233 -11.479680 -1.529313 0.041199 0.015175 -0.999036 0.430420 0.500000 1 1 1.000000
1 110.753245 -11.873442 -0.000010 -0.939736 -0.341900 0.000000 0.430420 0.500000 1 1 1.000000
1 103.081838 7.329218 -1.526527 0.038623 0.022304 -0.999005 0.430420 0.500000 1 1 1.000000
2efb_kyj01_mesh1
1 110.753245 -11.873442 -0.000010 -0.939736 -0.341900 0.000000 0.430420 0.500000 1 1 1.000000
1 102.084844 6.753591 -0.000009 -0.866055 -0.499948 0.000000 0.430420 0.500000 1 1 1.000000
1 103.081838 7.329218 -1.526527 0.038623 0.022304 -0.999005 0.430420 0.500000 1 1 1.000000
2efb_kyj01_mesh1
1 103.081838 7.329218 -1.526527 0.038623 0.022304 -0.999005 0.430420 0.500000 1 1 1.000000
1 102.084844 6.753591 -0.000009 -0.866055 -0.499948 0.000000 0.430420 0.500000 1 1 1.000000
1 90.287578 23.574167 -0.000008 -0.765974 -0.642871 0.000000 0.430420 0.500000 1 1 1.000000
2efb_kyj01_mesh1
1 102.084844 6.753591 -0.000009 -0.866055 -0.499948 0.000000 0.430420 0.500000 1 1 1.000000
1 91.170579 24.316060 1.529344 0.033753 0.028107 0.999035 0.430420 0.500000 1 1 1.000000
1 90.287578 23.574167 -0.000008 -0.765974 -0.642871 0.000000 0.430420 0.500000 1 1 1.000000
2efb_kyj01_mesh1
1 90.287578 23.574167 -0.000008 -0.765974 -0.642871 0.000000 0.430420 0.500000 1 1 1.000000
1 91.170579 24.316060 1.529344 0.033753 0.028107 0.999035 0.430420 0.500000 1 1 1.000000
1 75.767360 38.110855 -0.000007 -0.642871 -0.765974 0.000000 0.430420 0.500000 1 1 1.000000
2efb_kyj01_mesh1
1 91.170579 24.316060 1.529344 0.033753 0.028107 0.999035 0.430420 0.500000 1 1 1.000000
1 76.510186 38.996119 1.532130 0.028670 0.034165 0.999005 0.430420 0.500000 1 1 1.000000
1 75.767360 38.110855 -0.000007 -0.642871 -0.765974 0.000000 0.430420 0.500000 1 1 1.000000
2efb_kyj01_mesh1
1 75.767360 38.110855 -0.000007 -0.642871 -0.765974 0.000000 0.430420 0.500000 1 1 1.000000
1 76.510186 38.996119 1.532130 0.028670 0.034165 0.999005 0.430420 0.500000 1 1 1.000000
1 59.507400 50.884634 1.529352 0.021820 0.038117 0.999035 0.430420 0.500000 1 1 1.000000
2efb_kyj01_mesh1
1 76.510186 38.996119 1.532130 0.028670 0.034165 0.999005 0.430420 0.500000 1 1 1.000000
1 60.084708 51.883066 -0.000005 0.499948 0.866055 -0.000000 0.430420 0.500000 1 1 1.000000
1 59.507400 50.884634 1.529352 0.021820 0.038117 0.999035 0.430420 0.500000 1 1 1.000000
2efb_kyj01_mesh1
1 59.507400 50.884634 1.529352 0.021820 0.038117 0.999035 0.430420 0.500000 1 1 1.000000
1 60.084708 51.883066 -0.000005 0.499948 0.866055 -0.000000 0.430420 0.500000 1 1 1.000000
1 40.710253 59.665242 1.526574 0.015266 0.041920 0.999004 0.430420 0.500000 1 1 1.000000
2efb_kyj01_mesh1
1 60.084708 51.883066 -0.000005 0.499948 0.866055 -0.000000 0.430420 0.500000 1 1 1.000000
1 41.104014 60.747073 -0.000004 0.341900 0.939736 -0.000000 0.430420 0.500000 1 1 1.000000
1 40.710253 59.665242 1.526574 0.015266 0.041920 0.999004 0.430420 0.500000 1 1 1.000000
2efb_kyj01_mesh1
1 40.710253 59.665242 1.526574 0.015266 0.041920 0.999004 0.430420 0.500000 1 1 1.000000
1 41.104014 60.747073 -0.000004 0.341900 0.939736 -0.000000 0.430420 0.500000 1 1 1.000000
1 20.866286 66.157434 -0.000002 0.173778 0.984785 -0.000000 0.430420 0.500000 1 1 1.000000
2efb_kyj01_mesh1
1 41.104014 60.747073 -0.000004 0.341900 0.939736 -0.000000 0.430420 0.500000 1 1 1.000000
1 20.666732 65.021498 -1.529289 0.007786 0.043213 -0.999036 0.430420 0.500000 1 1 1.000000
1 20.866286 66.157434 -0.000002 0.173778 0.984785 -0.000000 0.430420 0.500000 1 1 1.000000
2efb_kyj01_mesh1
1 20.866286 66.157434 -0.000002 0.173778 0.984785 -0.000000 0.430420 0.500000 1 1 1.000000
1 20.666732 65.021498 -1.529289 0.007786 0.043213 -0.999036 0.430420 0.500000 1 1 1.000000
1 -0.000000 66.843561 -1.532067 -0.000000 0.044607 -0.999005 0.430420 0.500000 1 1 1.000000
2efb_kyj01_mesh1
1 20.666732 65.021498 -1.529289 0.007786 0.043213 -0.999036 0.430420 0.500000 1 1 1.000000
1 -0.000000 65.687939 -0.000000 0.000000 -1.000000 0.000000 0.430420 0.500000 1 1 1.000000
1 -0.000000 66.843561 -1.532067 -0.000000 0.044607 -0.999005 0.430420 0.500000 1 1 1.000000
2efb_kyj01_mesh1
1 -0.000000 66.843561 -1.532067 -0.000000 0.044607 -0.999005 0.430420 0.500000 1 1 1.000000
1 -0.000000 65.687939 -0.000000 0.000000 -1.000000 0.000000 0.430420 0.500000 1 1 1.000000
1 -20.467121 63.885619 0.000002 0.173542 -0.984827 -0.000000 0.430420 0.500000 1 1 1.000000
2efb_kyj01_mesh1
1 -0.000000 65.687939 -0.000000 0.000000 -1.000000 0.000000 0.430420 0.500000 1 1 1.000000
1 -20.666663 65.021506 1.529370 -0.007786 0.043213 0.999036 0.430420 0.500000 1 1 1.000000
1 -20.467121 63.885619 0.000002 0.173542 -0.984827 -0.000000 0.430420 0.500000 1 1 1.000000
2efb_kyj01_mesh1
1 -20.467121 63.885619 0.000002 0.173542 -0.984827 -0.000000 0.430420 0.500000 1 1 1.000000
1 -20.666663 65.021506 1.529370 -0.007786 0.043213 0.999036 0.430420 0.500000 1 1 1.000000
1 -40.316436 58.583440 0.000004 0.341900 -0.939736 -0.000000 0.430420 0.500000 1 1 1.000000
2efb_kyj01_mesh1
1 -20.666663 65.021506 1.529370 -0.007786 0.043213 0.999036 0.430420 0.500000 1 1 1.000000
1 -40.710185 59.665247 1.526591 -0.015258 0.041920 0.999004 0.430420 0.500000 1 1 1.000000
1 -40.316436 58.583440 0.000004 0.341900 -0.939736 -0.000000 0.430420 0.500000 1 1 1.000000
2efb_kyj01_mesh1
1 -40.316436 58.583440 0.000004 0.341900 -0.939736 -0.000000 0.430420 0.500000 1 1 1.000000
1 -40.710185 59.665247 1.526591 -0.015258 0.041920 0.999004 0.430420 0.500000 1 1 1.000000
1 -59.507342 50.884672 1.529377 -0.021820 0.038117 0.999035 0.430420 0.500000 1 1 1.000000
2efb_kyj01_mesh1
1 -40.710185 59.665247 1.526591 -0.015258 0.041920 0.999004 0.430420 0.500000 1 1 1.000000
1 -60.084638 51.883104 0.000005 -0.499948 0.866055 0.000000 0.430420 0.500000 1 1 1.000000
1 -59.507342 50.884672 1.529377 -0.021820 0.038117 0.999035 0.430420 0.500000 1 1 1.000000
2efb_kyj01_mesh1
1 -59.507342 50.884672 1.529377 -0.021820 0.038117 0.999035 0.430420 0.500000 1 1 1.000000
1 -60.084638 51.883104 0.000005 -0.499948 0.866055 0.000000 0.430420 0.500000 1 1 1.000000
1 -76.510116 38.996151 1.532162 -0.028669 0.034165 0.999005 0.430420 0.500000 1 1 1.000000
2efb_kyj01_mesh1
1 -60.084638 51.883104 0.000005 -0.499948 0.866055 0.000000 0.430420 0.500000 1 1 1.000000
1 -77.252962 39.881424 0.000007 -0.642871 0.765974 0.000000 0.430420 0.500000 1 1 1.000000
1 -76.510116 38.996151 1.532162 -0.028669 0.034165 0.999005 0.430420 0.500000 1 1 1.000000
2efb_kyj01_mesh1
1 -76.510116 38.996151 1.532162 -0.028669 0.034165 0.999005 0.430420 0.500000 1 1 1.000000
1 -77.252962 39.881424 0.000007 -0.642871 0.765974 0.000000 0.430420 0.500000 1 1 1.000000
1 -92.053543 25.058003 0.000008 -0.765974 0.642871 0.000000 0.430420 0.500000 1 1 1.000000
2efb_kyj01_mesh1
1 -77.252962 39.881424 0.000007 -0.642871 0.765974 0.000000 0.430420 0.500000 1 1 1.000000
1 -91.170529 24.316089 -1.529268 -0.033753 0.028107 -0.999035 0.430420 0.500000 1 1 1.000000
1 -92.053543 25.058003 0.000008 -0.765974 0.642871 0.000000 0.430420 0.500000 1 1 1.000000
2efb_kyj01_mesh1
1 -92.053543 25.058003 0.000008 -0.765974 0.642871 0.000000 0.430420 0.500000 1 1 1.000000
1 -91.170529 24.316089 -1.529268 -0.033753 0.028107 -0.999035 0.430420 0.500000 1 1 1.000000
1 -104.078822 7.904867 0.000009 -0.865950 0.500131 0.000000 0.430420 0.500000 1 1 1.000000
2efb_kyj01_mesh1
1 -91.170529 24.316089 -1.529268 -0.033753 0.028107 -0.999035 0.430420 0.500000 1 1 1.000000
1 -103.081804 7.329236 -1.526485 -0.038653 0.022304 -0.999004 0.430420 0.500000 1 1 1.000000
1 -104.078822 7.904867 0.000009 -0.865950 0.500131 0.000000 0.430420 0.500000 1 1 1.000000
2efb_kyj01_mesh1
1 -104.078822 7.904867 0.000009 -0.865950 0.500131 0.000000 0.430420 0.500000 1 1 1.000000
1 -103.081804 7.329236 -1.526485 -0.038653 0.022304 -0.999004 0.430420 0.500000 1 1 1.000000
1 -111.837214 -11.479654 -1.529266 -0.041230 0.015175 -0.999034 0.430420 0.500000 1 1 1.000000
2efb_kyj01_mesh1
1 -103.081804 7.329236 -1.526485 -0.038653 0.022304 -0.999004 0.430420 0.500000 1 1 1.000000
1 -110.753208 -11.873401 0.000010 0.939736 -0.341900 -0.000000 0.430420 0.500000 1 1 1.000000
1 -111.837214 -11.479654 -1.529266 -0.041230 0.015175 -0.999034 0.430420 0.500000 1 1 1.000000
2efb_kyj01_mesh1
1 -111.837214 -11.479654 -1.529266 -0.041230 0.015175 -0.999034 0.430420 0.500000 1 1 1.000000
1 -110.753208 -11.873401 0.000010 0.939736 -0.341900 -0.000000 0.430420 0.500000 1 1 1.000000
1 -117.220287 -31.515967 -1.532049 -0.043936 0.007747 -0.999004 0.430420 0.500000 1 1 1.000000
2efb_kyj01_mesh1
1 -110.753208 -11.873401 0.000010 0.939736 -0.341900 -0.000000 0.430420 0.500000 1 1 1.000000
1 -116.082224 -31.716631 0.000010 0.984806 -0.173660 -0.000000 0.430420 0.500000 1 1 1.000000
1 -117.220287 -31.515967 -1.532049 -0.043936 0.007747 -0.999004 0.430420 0.500000 1 1 1.000000
2efb_kyj01_mesh1
1 -117.220287 -31.515967 -1.532049 -0.043936 0.007747 -0.999004 0.430420 0.500000 1 1 1.000000
1 -116.082224 -31.716631 0.000010 0.984806 -0.173660 -0.000000 0.430420 0.500000 1 1 1.000000
1 -117.861362 -52.185069 0.000010 1.000000 0.000000 -0.000000 0.430420 0.500000 1 1 1.000000
2efb_kyj01_mesh1
1 -116.082224 -31.716631 0.000010 0.984806 -0.173660 -0.000000 0.430420 0.500000 1 1 1.000000
1 -119.014663 -52.185069 1.529383 -0.043915 -0.000000 0.999035 0.430420 0.500000 1 1 1.000000
1 -117.861362 -52.185069 0.000010 1.000000 0.000000 -0.000000 0.430420 0.500000 1 1 1.000000
2efb_kyj01_mesh1
1 -117.861362 -52.185069 0.000010 1.000000 0.000000 -0.000000 0.430420 0.500000 1 1 1.000000
1 -119.014663 -52.185069 1.529383 -0.043915 -0.000000 0.999035 0.430420 0.500000 1 1 1.000000
1 -116.086547 -72.654256 0.000010 0.984806 0.173660 -0.000000 0.430420 0.500000 1 1 1.000000
2efb_kyj01_mesh1
1 -119.014663 -52.185069 1.529383 -0.043915 -0.000000 0.999035 0.430420 0.500000 1 1 1.000000
1 -117.220283 -72.854170 1.526599 -0.043935 -0.007747 0.999004 0.430420 0.500000 1 1 1.000000
1 -116.086547 -72.654256 0.000010 0.984806 0.173660 -0.000000 0.430420 0.500000 1 1 1.000000
2efb_kyj01_mesh1
1 -116.086547 -72.654256 0.000010 0.984806 0.173660 -0.000000 0.430420 0.500000 1 1 1.000000
1 -117.220283 -72.854170 1.526599 -0.043935 -0.007747 0.999004 0.430420 0.500000 1 1 1.000000
1 -111.837207 -92.890483 1.529379 -0.041321 -0.014870 0.999035 0.430420 0.500000 1 1 1.000000
2efb_kyj01_mesh1
1 -117.220283 -72.854170 1.526599 -0.043935 -0.007747 0.999004 0.430420 0.500000 1 1 1.000000
1 -112.920706 -93.285637 0.000010 -0.939736 -0.341900 0.000000 0.430420 0.500000 1 1 1.000000
1 -111.837207 -92.890483 1.529379 -0.041321 -0.014870 0.999035 0.430420 0.500000 1 1 1.000000
2efb_kyj01_mesh1
1 -111.837207 -92.890483 1.529379 -0.041321 -0.014870 0.999035 0.430420 0.500000 1 1 1.000000
1 -112.920706 -93.285637 0.000010 -0.939736 -0.341900 0.000000 0.430420 0.500000 1 1 1.000000
1 -103.081793 -111.699375 1.532158 -0.038623 -0.022304 0.999005 0.430420 0.500000 1 1 1.000000
2efb_kyj01_mesh1
1 -112.920706 -93.285637 0.000010 -0.939736 -0.341900 0.000000 0.430420 0.500000 1 1 1.000000
1 -104.082630 -112.277198 0.000009 -0.866055 -0.499948 0.000000 0.430420 0.500000 1 1 1.000000
1 -103.081793 -111.699375 1.532158 -0.038623 -0.022304 0.999005 0.430420 0.500000 1 1 1.000000
2efb_kyj01_mesh1
1 -103.081793 -111.699375 1.532158 -0.038623 -0.022304 0.999005 0.430420 0.500000 1 1 1.000000
1 -104.082630 -112.277198 0.000009 -0.866055 -0.499948 0.000000 0.430420 0.500000 1 1 1.000000
1 -92.054488 -129.427007 0.000008 -0.765974 -0.642871 0.000000 0.430420 0.500000 1 1 1.000000
2efb_kyj01_mesh1
1 -104.082630 -112.277198 0.000009 -0.866055 -0.499948 0.000000 0.430420 0.500000 1 1 1.000000
1 -91.170504 -128.686234 -1.529278 -0.033539 -0.028351 -0.999035 0.430420 0.500000 1 1 1.000000
1 -92.054488 -129.427007 0.000008 -0.765974 -0.642871 0.000000 0.430420 0.500000 1 1 1.000000
2efb_kyj01_mesh1
1 -92.054488 -129.427007 0.000008 -0.765974 -0.642871 0.000000 0.430420 0.500000 1 1 1.000000
1 -91.170504 -128.686234 -1.529278 -0.033539 -0.028351 -0.999035 0.430420 0.500000 1 1 1.000000
1 -77.250121 -144.248203 0.000007 -0.642871 -0.765974 0.000000 0.430420 0.500000 1 1 1.000000
2efb_kyj01_mesh1
1 -91.170504 -128.686234 -1.529278 -0.033539 -0.028351 -0.999035 0.430420 0.500000 1 1 1.000000
1 -76.510100 -143.366288 -1.526499 -0.028685 -0.034165 -0.999004 0.430420 0.500000 1 1 1.000000
1 -77.250121 -144.248203 0.000007 -0.642871 -0.765974 0.000000 0.430420 0.500000 1 1 1.000000
2efb_kyj01_mesh1
1 -77.250121 -144.248203 0.000007 -0.642871 -0.765974 0.000000 0.430420 0.500000 1 1 1.000000
1 -76.510100 -143.366288 -1.526499 -0.028685 -0.034165 -0.999004 0.430420 0.500000 1 1 1.000000
1 -59.507312 -155.254800 -1.529286 -0.022095 -0.037934 -0.999036 0.430420 0.500000 1 1 1.000000
2efb_kyj01_mesh1
1 -76.510100 -143.366288 -1.526499 -0.028685 -0.034165 -0.999004 0.430420 0.500000 1 1 1.000000
1 -58.931313 -154.255655 0.000005 0.499948 0.866055 -0.000000 0.430420 0.500000 1 1 1.000000
1 -59.507312 -155.254800 -1.529286 -0.022095 -0.037934 -0.999036 0.430420 0.500000 1 1 1.000000
2efb_kyj01_mesh1
1 -59.507312 -155.254800 -1.529286 -0.022095 -0.037934 -0.999036 0.430420 0.500000 1 1 1.000000
1 -58.931313 -154.255655 0.000005 0.499948 0.866055 -0.000000 0.430420 0.500000 1 1 1.000000
1 -40.710158 -164.035371 -1.532072 -0.015258 -0.041920 -0.999004 0.430420 0.500000 1 1 1.000000
2efb_kyj01_mesh1
1 -58.931313 -154.255655 0.000005 0.499948 0.866055 -0.000000 0.430420 0.500000 1 1 1.000000
1 -40.314923 -162.949443 0.000004 0.341900 0.939736 -0.000000 0.430420 0.500000 1 1 1.000000
1 -40.710158 -164.035371 -1.532072 -0.015258 -0.041920 -0.999004 0.430420 0.500000 1 1 1.000000
2efb_kyj01_mesh1
1 -40.710158 -164.035371 -1.532072 -0.015258 -0.041920 -0.999004 0.430420 0.500000 1 1 1.000000
1 -40.314923 -162.949443 0.000004 0.341900 0.939736 -0.000000 0.430420 0.500000 1 1 1.000000
1 -20.465670 -168.255994 0.000002 0.173778 0.984785 -0.000000 0.430420 0.500000 1 1 1.000000
2efb_kyj01_mesh1
1 -40.314923 -162.949443 0.000004 0.341900 0.939736 -0.000000 0.430420 0.500000 1 1 1.000000
1 -20.666663 -169.391639 1.529356 -0.007465 -0.043274 0.999035 0.430420 0.500000 1 1 1.000000
1 -20.465670 -168.255994 0.000002 0.173778 0.984785 -0.000000 0.430420 0.500000 1 1 1.000000
2efb_kyj01_mesh1
1 -20.465670 -168.255994 0.000002 0.173778 0.984785 -0.000000 0.430420 0.500000 1 1 1.000000
1 -20.666663 -169.391639 1.529356 -0.007465 -0.043274 0.999035 0.430420 0.500000 1 1 1.000000
1 0.000021 -170.062443 -0.000000 -0.000000 1.000000 0.000000 0.430420 0.500000 1 1 1.000000
2efb_kyj01_mesh1
1 -20.666663 -169.391639 1.529356 -0.007465 -0.043274 0.999035 0.430420 0.500000 1 1 1.000000
1 0.000021 -171.213691 1.526569 0.000000 -0.044638 0.999003 0.430420 0.500000 1 1 1.000000
1 0.000021 -170.062443 -0.000000 -0.000000 1.000000 0.000000 0.430420 0.500000 1 1 1.000000
2efb_kyj01_mesh1
1 0.000021 -170.062443 -0.000000 -0.000000 1.000000 0.000000 0.430420 0.500000 1 1 1.000000
1 0.000021 -171.213691 1.526569 0.000000 -0.044638 0.999003 0.430420 0.500000 1 1 1.000000
1 20.666689 -169.391636 1.529347 0.007466 -0.043274 0.999035 0.430420 0.500000 1 1 1.000000
2efb_kyj01_mesh1
1 0.000021 -171.213691 1.526569 0.000000 -0.044638 0.999003 0.430420 0.500000 1 1 1.000000
1 20.867689 -170.527311 -0.000002 0.173542 -0.984827 -0.000000 0.430420 0.500000 1 1 1.000000
1 20.666689 -169.391636 1.529347 0.007466 -0.043274 0.999035 0.430420 0.500000 1 1 1.000000
2efb_kyj01_mesh1
1 20.666689 -169.391636 1.529347 0.007466 -0.043274 0.999035 0.430420 0.500000 1 1 1.000000
1 20.867689 -170.527311 -0.000002 0.173542 -0.984827 -0.000000 0.430420 0.500000 1 1 1.000000
1 40.710193 -164.035376 1.532126 0.015258 -0.041920 0.999004 0.430420 0.500000 1 1 1.000000
2efb_kyj01_mesh1
1 20.867689 -170.527311 -0.000002 0.173542 -0.984827 -0.000000 0.430420 0.500000 1 1 1.000000
1 41.105447 -165.121328 -0.000004 0.341900 -0.939736 -0.000000 0.430420 0.500000 1 1 1.000000
1 40.710193 -164.035376 1.532126 0.015258 -0.041920 0.999004 0.430420 0.500000 1 1 1.000000
2efb_kyj01_mesh1
1 40.710193 -164.035376 1.532126 0.015258 -0.041920 0.999004 0.430420 0.500000 1 1 1.000000
1 41.105447 -165.121328 -0.000004 0.341900 -0.939736 -0.000000 0.430420 0.500000 1 1 1.000000
1 60.083361 -156.253970 -0.000005 0.500131 -0.865950 -0.000000 0.430420 0.500000 1 1 1.000000
2efb_kyj01_mesh1
1 41.105447 -165.121328 -0.000004 0.341900 -0.939736 -0.000000 0.430420 0.500000 1 1 1.000000
1 59.507350 -155.254795 -1.529310 0.022095 -0.037964 -0.999035 0.430420 0.500000 1 1 1.000000
1 60.083361 -156.253970 -0.000005 0.500131 -0.865950 -0.000000 0.430420 0.500000 1 1 1.000000
2efb_kyj01_mesh1
1 60.083361 -156.253970 -0.000005 0.500131 -0.865950 -0.000000 0.430420 0.500000 1 1 1.000000
1 59.507350 -155.254795 -1.529310 0.022095 -0.037964 -0.999035 0.430420 0.500000 1 1 1.000000
1 77.250141 -144.248206 -0.000007 0.642871 -0.765974 -0.000000 0.430420 0.500000 1 1 1.000000
2efb_kyj01_mesh1
1 59.507350 -155.254795 -1.529310 0.022095 -0.037964 -0.999035 0.430420 0.500000 1 1 1.000000
1 76.510124 -143.366274 -1.526531 0.028685 -0.034165 -0.999004 0.430420 0.500000 1 1 1.000000
1 77.250141 -144.248206 -0.000007 0.642871 -0.765974 -0.000000 0.430420 0.500000 1 1 1.000000
2efb_kyj01_mesh1
1 77.250141 -144.248206 -0.000007 0.642871 -0.765974 -0.000000 0.430420 0.500000 1 1 1.000000
1 76.510124 -143.366274 -1.526531 0.028685 -0.034165 -0.999004 0.430420 0.500000 1 1 1.000000
1 91.170532 -128.686218 -1.529315 0.033539 -0.028351 -0.999035 0.430420 0.500000 1 1 1.000000
2efb_kyj01_mesh1
1 76.510124 -143.366274 -1.526531 0.028685 -0.034165 -0.999004 0.430420 0.500000 1 1 1.000000
1 90.286565 -127.945470 -0.000008 -0.765974 0.642871 0.000000 0.430420 0.500000 1 1 1.000000
1 91.170532 -128.686218 -1.529315 0.033539 -0.028351 -0.999035 0.430420 0.500000 1 1 1.000000
2efb_kyj01_mesh1
1 91.170532 -128.686218 -1.529315 0.033539 -0.028351 -0.999035 0.430420 0.500000 1 1 1.000000
1 90.286565 -127.945470 -0.000008 -0.765974 0.642871 0.000000 0.430420 0.500000 1 1 1.000000
1 103.081812 -111.699380 -1.532099 0.038623 -0.022304 -0.999005 0.430420 0.500000 1 1 1.000000
2efb_kyj01_mesh1
1 90.286565 -127.945470 -0.000008 -0.765974 0.642871 0.000000 0.430420 0.500000 1 1 1.000000
1 102.081000 -111.121570 -0.000009 -0.865950 0.500131 0.000000 0.430420 0.500000 1 1 1.000000
1 103.081812 -111.699380 -1.532099 0.038623 -0.022304 -0.999005 0.430420 0.500000 1 1 1.000000
2efb_kyj01_mesh1
1 103.081812 -111.699380 -1.532099 0.038623 -0.022304 -0.999005 0.430420 0.500000 1 1 1.000000
1 102.081000 -111.121570 -0.000009 -0.865950 0.500131 0.000000 0.430420 0.500000 1 1 1.000000
1 110.753712 -92.495356 -0.000010 -0.939658 0.342115 0.000000 0.430420 0.500000 1 1 1.000000
2efb_kyj01_mesh1
1 102.081000 -111.121570 -0.000009 -0.865950 0.500131 0.000000 0.430420 0.500000 1 1 1.000000
1 111.837211 -92.890499 1.529333 0.041321 -0.014870 0.999035 0.430420 0.500000 1 1 1.000000
1 110.753712 -92.495356 -0.000010 -0.939658 0.342115 0.000000 0.430420 0.500000 1 1 1.000000
2efb_kyj01_mesh1
1 110.753712 -92.495356 -0.000010 -0.939658 0.342115 0.000000 0.430420 0.500000 1 1 1.000000
1 111.837211 -92.890499 1.529333 0.041321 -0.014870 0.999035 0.430420 0.500000 1 1 1.000000
1 116.086547 -72.654284 -0.000010 -0.984806 0.173660 0.000000 0.430420 0.500000 1 1 1.000000
2efb_kyj01_mesh1
1 111.837211 -92.890499 1.529333 0.041321 -0.014870 0.999035 0.430420 0.500000 1 1 1.000000
1 117.220308 -72.854194 1.526550 0.043936 -0.007747 0.999004 0.430420 0.500000 1 1 1.000000
1 116.086547 -72.654284 -0.000010 -0.984806 0.173660 0.000000 0.430420 0.500000 1 1 1.000000
2efb_kyj01_mesh1
1 116.086547 -72.654284 -0.000010 -0.984806 0.173660 0.000000 0.430420 0.500000 1 1 1.000000
1 117.220308 -72.854194 1.526550 0.043936 -0.007747 0.999004 0.430420 0.500000 1 1 1.000000
1 119.014696 -52.185048 1.529334 0.043915 0.000000 0.999035 0.430420 0.500000 1 1 1.000000
2efb_kyj01_mesh1
1 117.220308 -72.854194 1.526550 0.043936 -0.007747 0.999004 0.430420 0.500000 1 1 1.000000
1 120.168010 -52.185048 -0.000011 1.000000 0.000000 -0.000000 0.430420 0.500000 1 1 1.000000
1 119.014696 -52.185048 1.529334 0.043915 0.000000 0.999035 0.430420 0.500000 1 1 1.000000
2efb_kyj01_mesh1
1 119.014696 -52.185048 1.529334 0.043915 0.000000 0.999035 0.430420 0.500000 1 1 1.000000
1 120.168010 -52.185048 -0.000011 1.000000 0.000000 -0.000000 0.430420 0.500000 1 1 1.000000
1 117.220328 -31.515997 1.532118 0.043936 0.007747 0.999004 0.430420 0.500000 1 1 1.000000
2efb_kyj01_mesh1
1 120.168010 -52.185048 -0.000011 1.000000 0.000000 -0.000000 0.430420 0.500000 1 1 1.000000
1 118.358427 -31.315324 -0.000010 0.984806 0.173660 -0.000000 0.430420 0.500000 1 1 1.000000
1 117.220328 -31.515997 1.532118 0.043936 0.007747 0.999004 0.430420 0.500000 1 1 1.000000
2efb_kyj01_mesh1
1 117.220328 -31.515997 1.532118 0.043936 0.007747 0.999004 0.430420 0.500000 1 1 1.000000
1 118.358427 -31.315324 -0.000010 0.984806 0.173660 -0.000000 0.430420 0.500000 1 1 1.000000
1 112.921258 -11.085921 -0.000010 0.939658 0.342116 -0.000000 0.430420 0.500000 1 1 1.000000
2efb_kyj01_mesh1
1 118.358427 -31.315324 -0.000010 0.984806 0.173660 -0.000000 0.430420 0.500000 1 1 1.000000
1 111.837233 -11.479680 -1.529313 0.041199 0.015175 -0.999036 0.430420 0.500000 1 1 1.000000
1 112.921258 -11.085921 -0.000010 0.939658 0.342116 -0.000000 0.430420 0.500000 1 1 1.000000
2efb_kyj01_mesh1
1 112.921258 -11.085921 -0.000010 0.939658 0.342116 -0.000000 0.430420 0.500000 1 1 1.000000
1 111.837233 -11.479680 -1.529313 0.041199 0.015175 -0.999036 0.430420 0.500000 1 1 1.000000
1 104.078880 7.904842 -0.000009 0.866055 0.499948 -0.000000 0.430420 0.500000 1 1 1.000000
2efb_kyj01_mesh1
1 111.837233 -11.479680 -1.529313 0.041199 0.015175 -0.999036 0.430420 0.500000 1 1 1.000000
1 103.081838 7.329218 -1.526527 0.038623 0.022304 -0.999005 0.430420 0.500000 1 1 1.000000
1 104.078880 7.904842 -0.000009 0.866055 0.499948 -0.000000 0.430420 0.500000 1 1 1.000000
2efb_kyj01_mesh1
1 104.078880 7.904842 -0.000009 0.866055 0.499948 -0.000000 0.430420 0.500000 1 1 1.000000
1 103.081838 7.329218 -1.526527 0.038623 0.022304 -0.999005 0.430420 0.500000 1 1 1.000000
1 91.170570 24.316060 -1.529306 0.033753 0.028107 -0.999035 0.430420 0.500000 1 1 1.000000
2efb_kyj01_mesh1
1 103.081838 7.329218 -1.526527 0.038623 0.022304 -0.999005 0.430420 0.500000 1 1 1.000000
1 90.287578 23.574167 -0.000008 -0.765974 -0.642871 0.000000 0.430420 0.500000 1 1 1.000000
1 91.170570 24.316060 -1.529306 0.033753 0.028107 -0.999035 0.430420 0.500000 1 1 1.000000
2efb_kyj01_mesh1
1 91.170570 24.316060 -1.529306 0.033753 0.028107 -0.999035 0.430420 0.500000 1 1 1.000000
1 90.287578 23.574167 -0.000008 -0.765974 -0.642871 0.000000 0.430420 0.500000 1 1 1.000000
1 76.510173 38.996110 -1.532085 0.028669 0.034165 -0.999005 0.430420 0.500000 1 1 1.000000
2efb_kyj01_mesh1
1 90.287578 23.574167 -0.000008 -0.765974 -0.642871 0.000000 0.430420 0.500000 1 1 1.000000
1 75.767360 38.110855 -0.000007 -0.642871 -0.765974 0.000000 0.430420 0.500000 1 1 1.000000
1 76.510173 38.996110 -1.532085 0.028669 0.034165 -0.999005 0.430420 0.500000 1 1 1.000000
2efb_kyj01_mesh1
1 76.510173 38.996110 -1.532085 0.028669 0.034165 -0.999005 0.430420 0.500000 1 1 1.000000
1 75.767360 38.110855 -0.000007 -0.642871 -0.765974 0.000000 0.430420 0.500000 1 1 1.000000
1 58.930113 49.886226 -0.000005 -0.500131 -0.865950 0.000000 0.430420 0.500000 1 1 1.000000
2efb_kyj01_mesh1
1 75.767360 38.110855 -0.000007 -0.642871 -0.765974 0.000000 0.430420 0.500000 1 1 1.000000
1 59.507400 50.884634 1.529352 0.021820 0.038117 0.999035 0.430420 0.500000 1 1 1.000000
1 58.930113 49.886226 -0.000005 -0.500131 -0.865950 0.000000 0.430420 0.500000 1 1 1.000000
2efb_kyj01_mesh1
1 58.930113 49.886226 -0.000005 -0.500131 -0.865950 0.000000 0.430420 0.500000 1 1 1.000000
1 59.507400 50.884634 1.529352 0.021820 0.038117 0.999035 0.430420 0.500000 1 1 1.000000
1 40.316506 58.583423 -0.000004 -0.341900 -0.939736 0.000000 0.430420 0.500000 1 1 1.000000
2efb_kyj01_mesh1
1 59.507400 50.884634 1.529352 0.021820 0.038117 0.999035 0.430420 0.500000 1 1 1.000000
1 40.710253 59.665242 1.526574 0.015266 0.041920 0.999004 0.430420 0.500000 1 1 1.000000
1 40.316506 58.583423 -0.000004 -0.341900 -0.939736 0.000000 0.430420 0.500000 1 1 1.000000
2efb_kyj01_mesh1
1 40.316506 58.583423 -0.000004 -0.341900 -0.939736 0.000000 0.430420 0.500000 1 1 1.000000
1 40.710253 59.665242 1.526574 0.015266 0.041920 0.999004 0.430420 0.500000 1 1 1.000000
1 20.666738 65.021498 1.529361 0.007786 0.043213 0.999036 0.430420 0.500000 1 1 1.000000
2efb_kyj01_mesh1
1 40.710253 59.665242 1.526574 0.015266 0.041920 0.999004 0.430420 0.500000 1 1 1.000000
1 20.866286 66.157434 -0.000002 0.173778 0.984785 -0.000000 0.430420 0.500000 1 1 1.000000
1 20.666738 65.021498 1.529361 0.007786 0.043213 0.999036 0.430420 0.500000 1 1 1.000000
2efb_kyj01_mesh1
1 20.666738 65.021498 1.529361 0.007786 0.043213 0.999036 0.430420 0.500000 1 1 1.000000
1 20.866286 66.157434 -0.000002 0.173778 0.984785 -0.000000 0.430420 0.500000 1 1 1.000000
1 -0.000000 67.999214 -0.000000 -0.000000 1.000000 0.000000 0.430420 0.500000 1 1 1.000000
2efb_kyj01_mesh1
1 20.866286 66.157434 -0.000002 0.173778 0.984785 -0.000000 0.430420 0.500000 1 1 1.000000
1 -0.000000 66.843561 -1.532067 -0.000000 0.044607 -0.999005 0.430420 0.500000 1 1 1.000000
1 -0.000000 67.999214 -0.000000 -0.000000 1.000000 0.000000 0.430420 0.500000 1 1 1.000000
2efb_kyj01_mesh1
1 -0.000000 67.999214 -0.000000 -0.000000 1.000000 0.000000 0.430420 0.500000 1 1 1.000000
1 -0.000000 66.843561 -1.532067 -0.000000 0.044607 -0.999005 0.430420 0.500000 1 1 1.000000
1 -20.666668 65.021506 -1.529280 -0.007786 0.043213 -0.999036 0.430420 0.500000 1 1 1.000000
2efb_kyj01_mesh1
1 -0.000000 66.843561 -1.532067 -0.000000 0.044607 -0.999005 0.430420 0.500000 1 1 1.000000
1 -20.467121 63.885619 0.000002 0.173542 -0.984827 -0.000000 0.430420 0.500000 1 1 1.000000
1 -20.666668 65.021506 -1.529280 -0.007786 0.043213 -0.999036 0.430420 0.500000 1 1 1.000000
2efb_kyj01_mesh1
1 -20.666668 65.021506 -1.529280 -0.007786 0.043213 -0.999036 0.430420 0.500000 1 1 1.000000
1 -20.467121 63.885619 0.000002 0.173542 -0.984827 -0.000000 0.430420 0.500000 1 1 1.000000
1 -40.710189 59.665247 -1.526494 -0.015258 0.041920 -0.999004 0.430420 0.500000 1 1 1.000000
2efb_kyj01_mesh1
1 -20.467121 63.885619 0.000002 0.173542 -0.984827 -0.000000 0.430420 0.500000 1 1 1.000000
1 -40.316436 58.583440 0.000004 0.341900 -0.939736 -0.000000 0.430420 0.500000 1 1 1.000000
1 -40.710189 59.665247 -1.526494 -0.015258 0.041920 -0.999004 0.430420 0.500000 1 1 1.000000
2efb_kyj01_mesh1
1 -40.710189 59.665247 -1.526494 -0.015258 0.041920 -0.999004 0.430420 0.500000 1 1 1.000000
1 -40.316436 58.583440 0.000004 0.341900 -0.939736 -0.000000 0.430420 0.500000 1 1 1.000000
1 -58.930042 49.886264 0.000005 0.500131 -0.865950 -0.000000 0.430420 0.500000 1 1 1.000000
2efb_kyj01_mesh1
1 -40.316436 58.583440 0.000004 0.341900 -0.939736 -0.000000 0.430420 0.500000 1 1 1.000000
1 -59.507342 50.884672 1.529377 -0.021820 0.038117 0.999035 0.430420 0.500000 1 1 1.000000
1 -58.930042 49.886264 0.000005 0.500131 -0.865950 -0.000000 0.430420 0.500000 1 1 1.000000
2efb_kyj01_mesh1
1 -58.930042 49.886264 0.000005 0.500131 -0.865950 -0.000000 0.430420 0.500000 1 1 1.000000
1 -59.507342 50.884672 1.529377 -0.021820 0.038117 0.999035 0.430420 0.500000 1 1 1.000000
1 -75.767300 38.110894 0.000007 0.642871 -0.765974 -0.000000 0.430420 0.500000 1 1 1.000000
2efb_kyj01_mesh1
1 -59.507342 50.884672 1.529377 -0.021820 0.038117 0.999035 0.430420 0.500000 1 1 1.000000
1 -76.510116 38.996151 1.532162 -0.028669 0.034165 0.999005 0.430420 0.500000 1 1 1.000000
1 -75.767300 38.110894 0.000007 0.642871 -0.765974 -0.000000 0.430420 0.500000 1 1 1.000000
2efb_kyj01_mesh1
1 -75.767300 38.110894 0.000007 0.642871 -0.765974 -0.000000 0.430420 0.500000 1 1 1.000000
1 -76.510116 38.996151 1.532162 -0.028669 0.034165 0.999005 0.430420 0.500000 1 1 1.000000
1 -91.170523 24.316089 1.529382 -0.033753 0.028107 0.999035 0.430420 0.500000 1 1 1.000000
2efb_kyj01_mesh1
1 -76.510116 38.996151 1.532162 -0.028669 0.034165 0.999005 0.430420 0.500000 1 1 1.000000
1 -92.053543 25.058003 0.000008 -0.765974 0.642871 0.000000 0.430420 0.500000 1 1 1.000000
1 -91.170523 24.316089 1.529382 -0.033753 0.028107 0.999035 0.430420 0.500000 1 1 1.000000
2efb_kyj01_mesh1
1 -91.170523 24.316089 1.529382 -0.033753 0.028107 0.999035 0.430420 0.500000 1 1 1.000000
1 -92.053543 25.058003 0.000008 -0.765974 0.642871 0.000000 0.430420 0.500000 1 1 1.000000
1 -103.081804 7.329240 1.526601 -0.038653 0.022304 0.999004 0.430420 0.500000 1 1 1.000000
2efb_kyj01_mesh1
1 -92.053543 25.058003 0.000008 -0.765974 0.642871 0.000000 0.430420 0.500000 1 1 1.000000
1 -104.078822 7.904867 0.000009 -0.865950 0.500131 0.000000 0.430420 0.500000 1 1 1.000000
1 -103.081804 7.329240 1.526601 -0.038653 0.022304 0.999004 0.430420 0.500000 1 1 1.000000
2efb_kyj01_mesh1
1 -103.081804 7.329240 1.526601 -0.038653 0.022304 0.999004 0.430420 0.500000 1 1 1.000000
1 -104.078822 7.904867 0.000009 -0.865950 0.500131 0.000000 0.430420 0.500000 1 1 1.000000
1 -112.921220 -11.085884 0.000010 -0.939658 0.342115 0.000000 0.430420 0.500000 1 1 1.000000
2efb_kyj01_mesh1
1 -104.078822 7.904867 0.000009 -0.865950 0.500131 0.000000 0.430420 0.500000 1 1 1.000000
1 -111.837214 -11.479654 -1.529266 -0.041230 0.015175 -0.999034 0.430420 0.500000 1 1 1.000000
1 -112.921220 -11.085884 0.000010 -0.939658 0.342115 0.000000 0.430420 0.500000 1 1 1.000000
2efb_kyj01_mesh1
1 -112.921220 -11.085884 0.000010 -0.939658 0.342115 0.000000 0.430420 0.500000 1 1 1.000000
1 -111.837214 -11.479654 -1.529266 -0.041230 0.015175 -0.999034 0.430420 0.500000 1 1 1.000000
1 -118.358398 -31.315281 0.000010 -0.984806 0.173660 0.000000 0.430420 0.500000 1 1 1.000000
2efb_kyj01_mesh1
1 -111.837214 -11.479654 -1.529266 -0.041230 0.015175 -0.999034 0.430420 0.500000 1 1 1.000000
1 -117.220287 -31.515967 -1.532049 -0.043936 0.007747 -0.999004 0.430420 0.500000 1 1 1.000000
1 -118.358398 -31.315281 0.000010 -0.984806 0.173660 0.000000 0.430420 0.500000 1 1 1.000000
2efb_kyj01_mesh1
1 -118.358398 -31.315281 0.000010 -0.984806 0.173660 0.000000 0.430420 0.500000 1 1 1.000000
1 -117.220287 -31.515967 -1.532049 -0.043936 0.007747 -0.999004 0.430420 0.500000 1 1 1.000000
1 -119.014664 -52.185069 -1.529267 -0.043915 -0.000000 -0.999035 0.430420 0.500000 1 1 1.000000
2efb_kyj01_mesh1
1 -117.220287 -31.515967 -1.532049 -0.043936 0.007747 -0.999004 0.430420 0.500000 1 1 1.000000
1 -117.861362 -52.185069 0.000010 1.000000 0.000000 -0.000000 0.430420 0.500000 1 1 1.000000
1 -119.014664 -52.185069 -1.529267 -0.043915 -0.000000 -0.999035 0.430420 0.500000 1 1 1.000000
2efb_kyj01_mesh1
1 -119.014664 -52.185069 -1.529267 -0.043915 -0.000000 -0.999035 0.430420 0.500000 1 1 1.000000
1 -117.861362 -52.185069 0.000010 1.000000 0.000000 -0.000000 0.430420 0.500000 1 1 1.000000
1 -117.220283 -72.854175 -1.526486 -0.043936 -0.007747 -0.999004 0.430420 0.500000 1 1 1.000000
2efb_kyj01_mesh1
1 -117.861362 -52.185069 0.000010 1.000000 0.000000 -0.000000 0.430420 0.500000 1 1 1.000000
1 -116.086547 -72.654256 0.000010 0.984806 0.173660 -0.000000 0.430420 0.500000 1 1 1.000000
1 -117.220283 -72.854175 -1.526486 -0.043936 -0.007747 -0.999004 0.430420 0.500000 1 1 1.000000
2efb_kyj01_mesh1
1 -117.220283 -72.854175 -1.526486 -0.043936 -0.007747 -0.999004 0.430420 0.500000 1 1 1.000000
1 -116.086547 -72.654256 0.000010 0.984806 0.173660 -0.000000 0.430420 0.500000 1 1 1.000000
1 -110.753721 -92.495333 0.000010 0.939658 0.342116 -0.000000 0.430420 0.500000 1 1 1.000000
2efb_kyj01_mesh1
1 -116.086547 -72.654256 0.000010 0.984806 0.173660 -0.000000 0.430420 0.500000 1 1 1.000000
1 -111.837207 -92.890483 1.529379 -0.041321 -0.014870 0.999035 0.430420 0.500000 1 1 1.000000
1 -110.753721 -92.495333 0.000010 0.939658 0.342116 -0.000000 0.430420 0.500000 1 1 1.000000
2efb_kyj01_mesh1
1 -110.753721 -92.495333 0.000010 0.939658 0.342116 -0.000000 0.430420 0.500000 1 1 1.000000
1 -111.837207 -92.890483 1.529379 -0.041321 -0.014870 0.999035 0.430420 0.500000 1 1 1.000000
1 -102.080993 -111.121565 0.000009 0.865950 0.500131 -0.000000 0.430420 0.500000 1 1 1.000000
2efb_kyj01_mesh1
1 -111.837207 -92.890483 1.529379 -0.041321 -0.014870 0.999035 0.430420 0.500000 1 1 1.000000
1 -103.081793 -111.699375 1.532158 -0.038623 -0.022304 0.999005 0.430420 0.500000 1 1 1.000000
1 -102.080993 -111.121565 0.000009 0.865950 0.500131 -0.000000 0.430420 0.500000 1 1 1.000000
2efb_kyj01_mesh1
1 -102.080993 -111.121565 0.000009 0.865950 0.500131 -0.000000 0.430420 0.500000 1 1 1.000000
1 -103.081793 -111.699375 1.532158 -0.038623 -0.022304 0.999005 0.430420 0.500000 1 1 1.000000
1 -91.170510 -128.686230 1.529373 -0.033539 -0.028351 0.999035 0.430420 0.500000 1 1 1.000000
2efb_kyj01_mesh1
1 -103.081793 -111.699375 1.532158 -0.038623 -0.022304 0.999005 0.430420 0.500000 1 1 1.000000
1 -92.054488 -129.427007 0.000008 -0.765974 -0.642871 0.000000 0.430420 0.500000 1 1 1.000000
1 -91.170510 -128.686230 1.529373 -0.033539 -0.028351 0.999035 0.430420 0.500000 1 1 1.000000
2efb_kyj01_mesh1
1 -91.170510 -128.686230 1.529373 -0.033539 -0.028351 0.999035 0.430420 0.500000 1 1 1.000000
1 -92.054488 -129.427007 0.000008 -0.765974 -0.642871 0.000000 0.430420 0.500000 1 1 1.000000
1 -76.510100 -143.366288 1.526586 -0.028685 -0.034165 0.999004 0.430420 0.500000 1 1 1.000000
2efb_kyj01_mesh1
1 -92.054488 -129.427007 0.000008 -0.765974 -0.642871 0.000000 0.430420 0.500000 1 1 1.000000
1 -77.250121 -144.248203 0.000007 -0.642871 -0.765974 0.000000 0.430420 0.500000 1 1 1.000000
1 -76.510100 -143.366288 1.526586 -0.028685 -0.034165 0.999004 0.430420 0.500000 1 1 1.000000
2efb_kyj01_mesh1
1 -76.510100 -143.366288 1.526586 -0.028685 -0.034165 0.999004 0.430420 0.500000 1 1 1.000000
1 -77.250121 -144.248203 0.000007 -0.642871 -0.765974 0.000000 0.430420 0.500000 1 1 1.000000
1 -60.083340 -156.253981 0.000005 -0.500131 -0.865950 0.000000 0.430420 0.500000 1 1 1.000000
2efb_kyj01_mesh1
1 -77.250121 -144.248203 0.000007 -0.642871 -0.765974 0.000000 0.430420 0.500000 1 1 1.000000
1 -59.507312 -155.254800 -1.529286 -0.022095 -0.037934 -0.999036 0.430420 0.500000 1 1 1.000000
1 -60.083340 -156.253981 0.000005 -0.500131 -0.865950 0.000000 0.430420 0.500000 1 1 1.000000
2efb_kyj01_mesh1
1 -60.083340 -156.253981 0.000005 -0.500131 -0.865950 0.000000 0.430420 0.500000 1 1 1.000000
1 -59.507312 -155.254800 -1.529286 -0.022095 -0.037934 -0.999036 0.430420 0.500000 1 1 1.000000
1 -41.105426 -165.121335 0.000004 -0.341900 -0.939736 0.000000 0.430420 0.500000 1 1 1.000000
2efb_kyj01_mesh1
1 -59.507312 -155.254800 -1.529286 -0.022095 -0.037934 -0.999036 0.430420 0.500000 1 1 1.000000
1 -40.710158 -164.035371 -1.532072 -0.015258 -0.041920 -0.999004 0.430420 0.500000 1 1 1.000000
1 -41.105426 -165.121335 0.000004 -0.341900 -0.939736 0.000000 0.430420 0.500000 1 1 1.000000
2efb_kyj01_mesh1
1 -41.105426 -165.121335 0.000004 -0.341900 -0.939736 0.000000 0.430420 0.500000 1 1 1.000000
1 -40.710158 -164.035371 -1.532072 -0.015258 -0.041920 -0.999004 0.430420 0.500000 1 1 1.000000
1 -20.666658 -169.391639 -1.529294 -0.007466 -0.043274 -0.999035 0.430420 0.500000 1 1 1.000000
2efb_kyj01_mesh1
1 -40.710158 -164.035371 -1.532072 -0.015258 -0.041920 -0.999004 0.430420 0.500000 1 1 1.000000
1 -20.465670 -168.255994 0.000002 0.173778 0.984785 -0.000000 0.430420 0.500000 1 1 1.000000
1 -20.666658 -169.391639 -1.529294 -0.007466 -0.043274 -0.999035 0.430420 0.500000 1 1 1.000000
2efb_kyj01_mesh1
1 -20.666658 -169.391639 -1.529294 -0.007466 -0.043274 -0.999035 0.430420 0.500000 1 1 1.000000
1 -20.465670 -168.255994 0.000002 0.173778 0.984785 -0.000000 0.430420 0.500000 1 1 1.000000
1 0.000020 -171.213678 -1.526517 -0.000000 -0.044607 -0.999005 0.430420 0.500000 1 1 1.000000
2efb_kyj01_mesh1
1 -20.465670 -168.255994 0.000002 0.173778 0.984785 -0.000000 0.430420 0.500000 1 1 1.000000
1 0.000021 -170.062443 -0.000000 -0.000000 1.000000 0.000000 0.430420 0.500000 1 1 1.000000
1 0.000020 -171.213678 -1.526517 -0.000000 -0.044607 -0.999005 0.430420 0.500000 1 1 1.000000
2efb_kyj01_mesh1
1 0.000020 -171.213678 -1.526517 -0.000000 -0.044607 -0.999005 0.430420 0.500000 1 1 1.000000
1 0.000021 -170.062443 -0.000000 -0.000000 1.000000 0.000000 0.430420 0.500000 1 1 1.000000
1 20.465692 -168.255990 -0.000002 -0.173778 0.984785 0.000000 0.430420 0.500000 1 1 1.000000
2efb_kyj01_mesh1
1 0.000021 -170.062443 -0.000000 -0.000000 1.000000 0.000000 0.430420 0.500000 1 1 1.000000
1 20.666689 -169.391636 1.529347 0.007466 -0.043274 0.999035 0.430420 0.500000 1 1 1.000000
1 20.465692 -168.255990 -0.000002 -0.173778 0.984785 0.000000 0.430420 0.500000 1 1 1.000000
2efb_kyj01_mesh1
1 20.465692 -168.255990 -0.000002 -0.173778 0.984785 0.000000 0.430420 0.500000 1 1 1.000000
1 20.666689 -169.391636 1.529347 0.007466 -0.043274 0.999035 0.430420 0.500000 1 1 1.000000
1 40.314941 -162.949448 -0.000004 -0.341900 0.939736 0.000000 0.430420 0.500000 1 1 1.000000
2efb_kyj01_mesh1
1 20.666689 -169.391636 1.529347 0.007466 -0.043274 0.999035 0.430420 0.500000 1 1 1.000000
1 40.710193 -164.035376 1.532126 0.015258 -0.041920 0.999004 0.430420 0.500000 1 1 1.000000
1 40.314941 -162.949448 -0.000004 -0.341900 0.939736 0.000000 0.430420 0.500000 1 1 1.000000
2efb_kyj01_mesh1
1 40.314941 -162.949448 -0.000004 -0.341900 0.939736 0.000000 0.430420 0.500000 1 1 1.000000
1 40.710193 -164.035376 1.532126 0.015258 -0.041920 0.999004 0.430420 0.500000 1 1 1.000000
1 59.507338 -155.254795 1.529340 0.022095 -0.037964 0.999035 0.430420 0.500000 1 1 1.000000
2efb_kyj01_mesh1
1 40.710193 -164.035376 1.532126 0.015258 -0.041920 0.999004 0.430420 0.500000 1 1 1.000000
1 60.083361 -156.253970 -0.000005 0.500131 -0.865950 -0.000000 0.430420 0.500000 1 1 1.000000
1 59.507338 -155.254795 1.529340 0.022095 -0.037964 0.999035 0.430420 0.500000 1 1 1.000000
2efb_kyj01_mesh1
1 59.507338 -155.254795 1.529340 0.022095 -0.037964 0.999035 0.430420 0.500000 1 1 1.000000
1 60.083361 -156.253970 -0.000005 0.500131 -0.865950 -0.000000 0.430420 0.500000 1 1 1.000000
1 76.510124 -143.366274 1.526555 0.028685 -0.034165 0.999004 0.430420 0.500000 1 1 1.000000
2efb_kyj01_mesh1
1 60.083361 -156.253970 -0.000005 0.500131 -0.865950 -0.000000 0.430420 0.500000 1 1 1.000000
1 77.250141 -144.248206 -0.000007 0.642871 -0.765974 -0.000000 0.430420 0.500000 1 1 1.000000
1 76.510124 -143.366274 1.526555 0.028685 -0.034165 0.999004 0.430420 0.500000 1 1 1.000000
2efb_kyj01_mesh1
1 76.510124 -143.366274 1.526555 0.028685 -0.034165 0.999004 0.430420 0.500000 1 1 1.000000
1 77.250141 -144.248206 -0.000007 0.642871 -0.765974 -0.000000 0.430420 0.500000 1 1 1.000000
1 92.054499 -129.427013 -0.000008 0.765974 -0.642871 -0.000000 0.430420 0.500000 1 1 1.000000
2efb_kyj01_mesh1
1 77.250141 -144.248206 -0.000007 0.642871 -0.765974 -0.000000 0.430420 0.500000 1 1 1.000000
1 91.170532 -128.686218 -1.529315 0.033539 -0.028351 -0.999035 0.430420 0.500000 1 1 1.000000
1 92.054499 -129.427013 -0.000008 0.765974 -0.642871 -0.000000 0.430420 0.500000 1 1 1.000000
2efb_kyj01_mesh1
1 92.054499 -129.427013 -0.000008 0.765974 -0.642871 -0.000000 0.430420 0.500000 1 1 1.000000
1 91.170532 -128.686218 -1.529315 0.033539 -0.028351 -0.999035 0.430420 0.500000 1 1 1.000000
1 104.082625 -112.277220 -0.000009 0.865950 -0.500131 -0.000000 0.430420 0.500000 1 1 1.000000
2efb_kyj01_mesh1
1 91.170532 -128.686218 -1.529315 0.033539 -0.028351 -0.999035 0.430420 0.500000 1 1 1.000000
1 103.081812 -111.699380 -1.532099 0.038623 -0.022304 -0.999005 0.430420 0.500000 1 1 1.000000
1 104.082625 -112.277220 -0.000009 0.865950 -0.500131 -0.000000 0.430420 0.500000 1 1 1.000000
2efb_kyj01_mesh1
1 104.082625 -112.277220 -0.000009 0.865950 -0.500131 -0.000000 0.430420 0.500000 1 1 1.000000
1 103.081812 -111.699380 -1.532099 0.038623 -0.022304 -0.999005 0.430420 0.500000 1 1 1.000000
1 111.837210 -92.890492 -1.529317 0.041321 -0.014870 -0.999035 0.430420 0.500000 1 1 1.000000
2efb_kyj01_mesh1
1 103.081812 -111.699380 -1.532099 0.038623 -0.022304 -0.999005 0.430420 0.500000 1 1 1.000000
1 110.753712 -92.495356 -0.000010 -0.939658 0.342115 0.000000 0.430420 0.500000 1 1 1.000000
1 111.837210 -92.890492 -1.529317 0.041321 -0.014870 -0.999035 0.430420 0.500000 1 1 1.000000
2efb_kyj01_mesh1
1 111.837210 -92.890492 -1.529317 0.041321 -0.014870 -0.999035 0.430420 0.500000 1 1 1.000000
1 110.753712 -92.495356 -0.000010 -0.939658 0.342115 0.000000 0.430420 0.500000 1 1 1.000000
1 117.220295 -72.854184 -1.526535 0.043935 -0.007747 -0.999004 0.430420 0.500000 1 1 1.000000
2efb_kyj01_mesh1
1 110.753712 -92.495356 -0.000010 -0.939658 0.342115 0.000000 0.430420 0.500000 1 1 1.000000
1 116.086547 -72.654284 -0.000010 -0.984806 0.173660 0.000000 0.430420 0.500000 1 1 1.000000
1 117.220295 -72.854184 -1.526535 0.043935 -0.007747 -0.999004 0.430420 0.500000 1 1 1.000000
2efb_kyj01_mesh1
1 117.220295 -72.854184 -1.526535 0.043935 -0.007747 -0.999004 0.430420 0.500000 1 1 1.000000
1 116.086547 -72.654284 -0.000010 -0.984806 0.173660 0.000000 0.430420 0.500000 1 1 1.000000
1 117.861382 -52.185048 -0.000010 -1.000000 -0.000000 0.000000 0.430420 0.500000 1 1 1.000000
2efb_kyj01_mesh1
1 116.086547 -72.654284 -0.000010 -0.984806 0.173660 0.000000 0.430420 0.500000 1 1 1.000000
1 119.014696 -52.185048 1.529334 0.043915 0.000000 0.999035 0.430420 0.500000 1 1 1.000000
1 117.861382 -52.185048 -0.000010 -1.000000 -0.000000 0.000000 0.430420 0.500000 1 1 1.000000
2efb_kyj01_mesh1
1 117.861382 -52.185048 -0.000010 -1.000000 -0.000000 0.000000 0.430420 0.500000 1 1 1.000000
1 119.014696 -52.185048 1.529334 0.043915 0.000000 0.999035 0.430420 0.500000 1 1 1.000000
1 116.082253 -31.716671 -0.000010 -0.984806 -0.173660 0.000000 0.430420 0.500000 1 1 1.000000
2efb_kyj01_mesh1
1 119.014696 -52.185048 1.529334 0.043915 0.000000 0.999035 0.430420 0.500000 1 1 1.000000
1 117.220328 -31.515997 1.532118 0.043936 0.007747 0.999004 0.430420 0.500000 1 1 1.000000
1 116.082253 -31.716671 -0.000010 -0.984806 -0.173660 0.000000 0.430420 0.500000 1 1 1.000000
2efb_kyj01_mesh1
1 116.082253 -31.716671 -0.000010 -0.984806 -0.173660 0.000000 0.430420 0.500000 1 1 1.000000
1 117.220328 -31.515997 1.532118 0.043936 0.007747 0.999004 0.430420 0.500000 1 1 1.000000
1 111.837240 -11.479686 1.529338 0.041230 0.015175 0.999034 0.430420 0.500000 1 1 1.000000
2efb_kyj01_mesh1
1 117.220328 -31.515997 1.532118 0.043936 0.007747 0.999004 0.430420 0.500000 1 1 1.000000
1 112.921258 -11.085921 -0.000010 0.939658 0.342116 -0.000000 0.430420 0.500000 1 1 1.000000
1 111.837240 -11.479686 1.529338 0.041230 0.015175 0.999034 0.430420 0.500000 1 1 1.000000
2efb_kyj01_mesh1
1 111.837240 -11.479686 1.529338 0.041230 0.015175 0.999034 0.430420 0.500000 1 1 1.000000
1 112.921258 -11.085921 -0.000010 0.939658 0.342116 -0.000000 0.430420 0.500000 1 1 1.000000
1 103.081850 7.329212 1.526558 0.038623 0.022304 0.999005 0.430420 0.500000 1 1 1.000000
2efb_kyj01_mesh1
1 112.921258 -11.085921 -0.000010 0.939658 0.342116 -0.000000 0.430420 0.500000 1 1 1.000000
1 104.078880 7.904842 -0.000009 0.866055 0.499948 -0.000000 0.430420 0.500000 1 1 1.000000
1 103.081850 7.329212 1.526558 0.038623 0.022304 0.999005 0.430420 0.500000 1 1 1.000000
2efb_kyj01_mesh1
1 103.081850 7.329212 1.526558 0.038623 0.022304 0.999005 0.430420 0.500000 1 1 1.000000
1 104.078880 7.904842 -0.000009 0.866055 0.499948 -0.000000 0.430420 0.500000 1 1 1.000000
1 92.053603 25.057967 -0.000008 0.765974 0.642871 -0.000000 0.430420 0.500000 1 1 1.000000
2efb_kyj01_mesh1
1 104.078880 7.904842 -0.000009 0.866055 0.499948 -0.000000 0.430420 0.500000 1 1 1.000000
1 91.170570 24.316060 -1.529306 0.033753 0.028107 -0.999035 0.430420 0.500000 1 1 1.000000
1 92.053603 25.057967 -0.000008 0.765974 0.642871 -0.000000 0.430420 0.500000 1 1 1.000000
2efb_kyj01_mesh1
1 92.053603 25.057967 -0.000008 0.765974 0.642871 -0.000000 0.430420 0.500000 1 1 1.000000
1 91.170570 24.316060 -1.529306 0.033753 0.028107 -0.999035 0.430420 0.500000 1 1 1.000000
1 77.253030 39.881402 -0.000007 0.642871 0.765974 -0.000000 0.430420 0.500000 1 1 1.000000
2efb_kyj01_mesh1
1 91.170570 24.316060 -1.529306 0.033753 0.028107 -0.999035 0.430420 0.500000 1 1 1.000000
1 76.510173 38.996110 -1.532085 0.028669 0.034165 -0.999005 0.430420 0.500000 1 1 1.000000
1 77.253030 39.881402 -0.000007 0.642871 0.765974 -0.000000 0.430420 0.500000 1 1 1.000000
2efb_kyj01_mesh1
1 77.253030 39.881402 -0.000007 0.642871 0.765974 -0.000000 0.430420 0.500000 1 1 1.000000
1 76.510173 38.996110 -1.532085 0.028669 0.034165 -0.999005 0.430420 0.500000 1 1 1.000000
1 59.507392 50.884634 -1.529298 0.021820 0.038117 -0.999035 0.430420 0.500000 1 1 1.000000
2efb_kyj01_mesh1
1 76.510173 38.996110 -1.532085 0.028669 0.034165 -0.999005 0.430420 0.500000 1 1 1.000000
1 58.930113 49.886226 -0.000005 -0.500131 -0.865950 0.000000 0.430420 0.500000 1 1 1.000000
1 59.507392 50.884634 -1.529298 0.021820 0.038117 -0.999035 0.430420 0.500000 1 1 1.000000
2efb_kyj01_mesh1
1 59.507392 50.884634 -1.529298 0.021820 0.038117 -0.999035 0.430420 0.500000 1 1 1.000000
1 58.930113 49.886226 -0.000005 -0.500131 -0.865950 0.000000 0.430420 0.500000 1 1 1.000000
1 40.710242 59.665230 -1.526511 0.015258 0.041920 -0.999004 0.430420 0.500000 1 1 1.000000
2efb_kyj01_mesh1
1 58.930113 49.886226 -0.000005 -0.500131 -0.865950 0.000000 0.430420 0.500000 1 1 1.000000
1 40.316506 58.583423 -0.000004 -0.341900 -0.939736 0.000000 0.430420 0.500000 1 1 1.000000
1 40.710242 59.665230 -1.526511 0.015258 0.041920 -0.999004 0.430420 0.500000 1 1 1.000000
2efb_kyj01_mesh1
1 40.710242 59.665230 -1.526511 0.015258 0.041920 -0.999004 0.430420 0.500000 1 1 1.000000
1 40.316506 58.583423 -0.000004 -0.341900 -0.939736 0.000000 0.430420 0.500000 1 1 1.000000
1 20.467201 63.885598 -0.000002 -0.173541 -0.984827 0.000000 0.430420 0.500000 1 1 1.000000
2efb_kyj01_mesh1
1 40.316506 58.583423 -0.000004 -0.341900 -0.939736 0.000000 0.430420 0.500000 1 1 1.000000
1 20.666738 65.021498 1.529361 0.007786 0.043213 0.999036 0.430420 0.500000 1 1 1.000000
1 20.467201 63.885598 -0.000002 -0.173541 -0.984827 0.000000 0.430420 0.500000 1 1 1.000000
2efb_kyj01_mesh1
1 20.467201 63.885598 -0.000002 -0.173541 -0.984827 0.000000 0.430420 0.500000 1 1 1.000000
1 20.666738 65.021498 1.529361 0.007786 0.043213 0.999036 0.430420 0.500000 1 1 1.000000
1 -0.000000 66.843561 1.532148 0.000000 0.044607 0.999005 0.430420 0.500000 1 1 1.000000
2efb_kyj01_mesh1
1 20.666738 65.021498 1.529361 0.007786 0.043213 0.999036 0.430420 0.500000 1 1 1.000000
1 -0.000000 67.999214 -0.000000 -0.000000 1.000000 0.000000 0.430420 0.500000 1 1 1.000000
1 -0.000000 66.843561 1.532148 0.000000 0.044607 0.999005 0.430420 0.500000 1 1 1.000000
end
