version 1
nodes
0 "root" -1
1 "draw1_0_2efb_kyj02_trall" 0
2 "draw1_1_2efb_kyj02_bone01" 0
3 "draw1_2_2efb_kyj02_bone02" 0
4 "draw1_3_2efb_kyj02_bone03" 0
end
skeleton
time 0
0 0.000000 0.000000 0.000000 0.000000 -0.000000 0.000000
1 -0.000000 0.000608 0.000106 -0.000000 0.000000 0.000000
2 -0.000000 0.000608 0.000106 -0.000000 0.000000 0.000000
3 0.000002 -18.571241 0.000107 -0.000000 0.000000 0.000000
4 0.000006 -63.126443 0.000109 -0.000000 0.000000 0.000000
time 1
0 0.000000 0.000000 0.000000 0.000000 -0.000000 0.000000
1 -0.000000 0.000608 0.000106 -0.000000 0.000000 0.000000
2 -0.000000 0.000608 0.000106 0.023842 0.000000 0.000000
3 0.000002 -18.565963 -0.442636 -0.000000 0.000000 0.000000
4 0.000006 -63.121165 -0.442634 -0.000000 0.000000 0.000000
time 2
0 0.000000 0.000000 0.000000 0.000000 -0.000000 0.000000
1 -0.000000 0.000608 0.000106 -0.000000 0.000000 0.000000
2 -0.000000 0.000608 0.000106 0.088806 0.000000 0.000000
3 0.000002 -18.498056 -1.647017 -0.000000 0.000000 0.000000
4 0.000006 -63.053258 -1.647016 -0.000000 0.000000 0.000000
time 3
0 0.000000 0.000000 0.000000 0.000000 -0.000000 0.000000
1 -0.000000 0.000608 0.000106 -0.000000 0.000000 0.000000
2 -0.000000 0.000608 0.000106 0.185530 0.000000 0.000000
3 0.000002 -18.252523 -3.425796 0.006170 0.000000 0.000000
4 0.000005 -62.806877 -3.700685 -0.000000 0.000000 0.000000
time 4
0 0.000000 0.000000 0.000000 0.000000 -0.000000 0.000000
1 -0.000000 0.000608 0.000106 -0.000000 0.000000 0.000000
2 -0.000000 0.000608 0.000106 0.305415 0.000000 0.000000
3 0.000002 -17.711775 -5.584252 0.051785 0.000000 0.000000
4 0.000005 -62.207249 -7.890508 -0.000000 0.000000 0.000000
time 5
0 0.000000 0.000000 0.000000 0.000000 -0.000000 0.000000
1 -0.000000 0.000608 0.000106 -0.000000 0.000000 0.000000
2 -0.000000 0.000608 0.000106 0.440742 0.000000 0.000000
3 0.000001 -16.796430 -7.922842 0.133755 0.000000 0.000000
4 0.000005 -60.953671 -13.864565 -0.000000 0.000000 0.000000
time 6
0 0.000000 0.000000 0.000000 0.000000 -0.000000 0.000000
1 -0.000000 0.000608 0.000106 -0.000000 0.000000 0.000000
2 -0.000000 0.000608 0.000106 0.584735 0.000000 0.000000
3 0.000001 -15.485684 -10.251155 0.243082 0.000000 0.000000
4 0.000005 -58.731000 -20.975363 0.023842 0.000000 0.000000
time 7
0 0.000000 0.000000 0.000000 0.000000 -0.000000 0.000000
1 -0.000000 0.000608 0.000106 -0.000000 0.000000 0.000000
2 -0.000000 0.000608 0.000106 0.731594 0.000000 0.000000
3 0.000001 -13.818902 -12.406937 0.371595 0.000000 0.000000
4 0.000005 -55.333190 -28.585007 0.088806 0.000000 0.000000
time 8
0 0.000000 0.000000 0.000000 0.000000 -0.000000 0.000000
1 -0.000000 0.000608 0.000106 -0.000000 0.000000 0.000000
2 -0.000000 0.000608 0.000106 0.876485 0.000000 0.000000
3 0.000001 -11.882715 -14.272252 0.512041 0.000000 0.000000
4 0.000004 -50.723556 -36.102394 0.185530 0.000000 0.000000
time 9
0 0.000000 0.000000 0.000000 0.000000 -0.000000 0.000000
1 -0.000000 0.000608 0.000106 -0.000000 0.000000 0.000000
2 -0.000000 0.000608 0.000106 1.015508 0.000000 0.000000
3 0.000001 -9.790262 -15.781289 0.658131 0.000000 0.000000
4 0.000004 -45.039527 -43.032992 0.305415 0.000000 0.000000
time 10
0 0.000000 0.000000 0.000000 0.000000 -0.000000 0.000000
1 -0.000000 0.000608 0.000106 -0.000000 0.000000 0.000000
2 -0.000000 0.000608 0.000106 1.145642 0.000000 0.000000
3 0.000001 -7.659556 -16.918388 0.804550 0.000000 0.000000
4 0.000003 -38.555709 -49.021251 0.440742 0.000000 0.000000
time 11
0 0.000000 0.000000 0.000000 0.000000 -0.000000 0.000000
1 -0.000000 0.000608 0.000106 -0.000000 0.000000 0.000000
2 -0.000000 0.000608 0.000106 1.264677 0.000000 0.000000
3 0.000000 -5.596209 -17.708344 0.946938 0.000000 0.000000
4 0.000003 -31.624064 -53.870711 0.584735 0.000000 0.000000
time 12
0 0.000000 0.000000 0.000000 0.000000 -0.000000 0.000000
1 -0.000000 0.000608 0.000106 -0.000000 0.000000 0.000000
2 -0.000000 0.000608 0.000106 1.371128 0.000000 0.000000
3 0.000000 -3.683015 -18.202764 1.081842 0.000000 0.000000
4 0.000002 -24.610717 -57.537193 0.731594 0.000000 0.000000
time 13
0 0.000000 0.000000 0.000000 0.000000 -0.000000 0.000000
1 -0.000000 0.000608 0.000106 -0.000000 0.000000 0.000000
2 -0.000000 0.000608 0.000106 1.464148 0.000000 0.000000
3 0.000000 -1.976304 -18.466225 1.206656 0.000000 0.000000
4 0.000002 -17.844456 -60.099959 0.876485 0.000000 0.000000
time 14
0 0.000000 0.000000 0.000000 0.000000 -0.000000 0.000000
1 -0.000000 0.000608 0.000106 -0.000000 0.000000 0.000000
2 -0.000000 0.000608 0.000106 1.543439 0.000000 0.000000
3 0.000000 -0.507410 -18.564793 1.319543 0.000000 0.000000
4 0.000001 -11.584662 -61.721027 1.015508 0.000000 0.000000
time 15
0 0.000000 0.000000 0.000000 0.000000 -0.000000 0.000000
1 -0.000000 0.000608 0.000106 -0.000000 0.000000 0.000000
2 -0.000000 0.000608 0.000106 1.609161 -0.000000 0.000000
3 -0.000000 0.712927 -18.558077 1.419347 0.000000 0.000000
4 0.000001 -6.009165 -62.603276 1.145642 0.000000 0.000000
time 16
0 0.000000 0.000000 0.000000 0.000000 -0.000000 0.000000
1 -0.000000 0.000608 0.000106 -0.000000 0.000000 0.000000
2 -0.000000 0.000608 0.000106 1.661842 -0.000000 0.000000
3 -0.000000 1.689158 -18.494822 1.505509 0.000000 0.000000
4 0.000000 -1.217668 -62.955101 1.264677 0.000000 0.000000
time 17
0 0.000000 0.000000 0.000000 0.000000 -0.000000 0.000000
1 -0.000000 0.000608 0.000106 -0.000000 0.000000 0.000000
2 -0.000000 0.000608 0.000106 1.702299 -0.000000 0.000000
3 -0.000000 2.435826 -18.411392 1.577970 -0.000000 0.000000
4 -0.000000 2.755466 -62.965448 1.371128 0.000000 0.000000
time 18
0 0.000000 0.000000 0.000000 0.000000 -0.000000 0.000000
1 -0.000000 0.000608 0.000106 -0.000000 0.000000 0.000000
2 -0.000000 0.000608 0.000106 1.731560 -0.000000 0.000000
3 -0.000000 2.973437 -18.332265 1.637086 -0.000000 0.000000
4 -0.000001 5.924826 -62.789608 1.464148 0.000000 0.000000
time 19
0 0.000000 0.000000 0.000000 0.000000 -0.000000 0.000000
1 -0.000000 0.000608 0.000106 -0.000000 0.000000 0.000000
2 -0.000000 0.000608 0.000106 1.750794 -0.000000 0.000000
3 -0.000000 3.325466 -18.271699 1.683538 -0.000000 0.000000
4 -0.000001 8.338081 -62.544035 1.543439 0.000000 0.000000
time 20
0 0.000000 0.000000 0.000000 0.000000 -0.000000 0.000000
1 -0.000000 0.000608 0.000106 -0.000000 0.000000 0.000000
2 -0.000000 0.000608 0.000106 1.761253 -0.000000 0.000000
3 -0.000000 3.516397 -18.235924 1.718259 -0.000000 0.000000
4 -0.000001 10.062819 -62.307574 1.609161 -0.000000 0.000000
time 21
0 0.000000 0.000000 0.000000 0.000000 -0.000000 0.000000
1 -0.000000 0.000608 0.000106 -0.000000 0.000000 0.000000
2 -0.000000 0.000608 0.000106 1.764222 -0.000000 0.000000
3 -0.000000 3.570517 -18.225406 1.742353 -0.000000 0.000000
4 -0.000001 11.176817 -62.126548 1.661842 -0.000000 0.000000
time 22
0 0.000000 0.000000 0.000000 0.000000 -0.000000 0.000000
1 -0.000000 0.000608 0.000106 -0.000000 0.000000 0.000000
2 -0.000000 0.000608 0.000106 1.760970 -0.000000 0.000000
3 -0.000000 3.511234 -18.236918 1.757040 -0.000000 0.000000
4 -0.000001 11.761472 -62.021614 1.702299 -0.000000 0.000000
time 23
0 0.000000 0.000000 0.000000 0.000000 -0.000000 0.000000
1 -0.000000 0.000608 0.000106 -0.000000 0.000000 0.000000
2 -0.000000 0.000608 0.000106 1.752721 -0.000000 0.000000
3 -0.000000 3.360681 -18.265256 1.763594 -0.000000 0.000000
4 -0.000001 11.897685 -61.994944 1.731560 -0.000000 0.000000
time 24
0 0.000000 0.000000 0.000000 0.000000 -0.000000 0.000000
1 -0.000000 0.000608 0.000106 -0.000000 0.000000 0.000000
2 -0.000000 0.000608 0.000106 1.740623 -0.000000 0.000000
3 -0.000000 3.139466 -18.304569 1.763295 -0.000000 0.000000
4 -0.000001 11.663433 -62.036800 1.750794 -0.000000 0.000000
time 25
0 0.000000 0.000000 0.000000 0.000000 -0.000000 0.000000
1 -0.000000 0.000608 0.000106 -0.000000 0.000000 0.000000
2 -0.000000 0.000608 0.000106 1.725729 -0.000000 0.000000
3 -0.000000 2.866500 -18.349287 1.757396 -0.000000 0.000000
4 -0.000001 11.132341 -62.131040 1.761253 -0.000000 0.000000
time 26
0 0.000000 0.000000 0.000000 0.000000 -0.000000 0.000000
1 -0.000000 0.000608 0.000106 -0.000000 0.000000 0.000000
2 -0.000000 0.000608 0.000106 1.708984 -0.000000 0.000000
3 -0.000000 2.558842 -18.394703 1.747085 -0.000000 0.000000
4 -0.000001 10.372800 -62.259359 1.764222 -0.000000 0.000000
time 27
0 0.000000 0.000000 0.000000 0.000000 -0.000000 0.000000
1 -0.000000 0.000608 0.000106 -0.000000 0.000000 0.000000
2 -0.000000 0.000608 0.000106 1.691214 -0.000000 0.000000
3 -0.000000 2.231588 -18.437255 1.733464 -0.000000 0.000000
4 -0.000001 9.447357 -62.404273 1.760970 -0.000000 0.000000
time 28
0 0.000000 0.000000 0.000000 0.000000 -0.000000 0.000000
1 -0.000000 0.000608 0.000106 -0.000000 0.000000 0.000000
2 -0.000000 0.000608 0.000106 1.673128 -0.000000 0.000000
3 -0.000000 1.897784 -18.474587 1.717533 -0.000000 0.000000
4 -0.000001 8.412246 -62.550973 1.752721 -0.000000 0.000000
time 29
0 0.000000 0.000000 0.000000 0.000000 -0.000000 0.000000
1 -0.000000 0.000608 0.000106 -0.000000 0.000000 0.000000
2 -0.000000 0.000608 0.000106 1.655315 -0.000000 0.000000
3 -0.000000 1.568398 -18.505450 1.700180 -0.000000 0.000000
4 -0.000001 7.317038 -62.688242 1.740623 -0.000000 0.000000
time 30
0 0.000000 0.000000 0.000000 0.000000 -0.000000 0.000000
1 -0.000000 0.000608 0.000106 -0.000000 0.000000 0.000000
2 -0.000000 0.000608 0.000106 1.638247 -0.000000 0.000000
3 -0.000000 1.252342 -18.529511 1.682171 -0.000000 0.000000
4 -0.000001 6.204418 -62.808660 1.725729 -0.000000 0.000000
time 31
0 0.000000 0.000000 0.000000 0.000000 -0.000000 0.000000
1 -0.000000 0.000608 0.000106 -0.000000 0.000000 0.000000
2 -0.000000 0.000608 0.000106 1.622292 -0.000000 0.000000
3 -0.000000 0.956553 -18.547123 1.664155 -0.000000 0.000000
4 -0.000000 5.110131 -62.908298 1.708984 -0.000000 0.000000
time 32
0 0.000000 0.000000 0.000000 0.000000 -0.000000 0.000000
1 -0.000000 0.000608 0.000106 -0.000000 0.000000 0.000000
2 -0.000000 0.000608 0.000106 1.607716 -0.000000 0.000000
3 -0.000000 0.686122 -18.559086 1.646662 -0.000000 0.000000
4 -0.000000 4.063098 -62.986128 1.691214 -0.000000 0.000000
time 33
0 0.000000 0.000000 0.000000 0.000000 -0.000000 0.000000
1 -0.000000 0.000608 0.000106 -0.000000 0.000000 0.000000
2 -0.000000 0.000608 0.000106 1.594698 -0.000000 0.000000
3 -0.000000 0.444463 -18.566438 1.630112 -0.000000 0.000000
4 -0.000000 3.085715 -63.043284 1.673128 -0.000000 0.000000
time 34
0 0.000000 0.000000 0.000000 0.000000 -0.000000 0.000000
1 -0.000000 0.000608 0.000106 -0.000000 0.000000 0.000000
2 -0.000000 0.000608 0.000106 1.583337 -0.000000 0.000000
3 -0.000000 0.233513 -18.570282 1.614819 -0.000000 0.000000
4 -0.000000 2.194297 -63.082318 1.655315 -0.000000 0.000000
time 35
0 0.000000 0.000000 0.000000 0.000000 -0.000000 0.000000
1 -0.000000 0.000608 0.000106 -0.000000 0.000000 0.000000
2 -0.000000 0.000608 0.000106 1.573668 -0.000000 0.000000
3 -0.000000 0.053937 -18.571666 1.601004 -0.000000 0.000000
4 -0.000000 1.399660 -63.106540 1.638247 -0.000000 0.000000
time 36
0 0.000000 0.000000 0.000000 0.000000 -0.000000 0.000000
1 -0.000000 0.000608 0.000106 -0.000000 0.000000 0.000000
2 -0.000000 0.000608 0.000106 1.565667 0.000000 0.000000
3 0.000000 -0.094660 -18.571498 1.588807 -0.000000 0.000000
4 -0.000000 0.707766 -63.119474 1.622292 -0.000000 0.000000
time 37
0 0.000000 0.000000 0.000000 0.000000 -0.000000 0.000000
1 -0.000000 0.000608 0.000106 -0.000000 0.000000 0.000000
2 -0.000000 0.000608 0.000106 1.559267 0.000000 0.000000
3 0.000000 -0.213518 -18.570508 1.578292 -0.000000 0.000000
4 -0.000000 0.120428 -63.124459 1.607716 -0.000000 0.000000
time 38
0 0.000000 0.000000 0.000000 0.000000 -0.000000 0.000000
1 -0.000000 0.000608 0.000106 -0.000000 0.000000 0.000000
2 -0.000000 0.000608 0.000106 1.554365 0.000000 0.000000
3 0.000000 -0.304534 -18.569235 1.569462 0.000000 0.000000
4 0.000000 -0.363987 -63.124398 1.594698 -0.000000 0.000000
time 39
0 0.000000 0.000000 0.000000 0.000000 -0.000000 0.000000
1 -0.000000 0.000608 0.000106 -0.000000 0.000000 0.000000
2 -0.000000 0.000608 0.000106 1.550835 0.000000 0.000000
3 0.000000 -0.370084 -18.568043 1.562272 0.000000 0.000000
4 0.000000 -0.749877 -63.121626 1.583337 -0.000000 0.000000
time 40
0 0.000000 0.000000 0.000000 0.000000 -0.000000 0.000000
1 -0.000000 0.000608 0.000106 -0.000000 0.000000 0.000000
2 -0.000000 0.000608 0.000106 1.548531 0.000000 0.000000
3 0.000000 -0.412861 -18.567139 1.556636 0.000000 0.000000
4 0.000000 -1.043756 -63.117874 1.573668 -0.000000 0.000000
time 41
0 0.000000 0.000000 0.000000 0.000000 -0.000000 0.000000
1 -0.000000 0.000608 0.000106 -0.000000 0.000000 0.000000
2 -0.000000 0.000608 0.000106 1.547299 0.000000 0.000000
3 0.000000 -0.435739 -18.566616 1.552438 0.000000 0.000000
4 0.000000 -1.253673 -63.114309 1.565667 0.000000 0.000000
time 42
0 0.000000 0.000000 0.000000 0.000000 -0.000000 0.000000
1 -0.000000 0.000608 0.000106 -0.000000 0.000000 0.000000
2 -0.000000 0.000608 0.000106 1.546981 0.000000 0.000000
3 0.000000 -0.441653 -18.566476 1.549539 0.000000 0.000000
4 0.000000 -1.388687 -63.111612 1.559267 0.000000 0.000000
time 43
0 0.000000 0.000000 0.000000 0.000000 -0.000000 0.000000
1 -0.000000 0.000608 0.000106 -0.000000 0.000000 0.000000
2 -0.000000 0.000608 0.000106 1.547419 0.000000 0.000000
3 0.000000 -0.433505 -18.566668 1.547791 0.000000 0.000000
4 0.000000 -1.458417 -63.110080 1.554365 0.000000 0.000000
time 44
0 0.000000 0.000000 0.000000 0.000000 -0.000000 0.000000
1 -0.000000 0.000608 0.000106 -0.000000 0.000000 0.000000
2 -0.000000 0.000608 0.000106 1.548465 0.000000 0.000000
3 0.000000 -0.414084 -18.567112 1.547036 0.000000 0.000000
4 0.000000 -1.472652 -63.109737 1.550835 0.000000 0.000000
time 45
0 0.000000 0.000000 0.000000 0.000000 -0.000000 0.000000
1 -0.000000 0.000608 0.000106 -0.000000 0.000000 0.000000
2 -0.000000 0.000608 0.000106 1.549978 0.000000 0.000000
3 0.000000 -0.386002 -18.567718 1.547115 0.000000 0.000000
4 0.000000 -1.441034 -63.110427 1.548531 0.000000 0.000000
time 46
0 0.000000 0.000000 0.000000 0.000000 -0.000000 0.000000
1 -0.000000 0.000608 0.000106 -0.000000 0.000000 0.000000
2 -0.000000 0.000608 0.000106 1.551828 0.000000 0.000000
3 0.000000 -0.351654 -18.568401 1.547876 0.000000 0.000000
4 0.000000 -1.372803 -63.111900 1.547299 0.000000 0.000000
time 47
0 0.000000 0.000000 0.000000 0.000000 -0.000000 0.000000
1 -0.000000 0.000608 0.000106 -0.000000 0.000000 0.000000
2 -0.000000 0.000608 0.000106 1.553899 0.000000 0.000000
3 0.000000 -0.313184 -18.569091 1.549172 0.000000 0.000000
4 0.000000 -1.276598 -63.113876 1.546981 0.000000 0.000000
time 48
0 0.000000 0.000000 0.000000 0.000000 -0.000000 0.000000
1 -0.000000 0.000608 0.000106 -0.000000 0.000000 0.000000
2 -0.000000 0.000608 0.000106 1.556092 0.000000 0.000000
3 0.000000 -0.272469 -18.569735 1.550868 0.000000 0.000000
4 0.000000 -1.160315 -63.116090 1.547419 0.000000 0.000000
time 49
0 0.000000 0.000000 0.000000 0.000000 -0.000000 0.000000
1 -0.000000 0.000608 0.000106 -0.000000 0.000000 0.000000
2 -0.000000 0.000608 0.000106 1.558319 0.000000 0.000000
3 0.000000 -0.231111 -18.570297 1.552842 0.000000 0.000000
4 0.000000 -1.031006 -63.118318 1.548465 0.000000 0.000000
time 50
0 0.000000 0.000000 0.000000 0.000000 -0.000000 0.000000
1 -0.000000 0.000608 0.000106 -0.000000 0.000000 0.000000
2 -0.000000 0.000608 0.000106 1.560509 0.000000 0.000000
3 0.000000 -0.190443 -18.570760 1.554986 0.000000 0.000000
4 0.000000 -0.894830 -63.120393 1.549978 0.000000 0.000000
end
