version 1
nodes
0 "2ksmeff1_wtr08_trall" -1
1 "2ksmeff1_wtr08" 0
2 "2ksmeff1_wtr08_bone001" 0
3 "2ksmeff1_wtr08_bone002" 2
4 "2ksmeff1_wtr08_bone003" 3
5 "2ksmeff1_wtr08_bone004" 4
6 "2ksmeff1_wtr08_bone005" 5
7 "2ksmeff1_wtr08_bone006" 6
8 "2ksmeff1_wtr08_bone007" 7
9 "2ksmeff1_wtr08_bone008" 8
10 "2ksmeff1_wtr08_bone009" 9
end
skeleton
time 0
0 0.000000 0.000000 0.000000 0.000000 -0.000000 0.000000
1 0.000000 0.000000 0.000000 0.000000 -0.000000 0.000000
2 0.000000 0.000000 0.000000 0.000000 -0.000000 0.000000
3 0.000000 0.000000 10.724106 0.000000 -0.000000 0.000000
4 0.000000 0.000000 10.724106 0.000000 -0.000000 0.000000
5 0.000000 0.000000 10.724106 0.000000 -0.000000 0.000000
6 0.000000 0.000000 10.724106 0.000000 -0.000000 0.000000
7 0.000000 0.000000 10.724106 0.000000 -0.000000 0.000000
8 0.000000 0.000000 10.724106 0.000000 -0.000000 0.000000
9 0.000000 0.000000 10.724106 0.000000 -0.000000 0.000000
10 0.000000 0.000000 10.724106 0.000000 -0.000000 0.000000
time 1
0 0.000000 0.000000 0.000000 0.000000 -0.000000 0.000000
1 0.000000 0.000000 0.000000 0.000000 -0.000000 0.000000
2 0.000000 0.000000 0.000000 0.000000 -0.000000 0.000000
3 0.000000 -0.000000 10.724108 0.000977 -0.000000 0.000000
4 0.000000 -0.000000 10.724098 0.000977 -0.000000 0.000000
5 0.000000 0.000000 10.724113 0.000977 -0.000000 0.000000
6 0.000000 -0.000000 10.724100 0.000977 -0.000000 0.000000
7 0.000000 0.000000 10.724112 0.000977 -0.000000 0.000000
8 0.000000 0.000000 10.724104 0.000977 -0.000000 0.000000
9 0.000000 0.000000 10.724106 0.000977 -0.000000 0.000000
10 0.000000 -0.000000 10.724103 0.000977 -0.000000 0.000000
time 2
0 0.000000 0.000000 0.000000 0.000000 -0.000000 0.000000
1 0.000000 0.000000 0.000000 0.000000 -0.000000 0.000000
2 0.000000 0.000000 0.000000 0.000000 -0.000000 0.000000
3 0.000000 0.000000 10.724108 0.001953 -0.000000 0.000000
4 0.000000 -0.000000 10.724105 0.001953 -0.000000 0.000000
5 0.000000 0.000000 10.724104 0.001953 -0.000000 0.000000
6 0.000000 -0.000000 10.724098 0.001953 -0.000000 0.000000
7 0.000000 0.000000 10.724109 0.001953 -0.000000 0.000000
8 0.000000 -0.000000 10.724106 0.001953 -0.000000 0.000000
9 0.000000 0.000000 10.724106 0.001953 -0.000000 0.000000
10 0.000000 -0.000000 10.724108 0.001953 -0.000000 0.000000
time 3
0 0.000000 0.000000 0.000000 0.000000 -0.000000 0.000000
1 0.000000 0.000000 0.000000 0.000000 -0.000000 0.000000
2 0.000000 0.000000 0.000000 0.000000 -0.000000 0.000000
3 0.000000 0.000000 10.724108 0.004883 -0.000000 0.000000
4 0.000000 -0.000000 10.724102 0.004883 -0.000000 0.000000
5 0.000000 -0.000000 10.724103 0.004883 -0.000000 0.000000
6 0.000000 0.000000 10.724112 0.004883 -0.000000 0.000000
7 0.000000 0.000000 10.724106 0.004883 -0.000000 0.000000
8 0.000000 -0.000000 10.724099 0.004883 -0.000000 0.000000
9 0.000000 0.000000 10.724107 0.004883 -0.000000 0.000000
10 0.000000 -0.000000 10.724108 0.004883 -0.000000 0.000000
time 4
0 0.000000 0.000000 0.000000 0.000000 -0.000000 0.000000
1 0.000000 0.000000 0.000000 0.000000 -0.000000 0.000000
2 0.000000 0.000000 0.000000 0.000000 -0.000000 0.000000
3 0.000000 0.000000 10.724107 0.007812 -0.000000 0.000000
4 0.000000 -0.000000 10.724103 0.007812 -0.000000 0.000000
5 0.000000 -0.000000 10.724102 0.007812 -0.000000 0.000000
6 0.000000 0.000000 10.724115 0.007812 -0.000000 0.000000
7 0.000000 -0.000000 10.724099 0.007812 -0.000000 0.000000
8 0.000000 0.000000 10.724112 0.007812 -0.000000 0.000000
9 0.000000 -0.000000 10.724104 0.007812 -0.000000 0.000000
10 0.000000 -0.000000 10.724104 0.007812 -0.000000 0.000000
time 5
0 0.000000 0.000000 0.000000 0.000000 -0.000000 0.000000
1 0.000000 0.000000 0.000000 0.000000 -0.000000 0.000000
2 0.000000 0.000000 0.000000 0.000000 -0.000000 0.000000
3 0.000000 0.000000 10.724105 0.012574 -0.000000 0.000000
4 0.000000 0.000000 10.724109 0.012574 -0.000000 0.000000
5 0.000000 -0.000000 10.724103 0.012574 -0.000000 0.000000
6 0.000000 0.000000 10.724106 0.012574 -0.000000 0.000000
7 0.000000 -0.000000 10.724104 0.012574 -0.000000 0.000000
8 0.000000 -0.000000 10.724104 0.012574 -0.000000 0.000000
9 0.000000 -0.000000 10.724104 0.012574 -0.000000 0.000000
10 0.000000 -0.000000 10.724106 0.012574 -0.000000 0.000000
time 6
0 0.000000 0.000000 0.000000 0.000000 -0.000000 0.000000
1 0.000000 0.000000 0.000000 0.000000 -0.000000 0.000000
2 0.000000 0.000000 0.000000 0.000000 -0.000000 0.000000
3 0.000000 0.000000 10.724105 0.017334 -0.000000 0.000000
4 0.000000 0.000000 10.724107 0.017334 -0.000000 0.000000
5 0.000000 0.000000 10.724112 0.017334 -0.000000 0.000000
6 0.000000 -0.000001 10.724098 0.017334 -0.000000 0.000000
7 0.000000 0.000001 10.724110 0.017334 -0.000000 0.000000
8 0.000000 -0.000000 10.724106 0.017334 -0.000000 0.000000
9 0.000000 -0.000000 10.724108 0.017334 -0.000000 0.000000
10 0.000000 0.000000 10.724106 0.017334 -0.000000 0.000000
time 7
0 0.000000 0.000000 0.000000 0.000000 -0.000000 0.000000
1 0.000000 0.000000 0.000000 0.000000 -0.000000 0.000000
2 0.000000 0.000000 0.000000 0.000000 -0.000000 0.000000
3 0.000000 -0.000000 10.724104 0.023744 -0.000000 0.000000
4 0.000000 0.000000 10.724107 0.023744 -0.000000 0.000000
5 0.000000 0.000000 10.724107 0.023744 -0.000000 0.000000
6 0.000000 0.000001 10.724111 0.023744 -0.000000 0.000000
7 0.000000 0.000000 10.724108 0.023744 -0.000000 0.000000
8 0.000000 -0.000001 10.724097 0.023744 -0.000000 0.000000
9 0.000000 0.000000 10.724112 0.023744 -0.000000 0.000000
10 0.000000 -0.000001 10.724101 0.023744 -0.000000 0.000000
time 8
0 0.000000 0.000000 0.000000 0.000000 -0.000000 0.000000
1 0.000000 0.000000 0.000000 0.000000 -0.000000 0.000000
2 0.000000 0.000000 0.000000 0.000000 -0.000000 0.000000
3 0.000000 -0.000000 10.724106 0.030152 -0.000000 0.000000
4 0.000000 -0.000000 10.724102 0.030152 -0.000000 0.000000
5 0.000000 0.000000 10.724106 0.030152 -0.000000 0.000000
6 0.000000 0.000000 10.724111 0.030152 -0.000000 0.000000
7 0.000000 -0.000000 10.724100 0.030152 -0.000000 0.000000
8 0.000000 0.000001 10.724111 0.030152 -0.000000 0.000000
9 0.000000 0.000000 10.724106 0.030152 -0.000000 0.000000
10 0.000000 0.000000 10.724107 0.030152 -0.000000 0.000000
time 9
0 0.000000 0.000000 0.000000 0.000000 -0.000000 0.000000
1 0.000000 0.000000 0.000000 0.000000 -0.000000 0.000000
2 0.000000 0.000000 0.000000 0.000000 -0.000000 0.000000
3 0.000000 0.000000 10.724104 0.038028 -0.000000 0.000000
4 0.000000 0.000000 10.724109 0.038028 -0.000000 0.000000
5 0.000000 0.000000 10.724106 0.038028 -0.000000 0.000000
6 0.000000 0.000001 10.724114 0.038028 -0.000000 0.000000
7 0.000000 -0.000002 10.724101 0.038028 -0.000000 0.000000
8 0.000000 0.000000 10.724105 0.038028 -0.000000 0.000000
9 0.000000 0.000002 10.724114 0.038028 -0.000000 0.000000
10 0.000000 -0.000003 10.724095 0.038028 -0.000000 0.000000
time 10
0 0.000000 0.000000 0.000000 0.000000 -0.000000 0.000000
1 0.000000 0.000000 0.000000 0.000000 -0.000000 0.000000
2 0.000000 0.000000 0.000000 0.000000 -0.000000 0.000000
3 0.000000 -0.000000 10.724105 0.045901 -0.000000 0.000000
4 0.000000 0.000000 10.724108 0.045901 -0.000000 0.000000
5 0.000000 -0.000000 10.724104 0.045901 -0.000000 0.000000
6 0.000000 0.000000 10.724106 0.045901 -0.000000 0.000000
7 0.000000 -0.000001 10.724101 0.045901 -0.000000 0.000000
8 0.000000 0.000001 10.724111 0.045901 -0.000000 0.000000
9 0.000000 0.000001 10.724105 0.045901 -0.000000 0.000000
10 0.000000 -0.000002 10.724107 0.045901 -0.000000 0.000000
time 11
0 0.000000 0.000000 0.000000 0.000000 -0.000000 0.000000
1 0.000000 0.000000 0.000000 0.000000 -0.000000 0.000000
2 0.000000 0.000000 0.000000 0.000000 -0.000000 0.000000
3 0.000000 -0.000000 10.724107 0.055185 -0.000000 0.000000
4 0.000000 0.000000 10.724103 0.055185 -0.000000 0.000000
5 0.000000 -0.000000 10.724105 0.055185 -0.000000 0.000000
6 0.000000 -0.000000 10.724106 0.055185 -0.000000 0.000000
7 0.000000 0.000001 10.724108 0.055185 -0.000000 0.000000
8 0.000000 -0.000001 10.724102 0.055185 -0.000000 0.000000
9 0.000000 0.000000 10.724105 0.055185 -0.000000 0.000000
10 0.000000 -0.000000 10.724111 0.055185 -0.000000 0.000000
time 12
0 0.000000 0.000000 0.000000 0.000000 -0.000000 0.000000
1 0.000000 0.000000 0.000000 0.000000 -0.000000 0.000000
2 0.000000 0.000000 0.000000 0.000000 -0.000000 0.000000
3 0.000000 -0.000000 10.724105 0.064462 -0.000000 0.000000
4 0.000000 0.000000 10.724111 0.064462 -0.000000 0.000000
5 0.000000 -0.000000 10.724103 0.064462 -0.000000 0.000000
6 0.000000 -0.000000 10.724107 0.064462 -0.000000 0.000000
7 0.000000 0.000001 10.724106 0.064462 -0.000000 0.000000
8 0.000000 -0.000001 10.724104 0.064462 -0.000000 0.000000
9 0.000000 -0.000000 10.724104 0.064462 -0.000000 0.000000
10 0.000000 0.000004 10.724110 0.064462 -0.000000 0.000000
time 13
0 0.000000 0.000000 0.000000 0.000000 -0.000000 0.000000
1 0.000000 0.000000 0.000000 0.000000 -0.000000 0.000000
2 0.000000 0.000000 0.000000 0.000000 -0.000000 0.000000
3 0.000000 -0.000000 10.724105 0.075034 -0.000000 0.000000
4 0.000000 0.000000 10.724106 0.075034 -0.000000 0.000000
5 0.000000 0.000000 10.724108 0.075034 -0.000000 0.000000
6 0.000000 -0.000001 10.724103 0.075034 -0.000000 0.000000
7 0.000000 0.000001 10.724109 0.075034 -0.000000 0.000000
8 0.000000 -0.000001 10.724105 0.075034 -0.000000 0.000000
9 0.000000 0.000001 10.724102 0.075034 -0.000000 0.000000
10 0.000000 -0.000001 10.724104 0.075034 -0.000000 0.000000
time 14
0 0.000000 0.000000 0.000000 0.000000 -0.000000 0.000000
1 0.000000 0.000000 0.000000 0.000000 -0.000000 0.000000
2 0.000000 0.000000 0.000000 0.000000 -0.000000 0.000000
3 0.000000 0.000000 10.724107 0.085592 -0.000000 0.000000
4 0.000000 -0.000001 10.724102 0.085592 -0.000000 0.000000
5 0.000000 0.000000 10.724107 0.085592 -0.000000 0.000000
6 0.000000 0.000001 10.724107 0.085592 -0.000000 0.000000
7 0.000000 0.000002 10.724107 0.085592 -0.000000 0.000000
8 0.000000 -0.000004 10.724102 0.085592 -0.000000 0.000000
9 0.000000 0.000000 10.724105 0.085592 -0.000000 0.000000
10 0.000000 0.000001 10.724107 0.085592 -0.000000 0.000000
time 15
0 0.000000 0.000000 0.000000 0.000000 -0.000000 0.000000
1 0.000000 0.000000 0.000000 0.000000 -0.000000 0.000000
2 0.000000 0.000000 0.000000 0.000000 -0.000000 0.000000
3 0.000000 -0.000000 10.724105 0.097213 -0.000000 0.000000
4 0.000000 0.000000 10.724106 0.097213 -0.000000 0.000000
5 0.000000 -0.000000 10.724106 0.097213 -0.000000 0.000000
6 0.000000 -0.000001 10.724103 0.097213 -0.000000 0.000000
7 0.000000 0.000004 10.724112 0.097213 -0.000000 0.000000
8 0.000000 -0.000004 10.724102 0.097213 -0.000000 0.000000
9 0.000000 0.000001 10.724107 0.097213 -0.000000 0.000000
10 0.000000 0.000002 10.724107 0.097213 -0.000000 0.000000
time 16
0 0.000000 0.000000 0.000000 0.000000 -0.000000 0.000000
1 0.000000 0.000000 0.000000 0.000000 -0.000000 0.000000
2 0.000000 0.000000 0.000000 0.000000 -0.000000 0.000000
3 0.000000 0.000000 10.724105 0.108813 -0.000000 0.000000
4 0.000000 0.000000 10.724106 0.108813 -0.000000 0.000000
5 0.000000 0.000000 10.724107 0.108813 -0.000000 0.000000
6 0.000000 -0.000002 10.724105 0.108813 -0.000000 0.000000
7 0.000000 0.000003 10.724107 0.108813 -0.000000 0.000000
8 0.000000 0.000001 10.724107 0.108813 -0.000000 0.000000
9 0.000000 0.000000 10.724106 0.108813 -0.000000 0.000000
10 0.000000 -0.000000 10.724102 0.108813 -0.000000 0.000000
time 17
0 0.000000 0.000000 0.000000 0.000000 -0.000000 0.000000
1 0.000000 0.000000 0.000000 0.000000 -0.000000 0.000000
2 0.000000 0.000000 0.000000 0.000000 -0.000000 0.000000
3 0.000000 -0.000000 10.724106 0.121419 -0.000000 0.000000
4 0.000000 0.000000 10.724108 0.121419 -0.000000 0.000000
5 0.000000 -0.000001 10.724104 0.121419 -0.000000 0.000000
6 0.000000 0.000001 10.724109 0.121418 -0.000000 0.000000
7 0.000000 -0.000001 10.724106 0.121419 -0.000000 0.000000
8 0.000000 -0.000002 10.724104 0.121419 -0.000000 0.000000
9 0.000000 0.000003 10.724107 0.121418 -0.000000 0.000000
10 0.000000 0.000003 10.724103 0.121419 -0.000000 0.000000
time 18
0 0.000000 0.000000 0.000000 0.000000 -0.000000 0.000000
1 0.000000 0.000000 0.000000 0.000000 -0.000000 0.000000
2 0.000000 0.000000 0.000000 0.000000 -0.000000 0.000000
3 0.000000 0.000000 10.724106 0.134010 -0.000000 0.000000
4 0.000000 -0.000000 10.724105 0.134009 -0.000000 0.000000
5 0.000000 0.000000 10.724106 0.134010 -0.000000 0.000000
6 0.000000 0.000000 10.724106 0.134009 -0.000000 0.000000
7 0.000000 -0.000002 10.724105 0.134009 -0.000000 0.000000
8 0.000000 0.000002 10.724104 0.134010 -0.000000 0.000000
9 0.000000 -0.000002 10.724107 0.134010 -0.000000 0.000000
10 0.000000 0.000000 10.724108 0.134009 -0.000000 0.000000
time 19
0 0.000000 0.000000 0.000000 0.000000 -0.000000 0.000000
1 0.000000 0.000000 0.000000 0.000000 -0.000000 0.000000
2 0.000000 0.000000 0.000000 0.000000 -0.000000 0.000000
3 0.000000 -0.000000 10.724107 0.147416 -0.000000 0.000000
4 0.000000 -0.000000 10.724103 0.147416 -0.000000 0.000000
5 0.000000 0.000001 10.724109 0.147416 -0.000000 0.000000
6 0.000000 0.000000 10.724104 0.147416 -0.000000 0.000000
7 0.000000 -0.000000 10.724106 0.147416 -0.000000 0.000000
8 0.000000 0.000002 10.724105 0.147416 -0.000000 0.000000
9 0.000000 -0.000002 10.724108 0.147416 -0.000000 0.000000
10 0.000000 0.000002 10.724106 0.147416 -0.000000 0.000000
time 20
0 0.000000 0.000000 0.000000 0.000000 -0.000000 0.000000
1 0.000000 0.000000 0.000000 0.000000 -0.000000 0.000000
2 0.000000 0.000000 0.000000 0.000000 -0.000000 0.000000
3 0.000000 -0.000000 10.724105 0.160817 -0.000000 0.000000
4 0.000000 0.000000 10.724106 0.160817 -0.000000 0.000000
5 0.000000 0.000000 10.724106 0.160817 -0.000000 0.000000
6 0.000000 -0.000000 10.724105 0.160817 -0.000000 0.000000
7 0.000000 0.000001 10.724108 0.160817 -0.000000 0.000000
8 0.000000 -0.000003 10.724104 0.160817 -0.000000 0.000000
9 0.000000 0.000000 10.724111 0.160817 -0.000000 0.000000
10 0.000000 0.000002 10.724105 0.160817 -0.000000 0.000000
time 21
0 0.000000 0.000000 0.000000 0.000000 -0.000000 0.000000
1 0.000000 0.000000 0.000000 0.000000 -0.000000 0.000000
2 0.000000 0.000000 0.000000 0.000000 -0.000000 0.000000
3 0.000000 0.000000 10.724105 0.174976 -0.000000 0.000000
4 0.000000 -0.000000 10.724107 0.174976 -0.000000 0.000000
5 0.000000 0.000000 10.724106 0.174976 -0.000000 0.000000
6 0.000000 -0.000000 10.724106 0.174976 -0.000000 0.000000
7 0.000000 0.000000 10.724108 0.174976 -0.000000 0.000000
8 0.000000 0.000002 10.724105 0.174976 -0.000000 0.000000
9 0.000000 -0.000001 10.724109 0.174976 -0.000000 0.000000
10 0.000000 -0.000003 10.724101 0.174976 -0.000000 0.000000
time 22
0 0.000000 0.000000 0.000000 0.000000 -0.000000 0.000000
1 0.000000 0.000000 0.000000 0.000000 -0.000000 0.000000
2 0.000000 0.000000 0.000000 0.000000 -0.000000 0.000000
3 0.000000 -0.000000 10.724106 0.189115 -0.000000 0.000000
4 0.000000 0.000001 10.724106 0.189115 -0.000000 0.000000
5 0.000000 -0.000001 10.724107 0.189115 -0.000000 0.000000
6 0.000000 -0.000001 10.724106 0.189115 -0.000000 0.000000
7 0.000000 0.000002 10.724102 0.189115 -0.000000 0.000000
8 0.000000 -0.000001 10.724109 0.189115 -0.000000 0.000000
9 0.000000 0.000001 10.724107 0.189115 -0.000000 0.000000
10 0.000000 -0.000001 10.724107 0.189115 -0.000000 0.000000
time 23
0 0.000000 0.000000 0.000000 0.000000 -0.000000 0.000000
1 0.000000 0.000000 0.000000 0.000000 -0.000000 0.000000
2 0.000000 0.000000 0.000000 0.000000 -0.000000 0.000000
3 0.000000 0.000000 10.724105 0.203795 -0.000000 0.000000
4 0.000000 0.000000 10.724106 0.203795 -0.000000 0.000000
5 0.000000 0.000000 10.724107 0.203795 -0.000000 0.000000
6 0.000000 -0.000000 10.724104 0.203795 -0.000000 0.000000
7 0.000000 0.000001 10.724108 0.203795 -0.000000 0.000000
8 0.000000 -0.000000 10.724105 0.203795 -0.000000 0.000000
9 0.000000 -0.000002 10.724108 0.203795 -0.000000 0.000000
10 0.000000 -0.000000 10.724104 0.203795 -0.000000 0.000000
time 24
0 0.000000 0.000000 0.000000 0.000000 -0.000000 0.000000
1 0.000000 0.000000 0.000000 0.000000 -0.000000 0.000000
2 0.000000 0.000000 0.000000 0.000000 -0.000000 0.000000
3 0.000000 0.000000 10.724105 0.218447 -0.000000 0.000000
4 0.000000 0.000000 10.724106 0.218447 -0.000000 0.000000
5 0.000000 -0.000000 10.724107 0.218447 -0.000000 0.000000
6 0.000000 -0.000002 10.724105 0.218447 -0.000000 0.000000
7 0.000000 0.000003 10.724105 0.218447 -0.000000 0.000000
8 0.000000 0.000000 10.724107 0.218447 -0.000000 0.000000
9 0.000000 -0.000004 10.724106 0.218447 -0.000000 0.000000
10 0.000000 0.000001 10.724105 0.218447 -0.000000 0.000000
time 25
0 0.000000 0.000000 0.000000 0.000000 -0.000000 0.000000
1 0.000000 0.000000 0.000000 0.000000 -0.000000 0.000000
2 0.000000 0.000000 0.000000 0.000000 -0.000000 0.000000
3 0.000000 -0.000000 10.724106 0.233515 -0.000000 0.000000
4 0.000000 0.000001 10.724106 0.233515 -0.000000 0.000000
5 0.000000 0.000000 10.724107 0.233515 -0.000000 0.000000
6 0.000000 0.000002 10.724106 0.233515 -0.000000 0.000000
7 0.000000 -0.000003 10.724108 0.233515 -0.000000 0.000000
8 0.000000 -0.000001 10.724104 0.233515 -0.000000 0.000000
9 0.000000 0.000002 10.724110 0.233515 -0.000000 0.000000
10 0.000000 -0.000003 10.724102 0.233515 -0.000000 0.000000
time 26
0 0.000000 0.000000 0.000000 0.000000 -0.000000 0.000000
1 0.000000 0.000000 0.000000 0.000000 -0.000000 0.000000
2 0.000000 0.000000 0.000000 0.000000 -0.000000 0.000000
3 0.000000 0.000000 10.724106 0.248555 -0.000000 0.000000
4 0.000000 -0.000000 10.724104 0.248555 -0.000000 0.000000
5 0.000000 -0.000000 10.724108 0.248555 -0.000000 0.000000
6 0.000000 0.000001 10.724107 0.248555 -0.000000 0.000000
7 0.000000 0.000001 10.724106 0.248555 -0.000000 0.000000
8 0.000000 -0.000001 10.724108 0.248555 -0.000000 0.000000
9 0.000000 0.000003 10.724101 0.248555 -0.000000 0.000000
10 0.000000 0.000002 10.724106 0.248555 -0.000000 0.000000
time 27
0 0.000000 0.000000 0.000000 0.000000 -0.000000 0.000000
1 0.000000 0.000000 0.000000 0.000000 -0.000000 0.000000
2 0.000000 0.000000 0.000000 0.000000 -0.000000 0.000000
3 0.000000 0.000000 10.724106 0.263905 -0.000000 0.000000
4 0.000000 -0.000001 10.724105 0.263905 -0.000000 0.000000
5 0.000000 0.000001 10.724107 0.263905 -0.000000 0.000000
6 0.000000 -0.000001 10.724105 0.263905 -0.000000 0.000000
7 0.000000 -0.000000 10.724107 0.263905 -0.000000 0.000000
8 0.000000 -0.000001 10.724109 0.263905 -0.000000 0.000000
9 0.000000 0.000007 10.724106 0.263905 -0.000000 0.000000
10 0.000000 -0.000002 10.724101 0.263905 -0.000000 0.000000
time 28
0 0.000000 0.000000 0.000000 0.000000 -0.000000 0.000000
1 0.000000 0.000000 0.000000 0.000000 -0.000000 0.000000
2 0.000000 0.000000 0.000000 0.000000 -0.000000 0.000000
3 0.000000 -0.000000 10.724106 0.279217 -0.000000 0.000000
4 0.000000 0.000001 10.724106 0.279217 -0.000000 0.000000
5 0.000000 -0.000001 10.724104 0.279217 -0.000000 0.000000
6 0.000000 0.000001 10.724107 0.279217 -0.000000 0.000000
7 0.000000 0.000001 10.724104 0.279217 -0.000000 0.000000
8 0.000000 0.000002 10.724107 0.279217 -0.000000 0.000000
9 0.000000 -0.000002 10.724105 0.279217 -0.000000 0.000000
10 0.000000 -0.000002 10.724107 0.279217 -0.000000 0.000000
time 29
0 0.000000 0.000000 0.000000 0.000000 -0.000000 0.000000
1 0.000000 0.000000 0.000000 0.000000 -0.000000 0.000000
2 0.000000 0.000000 0.000000 0.000000 -0.000000 0.000000
3 0.000000 0.000000 10.724106 0.294723 -0.000000 0.000000
4 0.000000 -0.000000 10.724106 0.294723 -0.000000 0.000000
5 0.000000 0.000000 10.724105 0.294723 -0.000000 0.000000
6 0.000000 -0.000001 10.724106 0.294723 -0.000000 0.000000
7 0.000000 -0.000002 10.724105 0.294723 -0.000000 0.000000
8 0.000000 0.000002 10.724105 0.294723 -0.000000 0.000000
9 0.000000 -0.000000 10.724105 0.294722 -0.000000 0.000000
10 0.000000 0.000003 10.724109 0.294723 -0.000000 0.000000
time 30
0 0.000000 0.000000 0.000000 0.000000 -0.000000 0.000000
1 0.000000 0.000000 0.000000 0.000000 -0.000000 0.000000
2 0.000000 0.000000 0.000000 0.000000 -0.000000 0.000000
3 0.000000 0.000000 10.724106 0.310196 -0.000000 0.000000
4 0.000000 -0.000000 10.724106 0.310196 -0.000000 0.000000
5 0.000000 0.000000 10.724104 0.310196 -0.000000 0.000000
6 0.000000 0.000000 10.724106 0.310196 -0.000000 0.000000
7 0.000000 0.000003 10.724105 0.310196 -0.000000 0.000000
8 0.000000 -0.000003 10.724107 0.310196 -0.000000 0.000000
9 0.000000 0.000007 10.724109 0.310196 -0.000000 0.000000
10 0.000000 -0.000002 10.724106 0.310196 -0.000000 0.000000
time 31
0 0.000000 0.000000 0.000000 0.000000 -0.000000 0.000000
1 0.000000 0.000000 0.000000 0.000000 -0.000000 0.000000
2 0.000000 0.000000 0.000000 0.000000 -0.000000 0.000000
3 0.000000 -0.000000 10.724106 0.325732 -0.000000 0.000000
4 0.000000 0.000001 10.724105 0.325732 -0.000000 0.000000
5 0.000000 -0.000002 10.724105 0.325732 -0.000000 0.000000
6 0.000000 -0.000002 10.724107 0.325732 -0.000000 0.000000
7 0.000000 0.000004 10.724105 0.325732 -0.000000 0.000000
8 0.000000 -0.000001 10.724108 0.325732 -0.000000 0.000000
9 0.000000 0.000005 10.724104 0.325732 -0.000000 0.000000
10 0.000000 -0.000006 10.724110 0.325732 -0.000000 0.000000
time 32
0 0.000000 0.000000 0.000000 0.000000 -0.000000 0.000000
1 0.000000 0.000000 0.000000 0.000000 -0.000000 0.000000
2 0.000000 0.000000 0.000000 0.000000 -0.000000 0.000000
3 0.000000 0.000000 10.724106 0.341251 -0.000000 0.000000
4 0.000000 -0.000001 10.724106 0.341251 -0.000000 0.000000
5 0.000000 0.000000 10.724104 0.341251 -0.000000 0.000000
6 0.000000 0.000001 10.724106 0.341251 -0.000000 0.000000
7 0.000000 -0.000000 10.724107 0.341251 -0.000000 0.000000
8 0.000000 -0.000007 10.724107 0.341251 -0.000000 0.000000
9 0.000000 0.000006 10.724103 0.341251 -0.000000 0.000000
10 0.000000 -0.000002 10.724106 0.341251 -0.000000 0.000000
time 33
0 0.000000 0.000000 0.000000 0.000000 -0.000000 0.000000
1 0.000000 0.000000 0.000000 0.000000 -0.000000 0.000000
2 0.000000 0.000000 0.000000 0.000000 -0.000000 0.000000
3 0.000000 -0.000000 10.724106 0.356579 -0.000000 0.000000
4 0.000000 0.000000 10.724106 0.356579 -0.000000 0.000000
5 0.000000 0.000001 10.724107 0.356579 -0.000000 0.000000
6 0.000000 -0.000001 10.724107 0.356579 -0.000000 0.000000
7 0.000000 0.000002 10.724103 0.356579 -0.000000 0.000000
8 0.000000 -0.000005 10.724107 0.356579 -0.000000 0.000000
9 0.000000 0.000002 10.724103 0.356579 -0.000000 0.000000
10 0.000000 0.000000 10.724105 0.356579 -0.000000 0.000000
time 34
0 0.000000 0.000000 0.000000 0.000000 -0.000000 0.000000
1 0.000000 0.000000 0.000000 0.000000 -0.000000 0.000000
2 0.000000 0.000000 0.000000 0.000000 -0.000000 0.000000
3 0.000000 -0.000000 10.724106 0.371878 -0.000000 0.000000
4 0.000000 0.000000 10.724106 0.371878 -0.000000 0.000000
5 0.000000 -0.000000 10.724104 0.371878 -0.000000 0.000000
6 0.000000 0.000001 10.724108 0.371878 -0.000000 0.000000
7 0.000000 -0.000001 10.724106 0.371878 -0.000000 0.000000
8 0.000000 -0.000002 10.724103 0.371878 -0.000000 0.000000
9 0.000000 -0.000002 10.724106 0.371878 -0.000000 0.000000
10 0.000000 0.000007 10.724103 0.371878 -0.000000 0.000000
time 35
0 0.000000 0.000000 0.000000 0.000000 -0.000000 0.000000
1 0.000000 0.000000 0.000000 0.000000 -0.000000 0.000000
2 0.000000 0.000000 0.000000 0.000000 -0.000000 0.000000
3 0.000000 0.000000 10.724106 0.387022 -0.000000 0.000000
4 0.000000 -0.000001 10.724106 0.387022 -0.000000 0.000000
5 0.000000 -0.000000 10.724106 0.387022 -0.000000 0.000000
6 0.000000 -0.000002 10.724108 0.387022 -0.000000 0.000000
7 0.000000 0.000003 10.724102 0.387022 -0.000000 0.000000
8 0.000000 0.000001 10.724109 0.387022 -0.000000 0.000000
9 0.000000 -0.000005 10.724109 0.387022 -0.000000 0.000000
10 0.000000 0.000002 10.724103 0.387022 -0.000000 0.000000
time 36
0 0.000000 0.000000 0.000000 0.000000 -0.000000 0.000000
1 0.000000 0.000000 0.000000 0.000000 -0.000000 0.000000
2 0.000000 0.000000 0.000000 0.000000 -0.000000 0.000000
3 0.000000 0.000000 10.724106 0.402096 -0.000000 0.000000
4 0.000000 0.000000 10.724105 0.402096 -0.000000 0.000000
5 0.000000 -0.000000 10.724106 0.402096 -0.000000 0.000000
6 0.000000 0.000001 10.724104 0.402096 -0.000000 0.000000
7 0.000000 0.000004 10.724108 0.402096 -0.000000 0.000000
8 0.000000 0.000001 10.724104 0.402096 -0.000000 0.000000
9 0.000000 0.000000 10.724104 0.402096 -0.000000 0.000000
10 0.000000 -0.000003 10.724116 0.402096 -0.000000 0.000000
time 37
0 0.000000 0.000000 0.000000 0.000000 -0.000000 0.000000
1 0.000000 0.000000 0.000000 0.000000 -0.000000 0.000000
2 0.000000 0.000000 0.000000 0.000000 -0.000000 0.000000
3 0.000000 0.000000 10.724106 0.416794 -0.000000 0.000000
4 0.000000 0.000001 10.724106 0.416794 -0.000000 0.000000
5 0.000000 -0.000001 10.724107 0.416794 -0.000000 0.000000
6 0.000000 0.000001 10.724108 0.416794 -0.000000 0.000000
7 0.000000 0.000000 10.724104 0.416794 -0.000000 0.000000
8 0.000000 -0.000001 10.724107 0.416794 -0.000000 0.000000
9 0.000000 -0.000000 10.724107 0.416794 -0.000000 0.000000
10 0.000000 0.000001 10.724101 0.416794 -0.000000 0.000000
time 38
0 0.000000 0.000000 0.000000 0.000000 -0.000000 0.000000
1 0.000000 0.000000 0.000000 0.000000 -0.000000 0.000000
2 0.000000 0.000000 0.000000 0.000000 -0.000000 0.000000
3 0.000000 -0.000000 10.724106 0.431433 -0.000000 0.000000
4 0.000000 -0.000000 10.724105 0.431433 -0.000000 0.000000
5 0.000000 0.000001 10.724105 0.431433 -0.000000 0.000000
6 0.000000 0.000000 10.724105 0.431433 -0.000000 0.000000
7 0.000000 0.000004 10.724109 0.431433 -0.000000 0.000000
8 0.000000 -0.000007 10.724110 0.431433 -0.000000 0.000000
9 0.000000 -0.000004 10.724110 0.431433 -0.000000 0.000000
10 0.000000 0.000008 10.724100 0.431433 -0.000000 0.000000
time 39
0 0.000000 0.000000 0.000000 0.000000 -0.000000 0.000000
1 0.000000 0.000000 0.000000 0.000000 -0.000000 0.000000
2 0.000000 0.000000 0.000000 0.000000 -0.000000 0.000000
3 0.000000 -0.000000 10.724105 0.445527 -0.000000 0.000000
4 0.000000 0.000001 10.724106 0.445527 -0.000000 0.000000
5 0.000000 -0.000000 10.724107 0.445527 -0.000000 0.000000
6 0.000000 -0.000001 10.724105 0.445527 -0.000000 0.000000
7 0.000000 0.000004 10.724103 0.445527 -0.000000 0.000000
8 0.000000 -0.000001 10.724107 0.445527 -0.000000 0.000000
9 0.000000 0.000002 10.724106 0.445527 -0.000000 0.000000
10 0.000000 -0.000001 10.724107 0.445527 -0.000000 0.000000
time 40
0 0.000000 0.000000 0.000000 0.000000 -0.000000 0.000000
1 0.000000 0.000000 0.000000 0.000000 -0.000000 0.000000
2 0.000000 0.000000 0.000000 0.000000 -0.000000 0.000000
3 0.000000 -0.000000 10.724106 0.459593 -0.000000 0.000000
4 0.000000 -0.000000 10.724106 0.459593 -0.000000 0.000000
5 0.000000 0.000000 10.724103 0.459594 -0.000000 0.000000
6 0.000000 0.000002 10.724107 0.459594 -0.000000 0.000000
7 0.000000 -0.000003 10.724107 0.459593 -0.000000 0.000000
8 0.000000 0.000004 10.724103 0.459594 -0.000000 0.000000
9 0.000000 -0.000001 10.724111 0.459593 -0.000000 0.000000
10 0.000000 0.000003 10.724107 0.459594 -0.000000 0.000000
time 41
0 0.000000 0.000000 0.000000 0.000000 -0.000000 0.000000
1 0.000000 0.000000 0.000000 0.000000 -0.000000 0.000000
2 0.000000 0.000000 0.000000 0.000000 -0.000000 0.000000
3 0.000000 -0.000000 10.724106 0.473051 -0.000000 0.000000
4 0.000000 -0.000001 10.724105 0.473051 -0.000000 0.000000
5 0.000000 0.000001 10.724106 0.473051 -0.000000 0.000000
6 0.000000 -0.000000 10.724107 0.473051 -0.000000 0.000000
7 0.000000 0.000000 10.724104 0.473051 -0.000000 0.000000
8 0.000000 -0.000000 10.724109 0.473051 -0.000000 0.000000
9 0.000000 0.000000 10.724108 0.473051 -0.000000 0.000000
10 0.000000 -0.000001 10.724096 0.473051 -0.000000 0.000000
time 42
0 0.000000 0.000000 0.000000 0.000000 -0.000000 0.000000
1 0.000000 0.000000 0.000000 0.000000 -0.000000 0.000000
2 0.000000 0.000000 0.000000 0.000000 -0.000000 0.000000
3 0.000000 -0.000000 10.724105 0.486454 -0.000000 0.000000
4 0.000000 0.000001 10.724107 0.486454 -0.000000 0.000000
5 0.000000 0.000000 10.724107 0.486454 -0.000000 0.000000
6 0.000000 -0.000000 10.724104 0.486454 -0.000000 0.000000
7 0.000000 0.000003 10.724108 0.486454 -0.000000 0.000000
8 0.000000 -0.000001 10.724107 0.486454 -0.000000 0.000000
9 0.000000 -0.000002 10.724107 0.486454 -0.000000 0.000000
10 0.000000 0.000008 10.724101 0.486454 -0.000000 0.000000
time 43
0 0.000000 0.000000 0.000000 0.000000 -0.000000 0.000000
1 0.000000 0.000000 0.000000 0.000000 -0.000000 0.000000
2 0.000000 0.000000 0.000000 0.000000 -0.000000 0.000000
3 0.000000 0.000000 10.724106 0.499092 -0.000000 0.000000
4 0.000000 -0.000001 10.724106 0.499092 -0.000000 0.000000
5 0.000000 0.000000 10.724106 0.499092 -0.000000 0.000000
6 0.000000 0.000002 10.724105 0.499092 -0.000000 0.000000
7 0.000000 -0.000001 10.724106 0.499092 -0.000000 0.000000
8 0.000000 0.000002 10.724107 0.499092 -0.000000 0.000000
9 0.000000 0.000001 10.724104 0.499092 -0.000000 0.000000
10 0.000000 0.000002 10.724111 0.499092 -0.000000 0.000000
time 44
0 0.000000 0.000000 0.000000 0.000000 -0.000000 0.000000
1 0.000000 0.000000 0.000000 0.000000 -0.000000 0.000000
2 0.000000 0.000000 0.000000 0.000000 -0.000000 0.000000
3 0.000000 0.000000 10.724106 0.511647 -0.000000 0.000000
4 0.000000 -0.000000 10.724106 0.511647 -0.000000 0.000000
5 0.000000 -0.000001 10.724109 0.511647 -0.000000 0.000000
6 0.000000 -0.000002 10.724102 0.511647 -0.000000 0.000000
7 0.000000 -0.000002 10.724110 0.511647 -0.000000 0.000000
8 0.000000 0.000002 10.724099 0.511647 -0.000000 0.000000
9 0.000000 0.000002 10.724106 0.511647 -0.000000 0.000000
10 0.000000 -0.000006 10.724111 0.511647 -0.000000 0.000000
time 45
0 0.000000 0.000000 0.000000 0.000000 -0.000000 0.000000
1 0.000000 0.000000 0.000000 0.000000 -0.000000 0.000000
2 0.000000 0.000000 0.000000 0.000000 -0.000000 0.000000
3 0.000000 0.000000 10.724105 0.523312 -0.000000 0.000000
4 0.000000 0.000001 10.724107 0.523312 -0.000000 0.000000
5 0.000000 0.000000 10.724105 0.523312 -0.000000 0.000000
6 0.000000 -0.000003 10.724106 0.523312 -0.000000 0.000000
7 0.000000 -0.000000 10.724106 0.523312 -0.000000 0.000000
8 0.000000 0.000002 10.724109 0.523312 -0.000000 0.000000
9 0.000000 -0.000001 10.724098 0.523312 -0.000000 0.000000
10 0.000000 0.000008 10.724104 0.523312 -0.000000 0.000000
time 46
0 0.000000 0.000000 0.000000 0.000000 -0.000000 0.000000
1 0.000000 0.000000 0.000000 0.000000 -0.000000 0.000000
2 0.000000 0.000000 0.000000 0.000000 -0.000000 0.000000
3 0.000000 -0.000000 10.724104 0.534906 -0.000000 0.000000
4 0.000000 0.000001 10.724108 0.534906 -0.000000 0.000000
5 0.000000 0.000000 10.724105 0.534906 -0.000000 0.000000
6 0.000000 0.000000 10.724106 0.534906 -0.000000 0.000000
7 0.000000 0.000000 10.724102 0.534906 -0.000000 0.000000
8 0.000000 0.000001 10.724104 0.534906 -0.000000 0.000000
9 0.000000 0.000000 10.724110 0.534906 -0.000000 0.000000
10 0.000000 -0.000003 10.724108 0.534906 -0.000000 0.000000
time 47
0 0.000000 0.000000 0.000000 0.000000 -0.000000 0.000000
1 0.000000 0.000000 0.000000 0.000000 -0.000000 0.000000
2 0.000000 0.000000 0.000000 0.000000 -0.000000 0.000000
3 0.000000 -0.000000 10.724105 0.545465 -0.000000 0.000000
4 0.000000 -0.000000 10.724106 0.545465 -0.000000 0.000000
5 0.000000 0.000001 10.724107 0.545465 -0.000000 0.000000
6 0.000000 0.000000 10.724105 0.545465 -0.000000 0.000000
7 0.000000 -0.000003 10.724107 0.545465 -0.000000 0.000000
8 0.000000 -0.000000 10.724104 0.545465 -0.000000 0.000000
9 0.000000 -0.000001 10.724106 0.545465 -0.000000 0.000000
10 0.000000 0.000004 10.724103 0.545465 -0.000000 0.000000
time 48
0 0.000000 0.000000 0.000000 0.000000 -0.000000 0.000000
1 0.000000 0.000000 0.000000 0.000000 -0.000000 0.000000
2 0.000000 0.000000 0.000000 0.000000 -0.000000 0.000000
3 0.000000 -0.000000 10.724106 0.555931 -0.000000 0.000000
4 0.000000 0.000000 10.724106 0.555931 -0.000000 0.000000
5 0.000000 0.000001 10.724105 0.555931 -0.000000 0.000000
6 0.000000 -0.000001 10.724106 0.555931 -0.000000 0.000000
7 0.000000 -0.000000 10.724104 0.555931 -0.000000 0.000000
8 0.000000 0.000003 10.724101 0.555931 -0.000000 0.000000
9 0.000000 0.000001 10.724115 0.555931 -0.000000 0.000000
10 0.000000 0.000003 10.724101 0.555931 -0.000000 0.000000
time 49
0 0.000000 0.000000 0.000000 0.000000 -0.000000 0.000000
1 0.000000 0.000000 0.000000 0.000000 -0.000000 0.000000
2 0.000000 0.000000 0.000000 0.000000 -0.000000 0.000000
3 0.000000 0.000000 10.724107 0.565327 -0.000000 0.000000
4 0.000000 -0.000001 10.724103 0.565327 -0.000000 0.000000
5 0.000000 0.000001 10.724108 0.565327 -0.000000 0.000000
6 0.000000 0.000001 10.724105 0.565327 -0.000000 0.000000
7 0.000000 -0.000005 10.724114 0.565327 -0.000000 0.000000
8 0.000000 0.000003 10.724099 0.565327 -0.000000 0.000000
9 0.000000 0.000002 10.724104 0.565327 -0.000000 0.000000
10 0.000000 -0.000005 10.724110 0.565327 -0.000000 0.000000
time 50
0 0.000000 0.000000 0.000000 0.000000 -0.000000 0.000000
1 0.000000 0.000000 0.000000 0.000000 -0.000000 0.000000
2 0.000000 0.000000 0.000000 0.000000 -0.000000 0.000000
3 0.000000 0.000000 10.724106 0.574636 -0.000000 0.000000
4 0.000000 -0.000000 10.724106 0.574636 -0.000000 0.000000
5 0.000000 -0.000001 10.724106 0.574636 -0.000000 0.000000
6 0.000000 0.000001 10.724105 0.574636 -0.000000 0.000000
7 0.000000 0.000002 10.724102 0.574636 -0.000000 0.000000
8 0.000000 -0.000002 10.724111 0.574636 -0.000000 0.000000
9 0.000000 0.000001 10.724106 0.574636 -0.000000 0.000000
10 0.000000 -0.000005 10.724111 0.574636 -0.000000 0.000000
time 51
0 0.000000 0.000000 0.000000 0.000000 -0.000000 0.000000
1 0.000000 0.000000 0.000000 0.000000 -0.000000 0.000000
2 0.000000 0.000000 0.000000 0.000000 -0.000000 0.000000
3 0.000000 -0.000000 10.724106 0.582557 -0.000000 0.000000
4 0.000000 -0.000000 10.724106 0.582557 -0.000000 0.000000
5 0.000000 0.000002 10.724104 0.582557 -0.000000 0.000000
6 0.000000 -0.000002 10.724107 0.582557 -0.000000 0.000000
7 0.000000 -0.000003 10.724107 0.582557 -0.000000 0.000000
8 0.000000 0.000002 10.724101 0.582557 -0.000000 0.000000
9 0.000000 -0.000003 10.724110 0.582557 -0.000000 0.000000
10 0.000000 -0.000000 10.724102 0.582557 -0.000000 0.000000
time 52
0 0.000000 0.000000 0.000000 0.000000 -0.000000 0.000000
1 0.000000 0.000000 0.000000 0.000000 -0.000000 0.000000
2 0.000000 0.000000 0.000000 0.000000 -0.000000 0.000000
3 0.000000 0.000000 10.724106 0.590444 -0.000000 0.000000
4 0.000000 -0.000002 10.724106 0.590444 -0.000000 0.000000
5 0.000000 0.000002 10.724105 0.590444 -0.000000 0.000000
6 0.000000 0.000001 10.724107 0.590444 -0.000000 0.000000
7 0.000000 -0.000000 10.724105 0.590444 -0.000000 0.000000
8 0.000000 0.000000 10.724108 0.590444 -0.000000 0.000000
9 0.000000 -0.000002 10.724107 0.590444 -0.000000 0.000000
10 0.000000 0.000004 10.724102 0.590444 -0.000000 0.000000
time 53
0 0.000000 0.000000 0.000000 0.000000 -0.000000 0.000000
1 0.000000 0.000000 0.000000 0.000000 -0.000000 0.000000
2 0.000000 0.000000 0.000000 0.000000 -0.000000 0.000000
3 0.000000 -0.000000 10.724106 0.596845 -0.000000 0.000000
4 0.000000 -0.000001 10.724105 0.596845 -0.000000 0.000000
5 0.000000 0.000001 10.724105 0.596845 -0.000000 0.000000
6 0.000000 0.000002 10.724106 0.596845 -0.000000 0.000000
7 0.000000 -0.000001 10.724106 0.596845 -0.000000 0.000000
8 0.000000 0.000002 10.724107 0.596845 -0.000000 0.000000
9 0.000000 0.000002 10.724105 0.596845 -0.000000 0.000000
10 0.000000 0.000002 10.724106 0.596845 -0.000000 0.000000
time 54
0 0.000000 0.000000 0.000000 0.000000 -0.000000 0.000000
1 0.000000 0.000000 0.000000 0.000000 -0.000000 0.000000
2 0.000000 0.000000 0.000000 0.000000 -0.000000 0.000000
3 0.000000 0.000000 10.724106 0.603208 -0.000000 0.000000
4 0.000000 -0.000001 10.724105 0.603208 -0.000000 0.000000
5 0.000000 0.000002 10.724107 0.603208 -0.000000 0.000000
6 0.000000 -0.000001 10.724105 0.603208 -0.000000 0.000000
7 0.000000 0.000003 10.724101 0.603208 -0.000000 0.000000
8 0.000000 0.000003 10.724111 0.603208 -0.000000 0.000000
9 0.000000 -0.000004 10.724108 0.603208 -0.000000 0.000000
10 0.000000 -0.000002 10.724107 0.603208 -0.000000 0.000000
time 55
0 0.000000 0.000000 0.000000 0.000000 -0.000000 0.000000
1 0.000000 0.000000 0.000000 0.000000 -0.000000 0.000000
2 0.000000 0.000000 0.000000 0.000000 -0.000000 0.000000
3 0.000000 -0.000000 10.724104 0.607965 -0.000000 0.000000
4 0.000000 0.000000 10.724107 0.607965 -0.000000 0.000000
5 0.000000 0.000000 10.724105 0.607965 -0.000000 0.000000
6 0.000000 0.000001 10.724106 0.607965 -0.000000 0.000000
7 0.000000 0.000001 10.724108 0.607965 -0.000000 0.000000
8 0.000000 0.000002 10.724105 0.607965 -0.000000 0.000000
9 0.000000 -0.000004 10.724106 0.607965 -0.000000 0.000000
10 0.000000 0.000001 10.724102 0.607965 -0.000000 0.000000
time 56
0 0.000000 0.000000 0.000000 0.000000 -0.000000 0.000000
1 0.000000 0.000000 0.000000 0.000000 -0.000000 0.000000
2 0.000000 0.000000 0.000000 0.000000 -0.000000 0.000000
3 0.000000 -0.000000 10.724106 0.612682 -0.000000 0.000000
4 0.000000 0.000001 10.724105 0.612682 -0.000000 0.000000
5 0.000000 -0.000001 10.724106 0.612682 -0.000000 0.000000
6 0.000000 0.000000 10.724104 0.612682 -0.000000 0.000000
7 0.000000 0.000002 10.724104 0.612681 -0.000000 0.000000
8 0.000000 0.000005 10.724111 0.612682 -0.000000 0.000000
9 0.000000 -0.000001 10.724105 0.612682 -0.000000 0.000000
10 0.000000 0.000002 10.724108 0.612682 -0.000000 0.000000
time 57
0 0.000000 0.000000 0.000000 0.000000 -0.000000 0.000000
1 0.000000 0.000000 0.000000 0.000000 -0.000000 0.000000
2 0.000000 0.000000 0.000000 0.000000 -0.000000 0.000000
3 0.000000 -0.000000 10.724104 0.615648 -0.000000 0.000000
4 0.000000 0.000002 10.724107 0.615648 -0.000000 0.000000
5 0.000000 0.000001 10.724108 0.615648 -0.000000 0.000000
6 0.000000 0.000001 10.724104 0.615648 -0.000000 0.000000
7 0.000000 -0.000002 10.724106 0.615648 -0.000000 0.000000
8 0.000000 0.000002 10.724106 0.615648 -0.000000 0.000000
9 0.000000 -0.000006 10.724111 0.615648 -0.000000 0.000000
10 0.000000 0.000001 10.724104 0.615648 -0.000000 0.000000
time 58
0 0.000000 0.000000 0.000000 0.000000 -0.000000 0.000000
1 0.000000 0.000000 0.000000 0.000000 -0.000000 0.000000
2 0.000000 0.000000 0.000000 0.000000 -0.000000 0.000000
3 0.000000 -0.000000 10.724104 0.618562 -0.000000 0.000000
4 0.000000 0.000002 10.724108 0.618562 -0.000000 0.000000
5 0.000000 0.000000 10.724106 0.618562 -0.000000 0.000000
6 0.000000 0.000000 10.724105 0.618562 -0.000000 0.000000
7 0.000000 -0.000000 10.724108 0.618562 -0.000000 0.000000
8 0.000000 -0.000003 10.724105 0.618562 -0.000000 0.000000
9 0.000000 -0.000002 10.724106 0.618562 -0.000000 0.000000
10 0.000000 0.000002 10.724100 0.618562 -0.000000 0.000000
time 59
0 0.000000 0.000000 0.000000 0.000000 -0.000000 0.000000
1 0.000000 0.000000 0.000000 0.000000 -0.000000 0.000000
2 0.000000 0.000000 0.000000 0.000000 -0.000000 0.000000
3 0.000000 0.000000 10.724106 0.619566 -0.000000 0.000000
4 0.000000 0.000000 10.724105 0.619566 -0.000000 0.000000
5 0.000000 -0.000000 10.724107 0.619566 -0.000000 0.000000
6 0.000000 0.000000 10.724106 0.619566 -0.000000 0.000000
7 0.000000 -0.000003 10.724110 0.619566 -0.000000 0.000000
8 0.000000 0.000002 10.724102 0.619566 -0.000000 0.000000
9 0.000000 0.000001 10.724105 0.619566 -0.000000 0.000000
10 0.000000 -0.000005 10.724110 0.619566 -0.000000 0.000000
time 60
0 0.000000 0.000000 0.000000 0.000000 -0.000000 0.000000
1 0.000000 0.000000 0.000000 0.000000 -0.000000 0.000000
2 0.000000 0.000000 0.000000 0.000000 -0.000000 0.000000
3 0.000000 0.000000 10.724106 0.620479 -0.000000 0.000000
4 0.000000 -0.000001 10.724106 0.620479 -0.000000 0.000000
5 0.000000 -0.000002 10.724103 0.620479 -0.000000 0.000000
6 0.000000 0.000001 10.724105 0.620479 -0.000000 0.000000
7 0.000000 0.000002 10.724106 0.620479 -0.000000 0.000000
8 0.000000 0.000002 10.724107 0.620479 -0.000000 0.000000
9 0.000000 -0.000004 10.724110 0.620479 -0.000000 0.000000
10 0.000000 0.000003 10.724094 0.620479 -0.000000 0.000000
time 61
0 0.000000 0.000000 0.000000 0.000000 -0.000000 0.000000
1 0.000000 0.000000 0.000000 0.000000 -0.000000 0.000000
2 0.000000 0.000000 0.000000 0.000000 -0.000000 0.000000
3 0.000000 -0.000000 10.724105 0.620531 -0.000000 0.000000
4 0.000000 0.000002 10.724108 0.620531 -0.000000 0.000000
5 0.000000 0.000001 10.724106 0.620531 -0.000000 0.000000
6 0.000000 -0.000003 10.724108 0.620531 -0.000000 0.000000
7 0.000000 -0.000002 10.724106 0.620531 -0.000000 0.000000
8 0.000000 0.000004 10.724105 0.620531 -0.000000 0.000000
9 0.000000 0.000002 10.724105 0.620531 -0.000000 0.000000
10 0.000000 -0.000005 10.724112 0.620531 -0.000000 0.000000
time 62
0 0.000000 0.000000 0.000000 0.000000 -0.000000 0.000000
1 0.000000 0.000000 0.000000 0.000000 -0.000000 0.000000
2 0.000000 0.000000 0.000000 0.000000 -0.000000 0.000000
3 0.000000 0.000000 10.724106 0.620479 -0.000000 0.000000
4 0.000000 -0.000001 10.724106 0.620479 -0.000000 0.000000
5 0.000000 -0.000002 10.724103 0.620479 -0.000000 0.000000
6 0.000000 0.000001 10.724105 0.620479 -0.000000 0.000000
7 0.000000 0.000002 10.724106 0.620479 -0.000000 0.000000
8 0.000000 0.000002 10.724107 0.620479 -0.000000 0.000000
9 0.000000 -0.000004 10.724110 0.620479 -0.000000 0.000000
10 0.000000 0.000003 10.724094 0.620479 -0.000000 0.000000
time 63
0 0.000000 0.000000 0.000000 0.000000 -0.000000 0.000000
1 0.000000 0.000000 0.000000 0.000000 -0.000000 0.000000
2 0.000000 0.000000 0.000000 0.000000 -0.000000 0.000000
3 0.000000 -0.000000 10.724105 0.620531 -0.000000 0.000000
4 0.000000 0.000002 10.724108 0.620531 -0.000000 0.000000
5 0.000000 0.000001 10.724106 0.620531 -0.000000 0.000000
6 0.000000 -0.000003 10.724108 0.620531 -0.000000 0.000000
7 0.000000 -0.000002 10.724106 0.620531 -0.000000 0.000000
8 0.000000 0.000004 10.724105 0.620531 -0.000000 0.000000
9 0.000000 0.000002 10.724105 0.620531 -0.000000 0.000000
10 0.000000 -0.000005 10.724112 0.620531 -0.000000 0.000000
time 64
0 0.000000 0.000000 0.000000 0.000000 -0.000000 0.000000
1 0.000000 0.000000 0.000000 0.000000 -0.000000 0.000000
2 0.000000 0.000000 0.000000 0.000000 -0.000000 0.000000
3 0.000000 0.000000 10.724106 0.620479 -0.000000 0.000000
4 0.000000 -0.000001 10.724106 0.620479 -0.000000 0.000000
5 0.000000 -0.000002 10.724103 0.620479 -0.000000 0.000000
6 0.000000 0.000001 10.724105 0.620479 -0.000000 0.000000
7 0.000000 0.000002 10.724106 0.620479 -0.000000 0.000000
8 0.000000 0.000002 10.724107 0.620479 -0.000000 0.000000
9 0.000000 -0.000004 10.724110 0.620479 -0.000000 0.000000
10 0.000000 0.000003 10.724094 0.620479 -0.000000 0.000000
time 65
0 0.000000 0.000000 0.000000 0.000000 -0.000000 0.000000
1 0.000000 0.000000 0.000000 0.000000 -0.000000 0.000000
2 0.000000 0.000000 0.000000 0.000000 -0.000000 0.000000
3 0.000000 -0.000000 10.724105 0.620531 -0.000000 0.000000
4 0.000000 0.000002 10.724108 0.620531 -0.000000 0.000000
5 0.000000 0.000001 10.724106 0.620531 -0.000000 0.000000
6 0.000000 -0.000003 10.724108 0.620531 -0.000000 0.000000
7 0.000000 -0.000002 10.724106 0.620531 -0.000000 0.000000
8 0.000000 0.000004 10.724105 0.620531 -0.000000 0.000000
9 0.000000 0.000002 10.724105 0.620531 -0.000000 0.000000
10 0.000000 -0.000005 10.724112 0.620531 -0.000000 0.000000
time 66
0 0.000000 0.000000 0.000000 0.000000 -0.000000 0.000000
1 0.000000 0.000000 0.000000 0.000000 -0.000000 0.000000
2 0.000000 0.000000 0.000000 0.000000 -0.000000 0.000000
3 0.000000 0.000000 10.724106 0.620479 -0.000000 0.000000
4 0.000000 -0.000001 10.724106 0.620479 -0.000000 0.000000
5 0.000000 -0.000002 10.724103 0.620479 -0.000000 0.000000
6 0.000000 0.000001 10.724105 0.620479 -0.000000 0.000000
7 0.000000 0.000002 10.724106 0.620479 -0.000000 0.000000
8 0.000000 0.000002 10.724107 0.620479 -0.000000 0.000000
9 0.000000 -0.000004 10.724110 0.620479 -0.000000 0.000000
10 0.000000 0.000003 10.724094 0.620479 -0.000000 0.000000
time 67
0 0.000000 0.000000 0.000000 0.000000 -0.000000 0.000000
1 0.000000 0.000000 0.000000 0.000000 -0.000000 0.000000
2 0.000000 0.000000 0.000000 0.000000 -0.000000 0.000000
3 0.000000 -0.000000 10.724105 0.620531 -0.000000 0.000000
4 0.000000 0.000002 10.724108 0.620531 -0.000000 0.000000
5 0.000000 0.000001 10.724106 0.620531 -0.000000 0.000000
6 0.000000 -0.000003 10.724108 0.620531 -0.000000 0.000000
7 0.000000 -0.000002 10.724106 0.620531 -0.000000 0.000000
8 0.000000 0.000004 10.724105 0.620531 -0.000000 0.000000
9 0.000000 0.000002 10.724105 0.620531 -0.000000 0.000000
10 0.000000 -0.000005 10.724112 0.620531 -0.000000 0.000000
time 68
0 0.000000 0.000000 0.000000 0.000000 -0.000000 0.000000
1 0.000000 0.000000 0.000000 0.000000 -0.000000 0.000000
2 0.000000 0.000000 0.000000 0.000000 -0.000000 0.000000
3 0.000000 0.000000 10.724106 0.620479 -0.000000 0.000000
4 0.000000 -0.000001 10.724106 0.620479 -0.000000 0.000000
5 0.000000 -0.000002 10.724103 0.620479 -0.000000 0.000000
6 0.000000 0.000001 10.724105 0.620479 -0.000000 0.000000
7 0.000000 0.000002 10.724106 0.620479 -0.000000 0.000000
8 0.000000 0.000002 10.724107 0.620479 -0.000000 0.000000
9 0.000000 -0.000004 10.724110 0.620479 -0.000000 0.000000
10 0.000000 0.000003 10.724094 0.620479 -0.000000 0.000000
time 69
0 0.000000 0.000000 0.000000 0.000000 -0.000000 0.000000
1 0.000000 0.000000 0.000000 0.000000 -0.000000 0.000000
2 0.000000 0.000000 0.000000 0.000000 -0.000000 0.000000
3 0.000000 -0.000000 10.724105 0.620531 -0.000000 0.000000
4 0.000000 0.000002 10.724108 0.620531 -0.000000 0.000000
5 0.000000 0.000001 10.724106 0.620531 -0.000000 0.000000
6 0.000000 -0.000003 10.724108 0.620531 -0.000000 0.000000
7 0.000000 -0.000002 10.724106 0.620531 -0.000000 0.000000
8 0.000000 0.000004 10.724105 0.620531 -0.000000 0.000000
9 0.000000 0.000002 10.724105 0.620531 -0.000000 0.000000
10 0.000000 -0.000005 10.724112 0.620531 -0.000000 0.000000
time 70
0 0.000000 0.000000 0.000000 0.000000 -0.000000 0.000000
1 0.000000 0.000000 0.000000 0.000000 -0.000000 0.000000
2 0.000000 0.000000 0.000000 0.000000 -0.000000 0.000000
3 0.000000 0.000000 10.724106 0.620479 -0.000000 0.000000
4 0.000000 -0.000001 10.724106 0.620479 -0.000000 0.000000
5 0.000000 -0.000002 10.724103 0.620479 -0.000000 0.000000
6 0.000000 0.000001 10.724105 0.620479 -0.000000 0.000000
7 0.000000 0.000002 10.724106 0.620479 -0.000000 0.000000
8 0.000000 0.000002 10.724107 0.620479 -0.000000 0.000000
9 0.000000 -0.000004 10.724110 0.620479 -0.000000 0.000000
10 0.000000 0.000003 10.724094 0.620479 -0.000000 0.000000
end
